<?xml version="1.0" encoding="UTF-8"?>
<!DOCTYPE svg PUBLIC "-//W3C//DTD SVG 1.1//EN" "http://www.w3.org/Graphics/SVG/1.1/DTD/svg11.dtd">
<svg xmlns="http://www.w3.org/2000/svg" version="1.1" width="200px" height="178px" style="shape-rendering:geometricPrecision; text-rendering:geometricPrecision; image-rendering:optimizeQuality; fill-rule:evenodd; clip-rule:evenodd" xmlns:xlink="http://www.w3.org/1999/xlink">
<g><path style="opacity:0.999" fill="#16468d" d="M 116.5,-0.5 C 122.833,-0.5 129.167,-0.5 135.5,-0.5C 146.084,2.0418 154.584,7.70847 161,16.5C 163.372,19.9099 165.205,23.5766 166.5,27.5C 165.957,27.56 165.624,27.8933 165.5,28.5C 166.636,34.6068 167.636,40.6068 168.5,46.5C 164.986,68.18 152.32,80.68 130.5,84C 102.383,83.72 86.7159,69.5533 83.5,41.5C 85.6991,20.3287 96.6991,6.32873 116.5,-0.5 Z"/></g>
<g><path style="opacity:1" fill="#7cdefa" d="M 117.5,7.5 C 147.125,5.29425 161.625,18.9609 161,48.5C 152.127,72.8522 135.294,81.0189 110.5,73C 90.9017,60.2049 86.4017,43.3715 97,22.5C 102.336,15.3133 109.17,10.3133 117.5,7.5 Z"/></g>
<g><path style="opacity:1" fill="#1a4188" d="M 143.5,21.5 C 152.503,22.8284 155.336,27.8284 152,36.5C 142.167,46 132.333,55.5 122.5,65C 120.833,65.6667 119.167,65.6667 117.5,65C 111.667,59.1667 105.833,53.3333 100,47.5C 98.2759,45.1026 98.2759,42.7693 100,40.5C 102.423,37.5681 105.257,35.2347 108.5,33.5C 112.928,35.7596 116.595,38.9262 119.5,43C 120.5,43.6667 121.5,43.6667 122.5,43C 129.73,35.9382 136.73,28.7715 143.5,21.5 Z"/></g>
<g><path style="opacity:0.75" fill="#4c68a1" d="M 166.5,27.5 C 168.859,33.6757 169.526,40.009 168.5,46.5C 167.636,40.6068 166.636,34.6068 165.5,28.5C 165.624,27.8933 165.957,27.56 166.5,27.5 Z"/></g>
<g><path style="opacity:1" fill="#cd2c34" d="M 145.5,29.5 C 146.525,29.8966 146.692,30.5632 146,31.5C 137.333,40.1667 128.667,48.8333 120,57.5C 115.318,52.9852 110.818,48.3185 106.5,43.5C 107.365,42.4173 108.365,42.2506 109.5,43C 112.5,46 115.5,49 118.5,52C 120.167,52.6667 121.833,52.6667 123.5,52C 131.036,44.6316 138.369,37.1316 145.5,29.5 Z"/></g>
<g><path style="opacity:1" fill="#1e478d" d="M 199.5,77.5 C 199.5,81.1667 199.5,84.8333 199.5,88.5C 189.245,101.934 178.745,115.267 168,128.5C 157.359,138.899 144.526,144.566 129.5,145.5C 112.827,143.833 96.1607,142.166 79.5,140.5C 75.1161,141.526 71.1161,143.359 67.5,146C 68.8228,146.816 69.4894,147.983 69.5,149.5C 71.6948,153.676 72.0282,158.009 70.5,162.5C 63.8333,167.5 57.1667,172.5 50.5,177.5C 47.5,177.5 44.5,177.5 41.5,177.5C 27.1432,157.8 13.1432,137.8 -0.5,117.5C -0.5,115.5 -0.5,113.5 -0.5,111.5C 0.60064,110.152 1.60064,108.652 2.5,107C 9.16667,102.333 15.8333,97.6667 22.5,93C 29.3441,91.4931 34.1774,93.9931 37,100.5C 44.5219,93.9828 52.3552,87.8161 60.5,82C 69.1442,77.6321 78.1442,76.6321 87.5,79C 95.6078,81.3599 103.608,84.0265 111.5,87C 120.833,87.6667 130.167,88.3333 139.5,89C 144.336,91.4921 147.669,95.3254 149.5,100.5C 159.62,91.8815 169.287,82.7148 178.5,73C 186.98,67.7742 193.98,69.2742 199.5,77.5 Z"/></g>
<g><path style="opacity:1" fill="#fbfcfd" d="M 184.5,77.5 C 190.82,77.3196 193.32,80.3196 192,86.5C 182.287,97.8781 172.953,109.545 164,121.5C 154.439,131.031 142.939,136.364 129.5,137.5C 113.514,136.116 97.5136,134.783 81.5,133.5C 74.634,133.046 68.634,135.046 63.5,139.5C 55.804,129.283 48.4707,118.783 41.5,108C 48.4763,101.365 55.8096,95.0312 63.5,89C 72.3534,84.7345 81.3534,84.4011 90.5,88C 96.8223,90.33 103.156,92.6634 109.5,95C 119.124,96.1578 128.791,96.8245 138.5,97C 141.167,100 141.167,103 138.5,106C 124.5,106.333 110.5,106.667 96.5,107C 93.1618,108.988 92.8285,111.321 95.5,114C 110.167,114.667 124.833,114.667 139.5,114C 146.113,111.695 152.113,108.362 157.5,104C 166.961,95.6093 175.961,86.776 184.5,77.5 Z"/></g>
<g><path style="opacity:1" fill="#ea3741" d="M 25.5,100.5 C 27.0174,100.511 28.1841,101.177 29,102.5C 40.6667,119.833 52.3333,137.167 64,154.5C 64.7805,155.944 64.6139,157.277 63.5,158.5C 58.3019,162.197 52.9686,165.697 47.5,169C 46.0563,169.781 44.723,169.614 43.5,168.5C 31.8621,151.03 20.0288,133.696 8,116.5C 7.21948,115.056 7.38615,113.723 8.5,112.5C 14.2081,108.443 19.8747,104.443 25.5,100.5 Z"/></g>
<g><path style="opacity:1" fill="#284287" d="M 46.5,146.5 C 53.1424,146.64 55.9758,149.973 55,156.5C 50.1058,162.068 45.7725,161.735 42,155.5C 41.3772,151.412 42.8772,148.412 46.5,146.5 Z"/></g>
<g><path style="opacity:1" fill="#d2d7e6" d="M 47.5,152.5 C 49.337,152.639 49.6704,153.306 48.5,154.5C 47.7025,154.043 47.3691,153.376 47.5,152.5 Z"/></g>
<g><path style="opacity:0.51" fill="#5d75aa" d="M 69.5,149.5 C 71.8284,151.166 72.8284,153.499 72.5,156.5C 72.639,158.883 71.9723,160.883 70.5,162.5C 72.0282,158.009 71.6948,153.676 69.5,149.5 Z"/></g>
</svg>
