<?xml version="1.0" encoding="UTF-8"?>
<svg version="1.1" xmlns="http://www.w3.org/2000/svg" width="200" height="200">
<path d="M0 0 C0.66268664 -0.00523668 1.32537328 -0.01047336 2.00814134 -0.01586872 C4.22735661 -0.03086295 6.4463412 -0.03157374 8.66560364 -0.03224182 C10.25748585 -0.03986389 11.84936438 -0.04829147 13.4412384 -0.0574646 C17.76585518 -0.07941618 22.09040124 -0.08820977 26.41506743 -0.09329104 C29.11877451 -0.09693487 31.82246308 -0.10317518 34.5261631 -0.11029243 C43.96409035 -0.13479252 53.40196262 -0.14783933 62.83992004 -0.15138245 C71.62751268 -0.15501465 80.41475538 -0.18488592 89.20224112 -0.22678703 C96.75315518 -0.26152522 104.30395351 -0.27693152 111.85494691 -0.27762848 C116.36184053 -0.27842032 120.86837799 -0.28711517 125.37518883 -0.31562614 C129.618062 -0.34186631 133.86028531 -0.34397917 138.10320282 -0.3279705 C139.6555581 -0.32616052 141.20795124 -0.332806 142.7602253 -0.34878922 C151.29705598 -0.43128988 158.44175654 -0.2413663 165.39143372 5.27415466 C167.76643372 7.62571716 167.76643372 7.62571716 169.39143372 9.89915466 C169.94830872 10.65454529 170.50518372 11.40993591 171.07893372 12.18821716 C173.51110943 16.05363927 173.52423828 19.25655076 173.54533386 23.72450256 C173.55190724 24.71112556 173.55190724 24.71112556 173.55861342 25.71768034 C173.57198914 27.92612391 173.57817755 30.13452758 173.58430481 32.34300232 C173.59220688 33.92488281 173.6004759 35.5067615 173.60908508 37.08863831 C173.63529781 42.28848043 173.65061416 47.48833057 173.66487122 52.68821716 C173.67023162 54.47941976 173.67560913 56.2706223 173.68100357 58.0618248 C173.70263315 65.51479965 173.72136837 72.96777235 173.73262596 80.42077065 C173.7488549 91.09427201 173.78200604 101.76740874 173.83902681 112.44077265 C173.87776814 119.94919194 173.89726374 127.45751388 173.90254653 134.96603048 C173.90619487 139.44836626 173.91816055 143.93031307 173.95064926 148.41254044 C173.98080309 152.63321689 173.98701593 156.85327053 173.9752655 161.07403183 C173.97504536 162.61833268 173.98330108 164.16266304 174.00091934 165.7068634 C174.10202479 175.08328407 173.64259824 182.68638779 166.94864464 189.80942726 C161.67018859 194.54057099 156.60879844 196.64733188 149.57359314 196.66183472 C148.91257563 196.66722025 148.25155813 196.67260579 147.57050979 196.67815453 C145.36886072 196.69239322 143.16781639 196.6853409 140.96614075 196.6782074 C139.38219217 196.68391319 137.7982477 196.69087826 136.21430969 196.69900513 C131.92081691 196.71693011 127.62752859 196.71576924 123.33400965 196.71006274 C119.74563374 196.70696948 116.15729702 196.71306498 112.56892669 196.71910149 C104.1007122 196.73314336 95.63259859 196.73158866 87.16438293 196.72019958 C78.43811296 196.70872253 69.71215048 196.72278779 60.98592103 196.74959606 C53.48507818 196.77177409 45.9843317 196.77838559 38.4834584 196.77251965 C34.00743807 196.76915343 29.53161476 196.77154265 25.0556221 196.78877068 C20.8447803 196.80427099 16.63439278 196.80025031 12.42356873 196.78146553 C10.88209493 196.77778795 9.34058725 196.78086386 7.79914474 196.79135132 C-1.44325902 196.84941075 -8.62901341 196.71584643 -15.85075378 190.27415466 C-16.38958191 189.61415466 -16.92841003 188.95415466 -17.48356628 188.27415466 C-18.03786316 187.61415466 -18.59216003 186.95415466 -19.16325378 186.27415466 C-22.27252426 181.9715966 -22.86277726 178.98079711 -22.88945007 173.62762451 C-22.89539232 172.96085432 -22.90133456 172.29408412 -22.90745687 171.60710877 C-22.92479227 169.37408413 -22.92784398 167.14127443 -22.93083191 164.90818787 C-22.94009117 163.30645288 -22.95014089 161.70472229 -22.96092224 160.10299683 C-22.98714977 155.75153017 -23.00005651 151.4001252 -23.00894356 147.04859185 C-23.01480939 144.32813391 -23.02301991 141.60769275 -23.0319519 138.88724327 C-23.05929873 130.37042645 -23.07863255 121.85364807 -23.08635569 113.33679038 C-23.09531157 103.51512009 -23.13038287 93.69400726 -23.18835688 83.87250644 C-23.23164207 76.27488424 -23.25176702 68.67741857 -23.25443792 61.07967442 C-23.25653071 56.54476335 -23.2682731 52.0103764 -23.30407715 47.47559547 C-23.33712844 43.20638171 -23.34130798 38.93808342 -23.32379913 34.668787 C-23.32226298 33.10674582 -23.33088377 31.54465453 -23.35071564 29.98273849 C-23.4581425 20.99058586 -23.03358233 14.10278678 -16.60856628 7.27415466 C-11.40165325 2.09926948 -7.34941771 0.02880273 0 0 Z " fill="#0E5899" transform="translate(24.608566284179688,1.7258453369140625)"/>
<path d="M0 0 C9.2701507 8.60799708 18.71890804 20.80310444 19.93359375 33.71875 C20.37389636 46.20733324 17.02463195 52.45251412 8.6484375 61.46875 C6.625 63.4375 6.625 63.4375 4.625 64.4375 C4.67720703 65.489375 4.67720703 65.489375 4.73046875 66.5625 C4.91394664 72.9929631 4.2803877 77.57351882 1.625 83.4375 C3.11 83.9325 3.11 83.9325 4.625 84.4375 C6.00366211 85.94042969 6.00366211 85.94042969 7.40234375 87.859375 C7.91603516 88.55546875 8.42972656 89.2515625 8.95898438 89.96875 C9.48814453 90.7009375 10.01730469 91.433125 10.5625 92.1875 C11.61260798 93.62028536 12.66337509 95.05258789 13.71484375 96.484375 C14.45710205 97.50821289 14.45710205 97.50821289 15.21435547 98.55273438 C16.43010711 100.17710313 17.74057759 101.72978508 19.06640625 103.265625 C19.58074219 103.98234375 20.09507812 104.6990625 20.625 105.4375 C19.37953595 109.17389216 17.99095047 109.62506513 14.625 111.4375 C13.57440299 110.08334934 12.52440546 108.72873028 11.47705078 107.37207031 C10.56813715 106.19760554 9.65497118 105.02642053 8.73779297 103.85839844 C6.52718995 101.02026443 4.49525917 98.22735992 2.6015625 95.16015625 C-0.77013012 89.47256486 -0.77013012 89.47256486 -6.43359375 86.60546875 C-9.6514721 86.32305678 -9.6514721 86.32305678 -12.73828125 86.46484375 C-15.375 86.4375 -15.375 86.4375 -18.375 84.4375 C-21.78044088 84.77735052 -23.96540951 86.39749554 -26.6875 88.375 C-34.77011836 93.82880559 -42.78722432 94.38444081 -52.375 93.4375 C-62.0792657 91.25224313 -68.49675134 82.5022066 -74.73266602 75.32128906 C-75.83476576 74.0571592 -76.95551578 72.80906838 -78.09350586 71.57714844 C-81.93619498 67.34302656 -83.30608226 64.64506633 -83.54296875 58.86328125 C-83.09778303 52.43397114 -80.02716811 48.57276054 -75.375 44.4375 C-74.80112549 43.92413086 -74.22725098 43.41076172 -73.63598633 42.88183594 C-68.99106412 38.76425144 -64.20886475 34.91824011 -59.25 31.1875 C-57.75202142 30.05154931 -56.25463419 28.91481841 -54.7578125 27.77734375 C-54.01950195 27.21644043 -53.28119141 26.65553711 -52.52050781 26.07763672 C-49.36476876 23.66522719 -46.24229893 21.21176944 -43.125 18.75 C-37.52401632 14.32884758 -31.88106737 9.9661039 -26.21484375 5.62890625 C-24.34895141 4.18906361 -22.50652155 2.71819252 -20.69140625 1.21484375 C-15.03091578 -3.12836563 -6.27564933 -2.90539321 0 0 Z " fill="#57BBD9" transform="translate(114.375,24.5625)"/>
<path d="M0 0 C9.2701507 8.60799708 18.71890804 20.80310444 19.93359375 33.71875 C20.37389636 46.20733324 17.02463195 52.45251412 8.6484375 61.46875 C6.625 63.4375 6.625 63.4375 4.625 64.4375 C4.67720703 65.489375 4.67720703 65.489375 4.73046875 66.5625 C4.91394664 72.9929631 4.2803877 77.57351882 1.625 83.4375 C3.11 83.9325 3.11 83.9325 4.625 84.4375 C6.00366211 85.94042969 6.00366211 85.94042969 7.40234375 87.859375 C7.91603516 88.55546875 8.42972656 89.2515625 8.95898438 89.96875 C9.48814453 90.7009375 10.01730469 91.433125 10.5625 92.1875 C11.61260798 93.62028536 12.66337509 95.05258789 13.71484375 96.484375 C14.45710205 97.50821289 14.45710205 97.50821289 15.21435547 98.55273438 C16.43010711 100.17710313 17.74057759 101.72978508 19.06640625 103.265625 C19.58074219 103.98234375 20.09507812 104.6990625 20.625 105.4375 C19.37953595 109.17389216 17.99095047 109.62506513 14.625 111.4375 C13.57440299 110.08334934 12.52440546 108.72873028 11.47705078 107.37207031 C10.56813715 106.19760554 9.65497118 105.02642053 8.73779297 103.85839844 C6.52718995 101.02026443 4.49525917 98.22735992 2.6015625 95.16015625 C-0.77013012 89.47256486 -0.77013012 89.47256486 -6.43359375 86.60546875 C-9.6514721 86.32305678 -9.6514721 86.32305678 -12.73828125 86.46484375 C-15.375 86.4375 -15.375 86.4375 -18.375 84.4375 C-21.78044088 84.77735052 -23.96540951 86.39749554 -26.6875 88.375 C-34.77011836 93.82880559 -42.78722432 94.38444081 -52.375 93.4375 C-62.0792657 91.25224313 -68.49675134 82.5022066 -74.73266602 75.32128906 C-75.83476576 74.0571592 -76.95551578 72.80906838 -78.09350586 71.57714844 C-81.93619498 67.34302656 -83.30608226 64.64506633 -83.54296875 58.86328125 C-83.09778303 52.43397114 -80.02716811 48.57276054 -75.375 44.4375 C-74.80112549 43.92413086 -74.22725098 43.41076172 -73.63598633 42.88183594 C-68.99106412 38.76425144 -64.20886475 34.91824011 -59.25 31.1875 C-57.75202142 30.05154931 -56.25463419 28.91481841 -54.7578125 27.77734375 C-54.01950195 27.21644043 -53.28119141 26.65553711 -52.52050781 26.07763672 C-49.36476876 23.66522719 -46.24229893 21.21176944 -43.125 18.75 C-37.52401632 14.32884758 -31.88106737 9.9661039 -26.21484375 5.62890625 C-24.34895141 4.18906361 -22.50652155 2.71819252 -20.69140625 1.21484375 C-15.03091578 -3.12836563 -6.27564933 -2.90539321 0 0 Z M-22.0625 10.4375 C-22.68511719 10.994375 -23.30773437 11.55125 -23.94921875 12.125 C-24.41972656 12.558125 -24.89023438 12.99125 -25.375 13.4375 C-25.1275 14.365625 -25.1275 14.365625 -24.875 15.3125 C-24.375 17.4375 -24.375 17.4375 -24.375 19.4375 C-25.035 18.4475 -25.695 17.4575 -26.375 16.4375 C-30.75359255 16.94272222 -33.19151224 19.61577222 -36.375 22.4375 C-35.74740135 25.36629371 -34.78877341 27.79845629 -33.375 30.4375 C-34.035 30.4375 -34.695 30.4375 -35.375 30.4375 C-35.643125 29.798125 -35.91125 29.15875 -36.1875 28.5 C-37.26167752 26.10618314 -37.26167752 26.10618314 -40.375 25.4375 C-42.72638854 26.56420556 -42.72638854 26.56420556 -45.0625 28.25 C-45.87074219 28.79269531 -46.67898437 29.33539063 -47.51171875 29.89453125 C-48.12660156 30.40371094 -48.74148437 30.91289063 -49.375 31.4375 C-49.375 32.0975 -49.375 32.7575 -49.375 33.4375 C-50.1484375 33.7778125 -50.1484375 33.7778125 -50.9375 34.125 C-54.27047005 35.91967618 -57.52203671 37.93715015 -60.375 40.4375 C-60.375 41.0975 -60.375 41.7575 -60.375 42.4375 C-60.91125 42.499375 -61.4475 42.56125 -62 42.625 C-65.48656962 43.81777382 -67.62440393 45.99947166 -70.375 48.4375 C-69.72994404 51.92080216 -68.39282732 54.53182866 -66.375 57.4375 C-65.715 57.4375 -65.055 57.4375 -64.375 57.4375 C-64.375 58.4275 -64.375 59.4175 -64.375 60.4375 C-64.9525 60.52 -65.53 60.6025 -66.125 60.6875 C-68.9909304 61.64281013 -70.3740764 63.22219173 -72.375 65.4375 C-70.71906255 69.02536447 -68.74662309 72.27533588 -66.375 75.4375 C-65.385 75.4375 -64.395 75.4375 -63.375 75.4375 C-63.148125 75.994375 -62.92125 76.55125 -62.6875 77.125 C-60.95411553 80.17905835 -59.09930394 82.2200433 -56.375 84.4375 C-53.550619 84.30613344 -51.88024739 83.69012369 -49.375 82.4375 C-49.375 81.7775 -49.375 81.1175 -49.375 80.4375 C-48.715 80.7675 -48.055 81.0975 -47.375 81.4375 C-47.375 82.0975 -47.375 82.7575 -47.375 83.4375 C-48.86 83.9325 -48.86 83.9325 -50.375 84.4375 C-50.045 85.4275 -49.715 86.4175 -49.375 87.4375 C-48.055 87.4375 -46.735 87.4375 -45.375 87.4375 C-45.375 86.7775 -45.375 86.1175 -45.375 85.4375 C-44.385 85.64375 -43.395 85.85 -42.375 86.0625 C-37.99662112 86.71612302 -34.58152588 85.69207789 -30.375 84.4375 C-30.375 83.4475 -30.375 82.4575 -30.375 81.4375 C-29.818125 81.355 -29.26125 81.2725 -28.6875 81.1875 C-25.68243682 80.21288491 -23.80245178 78.42925531 -21.375 76.4375 C-20.385 76.1075 -19.395 75.7775 -18.375 75.4375 C-18.375 74.7775 -18.375 74.1175 -18.375 73.4375 C-17.715 73.4375 -17.055 73.4375 -16.375 73.4375 C-16.375 72.7775 -16.375 72.1175 -16.375 71.4375 C-15.7975 71.169375 -15.22 70.90125 -14.625 70.625 C-12.30136635 69.3986378 -10.33675354 68.18906566 -8.375 66.4375 C-8.375 65.4475 -8.375 64.4575 -8.375 63.4375 C-7.323125 63.2828125 -7.323125 63.2828125 -6.25 63.125 C-2.90718852 62.32563204 -0.30614425 61.2361567 2.625 59.4375 C3.58544102 57.36059422 3.58544102 57.36059422 3.625 55.4375 C4.615 55.4375 5.605 55.4375 6.625 55.4375 C9.78099943 52.02139073 11.67285983 48.72971538 11.5 44.0625 C10.71338835 41.49642557 10.71338835 41.49642557 9.625 39.4375 C10.285 39.4375 10.945 39.4375 11.625 39.4375 C11.625 40.0975 11.625 40.7575 11.625 41.4375 C12.285 41.4375 12.945 41.4375 13.625 41.4375 C14.27397681 33.59209142 13.61143115 28.65273025 8.625 22.4375 C5.66324877 23.05027612 4.24441217 23.69122522 1.625 25.4375 C1.625 26.0975 1.625 26.7575 1.625 27.4375 C1.0475 27.540625 0.47 27.64375 -0.125 27.75 C-2.69549158 28.53542798 -4.31157284 29.74254197 -6.375 31.4375 C-6.705 31.1075 -7.035 30.7775 -7.375 30.4375 C-5.725 29.4475 -4.075 28.4575 -2.375 27.4375 C-2.98194155 24.28419446 -4.0166665 22.24861133 -5.9375 19.6875 C-6.39253906 19.07390625 -6.84757812 18.4603125 -7.31640625 17.828125 C-7.66574219 17.36921875 -8.01507813 16.9103125 -8.375 16.4375 C-12.37000618 17.8072164 -15.17509492 19.69472422 -18.375 22.4375 C-16.04166667 20.10416667 -13.70833333 17.77083333 -11.375 15.4375 C-11.70869215 12.10057847 -13.11597898 9.87029187 -15.375 7.4375 C-18.96412412 7.4375 -19.48357029 8.10186554 -22.0625 10.4375 Z " fill="#EFF3F6" transform="translate(114.375,24.5625)"/>
<path d="M0 0 C3.33279575 1.87469761 4.82985952 4.60848408 6 8.125 C6.3173834 11.8195411 6.24069615 15.42763972 6 19.125 C5.34 19.125 4.68 19.125 4 19.125 C4 18.465 4 17.805 4 17.125 C3.34 17.125 2.68 17.125 2 17.125 C2.350625 17.66125 2.70125 18.1975 3.0625 18.75 C4.34599549 22.00152191 3.93872853 23.77239812 3 27.125 C1.125 30.5 1.125 30.5 -1 33.125 C-1.99 33.125 -2.98 33.125 -4 33.125 C-4.04125 33.723125 -4.0825 34.32125 -4.125 34.9375 C-5 37.125 -5 37.125 -7.75 38.8125 C-10.55354068 39.94469912 -13.02140896 40.68697191 -16 41.125 C-16.0928125 41.99125 -16.0928125 41.99125 -16.1875 42.875 C-17.33384174 46.04948483 -19.25956842 47.25348575 -22 49.125 C-22.66 49.125 -23.32 49.125 -24 49.125 C-24 49.785 -24 50.445 -24 51.125 C-24.66 51.125 -25.32 51.125 -26 51.125 C-26 51.785 -26 52.445 -26 53.125 C-27.7578125 54.1015625 -29.515625 55.078125 -31.2734375 56.0546875 C-33.1612614 57.13397274 -33.1612614 57.13397274 -35 59.125 C-35.99 59.125 -36.98 59.125 -38 59.125 C-38 60.115 -38 61.105 -38 62.125 C-43.57432514 63.78751802 -47.3067505 64.31109365 -53 63.125 C-53 63.785 -53 64.445 -53 65.125 C-54.65 64.795 -56.3 64.465 -58 64.125 C-57.67 63.135 -57.34 62.145 -57 61.125 C-56.34 61.125 -55.68 61.125 -55 61.125 C-55 60.465 -55 59.805 -55 59.125 C-55.66 58.795 -56.32 58.465 -57 58.125 C-57.33 58.785 -57.66 59.445 -58 60.125 C-59.0055761 58.67050599 -60.00430435 57.21127557 -61 55.75 C-61.8353125 54.53183594 -61.8353125 54.53183594 -62.6875 53.2890625 C-64 51.125 -64 51.125 -64 49.125 C-64.66 49.125 -65.32 49.125 -66 49.125 C-66 48.135 -66 47.145 -66 46.125 C-64.906875 45.5475 -63.81375 44.97 -62.6875 44.375 C-59.70330868 42.68355553 -57.81055186 41.10708542 -56 38.125 C-56.515625 37.526875 -57.03125 36.92875 -57.5625 36.3125 C-58.036875 35.590625 -58.51125 34.86875 -59 34.125 C-58.67 33.135 -58.34 32.145 -58 31.125 C-56.62437146 32.41465176 -55.29233607 33.75189293 -54 35.125 C-54 35.785 -54 36.445 -54 37.125 C-52.6078125 36.1040625 -52.6078125 36.1040625 -51.1875 35.0625 C-50.135625 34.423125 -49.08375 33.78375 -48 33.125 C-46.515 33.62 -46.515 33.62 -45 34.125 C-46.28965176 35.50062854 -47.62689293 36.83266393 -49 38.125 C-49.66 38.125 -50.32 38.125 -51 38.125 C-50.0409375 39.7646875 -50.0409375 39.7646875 -49.0625 41.4375 C-47.73398675 43.7088291 -46.84186703 45.59939892 -46 48.125 C-44.70359622 47.53106618 -43.41301161 46.92442011 -42.125 46.3125 C-41.40570313 45.97605469 -40.68640625 45.63960937 -39.9453125 45.29296875 C-37.69457194 44.13032903 -37.69457194 44.13032903 -36 41.125 C-36.66 40.17625 -37.32 39.2275 -38 38.25 C-40 35.125 -40 35.125 -40 33.125 C-37.00675737 34.2225223 -36.15389099 34.80182892 -34.75 37.75 C-34.5025 38.53375 -34.255 39.3175 -34 40.125 C-33.44570312 39.691875 -32.89140625 39.25875 -32.3203125 38.8125 C-31.23363281 37.9771875 -31.23363281 37.9771875 -30.125 37.125 C-29.04605469 36.2896875 -29.04605469 36.2896875 -27.9453125 35.4375 C-26 34.125 -26 34.125 -24 34.125 C-24.66 32.145 -25.32 30.165 -26 28.125 C-25.13375 28.558125 -24.2675 28.99125 -23.375 29.4375 C-20.17435452 30.47378313 -20.17435452 30.47378313 -18.265625 29.14453125 C-16.77703077 27.87922615 -15.38146838 26.50646838 -14 25.125 C-14.57452746 21.19424356 -14.57452746 21.19424356 -17 18.125 C-18.32 18.125 -19.64 18.125 -21 18.125 C-21 17.465 -21 16.805 -21 16.125 C-21.78375 16.785 -22.5675 17.445 -23.375 18.125 C-26 20.125 -26 20.125 -28 20.125 C-28 21.775 -28 23.425 -28 25.125 C-28.66 25.125 -29.32 25.125 -30 25.125 C-30 24.465 -30 23.805 -30 23.125 C-30.99 23.455 -31.98 23.785 -33 24.125 C-34.71767682 20.14311282 -36.41037341 16.16020597 -38 12.125 C-37.29423828 12.79208984 -37.29423828 12.79208984 -36.57421875 13.47265625 C-35.95160156 14.03855469 -35.32898438 14.60445312 -34.6875 15.1875 C-33.76517578 16.04021484 -33.76517578 16.04021484 -32.82421875 16.91015625 C-32.22222656 17.31105469 -31.62023437 17.71195313 -31 18.125 C-27.88667752 17.45631686 -27.88667752 17.45631686 -26.8125 15.0625 C-26.544375 14.423125 -26.27625 13.78375 -26 13.125 C-25.505 14.115 -25.505 14.115 -25 15.125 C-24.01 14.465 -23.02 13.805 -22 13.125 C-22.495 10.65 -22.495 10.65 -23 8.125 C-22.40832031 8.24359375 -21.81664062 8.3621875 -21.20703125 8.484375 C-15.88378439 9.44542761 -15.88378439 9.44542761 -11.125 7.1875 C-10.073125 6.1665625 -10.073125 6.1665625 -9 5.125 C-8.01 5.125 -7.02 5.125 -6 5.125 C-6 4.465 -6 3.805 -6 3.125 C-4.02084601 1.21653008 -2.78350401 0.173969 0 0 Z " fill="#D7E3EC" transform="translate(122,46.875)"/>
<path d="M0 0 C1.78125 1.37109375 1.78125 1.37109375 3.5 3.4375 C4.51900391 4.65759766 4.51900391 4.65759766 5.55859375 5.90234375 C9.74074057 11.20865164 13.85896113 16.55988687 17.91796875 21.9609375 C20.29769396 25.11598081 22.80241265 28.12450734 25.375 31.125 C27.77132839 34.18730551 27.9912145 34.81550446 28.1875 38.9375 C27 42 27 42 24.9375 43.4375 C24.298125 43.623125 23.65875 43.80875 23 44 C23 44.66 23 45.32 23 46 C20.06306598 46.30997491 17.86366529 46.51471972 15 46 C12.7236091 43.90860506 11.31716934 42.30694327 9.625 39.8125 C8.68624871 38.52470256 7.74744543 37.23694301 6.80859375 35.94921875 C6.34308105 35.29099121 5.87756836 34.63276367 5.39794922 33.95458984 C3.64973979 31.51027188 1.81752563 29.1396853 -0.03027344 26.77026367 C-1.28534415 25.15984449 -2.52510901 23.53868241 -3.76171875 21.9140625 C-5.13870438 20.12133775 -6.53349023 18.34192224 -7.95703125 16.5859375 C-8.50746094 15.89757812 -9.05789062 15.20921875 -9.625 14.5 C-10.09164062 13.9328125 -10.55828125 13.365625 -11.0390625 12.78125 C-12.35881649 10.33487676 -12.38274156 8.73939742 -12 6 C-10.64453125 4.19921875 -10.64453125 4.19921875 -8.8125 2.6875 C-7.92498047 1.91986328 -7.92498047 1.91986328 -7.01953125 1.13671875 C-4.42708414 -0.32247295 -2.93334981 -0.45270596 0 0 Z " fill="#C72632" transform="translate(140,131)"/>
<path d="M0 0 C2.33333333 2.33333333 4.66666667 4.66666667 7 7 C7.48210937 6.6390625 7.96421875 6.278125 8.4609375 5.90625 C9.09257813 5.4421875 9.72421875 4.978125 10.375 4.5 C11.00148437 4.0359375 11.62796875 3.571875 12.2734375 3.09375 C14 2 14 2 16 2 C14.94441037 4.55100828 14.23544471 5.83590217 11.9375 7.4375 C9.45492059 9.43958017 9.33488864 10.90228009 9 14 C8.41734375 13.78472656 7.8346875 13.56945312 7.234375 13.34765625 C4.97811554 12.77110902 4.97811554 12.77110902 3.078125 13.99609375 C2.47484375 14.47175781 1.8715625 14.94742188 1.25 15.4375 C0.63640625 15.91058594 0.0228125 16.38367188 -0.609375 16.87109375 C-1.06828125 17.24363281 -1.5271875 17.61617187 -2 18 C-1.5317879 22.77576339 -0.75668002 26.04476345 2 30 C0.73742767 31.17560179 -0.53537084 32.34022865 -1.8125 33.5 C-2.87404297 34.47453125 -2.87404297 34.47453125 -3.95703125 35.46875 C-6 37 -6 37 -9 37 C-9 37.99 -9 38.98 -9 40 C-8.34 40 -7.68 40 -7 40 C-5.4921875 41.96875 -5.4921875 41.96875 -3.875 44.5 C-3.33617188 45.3353125 -2.79734375 46.170625 -2.2421875 47.03125 C-1.83226563 47.6809375 -1.42234375 48.330625 -1 49 C-1.66 50.32 -2.32 51.64 -3 53 C-7.67802059 52.72482232 -9.74638753 50.66806114 -12.86328125 47.47265625 C-14 46 -14 46 -14 44 C-14.99 44 -15.98 44 -17 44 C-18.60546875 42.25 -18.60546875 42.25 -20.1875 40 C-20.71730469 39.2575 -21.24710938 38.515 -21.79296875 37.75 C-22.39044922 36.88375 -22.39044922 36.88375 -23 36 C-21.63426179 33.1630159 -20.49096931 30.99277544 -18 29 C-17.01 29 -16.02 29 -15 29 C-15 28.01 -15 27.02 -15 26 C-15.66 26 -16.32 26 -17 26 C-20.93626992 21.05154639 -20.93626992 21.05154639 -21.125 17.9375 C-19.33017115 14.84640587 -16.87091751 13.06706061 -14 11 C-13.01 11 -12.02 11 -11 11 C-10.67 10.01 -10.34 9.02 -10 8 C-8.22265625 6.39453125 -8.22265625 6.39453125 -6.0625 4.8125 C-5.35222656 4.28269531 -4.64195313 3.75289062 -3.91015625 3.20703125 C-2 2 -2 2 0 2 C0 1.34 0 0.68 0 0 Z " fill="#D1DEE9" transform="translate(65,56)"/>
<path d="M0 0 C3.33279575 1.87469761 4.82985952 4.60848408 6 8.125 C6.3173834 11.8195411 6.24069615 15.42763972 6 19.125 C5.34 19.125 4.68 19.125 4 19.125 C4 18.465 4 17.805 4 17.125 C3.34 17.125 2.68 17.125 2 17.125 C2.350625 17.66125 2.70125 18.1975 3.0625 18.75 C4.34167759 21.99058323 3.95178673 23.79374645 3 27.125 C1.125 30 1.125 30 -1 32.125 C-1.99 32.125 -2.98 32.125 -4 32.125 C-5.04892238 30.48868108 -6.04906703 28.82014137 -7 27.125 C-7.66 26.795 -8.32 26.465 -9 26.125 C-9 25.135 -9 24.145 -9 23.125 C-9.66 23.125 -10.32 23.125 -11 23.125 C-13.1875 20.3125 -13.1875 20.3125 -15 17.125 C-14.505 15.64 -14.505 15.64 -14 14.125 C-13.34 14.125 -12.68 14.125 -12 14.125 C-12.2475 13.3825 -12.495 12.64 -12.75 11.875 C-13 9.125 -13 9.125 -11.25 6.8125 C-9 5.125 -9 5.125 -6 5.125 C-6 4.465 -6 3.805 -6 3.125 C-4.02084601 1.21653008 -2.78350401 0.173969 0 0 Z " fill="#DDE6EF" transform="translate(122,46.875)"/>
<path d="M0 0 C3.36487781 1.40872325 5.05709457 2.99655472 7.1875 5.9375 C7.95126953 6.97197266 7.95126953 6.97197266 8.73046875 8.02734375 C11.16930988 11.81692767 11.1331353 15.05244436 11.15390015 19.4503479 C11.1582824 20.10809657 11.16266465 20.76584523 11.1671797 21.44352567 C11.18055542 23.65196924 11.18674384 25.86037292 11.19287109 28.06884766 C11.20077317 29.65072815 11.20904219 31.23260684 11.21765137 32.81448364 C11.2438641 38.01432577 11.25918045 43.21417591 11.2734375 48.4140625 C11.2787979 50.2052651 11.28417541 51.99646764 11.28956985 53.78767014 C11.31119943 61.24064499 11.32993465 68.69361768 11.34119225 76.14661598 C11.35742118 86.82011734 11.39057233 97.49325408 11.44759309 108.16661799 C11.48633442 115.67503728 11.50583002 123.18335922 11.51111281 130.69187582 C11.51476116 135.1742116 11.52672683 139.65615841 11.55921555 144.13838577 C11.58936937 148.35906223 11.59558221 152.57911587 11.58383179 156.79987717 C11.58361165 158.34417802 11.59186737 159.88850838 11.60948563 161.43270874 C11.71999603 171.68133619 10.57951253 178.63542818 3.8125 186.5625 C2 188 2 188 0 188 C1 185 1 185 2.8125 183.3125 C9.95693757 175.75980886 9.5806105 167.51468437 9.53344727 157.74658203 C9.54051334 156.20498837 9.54926125 154.66340165 9.55955505 153.12182617 C9.58198388 148.95222545 9.57912437 144.78300549 9.57023358 140.61336756 C9.56510871 137.1244819 9.57242853 133.63566686 9.57970566 130.14678848 C9.5966846 121.91143504 9.59315979 113.67626697 9.57641602 105.44091797 C9.55950193 96.96337188 9.5753238 88.48634099 9.6076389 80.00885117 C9.63438784 72.71343859 9.64159636 65.41818585 9.63312382 58.12272918 C9.62820937 53.77294789 9.63032922 49.42347633 9.65091133 45.07373428 C9.66935178 40.98095015 9.66320883 36.88890307 9.63871193 32.79615784 C9.63373011 31.30067685 9.63712502 29.80513889 9.64986038 28.30970383 C9.71750702 19.67849722 9.25974073 12.22322443 4 5 C3.34 4.67 2.68 4.34 2 4 C2 3.34 2 2.68 2 2 C1.34 2 0.68 2 0 2 C0 1.34 0 0.68 0 0 Z " fill="#407BAC" transform="translate(187,6)"/>
<path d="M0 0 C3.73745963 1.71529726 5.7453688 3.49279591 8 7 C7.79865662 9.80762164 7.23543326 10.7829833 5.15234375 12.703125 C4.42144531 13.21359375 3.69054687 13.7240625 2.9375 14.25 C2.20402344 14.77078125 1.47054687 15.2915625 0.71484375 15.828125 C0.14894531 16.21484375 -0.41695313 16.6015625 -1 17 C-2.17249353 15.54634731 -3.33783816 14.08692581 -4.5 12.625 C-5.1496875 11.81289062 -5.799375 11.00078125 -6.46875 10.1640625 C-8 8 -8 8 -8 6 C-6.25 4.4921875 -6.25 4.4921875 -4 2.875 C-3.2575 2.33617188 -2.515 1.79734375 -1.75 1.2421875 C-1.1725 0.83226563 -0.595 0.42234375 0 0 Z " fill="#135794" transform="translate(67,88)"/>
<path d="M0 0 C3.76482184 1.61140234 5.04308345 5.42109916 7.0078125 8.859375 C4.3678125 11.169375 1.7278125 13.479375 -0.9921875 15.859375 C-5.37854494 13.66619628 -6.50475655 11.94586871 -8.9921875 7.859375 C-7.46447749 3.97065861 -4.59822041 -0.32458026 0 0 Z " fill="#125795" transform="translate(59.9921875,77.140625)"/>
<path d="M0 0 C1.5078125 1.64453125 1.5078125 1.64453125 3.125 3.8125 C3.66382812 4.52019531 4.20265625 5.22789063 4.7578125 5.95703125 C6 8 6 8 6 11 C4.609375 12.421875 4.609375 12.421875 2.75 13.75 C2.14671875 14.19859375 1.5434375 14.6471875 0.921875 15.109375 C-1.47352178 16.21943692 -2.56754322 15.88257281 -5 15 C-5 14.34 -5 13.68 -5 13 C-5.66 13 -6.32 13 -7 13 C-8.22539808 7.83582237 -8.22539808 7.83582237 -8 5 C-6.01516449 2.27812459 -3.51985661 0 0 0 Z " fill="#125794" transform="translate(106,41)"/>
<path d="M0 0 C2.6875 2.75 2.6875 2.75 5 6 C4.8255609 8.66789204 4.35340281 9.67795427 2.37109375 11.484375 C1.73300781 11.90203125 1.09492187 12.3196875 0.4375 12.75 C-0.20316406 13.17796875 -0.84382813 13.6059375 -1.50390625 14.046875 C-1.99761719 14.36140625 -2.49132812 14.6759375 -3 15 C-6.33717549 13.6190998 -8.22301036 12.1798762 -10 9 C-9.72458815 6.43968985 -9.32069696 5.30542567 -7.44140625 3.515625 C-6.82136719 3.09796875 -6.20132813 2.6803125 -5.5625 2.25 C-4.94503906 1.82203125 -4.32757813 1.3940625 -3.69140625 0.953125 C-2 0 -2 0 0 0 Z " fill="#145796" transform="translate(101,82)"/>
<path d="M0 0 C3.79379058 1.49041773 5.68343758 3.69062512 8 7 C8 7.66 8 8.32 8 9 C6.25 10.5078125 6.25 10.5078125 4 12.125 C3.2575 12.66382812 2.515 13.20265625 1.75 13.7578125 C0.88375 14.37269531 0.88375 14.37269531 0 15 C-3.73225531 13.29494862 -5.71652434 11.46750007 -8 8 C-6.88333826 4.65001479 -6.25305075 4.20659778 -3.4375 2.3125 C-2.79683594 1.87550781 -2.15617187 1.43851562 -1.49609375 0.98828125 C-1.00238281 0.66214844 -0.50867188 0.33601563 0 0 Z " fill="#155895" transform="translate(87,91)"/>
<path d="M0 0 C1.1875 3.5625 1.1875 3.5625 2 7 C2.99 7 3.98 7 5 7 C5 7.66 5 8.32 5 9 C3.3203125 10.5078125 3.3203125 10.5078125 1.125 12.125 C0.40570313 12.66382812 -0.31359375 13.20265625 -1.0546875 13.7578125 C-3 15 -3 15 -5 15 C-6.54296875 13.35546875 -6.54296875 13.35546875 -8.1875 11.1875 C-8.73792969 10.47980469 -9.28835937 9.77210937 -9.85546875 9.04296875 C-10.23316406 8.36878906 -10.61085937 7.69460937 -11 7 C-9.91072362 3.73217086 -9.31652071 3.18062667 -6.625 1.25 C-6.01914063 0.80140625 -5.41328125 0.3528125 -4.7890625 -0.109375 C-3 -1 -3 -1 0 0 Z " fill="#115794" transform="translate(73,69)"/>
<path d="M0 0 C0.33 0.66 0.66 1.32 1 2 C1.66 1.34 2.32 0.68 3 0 C4.9375 0 4.9375 0 7 1 C8.75 4.0625 8.75 4.0625 10 7 C8.73608512 8.00873016 7.46359117 9.00671822 6.1875 10 C5.12595703 10.8353125 5.12595703 10.8353125 4.04296875 11.6875 C2 13 2 13 -1 13 C-2.38671875 11.57421875 -2.38671875 11.57421875 -3.6875 9.6875 C-4.12449219 9.07261719 -4.56148438 8.45773438 -5.01171875 7.82421875 C-6 6 -6 6 -6 3 C-2.66666667 0 -2.66666667 0 0 0 Z " fill="#125897" transform="translate(77,82)"/>
<path d="M0 0 C2.78349856 1.0558098 4.00409146 2.00518252 5.875 4.375 C7 7 7 7 6.5 9.0625 C4.58747731 11.53284181 2.5779671 13.2394371 0 15 C-0.99 15 -1.98 15 -3 15 C-4.421875 13.57421875 -4.421875 13.57421875 -5.75 11.6875 C-6.19859375 11.07261719 -6.6471875 10.45773438 -7.109375 9.82421875 C-8 8 -8 8 -7 5 C-5.37109375 3.61328125 -5.37109375 3.61328125 -3.4375 2.3125 C-2.79683594 1.87550781 -2.15617187 1.43851562 -1.49609375 0.98828125 C-1.00238281 0.66214844 -0.50867188 0.33601563 0 0 Z " fill="#125794" transform="translate(110,73)"/>
<path d="M0 0 C3.36784631 1.49682058 4.81876919 2.19300953 6.375 5.5 C6.45597967 8.01036988 5.76149429 9.08697028 4.06640625 10.8984375 C2.5 12.3125 2.5 12.3125 -0.625 14.5 C-1.615 14.17 -2.605 13.84 -3.625 13.5 C-3.295 12.18 -2.965 10.86 -2.625 9.5 C-4.605 8.84 -6.585 8.18 -8.625 7.5 C-8.625 3.5 -8.625 3.5 -6.5625 1.125 C-3.625 -0.5 -3.625 -0.5 0 0 Z " fill="#145A97" transform="translate(102.625,63.5)"/>
<path d="M0 0 C1.45922693 0.11409593 2.91740598 0.24165544 4.375 0.375 C5.59316406 0.47941406 5.59316406 0.47941406 6.8359375 0.5859375 C9 1 9 1 11 3 C11 3.99 11 4.98 11 6 C7.04 7.98 7.04 7.98 3 10 C2.67 9.34 2.34 8.68 2 8 C1.21625 8.66 0.4325 9.32 -0.375 10 C-3 12 -3 12 -5 12 C-5 13.65 -5 15.3 -5 17 C-5.66 17 -6.32 17 -7 17 C-7 16.34 -7 15.68 -7 15 C-7.99 15.33 -8.98 15.66 -10 16 C-11.71767682 12.01811282 -13.41037341 8.03520597 -15 4 C-14.52949219 4.44472656 -14.05898437 4.88945313 -13.57421875 5.34765625 C-12.95160156 5.91355469 -12.32898438 6.47945312 -11.6875 7.0625 C-11.07261719 7.63097656 -10.45773438 8.19945312 -9.82421875 8.78515625 C-8.92123047 9.38650391 -8.92123047 9.38650391 -8 10 C-4.88667752 9.33131686 -4.88667752 9.33131686 -3.8125 6.9375 C-3.544375 6.298125 -3.27625 5.65875 -3 5 C-2.67 5.66 -2.34 6.32 -2 7 C-1.01 6.34 -0.02 5.68 1 5 C0.67 3.35 0.34 1.7 0 0 Z " fill="#80C3DA" transform="translate(99,55)"/>
<path d="M0 0 C1.421875 1.390625 1.421875 1.390625 2.75 3.25 C3.19859375 3.85328125 3.6471875 4.4565625 4.109375 5.078125 C5 7 5 7 4.83203125 9.0625 C3.41039407 12.37297907 0.82344192 13.83736364 -2 16 C-4.99324263 14.9024777 -5.84610901 14.32317108 -7.25 11.375 C-7.4975 10.59125 -7.745 9.8075 -8 9 C-7.01 8.67 -6.02 8.34 -5 8 C-5.226875 7.236875 -5.45375 6.47375 -5.6875 5.6875 C-6 3 -6 3 -4.75 1.1875 C-3 0 -3 0 0 0 Z " fill="#125794" transform="translate(115,53)"/>
<path d="M0 0 C2.90015357 1.27220874 4.19459104 3.20417287 5.87890625 5.82421875 C5.54890625 6.81421875 5.21890625 7.80421875 4.87890625 8.82421875 C0.24056732 11.03295157 -3.15061413 10.81831467 -8.12109375 9.82421875 C-8.12109375 10.48421875 -8.12109375 11.14421875 -8.12109375 11.82421875 C-9.77109375 11.49421875 -11.42109375 11.16421875 -13.12109375 10.82421875 C-12.79109375 9.83421875 -12.46109375 8.84421875 -12.12109375 7.82421875 C-11.46109375 7.82421875 -10.80109375 7.82421875 -10.12109375 7.82421875 C-10.12109375 7.16421875 -10.12109375 6.50421875 -10.12109375 5.82421875 C-8.51171875 4.28125 -8.51171875 4.28125 -6.37109375 2.63671875 C-5.675 2.08628906 -4.97890625 1.53585938 -4.26171875 0.96875 C-2.12109375 -0.17578125 -2.12109375 -0.17578125 0 0 Z " fill="#105593" transform="translate(77.12109375,100.17578125)"/>
<path d="M0 0 C2.1875 3 2.1875 3 4 6 C2.51014431 9.79235994 0.41341953 11.80565887 -3 14 C-5.125 14 -5.125 14 -7 13 C-8.97363333 11.02636667 -9.97133375 9.8886536 -10.0625 7.0625 C-7.95105111 2.9638051 -4.64822992 0 0 0 Z " fill="#145895" transform="translate(54,67)"/>
<path d="M0 0 C2.37009489 1.38936597 3.50047217 2.64560664 4.8125 5.0625 C4.8125 8.20877039 3.77226686 9.10385073 1.5625 11.375 C-1.1875 13.0625 -1.1875 13.0625 -3.8125 13 C-6.35117622 11.99789096 -7.67062145 11.33781783 -9.1875 9.0625 C-9.25 7.1875 -9.25 7.1875 -8.1875 5.0625 C-3.21691176 0.09191176 -3.21691176 0.09191176 0 0 Z " fill="#155895" transform="translate(98.1875,31.9375)"/>
<path d="M0 0 C3.16115776 1.36983503 3.9927092 1.9890638 6 5 C5.7994784 7.65305501 5.34667449 8.68408559 3.37109375 10.484375 C2.73300781 10.90203125 2.09492187 11.3196875 1.4375 11.75 C0.79683594 12.17796875 0.15617187 12.6059375 -0.50390625 13.046875 C-1.24447266 13.51867187 -1.24447266 13.51867187 -2 14 C-4.5 11.75 -4.5 11.75 -7 9 C-7 7.68 -7 6.36 -7 5 C-5.46875 3.515625 -5.46875 3.515625 -3.5 2.25 C-2.8503125 1.82203125 -2.200625 1.3940625 -1.53125 0.953125 C-1.0259375 0.63859375 -0.520625 0.3240625 0 0 Z " fill="#145995" transform="translate(74,50)"/>
<path d="M0 0 C2.56896781 1.03829116 3.48584527 2.39624946 4.875 4.7578125 C4.875 7.7578125 4.875 7.7578125 3.484375 9.1796875 C2.87078125 9.61796875 2.2571875 10.05625 1.625 10.5078125 C1.02171875 10.95640625 0.4184375 11.405 -0.203125 11.8671875 C-2.125 12.7578125 -2.125 12.7578125 -4.25 12.515625 C-6.81896781 11.47733384 -7.73584527 10.11937554 -9.125 7.7578125 C-9.125 4.7578125 -9.125 4.7578125 -7.734375 3.3359375 C-7.12078125 2.89765625 -6.5071875 2.459375 -5.875 2.0078125 C-5.27171875 1.55921875 -4.6684375 1.110625 -4.046875 0.6484375 C-2.125 -0.2421875 -2.125 -0.2421875 0 0 Z " fill="#155894" transform="translate(64.125,59.2421875)"/>
<path d="M0 0 C3.84141263 1.28047088 4.43695439 2.77744478 6.26171875 6.22265625 C7 8 7 8 7.0625 10.25 C5.5469432 12.74621121 3.55755872 13.68843142 1 15 C-1.31 12.36 -3.62 9.72 -6 7 C-4.14418503 3.28837006 -3.44285416 1.98224936 0 0 Z " fill="#195A96" transform="translate(113,34)"/>
<path d="M0 0 C1.14141939 3.99496787 1.23477602 5.53914336 -0.6875 9.3125 C-3 12 -3 12 -5.25 12.875 C-5.8275 12.91625 -6.405 12.9575 -7 13 C-11 7.375 -11 7.375 -11 4 C-9.609375 2.578125 -9.609375 2.578125 -7.75 1.25 C-7.14671875 0.80140625 -6.5434375 0.3528125 -5.921875 -0.109375 C-3.52647822 -1.21943692 -2.43245678 -0.88257281 0 0 Z " fill="#135795" transform="translate(125,66)"/>
<path d="M0 0 C2.33043558 3.49565336 2.58763244 4.8865729 2 9 C-0.1875 11.4375 -0.1875 11.4375 -3 13 C-5.6875 12.9375 -5.6875 12.9375 -8 12 C-10 9 -10 9 -10 7.125 C-8.03427838 2.94784155 -4.6341186 0 0 0 Z " fill="#145A97" transform="translate(88,41)"/>
<path d="M0 0 C4.20626034 1.50223584 5.73900021 4.28550034 8 8 C6.84826645 10.46800047 5.95216435 12.04783565 4 14 C2.1875 14 2.1875 14 0 13 C-1.8456968 11.10171925 -3.38401815 9.10975408 -5 7 C-3.70700306 4.11562221 -2.34058637 2.12780579 0 0 Z " fill="#0E5493" transform="translate(47,85)"/>
<path d="M0 0 C2 3 2 3 2.8125 5.125 C3.88778304 7.28277867 3.88778304 7.28277867 6.625 7.75 C7.40875 7.8325 8.1925 7.915 9 8 C9 8.66 9 9.32 9 10 C8.05125 10.20625 7.1025 10.4125 6.125 10.625 C2.70833333 11.70833333 2.70833333 11.70833333 1.625 15.125 C1.41875 16.07375 1.2125 17.0225 1 18 C-1 16 -1 16 -1.6875 14 C-3.72998325 10.88764457 -6.50461439 10.77675236 -10 10 C-10 9.34 -10 8.68 -10 8 C-9.44570312 7.84144531 -8.89140625 7.68289062 -8.3203125 7.51953125 C-3.52015703 6.09623213 -3.52015703 6.09623213 -0.5 2.3125 C-0.335 1.549375 -0.17 0.78625 0 0 Z " fill="#E2EAF0" transform="translate(152,72)"/>
<path d="M0 0 C4.20626034 1.50223584 5.73900021 4.28550034 8 8 C6.89184175 11.21365891 6.01470446 11.9914224 3 13.75 C0 15 0 15 -2 15 C-0.125 11.125 -0.125 11.125 1 10 C2.66617115 9.95936168 4.33388095 9.957279 6 10 C5.67 9.34 5.34 8.68 5 8 C0.83861737 7.91840426 -2.9472484 8.01751476 -7 9 C-6.82374165 6.62051228 -6.30280227 5.29774151 -4.59765625 3.62109375 C-3.09350908 2.37884514 -1.54870149 1.18623944 0 0 Z " fill="#1D649D" transform="translate(81,59)"/>
<path d="M0 0 C2.82054707 1.45576623 3.63807117 3.14125657 4.9375 6 C5.25 8.6875 5.25 8.6875 4.9375 11 C4.2775 11.66 3.6175 12.32 2.9375 13 C1.125 13 1.125 13 -1.0625 12 C-6.0625 6.77272727 -6.0625 6.77272727 -6.0625 3 C-4.04446162 0.98196162 -2.89879408 0 0 0 Z " fill="#185A96" transform="translate(122.0625,47)"/>
<path d="M0 0 C2.64565634 2.13359382 4.18146046 4.6775779 5.9375 7.5625 C5.2775 8.8825 4.6175 10.2025 3.9375 11.5625 C-0.74052059 11.28732232 -2.80888753 9.23056114 -5.92578125 6.03515625 C-7.0625 4.5625 -7.0625 4.5625 -7.0625 2.5625 C-2.96045918 -0.62797619 -2.96045918 -0.62797619 0 0 Z " fill="#175A96" transform="translate(58.0625,97.4375)"/>
<path d="M0 0 C0.33 1.32 0.66 2.64 1 4 C-0.28716647 5.00578589 -1.57988658 6.00446798 -2.875 7 C-3.59429687 7.556875 -4.31359375 8.11375 -5.0546875 8.6875 C-7 10 -7 10 -9 10 C-13 4.58823529 -13 4.58823529 -13 2 C-8.50343896 -0.24828052 -4.92127034 -0.16682272 0 0 Z " fill="#125794" transform="translate(97,77)"/>
<path d="M0 0 C0.185625 0.598125 0.37125 1.19625 0.5625 1.8125 C2.72273753 5.09981799 5.35107655 5.64854687 9 7 C7 9 7 9 5 9.3125 C4.01 9.6528125 4.01 9.6528125 3 10 C1.70339566 12.49034386 1.70339566 12.49034386 1 15 C0.34 15 -0.32 15 -1 15 C-1.309375 13.824375 -1.309375 13.824375 -1.625 12.625 C-2.80676612 9.69083714 -2.80676612 9.69083714 -6.125 8.6875 C-7.548125 8.3471875 -7.548125 8.3471875 -9 8 C-8.401875 7.731875 -7.80375 7.46375 -7.1875 7.1875 C-3.77915781 5.3372571 -2.14857639 3.22286458 0 0 Z " fill="#E2EAF0" transform="translate(83,126)"/>
<path d="M0 0 C0.66 0.33 1.32 0.66 2 1 C1.6875 4.375 1.6875 4.375 1 8 C0.01 8.66 -0.98 9.32 -2 10 C-8.76923077 6.55384615 -8.76923077 6.55384615 -9.9375 3.75 C-9.958125 3.1725 -9.97875 2.595 -10 2 C-7.23735711 1.40267181 -4.83967231 1 -2 1 C-1.34 0.67 -0.68 0.34 0 0 Z " fill="#B9293A" transform="translate(166,165)"/>
<path d="M0 0 C2.1875 2.8125 2.1875 2.8125 4 6 C2.76210371 9.71368887 1.14775123 10.77354181 -2 13 C-2.66 13 -3.32 13 -4 13 C-5.52846661 9.94306678 -5.23242445 7.37015453 -5 4 C-2.74358974 0 -2.74358974 0 0 0 Z " fill="#155895" transform="translate(43,76)"/>
<path d="M0 0 C3.81684226 1.55500981 6.19195732 4.03595495 9 7 C10.98 5.35 12.96 3.7 15 2 C15 2.99 15 3.98 15 5 C15.66 5.33 16.32 5.66 17 6 C12.25 9 12.25 9 10 9 C10 9.66 10 10.32 10 11 C8.36935236 12.05771739 6.69719127 13.05273046 5 14 C4.01 14.66 3.02 15.32 2 16 C1.01 15.67 0.02 15.34 -1 15 C3.75 11 3.75 11 6 11 C5.38125 9.9275 4.7625 8.855 4.125 7.75 C2.6676321 5.20219016 1.27075509 2.64740645 0 0 Z " fill="#D9E5ED" transform="translate(106,41)"/>
<path d="M0 0 C4.875 0.875 4.875 0.875 6 2 C6.07179964 3.51928038 6.08392007 5.04167482 6.0625 6.5625 C6.05347656 7.38878906 6.04445313 8.21507812 6.03515625 9.06640625 C6.02355469 9.70449219 6.01195313 10.34257813 6 11 C2 11 2 11 -0.25 9.125 C-2 7 -2 7 -2 5 C-0.68 5.33 0.64 5.66 2 6 C1.34 5.01 0.68 4.02 0 3 C0 2.01 0 1.02 0 0 Z " fill="#135B98" transform="translate(88,54)"/>
<path d="M0 0 C3.94727588 -0.17942163 6.5980513 -0.09350689 10 2 C8.84826645 4.46800047 7.95216435 6.04783565 6 8 C3.16660059 7.81720004 2.17164455 7.17756333 0.1875 5.125 C-0.204375 4.42375 -0.59625 3.7225 -1 3 C-0.67 2.01 -0.34 1.02 0 0 Z " fill="#1A5794" transform="translate(102,29)"/>
<path d="M0 0 C0.33 0.99 0.66 1.98 1 3 C1.66 3 2.32 3 3 3 C3.33 2.34 3.66 1.68 4 1 C5.03325986 2.42859407 6.05127634 3.86822383 7.0625 5.3125 C7.63097656 6.11300781 8.19945313 6.91351563 8.78515625 7.73828125 C9.38650391 8.85783203 9.38650391 8.85783203 10 10 C9.67 10.99 9.34 11.98 9 13 C6.21249856 11.60624928 6.10733713 9.83755139 5 7 C4.34 6.34 3.68 5.68 3 5 C-0.96017943 5.28286996 -3.84549333 7.77750666 -7 10 C-7 9.01 -7 8.02 -7 7 C-5.03814584 5.28859531 -3.03697617 3.62126675 -1 2 C-0.67 1.34 -0.34 0.68 0 0 Z " fill="#C8D8E4" transform="translate(75,96)"/>
<path d="M0 0 C2 2 2 2 2 5 C-1.96 6.98 -1.96 6.98 -6 9 C-8 6 -8 6 -7.5 3.375 C-6 1 -6 1 -3 0.0625 C-2.01 0.041875 -1.02 0.02125 0 0 Z " fill="#5AC0DA" transform="translate(108,56)"/>
<path d="M0 0 C4.75 0.875 4.75 0.875 7 2 C7.33 1.34 7.66 0.68 8 0 C8 3 8 3 6.609375 4.421875 C5.99578125 4.86015625 5.3821875 5.2984375 4.75 5.75 C3.84507813 6.42289063 3.84507813 6.42289063 2.921875 7.109375 C0.52647822 8.21943692 -0.56754322 7.88257281 -3 7 C-2.01 4.69 -1.02 2.38 0 0 Z " fill="#1F619C" transform="translate(104,49)"/>
<path d="M0 0 C0.66 0 1.32 0 2 0 C2.268125 0.639375 2.53625 1.27875 2.8125 1.9375 C3.88667752 4.33131686 3.88667752 4.33131686 7 5 C7 5.66 7 6.32 7 7 C6.360625 7.12375 5.72125 7.2475 5.0625 7.375 C4.381875 7.58125 3.70125 7.7875 3 8 C2.67 8.66 2.34 9.32 2 10 C1.34 10 0.68 10 0 10 C-0.33 9.34 -0.66 8.68 -1 8 C-3.02463255 7.34786708 -3.02463255 7.34786708 -5 7 C-5 6.34 -5 5.68 -5 5 C-3.35 4.67 -1.7 4.34 0 4 C0 2.68 0 1.36 0 0 Z " fill="#CBDAE6" transform="translate(138,97)"/>
<path d="M0 0 C0.33 1.98 0.66 3.96 1 6 C-2.3171411 7.4216319 -5.44219804 8.39009109 -9 9 C-8.82701599 6.66471585 -8.29774631 5.30822418 -6.66796875 3.62109375 C-2.42788462 0 -2.42788462 0 0 0 Z " fill="#0D5695" transform="translate(83,59)"/>
<path d="M0 0 C0.598125 0.763125 1.19625 1.52625 1.8125 2.3125 C3.46959332 4.3483575 5.10297674 6.1978279 7 8 C6.01 8 5.02 8 4 8 C3.938125 8.7425 3.87625 9.485 3.8125 10.25 C2.74850088 13.85122777 1.08629328 14.96756296 -2 17 C-2.66 17 -3.32 17 -4 17 C-2.60667426 13.63279613 -1.0210714 12.0140476 2 10 C1.515299 7.73806201 0.96312408 5.93034549 -0.125 3.875 C-0.41375 3.25625 -0.7025 2.6375 -1 2 C-0.67 1.34 -0.34 0.68 0 0 Z " fill="#CEDDE9" transform="translate(100,30)"/>
<path d="M0 0 C0.33 0 0.66 0 1 0 C1.7228695 7.69454418 0.50517256 12.69789252 -4 19 C-6.1875 21.5625 -6.1875 21.5625 -8 23 C-8.66 23 -9.32 23 -10 23 C-9 20 -9 20 -7.1875 18.3125 C-2.14197512 12.97865942 -0.51329071 7.18606999 0 0 Z " fill="#5286B3" transform="translate(197,171)"/>
<path d="M0 0 C4.6875 3.61328125 4.6875 3.61328125 6 5 C6 5.99 6 6.98 6 8 C6.99 8 7.98 8 9 8 C9.33 9.65 9.66 11.3 10 13 C9.34 13 8.68 13 8 13 C8 12.34 8 11.68 8 11 C7.01 11.33 6.02 11.66 5 12 C3.28232318 8.01811282 1.58962659 4.03520597 0 0 Z " fill="#E0EBF1" transform="translate(84,59)"/>
<path d="M0 0 C0.66 0.33 1.32 0.66 2 1 C0.68 2.32 -0.64 3.64 -2 5 C-0.47291037 8.43595166 1.59927045 11.11912454 4 14 C1.62051228 13.82374165 0.29774151 13.30280227 -1.37890625 11.59765625 C-2.62115486 10.09350908 -3.81376056 8.54870149 -5 7 C-3.70700306 4.11562221 -2.34058637 2.12780579 0 0 Z " fill="#1F5E98" transform="translate(47,85)"/>
<path d="M0 0 C0.33 0.99 0.66 1.98 1 3 C1.99 3.33 2.98 3.66 4 4 C-2 7 -2 7 -4.3125 8 C-6.35003098 8.95854206 -6.35003098 8.95854206 -7 12 C-7 11.01 -7 10.02 -7 9 C-7.66 8.67 -8.32 8.34 -9 8 C-8.071875 7.4225 -7.14375 6.845 -6.1875 6.25 C-3.40184158 4.28365288 -1.81261304 2.81962028 0 0 Z " fill="#BDD0E0" transform="translate(120,61)"/>
<path d="M0 0 C1.17571451 3.67410785 1.07366746 7.16929183 1 11 C0.34 11 -0.32 11 -1 11 C-1 10.34 -1 9.68 -1 9 C-1.66 9 -2.32 9 -3 9 C-3 8.01 -3 7.02 -3 6 C-3.66 5.67 -4.32 5.34 -5 5 C-4.360625 4.731875 -3.72125 4.46375 -3.0625 4.1875 C-0.66868314 3.11332248 -0.66868314 3.11332248 0 0 Z " fill="#87A9C8" transform="translate(127,55)"/>
<path d="M0 0 C-1.41345476 3.41584899 -3.03347106 4.86780732 -6 7 C-6.99 8.485 -6.99 8.485 -8 10 C-8 9.01 -8 8.02 -8 7 C-8.66 6.67 -9.32 6.34 -10 6 C-8.71283353 4.99421411 -7.42011342 3.99553202 -6.125 3 C-5.40570313 2.443125 -4.68640625 1.88625 -3.9453125 1.3125 C-2 0 -2 0 0 0 Z " fill="#C2D5E4" transform="translate(81,58)"/>
<path d="M0 0 C1.67542976 0.28604898 3.34385343 0.61781233 5 1 C5 2.32 5 3.64 5 5 C3.35 5 1.7 5 0 5 C-0.5625 3.0625 -0.5625 3.0625 -1 1 C-0.67 0.67 -0.34 0.34 0 0 Z " fill="#174E89" transform="translate(157,166)"/>
<path d="M0 0 C4 5 4 5 8 10 C7.34 10 6.68 10 6 10 C5.67 10.66 5.34 11.32 5 12 C4.01886757 10.70982586 3.04015801 9.41780894 2.0625 8.125 C1.24458984 7.04605469 1.24458984 7.04605469 0.41015625 5.9453125 C-1 4 -1 4 -2 2 C-1.34 2 -0.68 2 0 2 C0 1.34 0 0.68 0 0 Z " fill="#D0DEE9" transform="translate(90,88)"/>
<path d="M0 0 C1.37562854 1.28965176 2.70766393 2.62689293 4 4 C4 4.66 4 5.32 4 6 C4.99 6.33 5.98 6.66 7 7 C6.01 7 5.02 7 4 7 C3.67 8.32 3.34 9.64 3 11 C2.01 11 1.02 11 0 11 C0.66 9.68 1.32 8.36 2 7 C1.34 6.01 0.68 5.02 0 4 C0 2.68 0 1.36 0 0 Z " fill="#C5D6E4" transform="translate(114,73)"/>
<path d="M0 0 C0.33 0.99 0.66 1.98 1 3 C0.01 3 -0.98 3 -2 3 C-2 3.99 -2 4.98 -2 6 C-2.66 6 -3.32 6 -4 6 C-4 7.65 -4 9.3 -4 11 C-4.33 11 -4.66 11 -5 11 C-5.36637589 4.64948454 -5.36637589 4.64948454 -3.625 1.5625 C-2 0 -2 0 0 0 Z " fill="#4276A7" transform="translate(43,76)"/>
<path d="M0 0 C2.00720923 0.28674418 4.0085944 0.61866701 6 1 C6 1.66 6 2.32 6 3 C4.35 3.66 2.7 4.32 1 5 C0.34 3.68 -0.32 2.36 -1 1 C-0.67 0.67 -0.34 0.34 0 0 Z " fill="#0C5191" transform="translate(103,31)"/>
<path d="M0 0 C0.99 1.32 1.98 2.64 3 4 C2.67 4.66 2.34 5.32 2 6 C0.35 5.67 -1.3 5.34 -3 5 C-2.67 4.01 -2.34 3.02 -2 2 C-1.34 2 -0.68 2 0 2 C0 1.34 0 0.68 0 0 Z " fill="#80A2C2" transform="translate(67,106)"/>
<path d="M0 0 C0.33 0.66 0.66 1.32 1 2 C1.66 2.33 2.32 2.66 3 3 C-0.51187196 5.40814077 -2.72656908 6.36629408 -7 6 C-6.21625 5.38125 -5.4325 4.7625 -4.625 4.125 C-2.03162353 2.10141339 -2.03162353 2.10141339 0 0 Z " fill="#C1D2E1" transform="translate(55,94)"/>
<path d="M0 0 C0.99 0.33 1.98 0.66 3 1 C3.33 1.99 3.66 2.98 4 4 C1.6875 7.1875 1.6875 7.1875 -1 10 C-1.66 10 -2.32 10 -3 10 C-3 9.34 -3 8.68 -3 8 C-1 6.375 -1 6.375 1 5 C0.67 3.35 0.34 1.7 0 0 Z " fill="#DFECF2" transform="translate(99,55)"/>
<path d="M0 0 C1.2065625 0.0309375 1.2065625 0.0309375 2.4375 0.0625 C2.4375 0.7225 2.4375 1.3825 2.4375 2.0625 C-3.3125 5.0625 -3.3125 5.0625 -5.5625 5.0625 C-3.15007962 0.07683121 -3.15007962 0.07683121 0 0 Z " fill="#105D9C" transform="translate(84.5625,68.9375)"/>
<path d="M0 0 C0 3 0 3 -2.5 5.6875 C-3.325 6.450625 -4.15 7.21375 -5 8 C-5.66 7.34 -6.32 6.68 -7 6 C-4.69 4.02 -2.38 2.04 0 0 Z " fill="#2165A0" transform="translate(125,83)"/>
<path d="M0 0 C-2.3125 2.5 -2.3125 2.5 -5 5 C-5.99 5 -6.98 5 -8 5 C-8 4.01 -8 3.02 -8 2 C-3.71900826 -1.23966942 -3.71900826 -1.23966942 0 0 Z " fill="#E9EFF4" transform="translate(107,76)"/>
<path d="M0 0 C2.0625 0.4375 2.0625 0.4375 4 1 C4 1.66 4 2.32 4 3 C1.5 4.625 1.5 4.625 -1 6 C-1.042721 4.33388095 -1.04063832 2.66617115 -1 1 C-0.67 0.67 -0.34 0.34 0 0 Z " fill="#4CB5D5" transform="translate(104,49)"/>
<path d="M0 0 C2.52588702 2.36292656 3.88820837 3.66462511 5 7 C4.34 7.66 3.68 8.32 3 9 C0.70620251 5.55930376 0 4.27709699 0 0 Z " fill="#C8D8E5" transform="translate(61,98)"/>
<path d="M0 0 C2.62187494 1.04874998 3.79371361 1.64931313 5.25 4.125 C5.4975 4.74375 5.745 5.3625 6 6 C5.34 6.66 4.68 7.32 4 8 C0 2.25 0 2.25 0 0 Z " fill="#CDDDE9" transform="translate(82,80)"/>
<path d="M0 0 C2.15377564 2.62198774 3.40072174 4.64404172 4 8 C3.34 8 2.68 8 2 8 C0.2856382 6.04072937 -1.38405168 4.04119788 -3 2 C-2.01 2 -1.02 2 0 2 C0 1.34 0 0.68 0 0 Z " fill="#C5D7E4" transform="translate(77,47)"/>
<path d="M0 0 C0.33 0.99 0.66 1.98 1 3 C-1.3125 6.1875 -1.3125 6.1875 -4 9 C-4.66 9 -5.32 9 -6 9 C-4.87952194 5.63856582 -3.50292817 4.42471166 -1 2 C-0.67 1.34 -0.34 0.68 0 0 Z " fill="#3D78AA" transform="translate(193,185)"/>
<path d="M0 0 C3 1 3 1 4.25 2.875 C5 5 5 5 4 8 C3.34 7.67 2.68 7.34 2 7 C1.26924352 4.6859378 0.59861742 2.35171131 0 0 Z " fill="#D0DEE9" transform="translate(80,101)"/>
<path d="M0 0 C2.04119788 1.61594832 4.04072937 3.2856382 6 5 C6 5.66 6 6.32 6 7 C3.53199953 5.84826645 1.95216435 4.95216435 0 3 C0 2.01 0 1.02 0 0 Z " fill="#2667A0" transform="translate(42,102)"/>
<path d="M0 0 C0.99 0 1.98 0 3 0 C4.0625 1.8125 4.0625 1.8125 5 4 C4.67 4.99 4.34 5.98 4 7 C3.34 5.68 2.68 4.36 2 3 C1.34 3 0.68 3 0 3 C0 2.01 0 1.02 0 0 Z " fill="#ECF1F6" transform="translate(56,93)"/>
<path d="M0 0 C2 2 2 2 2 5 C0.02 5.99 0.02 5.99 -2 7 C-2.33 6.01 -2.66 5.02 -3 4 C-1.5625 1.8125 -1.5625 1.8125 0 0 Z " fill="#4EB5D2" transform="translate(108,56)"/>
<path d="M0 0 C0.33 0.99 0.66 1.98 1 3 C1.66 3.33 2.32 3.66 3 4 C1.02 4.99 -0.96 5.98 -3 7 C-3.66 6.34 -4.32 5.68 -5 5 C-3.35 3.35 -1.7 1.7 0 0 Z " fill="#BFD1E0" transform="translate(120,43)"/>
<path d="M0 0 C1.98 0 3.96 0 6 0 C6 0.99 6 1.98 6 3 C3.69 3 1.38 3 -1 3 C-0.67 2.01 -0.34 1.02 0 0 Z " fill="#2A629A" transform="translate(102,29)"/>
</svg>
