<?xml version="1.0" encoding="UTF-8"?>
<!DOCTYPE svg PUBLIC "-//W3C//DTD SVG 1.1//EN" "http://www.w3.org/Graphics/SVG/1.1/DTD/svg11.dtd">
<svg xmlns="http://www.w3.org/2000/svg" version="1.1" width="100px" height="96px" style="shape-rendering:geometricPrecision; text-rendering:geometricPrecision; image-rendering:optimizeQuality; fill-rule:evenodd; clip-rule:evenodd" xmlns:xlink="http://www.w3.org/1999/xlink">
<g><path style="opacity:0.342" fill="#dc8289" d="M 60.5,0.5 C 58.0122,2.38784 55.0122,3.0545 51.5,2.5C 51.5,2.16667 51.5,1.83333 51.5,1.5C 54.4824,1.03714 57.4824,0.703809 60.5,0.5 Z"/></g>
<g><path style="opacity:0.702" fill="#807794" d="M 47.5,-0.5 C 48.8333,-0.5 50.1667,-0.5 51.5,-0.5C 51.5,0.166667 51.5,0.833333 51.5,1.5C 51.5,1.83333 51.5,2.16667 51.5,2.5C 51.5,5.16667 51.5,7.83333 51.5,10.5C 55.1667,10.5 58.8333,10.5 62.5,10.5C 59.023,11.3227 55.3563,11.8227 51.5,12C 52.3805,12.7083 53.0472,13.5416 53.5,14.5C 52.5041,14.5858 51.6708,14.2524 51,13.5C 50.8275,9.1289 50.3275,4.79557 49.5,0.5C 49.1234,5.24305 48.1234,9.57639 46.5,13.5C 46.2256,8.73704 46.559,4.07037 47.5,-0.5 Z"/></g>
<g><path style="opacity:1" fill="#c93d43" d="M 60.5,0.5 C 61.7498,0.57735 62.5831,1.24402 63,2.5C 63.8007,5.36695 63.6341,8.03362 62.5,10.5C 58.8333,10.5 55.1667,10.5 51.5,10.5C 51.5,7.83333 51.5,5.16667 51.5,2.5C 55.0122,3.0545 58.0122,2.38784 60.5,0.5 Z"/></g>
<g><path style="opacity:0.067" fill="#7283a5" d="M 53.5,14.5 C 55.0269,14.427 56.0269,15.0937 56.5,16.5C 54.9731,16.573 53.9731,15.9063 53.5,14.5 Z"/></g>
<g><path style="opacity:0.184" fill="#818fad" d="M 56.5,16.5 C 58.0269,16.427 59.0269,17.0937 59.5,18.5C 57.9731,18.573 56.9731,17.9063 56.5,16.5 Z"/></g>
<g><path style="opacity:0.999" fill="#103674" d="M 53.5,14.5 C 53.9731,15.9063 54.9731,16.573 56.5,16.5C 56.9731,17.9063 57.9731,18.573 59.5,18.5C 62.5113,19.6693 65.178,21.336 67.5,23.5C 71.3328,27.9993 75.9995,31.3327 81.5,33.5C 82.4916,33.3284 83.1583,33.6618 83.5,34.5C 84.8333,36.5 84.8333,38.5 83.5,40.5C 82.1667,40.5 80.8333,40.5 79.5,40.5C 59.5,39.1667 39.5,39.1667 19.5,40.5C 14.8775,41.5918 13.0442,39.9252 14,35.5C 17.1278,32.5264 20.6278,30.1931 24.5,28.5C 26.7946,27.8645 28.4613,26.5311 29.5,24.5C 29.8333,24.5 30.1667,24.5 30.5,24.5C 34.0911,23.2172 37.0911,21.2172 39.5,18.5C 41.5496,16.4525 43.883,14.7859 46.5,13.5C 48.1234,9.57639 49.1234,5.24305 49.5,0.5C 50.3275,4.79557 50.8275,9.1289 51,13.5C 51.6708,14.2524 52.5041,14.5858 53.5,14.5 Z"/></g>
<g><path style="opacity:1" fill="#8dd3f8" d="M 72.5,33.5 C 57.1667,34.8333 41.8333,34.8333 26.5,33.5C 33.9032,28.0969 41.5699,23.0969 49.5,18.5C 57.327,23.2473 64.9937,28.2473 72.5,33.5 Z"/></g>
<g><path style="opacity:0.549" fill="#5b6d98" d="M 39.5,18.5 C 37.0911,21.2172 34.0911,23.2172 30.5,24.5C 32.9754,21.7589 35.9754,19.7589 39.5,18.5 Z"/></g>
<g><path style="opacity:0.647" fill="#6b7da2" d="M 29.5,24.5 C 28.4613,26.5311 26.7946,27.8645 24.5,28.5C 25.5794,26.457 27.246,25.1237 29.5,24.5 Z"/></g>
<g><path style="opacity:1" fill="#556795" d="M 67.5,23.5 C 72.5566,26.3548 77.2233,29.6882 81.5,33.5C 75.9995,31.3327 71.3328,27.9993 67.5,23.5 Z"/></g>
<g><path style="opacity:1" fill="#5f9ecd" d="M 26.5,33.5 C 41.8333,34.8333 57.1667,34.8333 72.5,33.5C 73.0431,33.56 73.3764,33.8933 73.5,34.5C 57.1769,35.6663 40.8435,35.8329 24.5,35C 25.0442,34.2828 25.7109,33.7828 26.5,33.5 Z"/></g>
<g><path style="opacity:0.51" fill="#7283a6" d="M 83.5,34.5 C 86.1667,36.5 86.1667,38.5 83.5,40.5C 84.8333,38.5 84.8333,36.5 83.5,34.5 Z"/></g>
<g><path style="opacity:1" fill="#8ad0f5" d="M 79.5,40.5 C 79.0742,41.5279 79.0742,42.8612 79.5,44.5C 78.5039,59.324 78.1706,74.324 78.5,89.5C 71.1667,89.5 63.8333,89.5 56.5,89.5C 56.666,84.1563 56.4994,78.8229 56,73.5C 54.6032,71.9297 53.1032,70.5964 51.5,69.5C 49.2106,68.9424 47.2106,67.7757 45.5,66C 48.0356,65.8138 50.369,65.3138 52.5,64.5C 53.8333,62.1667 53.8333,59.8333 52.5,57.5C 50.369,56.6862 48.0356,56.1862 45.5,56C 46.3366,54.9887 46.67,53.8221 46.5,52.5C 48.7354,52.7947 50.7354,52.4614 52.5,51.5C 53.8333,49.1667 53.8333,46.8333 52.5,44.5C 50.369,43.6862 48.0356,43.1862 45.5,43C 45.8333,42.6667 46.1667,42.3333 46.5,42C 37.8142,41.1681 29.1475,41.3348 20.5,42.5C 22.1661,43.9921 23.1661,45.8255 23.5,48C 22.5458,61.1404 22.2124,74.307 22.5,87.5C 28.1667,87.5 33.8333,87.5 39.5,87.5C 39.8502,83.3736 39.1835,80.2069 37.5,78C 37.8333,76.8333 38.1667,75.6667 38.5,74.5C 39.8425,75.9023 40.6758,75.5689 41,73.5C 41.4643,74.0944 41.631,74.7611 41.5,75.5C 41.5,80.1667 41.5,84.8333 41.5,89.5C 34.5,89.5 27.5,89.5 20.5,89.5C 20.8294,74.324 20.4961,59.324 19.5,44.5C 19.5,43.1667 19.5,41.8333 19.5,40.5C 39.5,39.1667 59.5,39.1667 79.5,40.5 Z"/></g>
<g><path style="opacity:1" fill="#87cdf3" d="M 52.5,44.5 C 50.1667,44.5 47.8333,44.5 45.5,44.5C 45.5,46.8333 45.5,49.1667 45.5,51.5C 47.8333,51.5 50.1667,51.5 52.5,51.5C 50.7354,52.4614 48.7354,52.7947 46.5,52.5C 46.67,53.8221 46.3366,54.9887 45.5,56C 48.0356,56.1862 50.369,56.6862 52.5,57.5C 50.1667,57.5 47.8333,57.5 45.5,57.5C 45.5,59.8333 45.5,62.1667 45.5,64.5C 47.8333,64.5 50.1667,64.5 52.5,64.5C 50.369,65.3138 48.0356,65.8138 45.5,66C 47.2106,67.7757 49.2106,68.9424 51.5,69.5C 46.5589,68.7925 43.5589,70.7925 42.5,75.5C 42.1667,75.5 41.8333,75.5 41.5,75.5C 41.631,74.7611 41.4643,74.0944 41,73.5C 40.6758,75.5689 39.8425,75.9023 38.5,74.5C 38.1667,75.6667 37.8333,76.8333 37.5,78C 39.1835,80.2069 39.8502,83.3736 39.5,87.5C 33.8333,87.5 28.1667,87.5 22.5,87.5C 22.2124,74.307 22.5458,61.1404 23.5,48C 23.1661,45.8255 22.1661,43.9921 20.5,42.5C 29.1475,41.3348 37.8142,41.1681 46.5,42C 46.1667,42.3333 45.8333,42.6667 45.5,43C 48.0356,43.1862 50.369,43.6862 52.5,44.5 Z"/></g>
<g><path style="opacity:1" fill="#103a78" d="M 28.5,44.5 C 31.1667,44.5 33.8333,44.5 36.5,44.5C 38.1797,51.6593 35.6797,53.9926 29,51.5C 28.5034,49.1902 28.3367,46.8568 28.5,44.5 Z"/></g>
<g><path style="opacity:1" fill="#063675" d="M 52.5,44.5 C 53.8333,46.8333 53.8333,49.1667 52.5,51.5C 50.1667,51.5 47.8333,51.5 45.5,51.5C 45.5,49.1667 45.5,46.8333 45.5,44.5C 47.8333,44.5 50.1667,44.5 52.5,44.5 Z"/></g>
<g><path style="opacity:1" fill="#123b79" d="M 62.5,44.5 C 65.1667,44.5 67.8333,44.5 70.5,44.5C 72.1797,51.6593 69.6797,53.9926 63,51.5C 62.5034,49.1902 62.3367,46.8568 62.5,44.5 Z"/></g>
<g><path style="opacity:0.949" fill="#29487d" d="M 80.5,44.5 C 86.1764,44.3339 91.8431,44.5006 97.5,45C 98.0659,45.9947 98.7326,46.828 99.5,47.5C 99.5,47.8333 99.5,48.1667 99.5,48.5C 98.8333,48.5 98.5,48.8333 98.5,49.5C 97.8333,49.5 97.1667,49.5 96.5,49.5C 97.5981,48.603 97.5981,47.7697 96.5,47C 90.7401,47.1223 85.4068,46.289 80.5,44.5 Z"/></g>
<g><path style="opacity:1" fill="#0f3875" d="M 19.5,44.5 C 19.5,46.5 19.5,48.5 19.5,50.5C 14.5,50.5 9.5,50.5 4.5,50.5C 3.16667,50.1667 1.83333,49.8333 0.5,49.5C 0.5,48.8333 0.166667,48.5 -0.5,48.5C -0.5,48.1667 -0.5,47.8333 -0.5,47.5C 0.267389,46.828 0.934056,45.9947 1.5,45C 7.49076,44.5005 13.4908,44.3338 19.5,44.5 Z"/></g>
<g><path style="opacity:1" fill="#013372" d="M 79.5,44.5 C 79.8333,44.5 80.1667,44.5 80.5,44.5C 85.4068,46.289 90.7401,47.1223 96.5,47C 97.5981,47.7697 97.5981,48.603 96.5,49.5C 96.1583,50.3382 95.4916,50.6716 94.5,50.5C 89.5,50.5 84.5,50.5 79.5,50.5C 79.5,48.5 79.5,46.5 79.5,44.5 Z"/></g>
<g><path style="opacity:1" fill="#079fd5" d="M 19.5,44.5 C 20.4961,59.324 20.8294,74.324 20.5,89.5C 15.5,89.5 10.5,89.5 5.5,89.5C 5.81366,76.4206 5.48033,63.4206 4.5,50.5C 9.5,50.5 14.5,50.5 19.5,50.5C 19.5,48.5 19.5,46.5 19.5,44.5 Z"/></g>
<g><path style="opacity:1" fill="#11a1d6" d="M 79.5,44.5 C 79.5,46.5 79.5,48.5 79.5,50.5C 84.5,50.5 89.5,50.5 94.5,50.5C 94.5,63.5 94.5,76.5 94.5,89.5C 89.1667,89.5 83.8333,89.5 78.5,89.5C 78.1706,74.324 78.5039,59.324 79.5,44.5 Z"/></g>
<g><path style="opacity:1" fill="#013171" d="M 9.5,57.5 C 11.8333,57.5 14.1667,57.5 16.5,57.5C 16.5,59.8333 16.5,62.1667 16.5,64.5C 10.5,65.8333 8.16667,63.5 9.5,57.5 Z"/></g>
<g><path style="opacity:1" fill="#02306f" d="M 82.5,57.5 C 84.8333,57.5 87.1667,57.5 89.5,57.5C 90.8333,63.5 88.5,65.8333 82.5,64.5C 82.5,62.1667 82.5,59.8333 82.5,57.5 Z"/></g>
<g><path style="opacity:0.094" fill="#97ccdf" d="M 96.5,49.5 C 97.1667,49.5 97.8333,49.5 98.5,49.5C 98.189,50.4778 97.5223,51.1445 96.5,51.5C 95.5009,64.1492 95.1676,76.8158 95.5,89.5C 95.1667,89.5 94.8333,89.5 94.5,89.5C 94.5,76.5 94.5,63.5 94.5,50.5C 95.4916,50.6716 96.1583,50.3382 96.5,49.5 Z"/></g>
<g><path style="opacity:1" fill="#092f6e" d="M 28.5,57.5 C 31.1667,57.5 33.8333,57.5 36.5,57.5C 36.5,59.8333 36.5,62.1667 36.5,64.5C 33.8333,64.5 31.1667,64.5 28.5,64.5C 28.5,62.1667 28.5,59.8333 28.5,57.5 Z"/></g>
<g><path style="opacity:1" fill="#07306f" d="M 52.5,57.5 C 53.8333,59.8333 53.8333,62.1667 52.5,64.5C 50.1667,64.5 47.8333,64.5 45.5,64.5C 45.5,62.1667 45.5,59.8333 45.5,57.5C 47.8333,57.5 50.1667,57.5 52.5,57.5 Z"/></g>
<g><path style="opacity:1" fill="#0a3070" d="M 62.5,57.5 C 65.1667,57.5 67.8333,57.5 70.5,57.5C 70.5,59.8333 70.5,62.1667 70.5,64.5C 67.8333,64.5 65.1667,64.5 62.5,64.5C 62.5,62.1667 62.5,59.8333 62.5,57.5 Z"/></g>
<g><path style="opacity:0.165" fill="#5bbedd" d="M 0.5,49.5 C 1.83333,49.8333 3.16667,50.1667 4.5,50.5C 5.48033,63.4206 5.81366,76.4206 5.5,89.5C 4.83333,89.5 4.16667,89.5 3.5,89.5C 3.83241,76.8158 3.49908,64.1492 2.5,51.5C 1.4777,51.1445 0.811029,50.4778 0.5,49.5 Z"/></g>
<g><path style="opacity:1" fill="#023373" d="M 51.5,69.5 C 53.1032,70.5964 54.6032,71.9297 56,73.5C 56.4994,78.8229 56.666,84.1563 56.5,89.5C 69.9939,90.3311 83.6605,90.8311 97.5,91C 98.3366,92.0113 98.67,93.1779 98.5,94.5C 65.8333,94.5 33.1667,94.5 0.5,94.5C 0.5,93.1667 0.5,91.8333 0.5,90.5C 14.5,90.5 28.5,90.5 42.5,90.5C 42.5,85.5 42.5,80.5 42.5,75.5C 43.5589,70.7925 46.5589,68.7925 51.5,69.5 Z"/></g>
<g><path style="opacity:1" fill="#023776" d="M 82.5,71.5 C 84.8333,71.5 87.1667,71.5 89.5,71.5C 89.5,73.8333 89.5,76.1667 89.5,78.5C 87.1667,78.5 84.8333,78.5 82.5,78.5C 82.5,76.1667 82.5,73.8333 82.5,71.5 Z"/></g>
<g><path style="opacity:1" fill="#073170" d="M 28.5,74.5 C 31.1667,74.5 33.8333,74.5 36.5,74.5C 36.5,76.8333 36.5,79.1667 36.5,81.5C 30.0729,83.2382 27.4062,80.9049 28.5,74.5 Z"/></g>
<g><path style="opacity:1" fill="#053171" d="M 62.5,74.5 C 65.1667,74.5 67.8333,74.5 70.5,74.5C 70.5,76.8333 70.5,79.1667 70.5,81.5C 67.8333,81.5 65.1667,81.5 62.5,81.5C 62.5,79.1667 62.5,76.8333 62.5,74.5 Z"/></g>
<g><path style="opacity:1" fill="#013171" d="M 9.5,71.5 C 11.8333,71.5 14.1667,71.5 16.5,71.5C 16.5,73.8333 16.5,76.1667 16.5,78.5C 10.5,79.8333 8.16667,77.5 9.5,71.5 Z"/></g>
<g><path style="opacity:1" fill="#4279ab" d="M 56.5,89.5 C 63.8333,89.5 71.1667,89.5 78.5,89.5C 83.8333,89.5 89.1667,89.5 94.5,89.5C 94.8333,89.5 95.1667,89.5 95.5,89.5C 96.8333,89.5 98.1667,89.5 99.5,89.5C 99.5,91.1667 99.5,92.8333 99.5,94.5C 99.1667,94.5 98.8333,94.5 98.5,94.5C 98.67,93.1779 98.3366,92.0113 97.5,91C 83.6605,90.8311 69.9939,90.3311 56.5,89.5 Z"/></g>
<g><path style="opacity:0.618" fill="#5177a1" d="M 41.5,75.5 C 41.8333,75.5 42.1667,75.5 42.5,75.5C 42.5,80.5 42.5,85.5 42.5,90.5C 28.5,90.5 14.5,90.5 0.5,90.5C 0.5,91.8333 0.5,93.1667 0.5,94.5C 33.1667,94.5 65.8333,94.5 98.5,94.5C 98.5,94.8333 98.5,95.1667 98.5,95.5C 65.5,95.5 32.5,95.5 -0.5,95.5C -0.5,93.5 -0.5,91.5 -0.5,89.5C 0.833333,89.5 2.16667,89.5 3.5,89.5C 4.16667,89.5 4.83333,89.5 5.5,89.5C 10.5,89.5 15.5,89.5 20.5,89.5C 27.5,89.5 34.5,89.5 41.5,89.5C 41.5,84.8333 41.5,80.1667 41.5,75.5 Z"/></g>
</svg>
