<?xml version="1.0" encoding="UTF-8"?>
<svg version="1.1" xmlns="http://www.w3.org/2000/svg" width="800" height="800">
<path d="M0 0 C11.82386804 7.66325981 18.00746634 18.09794928 21.375 31.6875 C24.69859344 52.84078741 20.32136401 77.70016999 9 96 C9.79656006 96.00808685 10.59312012 96.01617371 11.41381836 96.02450562 C18.94613242 96.10267089 26.47825885 96.19002647 34.01034546 96.28752708 C37.88202378 96.33732542 41.75367697 96.38365589 45.62548828 96.421875 C49.36684538 96.45893709 53.10798344 96.5053516 56.84915161 96.55806351 C58.27153657 96.57649695 59.69396828 96.59164502 61.11642456 96.60334396 C73.73338486 96.71076109 84.27565407 97.78425298 93.8984375 106.7734375 C99.07322909 112.55405835 100.87779553 118.28889812 101 126 C100.33463837 134.0705901 97.74134502 139.25865498 92 145 C92.48210937 145.556875 92.96421875 146.11375 93.4609375 146.6875 C99.22514984 153.6516096 101.34766468 158.46961682 100.875 167.5 C99.6090791 177.69769611 94.86525614 182.68090533 87 189 C87.66 189.825 88.32 190.65 89 191.5 C91.31949434 195.51990656 91.41680864 199.52695393 91.4375 204.0625 C91.44716797 204.74699219 91.45683594 205.43148437 91.46679688 206.13671875 C91.35261222 213.0952659 88.6166362 217.93659255 84 223 C83.34 223 82.68 223 82 223 C82 223.66 82 224.32 82 225 C78.535 226.98 78.535 226.98 75 229 C75.66 229.99 76.32 230.98 77 232 C78.02405647 239.26365637 77.15150141 245.89024321 73 252 C67.36527203 258.4495257 60.61700846 263.25776593 51.91318512 264.23407936 C45.70778319 264.62384916 39.49202978 264.56048227 33.27734375 264.53125 C31.24727696 264.53395021 29.21721145 264.53783702 27.18714905 264.54284668 C22.93982587 264.54872618 18.69284036 264.54023501 14.44555664 264.52148438 C9.04849254 264.49879827 3.65222886 264.51176224 -1.74480534 264.53577423 C-5.93777786 264.55036182 -10.13056681 264.54556574 -14.32354546 264.53526306 C-16.31070491 264.53262606 -18.29788197 264.53575671 -20.28502083 264.54518127 C-43.65122986 264.63163807 -63.80482676 258.98678487 -84.17919922 247.51513672 C-91.7483404 243.32575092 -99.26131633 240.43008585 -108 241 C-108.556875 242.5159375 -108.556875 242.5159375 -109.125 244.0625 C-111.79974979 250.22442358 -115.4439471 254.74748478 -121.74978638 257.36096191 C-126.480844 258.7045348 -131.40402849 258.42475674 -136.28515625 258.3984375 C-138.04683388 258.40274277 -138.04683388 258.40274277 -139.84410095 258.40713501 C-142.31933069 258.40917076 -144.79457669 258.40367529 -147.26977539 258.39111328 C-151.05326339 258.37503924 -154.83568547 258.39098707 -158.61914062 258.41015625 C-161.02864818 258.40817401 -163.43815508 258.40433075 -165.84765625 258.3984375 C-166.97591324 258.40451019 -168.10417023 258.41058289 -169.26661682 258.4168396 C-176.52076502 258.352006 -181.04917294 257.53908375 -186.6875 252.6875 C-191.40862773 247.20078398 -193.11736986 241.88697049 -193.14044189 234.78936768 C-193.14615204 233.73524689 -193.15186218 232.6811261 -193.15774536 231.59506226 C-193.15886322 230.44381866 -193.15998108 229.29257507 -193.16113281 228.10644531 C-193.16609772 226.88976166 -193.17106262 225.673078 -193.17617798 224.41952515 C-193.18827576 221.08460443 -193.19574207 217.74974633 -193.20018864 214.41481113 C-193.20312392 212.32889347 -193.20722962 210.24298126 -193.21169281 208.15706635 C-193.2253619 201.6238232 -193.23503105 195.09059255 -193.2388947 188.55733609 C-193.2433721 181.02862965 -193.26090756 173.50010507 -193.2898953 165.97145391 C-193.31155109 160.14369185 -193.32160108 154.31598081 -193.32293582 148.48817897 C-193.3239812 145.01147 -193.32983158 141.53493211 -193.34775543 138.05826569 C-193.36738223 134.17582913 -193.36293162 130.29361768 -193.35644531 126.41113281 C-193.3656601 125.26798615 -193.37487488 124.12483948 -193.3843689 122.947052 C-193.34771211 115.93447047 -192.91825965 109.76049154 -188.45703125 104.01171875 C-187.91433594 103.57472656 -187.37164062 103.13773437 -186.8125 102.6875 C-186.28269531 102.23761719 -185.75289062 101.78773438 -185.20703125 101.32421875 C-178.1792921 97.10757526 -171.86913737 96.54284963 -163.8515625 96.56640625 C-162.27270767 96.55854347 -162.27270767 96.55854347 -160.66195679 96.55052185 C-158.44489419 96.54412508 -156.22779754 96.54540809 -154.01074219 96.55395508 C-150.641955 96.56245721 -147.27486977 96.53368151 -143.90625 96.50195312 C-141.742188 96.50034053 -139.57812304 96.50091976 -137.4140625 96.50390625 C-136.4189566 96.49267227 -135.42385071 96.48143829 -134.39859009 96.46986389 C-127.51797585 96.53749172 -122.19632928 98.02516699 -116 101 C-116 101.66 -116 102.32 -116 103 C-115.401875 103.226875 -114.80375 103.45375 -114.1875 103.6875 C-111.33369843 105.39978094 -110.42797741 107.00804733 -109 110 C-108.3125 113.3125 -108.3125 113.3125 -108 116 C-95.05433915 114.53839313 -84.48479086 107.84611437 -74.5234375 99.91796875 C-72.38592687 98.29332832 -70.44224767 97.08353242 -68 96 C-68 95.34 -68 94.68 -68 94 C-66.49609375 92.5546875 -66.49609375 92.5546875 -64.4375 90.875 C-52.40782769 80.5578118 -43.76879388 67.22883965 -40.25 51.6875 C-39.68218958 43.31229636 -39.85837668 35.09304677 -40.75 26.75 C-41.40507269 18.13772075 -39.10311324 12.30411377 -33.75 5.625 C-24.88843544 -3.82860875 -11.51074333 -5.72513328 0 0 Z " fill="#FDFDFE" transform="translate(420,321)"/>
<path d="M0 0 C11.82386804 7.66325981 18.00746634 18.09794928 21.375 31.6875 C24.69859344 52.84078741 20.32136401 77.70016999 9 96 C9.79656006 96.00808685 10.59312012 96.01617371 11.41381836 96.02450562 C18.94613242 96.10267089 26.47825885 96.19002647 34.01034546 96.28752708 C37.88202378 96.33732542 41.75367697 96.38365589 45.62548828 96.421875 C49.36684538 96.45893709 53.10798344 96.5053516 56.84915161 96.55806351 C58.27153657 96.57649695 59.69396828 96.59164502 61.11642456 96.60334396 C73.73338486 96.71076109 84.27565407 97.78425298 93.8984375 106.7734375 C99.07322909 112.55405835 100.87779553 118.28889812 101 126 C100.33463837 134.0705901 97.74134502 139.25865498 92 145 C92.48210937 145.556875 92.96421875 146.11375 93.4609375 146.6875 C99.22514984 153.6516096 101.34766468 158.46961682 100.875 167.5 C99.6090791 177.69769611 94.86525614 182.68090533 87 189 C87.66 189.825 88.32 190.65 89 191.5 C91.31949434 195.51990656 91.41680864 199.52695393 91.4375 204.0625 C91.44716797 204.74699219 91.45683594 205.43148437 91.46679688 206.13671875 C91.35261222 213.0952659 88.6166362 217.93659255 84 223 C83.34 223 82.68 223 82 223 C82 223.66 82 224.32 82 225 C78.535 226.98 78.535 226.98 75 229 C75.66 229.99 76.32 230.98 77 232 C78.02405647 239.26365637 77.15150141 245.89024321 73 252 C67.36527203 258.4495257 60.61700846 263.25776593 51.91318512 264.23407936 C45.70778319 264.62384916 39.49202978 264.56048227 33.27734375 264.53125 C31.24727696 264.53395021 29.21721145 264.53783702 27.18714905 264.54284668 C22.93982587 264.54872618 18.69284036 264.54023501 14.44555664 264.52148438 C9.04849254 264.49879827 3.65222886 264.51176224 -1.74480534 264.53577423 C-5.93777786 264.55036182 -10.13056681 264.54556574 -14.32354546 264.53526306 C-16.31070491 264.53262606 -18.29788197 264.53575671 -20.28502083 264.54518127 C-43.65122986 264.63163807 -63.80482676 258.98678487 -84.17919922 247.51513672 C-91.7483404 243.32575092 -99.26131633 240.43008585 -108 241 C-108.556875 242.5159375 -108.556875 242.5159375 -109.125 244.0625 C-111.79974979 250.22442358 -115.4439471 254.74748478 -121.74978638 257.36096191 C-126.480844 258.7045348 -131.40402849 258.42475674 -136.28515625 258.3984375 C-138.04683388 258.40274277 -138.04683388 258.40274277 -139.84410095 258.40713501 C-142.31933069 258.40917076 -144.79457669 258.40367529 -147.26977539 258.39111328 C-151.05326339 258.37503924 -154.83568547 258.39098707 -158.61914062 258.41015625 C-161.02864818 258.40817401 -163.43815508 258.40433075 -165.84765625 258.3984375 C-166.97591324 258.40451019 -168.10417023 258.41058289 -169.26661682 258.4168396 C-176.52076502 258.352006 -181.04917294 257.53908375 -186.6875 252.6875 C-191.40862773 247.20078398 -193.11736986 241.88697049 -193.14044189 234.78936768 C-193.14615204 233.73524689 -193.15186218 232.6811261 -193.15774536 231.59506226 C-193.15886322 230.44381866 -193.15998108 229.29257507 -193.16113281 228.10644531 C-193.16609772 226.88976166 -193.17106262 225.673078 -193.17617798 224.41952515 C-193.18827576 221.08460443 -193.19574207 217.74974633 -193.20018864 214.41481113 C-193.20312392 212.32889347 -193.20722962 210.24298126 -193.21169281 208.15706635 C-193.2253619 201.6238232 -193.23503105 195.09059255 -193.2388947 188.55733609 C-193.2433721 181.02862965 -193.26090756 173.50010507 -193.2898953 165.97145391 C-193.31155109 160.14369185 -193.32160108 154.31598081 -193.32293582 148.48817897 C-193.3239812 145.01147 -193.32983158 141.53493211 -193.34775543 138.05826569 C-193.36738223 134.17582913 -193.36293162 130.29361768 -193.35644531 126.41113281 C-193.3656601 125.26798615 -193.37487488 124.12483948 -193.3843689 122.947052 C-193.34771211 115.93447047 -192.91825965 109.76049154 -188.45703125 104.01171875 C-187.91433594 103.57472656 -187.37164062 103.13773437 -186.8125 102.6875 C-186.28269531 102.23761719 -185.75289062 101.78773438 -185.20703125 101.32421875 C-178.1792921 97.10757526 -171.86913737 96.54284963 -163.8515625 96.56640625 C-162.27270767 96.55854347 -162.27270767 96.55854347 -160.66195679 96.55052185 C-158.44489419 96.54412508 -156.22779754 96.54540809 -154.01074219 96.55395508 C-150.641955 96.56245721 -147.27486977 96.53368151 -143.90625 96.50195312 C-141.742188 96.50034053 -139.57812304 96.50091976 -137.4140625 96.50390625 C-136.4189566 96.49267227 -135.42385071 96.48143829 -134.39859009 96.46986389 C-127.51797585 96.53749172 -122.19632928 98.02516699 -116 101 C-116 101.66 -116 102.32 -116 103 C-115.401875 103.226875 -114.80375 103.45375 -114.1875 103.6875 C-111.33369843 105.39978094 -110.42797741 107.00804733 -109 110 C-108.3125 113.3125 -108.3125 113.3125 -108 116 C-95.05433915 114.53839313 -84.48479086 107.84611437 -74.5234375 99.91796875 C-72.38592687 98.29332832 -70.44224767 97.08353242 -68 96 C-68 95.34 -68 94.68 -68 94 C-66.49609375 92.5546875 -66.49609375 92.5546875 -64.4375 90.875 C-52.40782769 80.5578118 -43.76879388 67.22883965 -40.25 51.6875 C-39.68218958 43.31229636 -39.85837668 35.09304677 -40.75 26.75 C-41.40507269 18.13772075 -39.10311324 12.30411377 -33.75 5.625 C-24.88843544 -3.82860875 -11.51074333 -5.72513328 0 0 Z M-24.6875 15.1640625 C-28.88805906 20.38389814 -27.46629431 28.03816139 -27.25 34.375 C-27.18351983 37.13264868 -27.12975609 39.89047479 -27.078125 42.6484375 C-27.04150757 44.57864746 -27.04150757 44.57864746 -27.00415039 46.54785156 C-26.99454383 54.53824956 -28.72379814 60.76943205 -32 68 C-32.2563623 68.59377441 -32.51272461 69.18754883 -32.77685547 69.79931641 C-37.55483111 80.77290882 -43.60612153 88.55849668 -52 97 C-53.07928953 98.27767098 -54.14587531 99.56644085 -55.1875 100.875 C-58.6078327 104.90822468 -62.72921371 107.91766168 -67 111 C-68.051875 111.75925781 -69.10375 112.51851563 -70.1875 113.30078125 C-82.10520755 121.78589734 -93.28118025 127.16014753 -108 129 C-108 161.34 -108 193.68 -108 227 C-104.04 227.66 -100.08 228.32 -96 229 C-89.46120593 230.46186696 -83.73194423 233.3761219 -77.75 236.3125 C-74.79792778 237.74943581 -71.84450572 239.18292055 -68.88476562 240.60400391 C-67.05033067 241.49172387 -65.22480174 242.39827639 -63.41210938 243.32958984 C-48.31667029 250.78317683 -32.94825991 251.61001983 -16.42578125 251.53125 C-14.40178746 251.53395224 -12.37779495 251.5378407 -10.35380554 251.54284668 C-6.14923522 251.54869251 -1.94500844 251.54032936 2.25952148 251.52148438 C7.64064979 251.49853495 13.02098687 251.51194944 18.40208721 251.53577423 C22.5654345 251.55022803 26.72859385 251.54563089 30.89194679 251.53526306 C32.87703357 251.532603 34.86213763 251.53584007 36.84720421 251.54518127 C39.61303493 251.55535792 42.37757583 251.53983769 45.14331055 251.51757812 C45.95529907 251.52567505 46.7672876 251.53377197 47.60388184 251.54211426 C52.83900746 251.46419145 55.86913065 250.49879359 60 247 C62.26228534 243.13222183 63.01226288 240.73577284 62.9375 236.25 C61.85613556 232.50126994 61.32902059 231.86403288 58 230 C54.6346365 229.49565168 54.6346365 229.49565168 51 229.4375 C43.49415837 229.17511359 43.49415837 229.17511359 40 227 C41.875 220.125 41.875 220.125 43 219 C44.6359487 218.86665602 46.27714941 218.79657531 47.91796875 218.75390625 C48.92537109 218.72103516 49.93277344 218.68816406 50.97070312 218.65429688 C53.09561027 218.59365897 55.22061396 218.53630478 57.34570312 218.48242188 C66.4467526 218.30086504 66.4467526 218.30086504 74.25 214.0625 C77.79167839 209.88837904 78.39225079 207.51479347 78.24609375 202.21875 C77.89831597 199.08322972 77.08735546 197.36566952 75 195 C69.47974655 191.34662838 64.14350755 191.52491124 57.75 191.4375 C55.76545706 191.40315214 53.78103377 191.36059791 51.796875 191.30859375 C50.92385742 191.29626709 50.05083984 191.28394043 49.15136719 191.27124023 C47 191 47 191 45 189 C44.8125 185.4375 44.8125 185.4375 45 182 C46.83669523 180.16330477 49.79867299 180.80402149 52.265625 180.75390625 C53.54824219 180.72103516 54.83085937 180.68816406 56.15234375 180.65429688 C58.19738026 180.60702837 60.24239494 180.56264671 62.28759766 180.52319336 C64.2596222 180.48325544 66.23138967 180.43120954 68.203125 180.37890625 C69.38551758 180.3538501 70.56791016 180.32879395 71.78613281 180.30297852 C78.22296397 179.69616391 81.56700643 177.12817856 85.60546875 172.2890625 C87.8946022 168.53154933 87.89044331 165.23365318 87 161 C85.38169191 157.27789139 83.46614772 155.10069559 80 153 C76.46751301 151.83912425 73.03468278 151.82882968 69.3359375 151.75390625 C68.04945313 151.72103516 66.76296875 151.68816406 65.4375 151.65429688 C63.39881136 151.60673076 61.36015995 151.56221597 59.32128906 151.52319336 C57.34681679 151.48358057 55.37260846 151.43143188 53.3984375 151.37890625 C52.21942871 151.3538501 51.04041992 151.32879395 49.82568359 151.30297852 C47 151 47 151 45 149 C44.59952556 146.67724823 44.2602896 144.34260643 44 142 C47.53287615 139.81917213 50.41727232 139.74774305 54.5234375 139.7265625 C56.42609375 139.695625 56.42609375 139.695625 58.3671875 139.6640625 C61.03141675 139.63406873 63.69490268 139.61982391 66.359375 139.609375 C67.63039063 139.58617187 68.90140625 139.56296875 70.2109375 139.5390625 C71.36899902 139.53084473 72.52706055 139.52262695 73.72021484 139.51416016 C78.66828899 138.73846832 81.71556369 136.14923248 85.375 132.875 C87.79157826 128.59951539 88.00715547 124.78958377 87 120 C84.45588909 115.64550296 80.77518744 111.77466895 75.80696106 110.38783264 C72.23118953 109.89377487 68.69129116 109.82307866 65.08862305 109.79467773 C64.30760727 109.78477814 63.52659149 109.77487854 62.72190857 109.76467896 C60.15187566 109.73320433 57.5818243 109.7083623 55.01171875 109.68359375 C53.22524039 109.66301209 51.43876678 109.6420153 49.65229797 109.62062073 C44.95880987 109.56552525 40.26527873 109.51606091 35.57171631 109.46777344 C30.77889187 109.41746678 25.98612965 109.36182862 21.19335938 109.30664062 C11.79562611 109.19921231 2.39783874 109.09773351 -7 109 C-7.20836738 107.58117353 -7.40224143 106.16021425 -7.59008789 104.73852539 C-7.69962296 103.94748917 -7.80915802 103.15645294 -7.92201233 102.34144592 C-8.05198241 98.43931738 -6.36327399 95.72660508 -4.4375 92.4375 C-3.68650298 91.04630069 -2.94185422 89.65165843 -2.203125 88.25390625 C-1.82994141 87.55023926 -1.45675781 86.84657227 -1.07226562 86.12158203 C7.33547791 69.48604211 11.59279521 50.50083049 8 32 C5.03967727 24.43194329 1.52381318 15.94922144 -6 12 C-13.44019564 8.96831886 -18.37333416 10.07969059 -24.6875 15.1640625 Z " fill="#145B9D" transform="translate(420,321)"/>
<path d="M0 0 C0.92783798 -0.00960754 1.85567596 -0.01921509 2.81163025 -0.02911377 C4.31168358 -0.03548859 4.31168358 -0.03548859 5.84204102 -0.04199219 C7.38626488 -0.0505423 7.38626488 -0.0505423 8.96168518 -0.05926514 C11.13964816 -0.0687127 13.31762541 -0.07524815 15.49560547 -0.07910156 C18.82943554 -0.08881906 22.16265222 -0.11984996 25.49633789 -0.15136719 C27.6115686 -0.15789614 29.72680372 -0.16314703 31.84204102 -0.16699219 C32.84005234 -0.17933899 33.83806366 -0.19168579 34.86631775 -0.20440674 C35.79730789 -0.20140564 36.72829803 -0.19840454 37.6875 -0.1953125 C38.50451889 -0.19895813 39.32153778 -0.20260376 40.16331482 -0.20635986 C43.01345249 0.2601626 44.35104746 1.14996771 46.40844727 3.16113281 C47.42759807 6.1958973 47.53610858 9.01682592 47.54216003 12.20213318 C47.54642502 13.21851868 47.55069 14.23490417 47.55508423 15.28208923 C47.55463104 16.39129227 47.55417786 17.5004953 47.55371094 18.64331055 C47.55706955 19.81604523 47.56042816 20.98877991 47.56388855 22.197052 C47.57175882 25.40986841 47.57506599 28.62264602 47.57570434 31.83547091 C47.57641563 33.84364075 47.57855144 35.85180384 47.58120155 37.859972 C47.59044925 44.86832229 47.59453709 51.87665358 47.59375 58.88500977 C47.5931491 65.41404818 47.60370484 71.94300401 47.61949366 78.47202152 C47.63257457 84.08147966 47.63793368 89.69091083 47.63729459 95.3003841 C47.6370398 98.64896459 47.63988066 101.99747164 47.65047264 105.34603691 C47.66024977 109.08061492 47.65740346 112.81497923 47.65136719 116.54956055 C47.65698669 117.65673935 47.6626062 118.76391815 47.668396 119.90464783 C47.66420151 120.92385315 47.66000702 121.94305847 47.65568542 122.9931488 C47.65623019 123.87564017 47.65677496 124.75813154 47.65733624 125.66736507 C47.37243916 128.52191965 46.70937892 130.60599263 45.40844727 133.16113281 C42.20052868 135.2997452 41.32730475 135.41859706 37.63330078 135.45166016 C36.6654213 135.46441986 35.69754181 135.47717957 34.70033264 135.49032593 C33.13465797 135.4936644 33.13465797 135.4936644 31.53735352 135.49707031 C29.92654152 135.50705551 29.92654152 135.50705551 28.28318787 135.51724243 C26.01107498 135.52737184 23.73893232 135.53205936 21.46679688 135.53173828 C17.98786504 135.53611155 14.51020144 135.57242979 11.03149414 135.61035156 C8.82511828 135.61621956 6.61873638 135.62018907 4.41235352 135.62207031 C3.37059464 135.63644135 2.32883575 135.65081238 1.25550842 135.6656189 C-5.95893573 135.61990221 -5.95893573 135.61990221 -9.21679688 133.25732422 C-11.36111024 129.98773187 -11.72022826 128.17428867 -11.73872375 124.28471375 C-11.74587906 123.25424927 -11.75303436 122.22378479 -11.76040649 121.16209412 C-11.7630954 120.02699905 -11.7657843 118.89190399 -11.76855469 117.72241211 C-11.77512589 116.53046234 -11.78169708 115.33851257 -11.78846741 114.11044312 C-11.80823544 110.15208582 -11.81987022 106.19374174 -11.82983398 102.23535156 C-11.8338814 100.87279553 -11.83799832 99.51023971 -11.84218407 98.1476841 C-11.86123672 91.746326 -11.87546752 85.34497945 -11.88379604 78.94359845 C-11.89356892 71.55401717 -11.91988905 64.16473541 -11.96029693 56.77525967 C-11.9904565 51.06393323 -12.00526475 45.35269264 -12.00857705 39.6412881 C-12.0109278 36.22997398 -12.01989067 32.81897979 -12.04503822 29.40775108 C-12.06929704 25.60093509 -12.06848845 21.79490618 -12.06152344 17.98803711 C-12.08073853 16.29450356 -12.08073853 16.29450356 -12.1003418 14.5667572 C-12.04943965 6.95085109 -12.04943965 6.95085109 -9.74967957 2.98445129 C-6.57969066 0.3062494 -4.00451443 0.03349921 0 0 Z " fill="#C12E3A" transform="translate(251.591552734375,430.8388671875)"/>
<path d="M0 0 C3.10512691 0.75691193 4.1343499 1.9218361 6.03515625 4.49609375 C6.95161229 7.38517703 7.41710489 10.32220411 7.91015625 13.30859375 C11.14628901 30.34061442 16.89300586 44.25320044 31.67602539 54.43920898 C37.23422265 57.96537714 43.18668947 59.82075017 49.50390625 61.5234375 C57.03799011 63.59864423 57.03799011 63.59864423 59.91015625 66.18359375 C61.58549876 69.62735336 61.02559904 71.86447018 60.03515625 75.49609375 C56.77354859 78.78975652 52.91358402 79.35603914 48.53515625 80.24609375 C36.3751341 83.00677736 24.38551839 89.61308652 17.2890625 100.19921875 C11.77377353 110.30199108 7.71469376 122.03431758 6.59765625 133.49609375 C5.91629785 137.13000523 5.01280912 138.34556668 2.03515625 140.49609375 C-1.16327096 141.72625806 -2.45131968 141.6991149 -5.65234375 140.43359375 C-9.78568685 136.9705225 -10.20659687 131.64215756 -11.30761719 126.53344727 C-14.82842737 110.3256428 -20.93169389 96.33949024 -34.96484375 86.49609375 C-42.15333401 82.34532034 -49.76387166 80.34385983 -57.77734375 78.48828125 C-60.81906483 77.54147101 -62.19360472 77.09264129 -63.96484375 74.49609375 C-64.43748411 70.78249093 -64.70555121 68.50718799 -62.4453125 65.421875 C-59.18002794 62.88678006 -55.77730505 62.09148577 -51.83984375 61.12109375 C-44.79107375 59.21276821 -38.89804401 56.87322828 -32.96484375 52.49609375 C-32.32289063 52.02300781 -31.6809375 51.54992187 -31.01953125 51.0625 C-17.12620207 39.96587994 -12.67508806 23.49115418 -9.80859375 6.71875 C-8.24592375 0.75021874 -6.03816124 0.17451333 0 0 Z " fill="#165A9B" transform="translate(486.96484375,214.50390625)"/>
<path d="M0 0 C4.26103476 2.81046973 4.49504063 6.26621983 5.76171875 11.05078125 C8.47306233 21.09870158 12.06199894 28.00474233 21.25 33.3125 C25.66037545 35.52072936 30.05050069 37.05537517 34.84375 38.19921875 C37.23383868 39.04199256 38.3314369 40.00135645 39.9375 41.9375 C40.8125 43.8125 40.8125 43.8125 40.9375 45.9375 C39.29673508 49.38310634 38.15237558 50.79424962 34.9375 52.9375 C33.05129321 53.39577839 31.15348012 53.80729142 29.25 54.1875 C20.56497277 56.30375513 15.07058675 60.5428732 10.3125 68.09375 C8.24101998 72.37794732 6.91631053 76.85422867 5.6730957 81.44091797 C3.84595874 88.03391022 3.84595874 88.03391022 0.9375 89.9375 C-1 90.37109375 -1 90.37109375 -3.0625 90.375 C-3.743125 90.39433594 -4.42375 90.41367187 -5.125 90.43359375 C-7.0625 89.9375 -7.0625 89.9375 -8.69921875 88.32421875 C-10.37885851 85.38364598 -11.07624159 82.6023634 -11.875 79.3125 C-14.47126559 69.92299813 -17.80132179 62.37040566 -26.35546875 57.16796875 C-30.71193888 55.18775505 -35.26436658 54.12058561 -39.92578125 53.08984375 C-43.65298044 51.72057381 -44.97909052 50.27300778 -47.0625 46.9375 C-47.125 44.375 -47.125 44.375 -46.0625 41.9375 C-42.43065918 38.53677632 -39.12937826 37.05363834 -34.375 35.6875 C-33.23675781 35.35234375 -32.09851563 35.0171875 -30.92578125 34.671875 C-28.0625 33.9375 -28.0625 33.9375 -26.0625 33.9375 C-26.0625 33.2775 -26.0625 32.6175 -26.0625 31.9375 C-25.36125 31.56625 -24.66 31.195 -23.9375 30.8125 C-17.94241387 26.90266122 -14.36318569 20.60948851 -12.0625 13.9375 C-11.73334186 12.21142685 -11.4216883 10.48194967 -11.125 8.75 C-10.3810326 4.67057878 -9.59968033 2.4028075 -6.0625 -0.0625 C-3.0625 -1.0625 -3.0625 -1.0625 0 0 Z " fill="#165A9B" transform="translate(301.0625,299.0625)"/>
<path d="M0 0 C0.66 0 1.32 0 2 0 C2.20753906 0.52207031 2.41507812 1.04414063 2.62890625 1.58203125 C5.39851129 8.19895375 8.9384831 14.09642344 13 20 C13.43828125 20.65097656 13.8765625 21.30195313 14.328125 21.97265625 C19.69299312 29.06656319 28.78019421 33.98454052 37 37 C35.65187288 39.69625423 34.22778961 39.9541013 31.5 41.1875 C17.14900536 48.25072069 9.05857849 59.93820441 2 74 C1.34 74 0.68 74 0 74 C-0.56654297 72.69289063 -0.56654297 72.69289063 -1.14453125 71.359375 C-7.36178848 57.90563804 -15.28056059 48.86963861 -28.25 41.62109375 C-30.5938393 40.23942712 -32.22470188 39.02803154 -34 37 C-33.39414062 36.731875 -32.78828125 36.46375 -32.1640625 36.1875 C-25.29788044 32.97623947 -19.63832222 29.05734645 -14 24 C-13.360625 23.42894531 -12.72125 22.85789062 -12.0625 22.26953125 C-5.95594496 16.0948227 -3.16678447 7.93139941 0 0 Z " fill="#35ACD2" transform="translate(484,247)"/>
<path d="M0 0 C0.66 0 1.32 0 2 0 C3.24235401 1.64753422 4.4184391 3.34525303 5.5625 5.0625 C9.38923471 10.49716544 13.52358389 14.28567148 19 18 C16.46787743 20.59415675 13.86951933 22.95991691 11.0625 25.25 C7.08133153 28.68050218 4.48542823 32.39956793 2 37 C-0.48859416 34.69574614 -2.28102757 32.56192762 -4.125 29.6875 C-6.96595395 25.52913207 -10.79005477 23.15875338 -14.98828125 20.48046875 C-15.65214844 19.99191406 -16.31601562 19.50335938 -17 19 C-17 18.34 -17 17.68 -17 17 C-16.01 16.525625 -15.02 16.05125 -14 15.5625 C-7.93376277 12.11549351 -2.84803241 6.36108763 0 0 Z " fill="#35ABD1" transform="translate(297,326)"/>
<path d="M0 0 C1.31871094 -0.01417969 2.63742187 -0.02835937 3.99609375 -0.04296875 C7.22514495 0.1656994 8.95118653 0.35893897 11.5625 2.1875 C12.96185013 4.98620027 12.81515405 7.09248792 12.5625 10.1875 C10.70907225 12.74699546 9.62493607 13.16668798 6.5625 14.1875 C4.27398355 14.33369515 1.98049684 14.40841336 -0.3125 14.4375 C-1.52679687 14.46328125 -2.74109375 14.4890625 -3.9921875 14.515625 C-7.69059858 14.16339537 -9.53799823 13.47179383 -12.4375 11.1875 C-13.4375 8.25 -13.4375 8.25 -13.4375 5.1875 C-10.39738025 -0.43672154 -5.7849211 0.00554642 0 0 Z " fill="#25609C" transform="translate(516.4375,367.8125)"/>
<path d="M0 0 C1.06057617 -0.00386719 1.06057617 -0.00386719 2.14257812 -0.0078125 C5.28474526 0.05119533 7.61567163 0.32890138 10.40625 1.8125 C11.9375 3.5 11.9375 3.5 12.375 7 C11.9375 10.5 11.9375 10.5 10.5625 12.375 C7.05666584 14.80211596 4.36729428 14.69669368 0.125 14.75 C-1.70998047 14.78867187 -1.70998047 14.78867187 -3.58203125 14.828125 C-7.30210541 14.47741094 -9.14349808 13.7900457 -12.0625 11.5 C-13.1875 8.625 -13.1875 8.625 -13.0625 5.5 C-9.28778245 0.48175952 -6.00334378 -0.24211469 0 0 Z " fill="#25609C" transform="translate(561.0625,367.5)"/>
<path d="M0 0 C3.4375 1.0625 3.4375 1.0625 5.1328125 3.25390625 C6.61311112 6.4405371 6.80798501 8.56555802 6.75 12.0625 C6.74613281 13.073125 6.74226562 14.08375 6.73828125 15.125 C6.42599549 18.17485575 5.84785462 20.34556268 4.4375 23.0625 C1.4375 25.0625 1.4375 25.0625 -2.125 24.875 C-5.5625 24.0625 -5.5625 24.0625 -7.5625 21.0625 C-7.81061058 18.20345836 -7.93269957 15.48365622 -7.9375 12.625 C-7.96199219 11.86123047 -7.98648438 11.09746094 -8.01171875 10.31054688 C-8.03129188 6.56229166 -7.98223691 4.65249895 -5.76171875 1.53125 C-3.5625 0.0625 -3.5625 0.0625 0 0 Z " fill="#245F9C" transform="translate(539.5625,339.9375)"/>
<path d="M0 0 C2.61593153 1.83115207 2.96989455 2.90968366 4 6 C4.45020972 11.98883623 4.15397286 17.37573753 2 23 C-1.04983996 24.52491998 -3.6423369 24.23562548 -7 24 C-9.05801672 22.47528011 -9.88335334 21.58455382 -10.38818359 19.0546875 C-10.39156738 18.33539063 -10.39495117 17.61609375 -10.3984375 16.875 C-10.40230469 16.08609375 -10.40617188 15.2971875 -10.41015625 14.484375 C-10.39855469 13.66453125 -10.38695312 12.8446875 -10.375 12 C-10.38660156 11.18015625 -10.39820313 10.3603125 -10.41015625 9.515625 C-10.40435547 8.33226562 -10.40435547 8.33226562 -10.3984375 7.125 C-10.39505371 6.40570313 -10.39166992 5.68640625 -10.38818359 4.9453125 C-9.26622136 -0.67720013 -4.91744384 -0.52686898 0 0 Z " fill="#235E9B" transform="translate(542,385)"/>
<path d="M0 0 C2.58984375 2.390625 2.58984375 2.390625 4.9375 5.25 C6.12666016 6.64992187 6.12666016 6.64992187 7.33984375 8.078125 C9 11 9 11 8.86328125 14.26953125 C8 17 8 17 6.25 18.4375 C3.42134802 19.14466299 1.80128622 18.7943946 -1 18 C-3.1328125 16.51171875 -3.1328125 16.51171875 -5.125 14.6875 C-6.11886719 13.79611328 -6.11886719 13.79611328 -7.1328125 12.88671875 C-12 7.96861925 -12 7.96861925 -12 3.9375 C-11 1 -11 1 -8.8125 -1 C-5.05080969 -2.33748989 -3.61623021 -1.60520942 0 0 Z " fill="#235F9C" transform="translate(341,240)"/>
<path d="M0 0 C1.8125 1.1875 1.8125 1.1875 3 3 C3.58338983 7.0953966 3.275944 8.61327921 0.83984375 12.02734375 C-0.1116002 13.01309774 -1.07972073 13.98298367 -2.0625 14.9375 C-2.52849609 15.44345703 -2.99449219 15.94941406 -3.47460938 16.47070312 C-4.91015625 17.90234375 -4.91015625 17.90234375 -8 20 C-12.0480918 19.93668261 -14.10312877 19.89687123 -17 17 C-17.56594132 12.66797647 -17.53123414 10.71157931 -14.8828125 7.1640625 C-13.97273438 6.32617188 -13.06265625 5.48828125 -12.125 4.625 C-11.22007812 3.77164063 -10.31515625 2.91828125 -9.3828125 2.0390625 C-5.82773222 -1.00315374 -4.47623074 -1.31011631 0 0 Z " fill="#1E5B9A" transform="translate(373,239)"/>
<path d="M0 0 C2.4375 1.625 2.4375 1.625 4 4 C3.75362528 8.98908814 2.33348374 11.35049422 -1.1875 14.8125 C-1.94417969 15.58207031 -2.70085937 16.35164063 -3.48046875 17.14453125 C-6.4297482 19.31648123 -8.3560084 19.86668323 -12 20 C-14.9375 17.875 -14.9375 17.875 -17 15 C-16.84228088 10.26054034 -14.55524642 7.95932935 -11.3125 4.6875 C-10.46300781 3.80449219 -9.61351562 2.92148437 -8.73828125 2.01171875 C-5.49084965 -0.37405482 -3.94172544 -0.55140481 0 0 Z " fill="#1E5C9A" transform="translate(346,265)"/>
<path d="M0 0 C2.26170394 1.6859438 3.97045818 3.1716874 5.875 5.1875 C6.37257813 5.67025391 6.87015625 6.15300781 7.3828125 6.65039062 C9.63088149 8.95095573 10.9226509 10.49759228 11.41796875 13.71484375 C11 16 11 16 9.4375 18.375 C7 20 7 20 3.625 20.1875 C-0.62205992 18.79622175 -2.0420343 17.18782464 -4.640625 13.69140625 C-6.07552918 11.73221522 -6.07552918 11.73221522 -9 10 C-9.37331109 6.57798172 -9.63763183 4.09814371 -7.875 1.0625 C-5.05051087 -0.53804384 -3.21413708 -0.38631455 0 0 Z " fill="#1C5A99" transform="translate(365,265)"/>
<path d="M0 0 C0.66 0.33 1.32 0.66 2 1 C0.59698853 4.18673962 -1.07765071 6.32221406 -3.5625 8.75 C-4.49255859 9.67039062 -4.49255859 9.67039062 -5.44140625 10.609375 C-7 12 -7 12 -8 12 C-8.33 13.65 -8.66 15.3 -9 17 C-9.66 16.34 -10.32 15.68 -11 15 C-10.90892224 11.43582372 -10.04781112 10.05598396 -7.71484375 7.32421875 C-6.79832031 6.45410156 -5.88179688 5.58398438 -4.9375 4.6875 C-4.01839844 3.80449219 -3.09929687 2.92148437 -2.15234375 2.01171875 C-1.44207031 1.34785156 -0.73179687 0.68398438 0 0 Z " fill="#38689E" transform="translate(340,265)"/>
<path d="M0 0 C0.66 0.99 1.32 1.98 2 3 C0.54782324 4.50596108 -0.91192861 6.00462104 -2.375 7.5 C-3.18710937 8.3353125 -3.99921875 9.170625 -4.8359375 10.03125 C-7 12 -7 12 -9 12 C-8.45015228 8.12488273 -6.72444669 6.40423494 -3.9375 3.75 C-3.20402344 3.04359375 -2.47054688 2.3371875 -1.71484375 1.609375 C-1.14894531 1.07828125 -0.58304687 0.5471875 0 0 Z " fill="#33659D" transform="translate(365,240)"/>
<path d="M0 0 C-0.79664063 0.45439453 -0.79664063 0.45439453 -1.609375 0.91796875 C-5.93329703 3.48233857 -9.1035653 5.77603273 -12 10 C-12.66 9.67 -13.32 9.34 -14 9 C-5.39177489 -1.7972583 -5.39177489 -1.7972583 0 0 Z " fill="#497FB2" transform="translate(398,321)"/>
<path d="M0 0 C0.99 0.495 0.99 0.495 2 1 C2.4140625 3.06640625 2.4140625 3.06640625 2.625 5.5625 C2.69976562 6.38878906 2.77453125 7.21507812 2.8515625 8.06640625 C2.92503906 9.02353516 2.92503906 9.02353516 3 10 C2.67 9.34 2.34 8.68 2 8 C1.34 8 0.68 8 0 8 C0 5.36 0 2.72 0 0 Z " fill="#4A74A4" transform="translate(303,301)"/>
<path d="M0 0 C0 3 0 3 -1.375 4.6875 C-3 6 -3 6 -5 6 C-4.75 4.125 -4.75 4.125 -4 2 C-1.9375 0.75 -1.9375 0.75 0 0 Z " fill="#1C508D" transform="translate(298,298)"/>
<path d="M0 0 C0.66 0 1.32 0 2 0 C2.625 2.8125 2.625 2.8125 3 6 C2.34 6.99 1.68 7.98 1 9 C0.67 6.03 0.34 3.06 0 0 Z " fill="#4F78A8" transform="translate(545,281)"/>
<path d="M0 0 C0.99 0.495 0.99 0.495 2 1 C2.40729228 3.32156597 2.74438677 5.6568787 3 8 C2.01 8 1.02 8 0 8 C0 5.36 0 2.72 0 0 Z " fill="#436EA1" transform="translate(491,218)"/>
</svg>
