<?xml version="1.0" encoding="UTF-8"?>
<svg version="1.1" xmlns="http://www.w3.org/2000/svg" width="800" height="800">
<path d="M0 0 C19.18834185 12.75250048 31.10420671 30.6971146 35.69140625 53.42578125 C40.75728584 86.40713718 34.3423641 124.96647042 18.41015625 154.32421875 C16.36750068 158.20017184 14.7872634 162.23835533 13.17578125 166.30859375 C11.98479379 169.03480757 10.55063801 171.46531856 9 174 C10.02565583 174.00219984 10.02565583 174.00219984 11.07203197 174.00444412 C27.75878385 174.0415989 44.44530142 174.10072772 61.13188457 174.18390274 C69.20161431 174.22360433 77.27124777 174.25604169 85.34106445 174.27099609 C92.37995397 174.28405891 99.41863089 174.31114059 106.45740062 174.35461307 C110.17968267 174.37712462 113.90170352 174.39291694 117.62405968 174.39188385 C121.7935338 174.39099065 125.96224549 174.42141511 130.1315918 174.45410156 C131.95500847 174.44655602 131.95500847 174.44655602 133.81526184 174.43885803 C147.56009767 174.60459939 159.03040449 178.35225354 169.03125 187.94921875 C176.49247665 195.99532969 180.84351288 206.29301483 181.4375 217.3125 C181.01458481 227.55440268 177.32620762 237.0289784 171 245 C171.7425 245.2475 172.485 245.495 173.25 245.75 C182.39742518 249.90792054 186.765133 260.46604363 190.3125 269.25 C192.71042291 282.32957952 190.82402798 293.80758675 183.3125 304.8125 C178.21423223 311.38233482 172.31584134 317.08095969 164 319 C164.34933594 319.74765625 164.69867187 320.4953125 165.05859375 321.265625 C165.51363281 322.25046875 165.96867187 323.2353125 166.4375 324.25 C166.88996094 325.22453125 167.34242188 326.1990625 167.80859375 327.203125 C171.61349173 336.13527894 171.38934486 348.57825798 168.09765625 357.703125 C163.3947663 367.54404774 155.67399881 375.88123364 146 381 C145.01 381 144.02 381 143 381 C143.34933594 381.66386719 143.69867187 382.32773437 144.05859375 383.01171875 C144.51363281 383.89472656 144.96867187 384.77773438 145.4375 385.6875 C145.88996094 386.55761719 146.34242188 387.42773438 146.80859375 388.32421875 C150.8099754 397.31092836 150.51758589 411.4160126 147.171875 420.6640625 C141.568405 431.83364604 132.77397269 440.88723356 121.01069069 445.41842294 C113.56282825 447.57266077 105.24595018 446.81525488 97.57617188 446.76049805 C95.41967894 446.76700052 93.26319246 446.77606814 91.10671997 446.78749084 C85.27546854 446.81048309 79.44487545 446.79590054 73.61364555 446.77302146 C67.48644021 446.75402118 61.3592767 446.76527807 55.23205566 446.77192688 C44.93617384 446.77825976 34.64055349 446.76004511 24.34472656 446.72729492 C12.48637181 446.68988333 0.62851422 446.69154682 -11.2298665 446.7143361 C-22.68174336 446.73538641 -34.13343868 446.72794843 -45.58531189 446.70801735 C-50.43649058 446.70008563 -55.28751344 446.70195747 -60.13868713 446.71204185 C-65.87142661 446.72269901 -71.60359669 446.70816568 -77.33624649 446.67529869 C-79.42416463 446.66718298 -81.51213581 446.66726563 -83.60004807 446.67677689 C-108.84791882 446.77903719 -130.68155097 440.09072168 -152.34106445 427.33837891 C-162.76467958 421.2647161 -172.76547156 417.27465268 -185 417 C-185.35191406 417.7734375 -185.70382812 418.546875 -186.06640625 419.34375 C-191.96450109 431.78672815 -199.22156618 439.92560153 -212.06845284 445.3479557 C-215.18601706 446.4003711 -218.15128836 446.4224437 -221.42553711 446.4675293 C-222.1323764 446.48081772 -222.8392157 446.49410614 -223.56747437 446.50779724 C-225.88754794 446.5462488 -228.20699221 446.56205934 -230.52734375 446.57421875 C-232.16052871 446.58896739 -233.7937125 446.60384703 -235.42689514 446.61885071 C-238.84884572 446.64578533 -242.27058028 446.65937408 -245.69262695 446.66577148 C-250.03350902 446.67658126 -254.37203253 446.73811885 -258.71222591 446.8124876 C-262.08851863 446.86138574 -265.46426708 446.87331602 -268.84088326 446.87583351 C-270.43823255 446.8829699 -272.03558816 446.90307891 -273.63258171 446.93753624 C-286.43022906 447.19237683 -297.54214724 444.51329339 -307.44737244 435.8625946 C-309.18715679 434.00036736 -310.60186382 432.12832007 -312 430 C-312.46535156 429.32839844 -312.93070313 428.65679688 -313.41015625 427.96484375 C-318.34812001 420.49311433 -320.44995199 414.47969806 -320.38768005 405.56974792 C-320.39306559 404.63977267 -320.39845113 403.70979742 -320.40399987 402.75164109 C-320.41826945 399.64573355 -320.41117805 396.5402528 -320.40405273 393.43432617 C-320.40975688 391.20323851 -320.41672131 388.97215376 -320.42485046 386.74107361 C-320.44279374 380.68724866 -320.44161102 374.63356858 -320.43590808 368.57972503 C-320.43281738 363.52266278 -320.43890749 358.4656284 -320.44494683 353.40857011 C-320.4597978 340.7932929 -320.45617541 328.17810288 -320.44408352 315.56283221 C-320.43415649 304.62213848 -320.44708387 293.681614 -320.47101771 282.74094637 C-320.49543831 271.49251853 -320.50460987 260.24416736 -320.49836498 248.99570638 C-320.49499666 242.68642252 -320.4974022 236.37727841 -320.51461601 230.06801414 C-320.53010245 224.13274846 -320.52611035 218.19780529 -320.50731087 212.26255226 C-320.50362949 210.08818243 -320.50672023 207.91378862 -320.51719666 205.73944092 C-320.53043917 202.76299247 -320.5188297 199.78760657 -320.50120544 196.811203 C-320.51081045 195.95797004 -320.52041546 195.10473709 -320.53031152 194.22564858 C-320.39146523 182.76900673 -314.95961692 173.93615386 -307.015625 166.0234375 C-295.91059002 155.90838626 -285.25657329 154.68329766 -270.73046875 154.69921875 C-269.24367658 154.69532348 -267.7568855 154.69098713 -266.27009583 154.68623352 C-263.16269312 154.67880072 -260.05540408 154.67904061 -256.94799805 154.68432617 C-252.9942311 154.69010965 -249.04093433 154.67320292 -245.08724499 154.6499815 C-242.01830897 154.63514372 -238.9494835 154.63438612 -235.88051796 154.63749123 C-234.42427962 154.6369828 -232.96803429 154.63183658 -231.51183128 154.62167931 C-210.07766393 154.49052314 -210.07766393 154.49052314 -202.125 161.4375 C-201.44695312 162.01371094 -200.76890625 162.58992187 -200.0703125 163.18359375 C-199.38710937 163.78300781 -198.70390625 164.38242187 -198 165 C-197.16726562 165.6084375 -196.33453125 166.216875 -195.4765625 166.84375 C-192.62268033 169.32851807 -191.09484684 171.76871371 -189.25 175.0625 C-188.65703125 176.10535156 -188.0640625 177.14820313 -187.453125 178.22265625 C-186 181 -186 181 -185 184 C-169.44619217 182.18764326 -155.45066914 178.17659098 -142 170 C-141.1028125 169.46632813 -140.205625 168.93265625 -139.28125 168.3828125 C-131.83301533 163.80433884 -124.84173772 158.59653684 -117.84130859 153.37109375 C-116.08358369 152.06223893 -114.31851903 150.76403547 -112.55078125 149.46875 C-110.97876953 148.30859375 -110.97876953 148.30859375 -109.375 147.125 C-108.45460938 146.44695312 -107.53421875 145.76890625 -106.5859375 145.0703125 C-103.84415472 142.87522961 -101.45263674 140.51282414 -99 138 C-98.02125405 137.06193787 -97.03933273 136.12718049 -96.0546875 135.1953125 C-79.52794524 119.35232826 -64.03547601 98.64220079 -62.89916992 74.89257812 C-62.77289268 68.06937436 -63.74306219 61.69234455 -65 55 C-67.58511059 41.23603279 -68.46536253 27.73418307 -61.39453125 14.99609375 C-48.15373726 -3.95641529 -20.5215889 -12.61741058 0 0 Z " fill="#FEDFB1" transform="translate(449,266)"/>
<path d="M0 0 C19.18834185 12.75250048 31.10420671 30.6971146 35.69140625 53.42578125 C40.75728584 86.40713718 34.3423641 124.96647042 18.41015625 154.32421875 C16.36750068 158.20017184 14.7872634 162.23835533 13.17578125 166.30859375 C11.98479379 169.03480757 10.55063801 171.46531856 9 174 C10.02565583 174.00219984 10.02565583 174.00219984 11.07203197 174.00444412 C27.75878385 174.0415989 44.44530142 174.10072772 61.13188457 174.18390274 C69.20161431 174.22360433 77.27124777 174.25604169 85.34106445 174.27099609 C92.37995397 174.28405891 99.41863089 174.31114059 106.45740062 174.35461307 C110.17968267 174.37712462 113.90170352 174.39291694 117.62405968 174.39188385 C121.7935338 174.39099065 125.96224549 174.42141511 130.1315918 174.45410156 C131.95500847 174.44655602 131.95500847 174.44655602 133.81526184 174.43885803 C147.56009767 174.60459939 159.03040449 178.35225354 169.03125 187.94921875 C176.49247665 195.99532969 180.84351288 206.29301483 181.4375 217.3125 C181.01458481 227.55440268 177.32620762 237.0289784 171 245 C171.7425 245.2475 172.485 245.495 173.25 245.75 C182.39742518 249.90792054 186.765133 260.46604363 190.3125 269.25 C192.71042291 282.32957952 190.82402798 293.80758675 183.3125 304.8125 C178.21423223 311.38233482 172.31584134 317.08095969 164 319 C164.34933594 319.74765625 164.69867187 320.4953125 165.05859375 321.265625 C165.51363281 322.25046875 165.96867187 323.2353125 166.4375 324.25 C166.88996094 325.22453125 167.34242188 326.1990625 167.80859375 327.203125 C171.61349173 336.13527894 171.38934486 348.57825798 168.09765625 357.703125 C163.3947663 367.54404774 155.67399881 375.88123364 146 381 C145.01 381 144.02 381 143 381 C143.34933594 381.66386719 143.69867187 382.32773437 144.05859375 383.01171875 C144.51363281 383.89472656 144.96867187 384.77773438 145.4375 385.6875 C145.88996094 386.55761719 146.34242188 387.42773438 146.80859375 388.32421875 C150.8099754 397.31092836 150.51758589 411.4160126 147.171875 420.6640625 C141.568405 431.83364604 132.77397269 440.88723356 121.01069069 445.41842294 C113.56282825 447.57266077 105.24595018 446.81525488 97.57617188 446.76049805 C95.41967894 446.76700052 93.26319246 446.77606814 91.10671997 446.78749084 C85.27546854 446.81048309 79.44487545 446.79590054 73.61364555 446.77302146 C67.48644021 446.75402118 61.3592767 446.76527807 55.23205566 446.77192688 C44.93617384 446.77825976 34.64055349 446.76004511 24.34472656 446.72729492 C12.48637181 446.68988333 0.62851422 446.69154682 -11.2298665 446.7143361 C-22.68174336 446.73538641 -34.13343868 446.72794843 -45.58531189 446.70801735 C-50.43649058 446.70008563 -55.28751344 446.70195747 -60.13868713 446.71204185 C-65.87142661 446.72269901 -71.60359669 446.70816568 -77.33624649 446.67529869 C-79.42416463 446.66718298 -81.51213581 446.66726563 -83.60004807 446.67677689 C-108.84791882 446.77903719 -130.68155097 440.09072168 -152.34106445 427.33837891 C-162.76467958 421.2647161 -172.76547156 417.27465268 -185 417 C-185.35191406 417.7734375 -185.70382812 418.546875 -186.06640625 419.34375 C-191.96450109 431.78672815 -199.22156618 439.92560153 -212.06845284 445.3479557 C-215.18601706 446.4003711 -218.15128836 446.4224437 -221.42553711 446.4675293 C-222.1323764 446.48081772 -222.8392157 446.49410614 -223.56747437 446.50779724 C-225.88754794 446.5462488 -228.20699221 446.56205934 -230.52734375 446.57421875 C-232.16052871 446.58896739 -233.7937125 446.60384703 -235.42689514 446.61885071 C-238.84884572 446.64578533 -242.27058028 446.65937408 -245.69262695 446.66577148 C-250.03350902 446.67658126 -254.37203253 446.73811885 -258.71222591 446.8124876 C-262.08851863 446.86138574 -265.46426708 446.87331602 -268.84088326 446.87583351 C-270.43823255 446.8829699 -272.03558816 446.90307891 -273.63258171 446.93753624 C-286.43022906 447.19237683 -297.54214724 444.51329339 -307.44737244 435.8625946 C-309.18715679 434.00036736 -310.60186382 432.12832007 -312 430 C-312.46535156 429.32839844 -312.93070313 428.65679688 -313.41015625 427.96484375 C-318.34812001 420.49311433 -320.44995199 414.47969806 -320.38768005 405.56974792 C-320.39306559 404.63977267 -320.39845113 403.70979742 -320.40399987 402.75164109 C-320.41826945 399.64573355 -320.41117805 396.5402528 -320.40405273 393.43432617 C-320.40975688 391.20323851 -320.41672131 388.97215376 -320.42485046 386.74107361 C-320.44279374 380.68724866 -320.44161102 374.63356858 -320.43590808 368.57972503 C-320.43281738 363.52266278 -320.43890749 358.4656284 -320.44494683 353.40857011 C-320.4597978 340.7932929 -320.45617541 328.17810288 -320.44408352 315.56283221 C-320.43415649 304.62213848 -320.44708387 293.681614 -320.47101771 282.74094637 C-320.49543831 271.49251853 -320.50460987 260.24416736 -320.49836498 248.99570638 C-320.49499666 242.68642252 -320.4974022 236.37727841 -320.51461601 230.06801414 C-320.53010245 224.13274846 -320.52611035 218.19780529 -320.50731087 212.26255226 C-320.50362949 210.08818243 -320.50672023 207.91378862 -320.51719666 205.73944092 C-320.53043917 202.76299247 -320.5188297 199.78760657 -320.50120544 196.811203 C-320.51081045 195.95797004 -320.52041546 195.10473709 -320.53031152 194.22564858 C-320.39146523 182.76900673 -314.95961692 173.93615386 -307.015625 166.0234375 C-295.91059002 155.90838626 -285.25657329 154.68329766 -270.73046875 154.69921875 C-269.24367658 154.69532348 -267.7568855 154.69098713 -266.27009583 154.68623352 C-263.16269312 154.67880072 -260.05540408 154.67904061 -256.94799805 154.68432617 C-252.9942311 154.69010965 -249.04093433 154.67320292 -245.08724499 154.6499815 C-242.01830897 154.63514372 -238.9494835 154.63438612 -235.88051796 154.63749123 C-234.42427962 154.6369828 -232.96803429 154.63183658 -231.51183128 154.62167931 C-210.07766393 154.49052314 -210.07766393 154.49052314 -202.125 161.4375 C-201.44695312 162.01371094 -200.76890625 162.58992187 -200.0703125 163.18359375 C-199.38710937 163.78300781 -198.70390625 164.38242187 -198 165 C-197.16726562 165.6084375 -196.33453125 166.216875 -195.4765625 166.84375 C-192.62268033 169.32851807 -191.09484684 171.76871371 -189.25 175.0625 C-188.65703125 176.10535156 -188.0640625 177.14820313 -187.453125 178.22265625 C-186 181 -186 181 -185 184 C-169.44619217 182.18764326 -155.45066914 178.17659098 -142 170 C-141.1028125 169.46632813 -140.205625 168.93265625 -139.28125 168.3828125 C-131.83301533 163.80433884 -124.84173772 158.59653684 -117.84130859 153.37109375 C-116.08358369 152.06223893 -114.31851903 150.76403547 -112.55078125 149.46875 C-110.97876953 148.30859375 -110.97876953 148.30859375 -109.375 147.125 C-108.45460938 146.44695312 -107.53421875 145.76890625 -106.5859375 145.0703125 C-103.84415472 142.87522961 -101.45263674 140.51282414 -99 138 C-98.02125405 137.06193787 -97.03933273 136.12718049 -96.0546875 135.1953125 C-79.52794524 119.35232826 -64.03547601 98.64220079 -62.89916992 74.89257812 C-62.77289268 68.06937436 -63.74306219 61.69234455 -65 55 C-67.58511059 41.23603279 -68.46536253 27.73418307 -61.39453125 14.99609375 C-48.15373726 -3.95641529 -20.5215889 -12.61741058 0 0 Z M-43 26 C-45.46888577 29.70332865 -45.34255201 32.58601435 -45.3125 36.875 C-45.31121094 37.64312012 -45.30992187 38.41124023 -45.30859375 39.20263672 C-45.23301554 43.73827399 -44.73817318 47.73564675 -43.5 52.125 C-39.86630775 65.91572724 -41.25718339 81.24039256 -44.34375 95.015625 C-45.10738212 97.97905356 -45.10738212 97.97905356 -45 101 C-45.66 101 -46.32 101 -47 101 C-47.84266711 102.74552473 -48.67380038 104.4966208 -49.5 106.25 C-49.9640625 107.22453125 -50.428125 108.1990625 -50.90625 109.203125 C-52.24280211 112.12035776 -52.24280211 112.12035776 -52 116 C-52.66 116 -53.32 116 -54 116 C-55.43485566 118.07796222 -56.75746206 120.15494846 -58.0625 122.3125 C-68.68666686 139.24390117 -83.06333444 153.96484177 -99 166 C-99.83217041 166.63083496 -99.83217041 166.63083496 -100.68115234 167.27441406 C-126.85778992 187.03653231 -151.0189368 200.79246371 -184 206 C-184 268.37 -184 330.74 -184 395 C-175.585 396.485 -175.585 396.485 -167 398 C-163.94116122 398.83337511 -161.03413548 399.65102862 -158.0625 400.6875 C-153.62600791 402.34629115 -153.62600791 402.34629115 -149 403 C-149 403.66 -149 404.32 -149 405 C-147.9275 405.515625 -146.855 406.03125 -145.75 406.5625 C-142.11004952 408.36642608 -138.66069469 410.39434741 -135.1875 412.5 C-129.61450369 415.77125816 -124.15579617 418.07786714 -118 420 C-116.90816406 420.3609375 -115.81632812 420.721875 -114.69140625 421.09375 C-100.1367864 425.63699811 -85.20102897 425.15275158 -70.08642578 425.16113281 C-68.11706959 425.16577153 -66.14771429 425.17079757 -64.17835999 425.17617798 C-58.87097022 425.18919029 -53.56359302 425.19572321 -48.25618982 425.20018864 C-44.93567267 425.20313355 -41.61515886 425.20724062 -38.2946434 425.21169281 C-27.89039857 425.22532943 -17.48616149 425.2350185 -7.08190835 425.2388947 C4.90380819 425.24338607 16.8894113 425.2609999 28.87509334 425.2898953 C38.16374884 425.31150865 47.45237237 425.32159856 56.74105275 425.32293582 C62.27997733 425.32398277 67.81879472 425.32986912 73.35769272 425.34775543 C78.56003744 425.36423321 83.76219422 425.36639302 88.96455574 425.35761642 C90.87048026 425.35684628 92.7764149 425.36118573 94.68231392 425.37107468 C97.28891044 425.3838047 99.89484196 425.37791214 102.50143433 425.36749268 C103.62527663 425.37957728 103.62527663 425.37957728 104.77182281 425.39190602 C110.68373205 425.33683758 116.27324483 424.21247522 120.98828125 420.38671875 C126.05087954 413.89046431 128.59534085 409.03946222 128.35546875 400.62109375 C127.62049346 395.20166059 124.00906518 391.47452316 120 388 C119.34 388 118.68 388 118 388 C117.67 387.01 117.34 386.02 117 385 C114.29692906 383.98250491 111.71281797 383.8722564 108.84570312 383.8581543 C108.03806519 383.85111984 107.23042725 383.84408539 106.39831543 383.83683777 C105.53468384 383.83267349 104.67105225 383.82850922 103.78125 383.82421875 C101.94399883 383.80103085 100.10675919 383.77691394 98.26953125 383.75195312 C95.37931467 383.71677857 92.48952618 383.68745152 89.59912109 383.67407227 C86.80514226 383.65861621 84.01240216 383.61843743 81.21875 383.57421875 C80.35511841 383.57612717 79.49148682 383.57803558 78.60168457 383.58000183 C72.60682177 383.45759438 72.60682177 383.45759438 69.54882812 381.15161133 C66.36748876 376.73213721 65.33329112 374.52415933 66 369 C67.65073346 366.3611228 68.33020887 365.41428647 71 364 C75.49143097 363.28441557 79.94198058 363.39903419 84.48046875 363.46875 C85.81700534 363.46832932 87.15354389 363.46498457 88.49006653 363.4588623 C93.43615498 363.44262701 98.38157795 363.47975306 103.32751465 363.51544189 C107.50623455 363.54357135 111.6840388 363.55092818 115.86281776 363.53187561 C117.80693396 363.53126524 119.75098671 363.56059968 121.69487 363.59069824 C129.47187805 363.56806769 135.57333246 362.61679342 142 358 C147.76396643 351.92531284 148.32012577 346.21061201 148.1953125 338.16015625 C147.88428996 333.1278116 146.79194401 330.66949132 143.10870361 327.23794556 C135.77646143 321.43531244 129.81561242 321.06051096 120.671875 321.2734375 C119.31048982 321.27675793 117.94909051 321.27624839 116.58770752 321.27212524 C113.03193658 321.2682281 109.4776851 321.30139437 105.92224121 321.347229 C100.21977038 321.42013219 94.51809845 321.46080797 88.81516266 321.45399857 C86.83530204 321.46080539 84.85563566 321.49978525 82.87615967 321.53939819 C72.87998627 321.5638043 72.87998627 321.5638043 69.20019531 318.59619141 C65.8023665 314.58681374 65.63120208 312.25537033 66 307 C67.5 305.1875 67.5 305.1875 69 304 C69 303.34 69 302.68 69 302 C70.03459351 301.99635437 71.06918701 301.99270874 72.13513184 301.98895264 C81.90434627 301.95194696 91.67324711 301.89411341 101.4422226 301.81609726 C106.46409883 301.77665571 111.48580059 301.7444509 116.5078125 301.72900391 C121.35800409 301.71381549 126.2077159 301.67933106 131.05769348 301.63169098 C132.90432048 301.61689972 134.75101598 301.60896028 136.59770203 301.60811615 C139.19260287 301.60573791 141.78618696 301.57859061 144.38085938 301.54589844 C145.1375592 301.5509288 145.89425903 301.55595917 146.67388916 301.56114197 C153.02718328 301.43799642 158.22722845 299.44089542 163.0234375 295.21875 C163.46945312 294.6515625 163.91546875 294.084375 164.375 293.5 C165.06722656 292.64921875 165.06722656 292.64921875 165.7734375 291.78125 C168.540432 287.76293952 169.27485793 284.99058466 169.25 280.0625 C169.25515625 279.04285156 169.2603125 278.02320313 169.265625 276.97265625 C168.6450319 270.02748934 165.1465842 266.74057333 160.0625 262.3125 C154.97549099 259.07531245 149.81306737 258.7082204 143.9309082 258.72875977 C143.14481171 258.72353302 142.35871521 258.71830627 141.54879761 258.71292114 C139.85136715 258.70272179 138.15390577 258.69690787 136.45644569 258.69503975 C133.77079878 258.69136523 131.0855175 258.67461191 128.39994812 258.65428162 C120.76792174 258.59895289 113.13584353 258.56810771 105.50366211 258.54370117 C100.82822225 258.5278511 96.15304646 258.49766839 91.47774315 258.45893669 C89.69674665 258.4472736 87.91570303 258.44135623 86.13466835 258.44125557 C83.64979951 258.44106409 81.16566353 258.42284326 78.6809082 258.40063477 C77.94371048 258.40521194 77.20651276 258.40978912 76.44697571 258.414505 C71.4930407 258.34390716 71.4930407 258.34390716 69.08244324 256.66246033 C66.39644078 252.53718856 66.34422022 247.74997244 67 243 C69.24061675 240.52759532 70.82929529 240.05690157 74 239 C76.24230732 238.91198884 78.48717211 238.8852369 80.73120117 238.88989258 C82.14072166 238.8893499 83.55024212 238.8887629 84.95976257 238.88813782 C86.07936151 238.89028007 86.07936151 238.89028007 87.2215786 238.89246559 C91.18489701 238.8959923 95.14807474 238.87016981 99.11132812 238.84960938 C104.14994134 238.82531078 109.18814311 238.80953867 114.22680664 238.82495117 C118.30255567 238.83665166 122.37728512 238.8191116 126.45287514 238.78250694 C128.00087608 238.77392336 129.54897539 238.77592317 131.09694481 238.789011 C142.16465888 238.98803458 142.16465888 238.98803458 151.47798157 233.58451843 C151.98024765 233.06162735 152.48251373 232.53873627 153 232 C153.61413254 231.4661116 154.22826508 230.93222321 154.86100769 230.38215637 C157.77742735 227.8115377 158.86628037 225.80437503 159.5078125 221.9453125 C159.73839268 215.28923123 159.30293562 209.30947027 155 204 C149.49860847 198.9157756 143.93273105 196.74891325 136.43408203 196.75517273 C135.78813646 196.75290816 135.1421909 196.75064358 134.47667122 196.74831039 C132.32028374 196.74302906 130.16418555 196.75183343 128.0078125 196.76049805 C126.45855619 196.75938477 124.90930032 196.75732634 123.36004639 196.75439453 C120.02774708 196.74967672 116.69551827 196.75078778 113.36322021 196.75617027 C108.09382042 196.76378186 102.82455636 196.75312303 97.55517578 196.7389679 C82.57258569 196.70123168 67.59005737 196.68304935 52.60742188 196.69458008 C44.32962275 196.70079374 36.05204288 196.68923173 27.77429771 196.65813476 C22.53612481 196.63946685 17.29857229 196.64281113 12.06040955 196.66230237 C8.80197264 196.66918051 5.54387279 196.65523467 2.28549957 196.63535309 C0.77502067 196.6303029 -0.73551473 196.63379837 -2.24594879 196.64648628 C-4.30949137 196.66258796 -6.37064685 196.64796214 -8.43408203 196.6257782 C-9.58812531 196.62561046 -10.74216858 196.62544271 -11.93118286 196.62526989 C-15.9475401 195.8069392 -17.45622499 194.14208634 -20 191 C-20.5234375 188.4296875 -20.5234375 188.4296875 -20.375 185.875 C-20.32472656 184.60269531 -20.32472656 184.60269531 -20.2734375 183.3046875 C-20 181 -20 181 -19 178 C-18.34 178 -17.68 178 -17 178 C-16.32880451 176.5437455 -15.66318193 175.08492133 -15 173.625 C-14.443125 172.40683594 -14.443125 172.40683594 -13.875 171.1640625 C-12.87504987 169.08001567 -12.87504987 169.08001567 -13 167 C-12.34 167 -11.68 167 -11 167 C-10.01 163.04 -10.01 163.04 -9 159 C-8.34 159 -7.68 159 -7 159 C-6.43732422 157.42412109 -6.43732422 157.42412109 -5.86328125 155.81640625 C-1.22844909 143.04280272 -1.22844909 143.04280272 1.5625 138.6875 C5.0376365 132.91050459 6.21304684 126.20386403 7.7890625 119.71875 C8.55942643 116.5726393 9.47096032 113.54041393 10.54296875 110.484375 C17.60182174 89.81201981 16.81259679 65.81079361 11 45 C10.01 44.01 10.01 44.01 9 43 C8.566875 41.63875 8.566875 41.63875 8.125 40.25 C6.8808698 36.65584609 5.22490746 34.07560737 3 31 C2.195625 29.7934375 2.195625 29.7934375 1.375 28.5625 C-3.86214759 22.91189339 -10.99752945 17.53129687 -18.83203125 16.69921875 C-29.08465099 16.65890701 -35.77836539 18.50511435 -43 26 Z " fill="#070706" transform="translate(449,266)"/>
<path d="M0 0 C1.24809448 -0.00307663 2.49618896 -0.00615326 3.78210449 -0.00932312 C5.14054549 -0.0024247 6.49898467 0.00484232 7.85742188 0.01245117 C9.25459755 0.01364399 10.65177404 0.01409592 12.0489502 0.01383972 C14.9742537 0.01540217 17.89943441 0.02367316 20.82470703 0.03710938 C24.57062331 0.05409881 28.31640475 0.05792353 32.06235504 0.05716419 C34.94656659 0.05743639 37.83074879 0.06292559 40.71495056 0.07016563 C42.0960213 0.07334316 43.47709536 0.07531757 44.85816956 0.07605934 C46.78957315 0.0782326 48.72096417 0.08778367 50.65234375 0.09765625 C52.2997052 0.10337395 52.2997052 0.10337395 53.98034668 0.10920715 C56.43751881 0.22465883 58.48376878 0.53050467 60.82617188 1.24291992 C60.82617188 1.90291992 60.82617188 2.56291992 60.82617188 3.24291992 C61.52742188 3.42854492 62.22867188 3.61416992 62.95117188 3.80541992 C67.35746075 6.00856436 70.62117932 9.83293482 72.82617188 14.24291992 C72.92650365 17.1038331 72.96511744 19.94054921 72.95988464 22.80183411 C72.9621502 23.69839665 72.96441576 24.59495919 72.96674997 25.51869029 C72.97311065 28.5411189 72.97225928 31.56350291 72.97143555 34.5859375 C72.97442578 36.74558063 72.97782799 38.90522323 72.98161316 41.06486511 C72.9904719 46.94506301 72.99279208 52.82524637 72.99342895 58.7054503 C72.99437666 63.60863356 72.99805343 68.51181342 73.00160104 73.41499537 C73.00975297 84.98109241 73.01218463 96.54718167 73.01147461 108.11328125 C73.01087384 120.05565712 73.0214239 131.99798782 73.03721827 143.94035226 C73.05028267 154.18242634 73.05565896 164.42448563 73.0550192 174.66656798 C73.05476386 180.78849383 73.05763484 186.91037956 73.06819725 193.03229713 C73.07785955 198.79010695 73.07797024 204.54783817 73.07068062 210.30565071 C73.0696324 212.42084111 73.07201166 214.53603635 73.07804108 216.65121841 C73.08573056 219.53525708 73.08113632 222.41902226 73.07341003 225.30305481 C73.0785536 226.14313499 73.08369716 226.98321517 73.08899659 227.84875232 C73.0523233 234.02957146 72.1372742 238.35902331 67.63867188 242.86791992 C67.08824219 243.43768555 66.5378125 244.00745117 65.97070312 244.59448242 C58.85307644 250.06559073 51.74607525 249.68269508 43.08007812 249.64135742 C41.74161114 249.64338217 40.40314524 249.64629693 39.06468201 249.65005493 C36.26819286 249.65446105 33.4719925 249.64810412 30.67553711 249.6340332 C27.11038186 249.61695851 23.54590518 249.6267818 19.98077488 249.6447506 C17.21903984 249.65564942 14.45746267 249.65211411 11.69572258 249.64436722 C9.74828012 249.64142274 7.80083127 249.65045533 5.85340881 249.65975952 C-1.63453313 249.60065636 -7.81195745 249.22510262 -14.16210938 244.88354492 C-14.59910156 244.42463867 -15.03609375 243.96573242 -15.48632812 243.49291992 C-15.93621094 243.04432617 -16.38609375 242.59573242 -16.84960938 242.13354492 C-20.92613696 236.31336985 -21.61221953 231.12302921 -21.56150818 224.21681213 C-21.56689372 223.33034482 -21.57227925 222.44387751 -21.57782799 221.53054756 C-21.5920899 218.57198 -21.58500817 215.61386096 -21.57788086 212.65527344 C-21.58358533 210.52931357 -21.59054989 208.40335677 -21.59867859 206.27740479 C-21.6166162 200.51089293 -21.61544047 194.7445332 -21.6097362 188.97800183 C-21.60664534 184.16182737 -21.61273566 179.34568217 -21.61877495 174.52951187 C-21.63282047 163.16694799 -21.63125854 151.80445929 -21.61987305 140.44189453 C-21.60839068 128.72378127 -21.62246957 117.00589684 -21.64926952 105.28781372 C-21.67142733 95.22222169 -21.67806373 85.15670149 -21.67219311 75.0910868 C-21.66882269 69.08144173 -21.67124451 63.07194335 -21.68844414 57.0623188 C-21.70391241 51.41104205 -21.69995872 45.7601043 -21.68113899 40.10884094 C-21.67745288 38.03683474 -21.6805622 35.96480342 -21.69102478 33.89282036 C-21.70423457 31.06016062 -21.69268708 28.22862321 -21.67503357 25.39601135 C-21.68463858 24.57975314 -21.69424358 23.76349493 -21.70413965 22.92250162 C-21.62057741 16.38767173 -19.74339516 11.16185791 -15.39257812 6.21948242 C-14.82539063 5.7734668 -14.25820312 5.32745117 -13.67382812 4.86791992 C-13.10664063 4.40643555 -12.53945312 3.94495117 -11.95507812 3.46948242 C-7.86682723 0.6543272 -5.0075297 -0.0064975 0 0 Z " fill="#FD9600" transform="translate(171.173828125,441.757080078125)"/>
<path d="M0 0 C3.53556016 0.50265951 5.15821996 1.63173385 7.4453125 4.34765625 C9.17866151 8.50894539 9.69734783 12.28048882 9.9753418 16.71655273 C11.1174265 34.43922846 15.41583679 53.4604804 25.4453125 68.34765625 C26.13496094 69.37761719 26.82460938 70.40757812 27.53515625 71.46875 C38.95305928 87.54210733 53.91003116 97.40650305 73.23876953 101.00244141 C78.14895844 101.77064312 83.10642169 102.2360799 88.06347656 102.57763672 C93.58823123 103.01046782 97.10547991 104.16919142 101.2578125 108.03515625 C102.99972428 111.42730025 102.99585603 114.65534429 102.4453125 118.34765625 C100.80844065 121.93318506 99.75558667 123.1408068 96.4453125 125.34765625 C92.48154641 126.45989946 88.4388891 126.57272303 84.35131836 126.84057617 C65.17084363 128.21343997 46.88163111 134.97933866 33.4453125 149.34765625 C30.9071181 152.56270249 28.63699395 155.88922314 26.4453125 159.34765625 C26.05359863 159.9312793 25.66188477 160.51490234 25.25830078 161.11621094 C22.01297448 166.06345959 19.78670268 171.02838656 17.8203125 176.59765625 C17.52036377 177.43828613 17.22041504 178.27891602 16.91137695 179.14501953 C13.06941147 190.08089609 11.02832314 200.31080241 10.26635742 211.87646484 C9.80029601 218.09487334 9.17259714 223.93206128 4.2578125 228.28515625 C0.55125817 229.68541011 -2.68779668 230.11195365 -6.5546875 229.34765625 C-10.18119312 227.40008842 -11.91620072 226.19256555 -13.26171875 222.3046875 C-13.84402895 219.3268573 -14.20592798 216.36263341 -14.5546875 213.34765625 C-17.57211221 189.73667825 -22.31795944 165.99478259 -39.5546875 148.34765625 C-40.31265625 147.55101562 -41.070625 146.754375 -41.8515625 145.93359375 C-48.2421135 139.68923182 -55.42790093 135.85010972 -63.5546875 132.34765625 C-64.48667969 131.93515625 -65.41867187 131.52265625 -66.37890625 131.09765625 C-73.77300758 128.22861836 -81.22820547 127.60169277 -89.08227539 127.11791992 C-95.85722511 126.65083457 -101.23095183 125.84567209 -106.0546875 120.66015625 C-107.94120116 116.49410525 -108.1042801 113.65109628 -106.5546875 109.34765625 C-103.37642886 105.41665214 -101.0659973 103.66981735 -96.01782227 103.0222168 C-95.02065186 102.927229 -94.02348145 102.83224121 -92.99609375 102.734375 C-91.88685547 102.62029297 -90.77761719 102.50621094 -89.63476562 102.38867188 C-87.32566999 102.1566084 -85.01576965 101.93239088 -82.70507812 101.71679688 C-72.00298332 100.59058448 -62.17726093 98.14452488 -53.2421875 91.97265625 C-52.64954102 91.57401367 -52.05689453 91.17537109 -51.44628906 90.76464844 C-49.8024778 89.64489835 -48.17768637 88.49736508 -46.5546875 87.34765625 C-45.86503906 86.86554688 -45.17539062 86.3834375 -44.46484375 85.88671875 C-33.95048132 77.72262557 -27.33322265 65.48814169 -22.5546875 53.34765625 C-22.09320312 52.19652344 -21.63171875 51.04539063 -21.15625 49.859375 C-17.51434332 39.58478372 -16.22432303 29.09126526 -14.9855957 18.28662109 C-14.76842896 16.47025146 -14.76842896 16.47025146 -14.546875 14.6171875 C-14.36680908 12.98680542 -14.36680908 12.98680542 -14.18310547 11.32348633 C-12.3887664 2.82651706 -8.25392446 -0.27673508 0 0 Z " fill="#0D0D0B" transform="translate(537.5546875,88.65234375)"/>
<path d="M0 0 C2.8864926 0.07555792 4.46021568 0.26239349 6.82299805 1.97192383 C11.987243 7.64157794 13.03194999 12.28794369 13.5625 19.8125 C13.77172956 21.86673909 13.98909769 23.92016655 14.21484375 25.97265625 C14.37315674 27.43082764 14.37315674 27.43082764 14.53466797 28.91845703 C16.10193759 41.09459043 22.81035734 54.19902974 31.9609375 62.44140625 C40.75890588 68.91226695 50.15897706 71.15591502 60.875 72.5 C66.4248577 73.25126123 69.13129929 74.40283254 72.875 78.5625 C74.48053944 81.77357887 74.34969056 85.07920728 73.875 88.5625 C71.28725533 93.1408175 68.80292248 94.17046469 63.875 95.5625 C61.61094465 95.9208206 59.33898199 96.23172771 57.0625 96.5 C44.39005262 98.25526029 34.22603171 102.55260664 26.10546875 112.90234375 C25.49638672 113.72412109 25.49638672 113.72412109 24.875 114.5625 C24.194375 115.42875 23.51375 116.295 22.8125 117.1875 C16.00690717 129.04240364 13.46182438 142.25168093 12.4375 155.75 C11.79386563 160.11241072 10.7810296 162.26376369 7.875 165.5625 C4.61580547 167.75891371 2.7481572 168.58031953 -1.1875 168.5 C-4.7089651 167.37612816 -6.57642069 166.25266705 -9.125 163.5625 C-10.74052092 158.91266119 -11.49601768 154.36759278 -12.11303711 149.49511719 C-13.29796522 140.15478092 -15.16120423 132.15280817 -19.125 123.5625 C-19.56779297 122.46615234 -19.56779297 122.46615234 -20.01953125 121.34765625 C-24.41134864 111.2204061 -32.96428264 103.36356085 -43.12060547 99.21728516 C-47.77321047 97.69739641 -52.65176383 97.08639245 -57.50146484 96.53540039 C-63.10937614 95.88842378 -67.60691454 94.74484073 -72 90.9375 C-73.77772583 87.18452325 -73.90853758 83.62528745 -73.125 79.5625 C-69.59965728 74.95996923 -66.27772353 72.86188539 -60.5859375 72.0703125 C-59.22418871 71.94027283 -57.86219481 71.81278122 -56.5 71.6875 C-42.67640162 70.15778835 -32.98494572 64.63609586 -23.94140625 54.03515625 C-20.86241715 49.84375818 -18.93407674 45.41707283 -17.125 40.5625 C-16.76664063 39.62148437 -16.40828125 38.68046875 -16.0390625 37.7109375 C-13.34511959 29.87217129 -12.20438778 22.03103691 -11.42724609 13.80908203 C-10.91139302 9.27616032 -10.57609096 7.10742344 -7.58984375 3.5 C-6.77644531 2.860625 -5.96304688 2.22125 -5.125 1.5625 C-3.58574037 0.02324037 -2.13927004 0.17041643 0 0 Z " fill="#0C0C0B" transform="translate(254.125,212.4375)"/>
<path d="M0 0 C1.10268219 0.00142502 2.20536438 0.00285004 3.34146118 0.00431824 C4.58970673 0.00124161 5.83795227 -0.00183502 7.12402344 -0.00500488 C8.49289126 0.00189459 9.86175727 0.00916169 11.23062134 0.01676941 C12.63065549 0.01796148 14.03069046 0.01841431 15.4307251 0.01815796 C18.36798089 0.01972354 21.30511493 0.02801681 24.24234009 0.04142761 C28.00400779 0.05838624 31.76554122 0.06224283 35.52724266 0.06148243 C38.4200366 0.0617547 41.31280129 0.06724562 44.20558548 0.07448387 C45.5922384 0.07766268 46.97889463 0.07963611 48.36555099 0.08037758 C50.30675194 0.08255124 52.24794037 0.09210288 54.18911743 0.10197449 C55.8455275 0.10769218 55.8455275 0.10769218 57.53540039 0.11352539 C59.99833446 0.22870311 62.0472476 0.53241368 64.39468384 1.24723816 C64.39468384 1.90723816 64.39468384 2.56723816 64.39468384 3.24723816 C65.09593384 3.43286316 65.79718384 3.61848816 66.51968384 3.80973816 C70.92597272 6.0128826 74.18969128 9.83725305 76.39468384 14.24723816 C76.49501561 17.10815134 76.53362941 19.94486745 76.52839661 22.80615234 C76.53066216 23.70271488 76.53292772 24.59927742 76.53526193 25.52300853 C76.54162261 28.54543714 76.54077124 31.56782115 76.53994751 34.59025574 C76.54293774 36.74989887 76.54633995 38.90954146 76.55012512 41.06918335 C76.55898387 46.94938125 76.56130404 52.82956461 76.56194091 58.70976853 C76.56288863 63.6129518 76.56656539 68.51613165 76.570113 73.41931361 C76.57826493 84.98541065 76.58069659 96.5514999 76.57998657 108.11759949 C76.5793858 120.05997536 76.58993587 132.00230606 76.60573024 143.9446705 C76.61879463 154.18674457 76.62417092 164.42880387 76.62353116 174.67088622 C76.62327582 180.79281206 76.6261468 186.9146978 76.63670921 193.03661537 C76.64637151 198.79442519 76.64648221 204.5521564 76.63919258 210.30996895 C76.63814436 212.42515935 76.64052362 214.54035459 76.64655304 216.65553665 C76.65424252 219.53957531 76.64964828 222.42334049 76.641922 225.30737305 C76.64706556 226.14745323 76.65220912 226.9875334 76.65750855 227.85307056 C76.62083526 234.0338897 75.70578616 238.36334155 71.20718384 242.87223816 C70.65675415 243.44200378 70.10632446 244.01176941 69.53921509 244.59880066 C62.32266489 250.14594853 55.14861815 249.64494503 46.36734009 249.54020691 C45.00971447 249.53460339 43.65208274 249.53033686 42.29444885 249.52734375 C38.74170839 249.51595431 35.18934282 249.48653925 31.63674927 249.45323181 C28.00337798 249.42240259 24.36994543 249.40881112 20.73648071 249.39372253 C13.62239617 249.36166287 6.50856463 249.31053922 -0.60531616 249.24723816 C-0.60531616 248.91723816 -0.60531616 248.58723816 -0.60531616 248.24723816 C15.89468384 247.91723816 32.39468384 247.58723816 49.39468384 247.24723816 C49.72468384 246.25723816 50.05468384 245.26723816 50.39468384 244.24723816 C51.05468384 244.24723816 51.71468384 244.24723816 52.39468384 244.24723816 C52.53905884 243.48411316 52.68343384 242.72098816 52.83218384 241.93473816 C53.39468384 239.24723816 53.39468384 239.24723816 54.39468384 236.24723816 C54.49739216 233.347174 54.54248867 230.47086996 54.54185486 227.57048035 C54.54553155 226.67321322 54.54920823 225.7759461 54.55299634 224.85148907 C54.56404581 221.83235803 54.56787921 218.8132614 54.57168579 215.79411316 C54.57794963 213.63420502 54.58459635 211.47429796 54.59159851 209.31439209 C54.60901879 203.4359232 54.6195637 197.55746246 54.62780404 191.67897415 C54.63295344 188.00555022 54.63902928 184.33212881 54.64531517 180.65870667 C54.66437259 169.16358873 54.67860094 157.66847722 54.68692714 146.17334652 C54.69669387 132.90839228 54.72299649 119.64360516 54.76342803 106.37870979 C54.79360852 96.12463299 54.80839797 85.87060403 54.81170815 75.61648369 C54.81405696 69.4932044 54.82299532 63.37010354 54.84816933 57.24687195 C54.8714878 51.48158166 54.87566791 45.71658678 54.86540794 39.95126152 C54.86491335 37.84019423 54.87121109 35.72911222 54.88496399 33.61808968 C55.26867968 18.4224477 55.26867968 18.4224477 50.39468384 4.24723816 C48.59644454 2.03030586 48.59644454 2.03030586 46.14208984 2.00672913 C45.20499176 2.01117035 44.26789368 2.01561157 43.30239868 2.02018738 C42.24144989 2.02033844 41.1805011 2.0204895 40.08740234 2.02064514 C38.36392075 2.036129 38.36392075 2.036129 36.60562134 2.05192566 C35.43206085 2.05475555 34.25850037 2.05758545 33.04937744 2.0605011 C29.28937722 2.07172461 25.52961245 2.09683324 21.76968384 2.12223816 C19.22541644 2.13226515 16.68114531 2.14139148 14.13687134 2.14958191 C7.88939474 2.17167102 1.6420561 2.20516992 -4.60531616 2.24723816 C-2.60531616 0.24723816 -2.60531616 0.24723816 0 0 Z " fill="#F27B00" transform="translate(167.60531616210938,441.7527618408203)"/>
<path d="M0 0 C0.495 0.99 0.495 0.99 1 2 C1.66 2 2.32 2 3 2 C5.03435531 5.72965139 6 7.66905042 6 12 C6.66 12 7.32 12 8 12 C9.19140625 13.8359375 9.19140625 13.8359375 10.5625 16.375 C14.01292823 22.31275149 18.26038843 27.06323321 23 32 C23.72316406 32.78632813 24.44632813 33.57265625 25.19140625 34.3828125 C30.98887354 40.50178513 37.44840071 45.22420036 45 49 C45 49.99 45 50.98 45 52 C44.19949219 52.4021875 44.19949219 52.4021875 43.3828125 52.8125 C23.39908274 63.32297379 9.20502324 80.80650078 2 102 C1.01 102 0.02 102 -1 102 C-1.495 100.1746875 -1.495 100.1746875 -2 98.3125 C-6.48659073 84.87389098 -16.10530662 72.83353517 -27 64 C-27.80824219 63.31679687 -28.61648438 62.63359375 -29.44921875 61.9296875 C-34.40806718 57.81376737 -39.10839515 54.61849105 -45 52 C-45 51.01 -45 50.02 -45 49 C-42.92116479 47.51598479 -40.8845196 46.22301431 -38.6875 44.9375 C-21.37595543 34.28745184 -8.74879125 18.21514897 0 0 Z " fill="#FAD800" transform="translate(535,153)"/>
<path d="M0 0 C10.46853138 -0.80942253 17.42265319 1.24091949 25.6875 7.6875 C31.36735874 12.89628041 36.08445763 19.49745905 38 27 C38.49822166 28.37564537 38.99842101 29.75057521 39.5 31.125 C44.8782894 47.66938262 43.89731352 65.15812696 41.25 82.125 C41.09321777 83.14295654 40.93643555 84.16091309 40.77490234 85.2097168 C39.73692137 91.29479315 38.11154311 96.83932851 35.89648438 102.59765625 C34.87261406 105.34136102 34.20618694 108.0694688 33.625 110.9375 C32.33051831 116.39683583 30.1803766 120.94547667 27.5625 125.88671875 C24.95181387 131.08851087 22.9912805 136.53719509 21 142 C20.34 142 19.68 142 19 142 C18.34 144.64 17.68 147.28 17 150 C16.34 150 15.68 150 15 150 C14.71125 150.886875 14.4225 151.77375 14.125 152.6875 C13.16851252 155.50382424 12.13201054 158.25083156 11 161 C10.34 161 9.68 161 9 161 C8.01 166.445 8.01 166.445 7 172 C6.67 172 6.34 172 6 172 C6 169.69 6 167.38 6 165 C5.01 164.67 4.02 164.34 3 164 C-1.40085692 158.21601663 -1.94043404 153.13789436 -1 146 C0.666998 139.3405131 3.26597193 133.04849831 6.16796875 126.83984375 C7.11074817 124.83904535 7.11074817 124.83904535 8 122 C8.66 122 9.32 122 10 122 C10.103125 121.175 10.20625 120.35 10.3125 119.5 C11 116 11 116 12.375 112.5625 C14.46174326 107.33037299 15.27383236 101.81349798 16.25390625 96.29296875 C17 93 17 93 19 90 C21.37269937 79.73294903 21.21149436 69.03810362 21.25 58.5625 C21.25918457 57.27110107 21.26836914 55.97970215 21.27783203 54.64916992 C21.25562748 47.79107286 20.79277934 41.61183151 19 35 C18.69992734 33.50165897 18.40743435 32.00176572 18.125 30.5 C15.45615785 18.60399817 8.51511255 8.51511255 0 0 Z " fill="#DCC19A" transform="translate(421,283)"/>
<path d="M0 0 C0.66 0.33 1.32 0.66 2 1 C2.625 3.5625 2.625 3.5625 3 6 C3.66 6 4.32 6 5 6 C6.08169084 7.43526292 7.08958839 8.92638196 8.0625 10.4375 C12.41844334 16.85726555 17.51364376 22.67576251 24 27 C24 27.66 24 28.32 24 29 C22.3125 30.41015625 22.3125 30.41015625 20 32.0625 C11.98810905 38.11873253 5.23121948 45.83235779 1 55 C-1.55715115 53.72142442 -1.81429172 52.60812908 -3.0625 50.0625 C-7.48857069 41.88728707 -13.80249409 35.32390737 -21.56640625 30.25390625 C-22.03949219 29.84011719 -22.51257813 29.42632812 -23 29 C-23 28.01 -23 27.02 -23 26 C-21.34765625 24.5625 -21.34765625 24.5625 -19.0625 23 C-12.45604822 18.0974274 -6.39153856 11.5821307 -3 4 C-2.34 4 -1.68 4 -1 4 C-0.67 2.68 -0.34 1.36 0 0 Z " fill="#F7D600" transform="translate(254,269)"/>
<path d="M0 0 C5.60504881 -0.04951793 11.20996965 -0.08577555 16.81518555 -0.10986328 C18.7211326 -0.11990737 20.62706429 -0.13354516 22.53295898 -0.15087891 C25.27591752 -0.17519718 28.01867191 -0.18649912 30.76171875 -0.1953125 C32.03543587 -0.21079636 32.03543587 -0.21079636 33.33488464 -0.22659302 C37.68255955 -0.22741351 41.0400665 -0.03452583 45 2 C45 2.66 45 3.32 45 4 C45.5775 4.2475 46.155 4.495 46.75 4.75 C50.74707704 6.97059836 53.25615303 9.8012955 55 14 C56.01995189 20.81757317 55.18682815 26.23468469 51.48828125 32.05859375 C47.80378723 36.86487598 43.89699694 39.4310744 38 41 C35.1807023 41.1789397 32.46423685 41.26196858 29.6477356 41.24050903 C28.40885474 41.24307231 28.40885474 41.24307231 27.14494598 41.24568737 C24.38576681 41.24897372 21.62683244 41.23799266 18.86767578 41.22705078 C16.88652044 41.22648648 14.90536469 41.22680359 12.92420959 41.22793579 C7.55073264 41.22850958 2.177345 41.21675102 -3.1961112 41.20278788 C-8.81352632 41.19028487 -14.43094348 41.18911035 -20.04837036 41.18673706 C-30.68360527 41.18052104 -41.31879905 41.16410853 -51.95401585 41.14403808 C-64.06274595 41.12168292 -76.17147801 41.11068661 -88.28022361 41.10064721 C-113.18683854 41.07974244 -138.09341696 41.04456404 -163 41 C-163 40.67 -163 40.34 -163 40 C-99.97 40 -36.94 40 28 40 C28.66 38.35 29.32 36.7 30 35 C30.804375 33.576875 30.804375 33.576875 31.625 32.125 C34.43003174 25.56554115 34.16699427 16.85844052 32.1328125 10.1328125 C31.18205573 8.01616421 30.13391737 6.02192494 29 4 C28.67 3.01 28.34 2.02 28 1 C18.76 1 9.52 1 0 1 C0 0.67 0 0.34 0 0 Z " fill="#DBC099" transform="translate(522,650)"/>
<path d="M0 0 C20.07128184 -0.0935067 40.14251939 -0.16401026 60.213974 -0.20724869 C69.53383675 -0.22786008 78.85356404 -0.25595346 88.17333984 -0.30175781 C96.2979555 -0.34166917 104.42247303 -0.36744316 112.54718399 -0.37635398 C116.84784342 -0.38156146 121.14822217 -0.39377114 125.4487915 -0.42292023 C129.50027004 -0.45015738 133.55135341 -0.45842834 137.60291481 -0.45243073 C139.0863542 -0.45352727 140.56980739 -0.46143186 142.05316734 -0.4768219 C150.1425078 -0.55660256 156.11410144 -0.4450716 163 4 C164.3921875 4.8971875 164.3921875 4.8971875 165.8125 5.8125 C170.39860412 10.39860412 171.26864806 15.01789767 171.75 21.3125 C171.61740531 28.07482905 169.13682599 31.30452861 164.45703125 35.9765625 C159.47453587 40.07979399 156.26447598 41.37595444 149.73120117 41.43237305 C148.66209 41.44766052 148.66209 41.44766052 147.57138062 41.46325684 C145.22849598 41.49331787 142.88602067 41.50264188 140.54296875 41.51171875 C138.91342314 41.52857061 137.28389049 41.54672154 135.65437317 41.56611633 C131.37517344 41.61356763 127.09602626 41.64340836 122.81665039 41.66955566 C118.44602075 41.69938585 114.07557207 41.74590772 109.70507812 41.79101562 C101.13680776 41.87699331 92.56852084 41.94436305 84 42 C84.495 41.01 84.495 41.01 85 40 C104.47 40 123.94 40 144 40 C144.66 38.35 145.32 36.7 146 35 C146.7734375 33.7315625 146.7734375 33.7315625 147.5625 32.4375 C151.05075764 26.52262835 150.74915329 19.45394509 149.328125 12.90234375 C148.60237791 10.24925889 147.83680421 7.61999415 147 5 C146.34 5 145.68 5 145 5 C144.67 3.68 144.34 2.36 144 1 C96.48 1 48.96 1 0 1 C0 0.67 0 0.34 0 0 Z " fill="#DBC098" transform="translate(437,463)"/>
<path d="M0 0 C10.14480522 -0.09292324 20.28950819 -0.16387795 30.43465328 -0.20724869 C35.1461236 -0.22807077 39.85730147 -0.25628944 44.56860352 -0.30175781 C49.1203401 -0.34540837 53.67179643 -0.36917752 58.22372627 -0.37950897 C59.95517955 -0.38686601 61.68661851 -0.40123231 63.41795158 -0.42292023 C82.78993136 -0.65580602 82.78993136 -0.65580602 90.9375 6.625 C91.618125 7.40875 92.29875 8.1925 93 9 C93.99 9.99 93.99 9.99 95 11 C96.96562363 16.81978761 97.31896761 24.00355345 94.8359375 29.64453125 C91.02846322 35.53147225 86.77229796 39.81604926 80 42 C77.3257448 42.17677708 74.7600628 42.25336167 72.08862305 42.22705078 C71.30760727 42.22734283 70.52659149 42.22763489 69.72190857 42.22793579 C67.15173055 42.22654736 64.58184586 42.21100921 62.01171875 42.1953125 C60.22524677 42.19158064 58.43877274 42.18873448 56.65229797 42.18673706 C51.9587129 42.17911424 47.26525232 42.15947736 42.57171631 42.1373291 C37.77894779 42.11684155 32.98615909 42.10772912 28.19335938 42.09765625 C18.79551833 42.0762302 9.39776953 42.04211056 0 42 C0 41.67 0 41.34 0 41 C34.155 40.505 34.155 40.505 69 40 C74.26254544 27.36989093 76.05614896 19.80707917 71.8515625 7.0234375 C70.96986037 4.75056282 70.96986037 4.75056282 69 2 C66.01029037 1.52047198 66.01029037 1.52047198 62.43896484 1.56762695 C61.42903221 1.55233948 61.42903221 1.55233948 60.3986969 1.53674316 C58.1693603 1.50650665 55.94045257 1.49733151 53.7109375 1.48828125 C52.16678426 1.47144236 50.6226448 1.45329319 49.07852173 1.43388367 C45.01135563 1.38629127 40.94424535 1.35654202 36.87689209 1.33044434 C32.72771169 1.30068514 28.57872386 1.25413902 24.4296875 1.20898438 C16.28655272 1.12284629 8.1434006 1.05554811 0 1 C0 0.67 0 0.34 0 0 Z " fill="#D2B892" transform="translate(522,525)"/>
<path d="M0 0 C2.96535591 2.47112992 4.08412364 4.17162803 5.25 7.875 C5.19243668 13.67090702 3.1407076 17.45172499 -0.77734375 21.62109375 C-2.39635595 23.2032204 -4.03368257 24.76679203 -5.6875 26.3125 C-6.51185547 27.11365234 -7.33621094 27.91480469 -8.18554688 28.74023438 C-16.4694596 36.72805274 -16.4694596 36.72805274 -21.5625 37.3125 C-26.43289567 37.19589753 -28.43980687 35.34282137 -31.75 31.875 C-33.87363194 29.10504529 -33.75366995 27.94350568 -33.5625 24.375 C-32.78240205 21.01457805 -32.16397294 19.28897294 -29.75 16.875 C-29.09 16.875 -28.43 16.875 -27.75 16.875 C-27.75 16.215 -27.75 15.555 -27.75 14.875 C-27.09 14.875 -26.43 14.875 -25.75 14.875 C-25.52054687 14.32070312 -25.29109375 13.76640625 -25.0546875 13.1953125 C-23.38635335 10.22827511 -21.28722062 8.14790477 -18.875 5.75 C-18.01132812 4.88117188 -17.14765625 4.01234375 -16.2578125 3.1171875 C-11.25972331 -1.35150906 -6.46235581 -2.64369101 0 0 Z " fill="#0C0C0C" transform="translate(338.75,167.125)"/>
<path d="M0 0 C5.13027494 2.9594957 9.05962292 6.78841997 13.1875 11 C13.80302734 11.61617187 14.41855469 12.23234375 15.05273438 12.8671875 C23.75118391 21.65045398 23.75118391 21.65045398 24 27 C22.3966416 32.07730159 20.68935287 35.33559496 16 38 C11.24393597 38.69179113 8.62880104 38.09174288 4.72827148 35.35546875 C1.1702406 32.56493514 -2.03248866 29.42036831 -5.25 26.25 C-6.32894531 25.23292969 -6.32894531 25.23292969 -7.4296875 24.1953125 C-12.04144002 19.65264991 -14.14300851 16.46199225 -15 10 C-14.30665109 6.27324962 -12.95725129 4.95526298 -10.3125 2.1875 C-6.37519198 -0.41260907 -4.62866222 -0.74389214 0 0 Z " fill="#191919" transform="translate(367,166)"/>
<path d="M0 0 C3.63218181 2.55025531 5.2270072 4.69565063 6 9 C6 17.14995694 -0.71007394 22.27849588 -6.0625 27.8125 C-6.87138672 28.69615234 -7.68027344 29.57980469 -8.51367188 30.49023438 C-12.57444659 34.66712338 -15.40704779 37.57165865 -21.4296875 37.7265625 C-25.17462619 37.47178943 -25.96775592 37.02566366 -29.0625 34.5625 C-29.701875 33.716875 -30.34125 32.87125 -31 32 C-31.33 31.67 -31.66 31.34 -32 31 C-32.82205665 26.81498432 -32.75741411 23.32280774 -30.61328125 19.578125 C-28.83497399 17.27905531 -26.98267786 15.12459586 -25 13 C-24.21625 12.154375 -23.4325 11.30875 -22.625 10.4375 C-8.7560835 -2.44077961 -8.7560835 -2.44077961 0 0 Z " fill="#0C0C0C" transform="translate(385,120)"/>
<path d="M0 0 C4.43185242 3.23219582 8.29184798 6.99799547 11.75 11.25 C13.8970645 14.07464461 13.8970645 14.07464461 16.6875 16.125 C19.12934049 18.10487066 20.08967742 19.02076247 21 22 C21.41717033 26.2959668 21.66893849 30.39693304 19 34 C16.56071537 36.73199878 14.29150337 37.32022346 10.75 37.625 C4.73163494 37.36120802 2.02262176 34.15129148 -2 30 C-3.10317354 28.95841635 -4.21025505 27.92096283 -5.3203125 26.88671875 C-6.5064764 25.75914495 -7.69136684 24.63023007 -8.875 23.5 C-9.44702148 22.96673096 -10.01904297 22.43346191 -10.60839844 21.8840332 C-14.33447091 18.2286737 -16.10856066 15.30499913 -17 10 C-15.88799866 5.62612808 -14.50055739 2.96368442 -10.75 0.5 C-6.77889722 -1.39416618 -4.24285466 -1.46305333 0 0 Z " fill="#111111" transform="translate(322,120)"/>
<path d="M0 0 C3.97868775 2.5318922 5.56412316 4.56270835 7 9 C7.25878906 11.69140625 7.25878906 11.69140625 7.265625 14.5625 C7.26949219 16.12871094 7.26949219 16.12871094 7.2734375 17.7265625 C7.26570312 18.80679687 7.25796875 19.88703125 7.25 21 C7.25773438 22.08023437 7.26546875 23.16046875 7.2734375 24.2734375 C7.27085937 25.31757813 7.26828125 26.36171875 7.265625 27.4375 C7.26336914 28.38496094 7.26111328 29.33242188 7.25878906 30.30859375 C6.88185799 34.22867688 5.66919008 37.07342913 3.375 40.25 C0.06060423 42.69218636 -2.91415789 43.20388434 -7 43 C-11.18139887 41.28942774 -13.47521332 38.69435698 -16 35 C-16.51757812 32.04907227 -16.51757812 32.04907227 -16.53125 28.81640625 C-16.53640625 27.64142578 -16.5415625 26.46644531 -16.546875 25.25585938 C-16.53140625 24.03705078 -16.5159375 22.81824219 -16.5 21.5625 C-16.51546875 20.34755859 -16.5309375 19.13261719 -16.546875 17.88085938 C-16.4981253 6.75983441 -16.4981253 6.75983441 -12 2 C-7.70068048 -0.8973675 -4.9684016 -1.58566009 0 0 Z " fill="#1C1C1C" transform="translate(623,369)"/>
<path d="M0 0 C3.03542667 2.4713865 4.75967256 5.27901768 6 9 C6.2588352 12.93311853 6.23140069 16.87177186 6.25 20.8125 C6.270625 21.89337891 6.29125 22.97425781 6.3125 24.08789062 C6.3455719 30.8221562 5.94893999 35.59737694 1.375 40.875 C-2.37007916 42.64898487 -5.93905055 42.65990429 -10 42 C-13.60592877 39.85178712 -15.45499009 37.85621346 -17 34 C-17.50534414 29.5755589 -17.46246469 25.13778061 -17.5 20.6875 C-17.54125 19.47642578 -17.5825 18.26535156 -17.625 17.01757812 C-17.71257945 7.01710007 -17.71257945 7.01710007 -14.15625 2.70703125 C-10.05463141 -1.37096345 -5.42248934 -1.74407552 0 0 Z " fill="#1B1B1B" transform="translate(624,307)"/>
<path d="M0 0 C1.99739508 -0.01933119 3.99422211 -0.08171117 5.99072266 -0.14453125 C16.82054523 -0.23231097 16.82054523 -0.23231097 21.13525391 3.19921875 C23.56287698 5.81572576 24.72523141 7.81825729 24.64306641 11.48046875 C24.66111328 12.28484375 24.67916016 13.08921875 24.69775391 13.91796875 C23.15385136 18.17343123 20.8289569 20.47883854 16.76806641 22.48046875 C11.87252791 23.30346093 7.09496655 23.22804054 2.14306641 23.10546875 C0.17853516 23.11513672 0.17853516 23.11513672 -1.82568359 23.125 C-12.50998455 23.00482893 -12.50998455 23.00482893 -17.23193359 18.48046875 C-19.52047354 15.21112597 -19.70355577 12.41065355 -19.23193359 8.48046875 C-14.32958626 -0.30994717 -9.33166457 0.0546377 0 0 Z " fill="#181818" transform="translate(647.23193359375,347.51953125)"/>
<path d="M0 0 C1.89298828 0.00290039 1.89298828 0.00290039 3.82421875 0.00585938 C14.25429725 0.15517651 14.25429725 0.15517651 18.875 3.5625 C21.73062369 7.65556063 22.16794085 10.73562633 21.78515625 15.53515625 C20.22017658 19.0210981 18.28498699 20.98683001 14.875 22.5625 C10.03125209 23.30590951 5.26644678 23.25993011 0.375 23.1875 C-0.93082031 23.20683594 -2.23664062 23.22617187 -3.58203125 23.24609375 C-14.21551093 23.19178589 -14.21551093 23.19178589 -17.96875 20.1484375 C-20.56527296 17.03449149 -21.3546304 15.28693319 -21.625 11.3125 C-21.73328125 10.19101562 -21.73328125 10.19101562 -21.84375 9.046875 C-20.8545302 5.62761526 -19.32041284 3.9707719 -16.54980469 1.77099609 C-11.39479628 -0.79820363 -5.62588571 -0.16478699 0 0 Z " fill="#181818" transform="translate(587.125,347.4375)"/>
<path d="M0 0 C8.82793985 -0.80138359 15.05725237 -0.70692907 22.06640625 5.09375 C26.59582168 9.55911309 27.18723867 13.16851898 27.4375 19.375 C27.26962035 25.05062341 26.78040535 29.59952817 23 34 C17.38411493 38.62246136 12.67000094 41.12943601 5.33520508 41.11352539 C4.17422806 41.11344986 3.01325104 41.11337433 1.8170929 41.11329651 C0.56389755 41.10813522 -0.68929779 41.10297394 -1.98046875 41.09765625 C-3.26359451 41.0962413 -4.54672028 41.09482635 -5.86872864 41.09336853 C-9.27670241 41.08955405 -12.68463343 41.07973291 -16.09259033 41.06866455 C-19.57148663 41.05842743 -23.05038985 41.05386598 -26.52929688 41.04882812 C-33.35288212 41.03810967 -40.17643901 41.02104609 -47 41 C-47 40.67 -47 40.34 -47 40 C-46.41784225 39.99857498 -45.83568451 39.99714996 -45.23588562 39.99568176 C-39.18485196 39.97601818 -33.13483162 39.9218174 -27.08422852 39.84741211 C-24.82518785 39.82419333 -22.56603834 39.80982735 -20.30688477 39.80444336 C-17.06196961 39.79518235 -13.81877572 39.754253 -10.57421875 39.70703125 C-9.56163498 39.7109639 -8.54905121 39.71489655 -7.50578308 39.71894836 C-4.90773023 39.66470029 -2.53437131 39.57389051 0 39 C2.22973166 36.8067936 2.22973166 36.8067936 3 34 C3.391875 32.906875 3.78375 31.81375 4.1875 30.6875 C4.455625 29.800625 4.72375 28.91375 5 28 C5.66 28 6.32 28 7 28 C6.67 21.73 6.34 15.46 6 9 C5.34 9 4.68 9 4 9 C2.68 6.03 1.36 3.06 0 0 Z " fill="#DAC099" transform="translate(570,588)"/>
<path d="M0 0 C17.74176345 0.08394382 35.48342989 0.17909337 53.22506046 0.28752708 C61.46309115 0.33761615 69.70111206 0.38405946 77.93920898 0.421875 C85.12081497 0.4548502 92.30234434 0.49471188 99.48386568 0.54279006 C103.28525635 0.56800016 107.08659656 0.58979754 110.88804817 0.60334396 C114.46920477 0.61621429 118.05018781 0.63832178 121.63124847 0.66738319 C123.56575164 0.68071541 125.50031399 0.68437084 127.43486023 0.68769836 C133.32974314 0.74431363 138.44528924 0.95669712 144 3 C140.81040931 4.0631969 138.59827204 4.10890066 135.24836731 4.08229065 C134.04943344 4.07525116 132.85049957 4.06821167 131.61523438 4.06095886 C130.29821533 4.04801285 128.98119629 4.03506683 127.62426758 4.02172852 C126.22483119 4.01158533 124.82539149 4.0018917 123.4259491 3.99261475 C119.62454941 3.96613771 115.8232269 3.93335739 112.02188706 3.89946485 C108.05007507 3.86511791 104.07822171 3.83654086 100.10636902 3.80735779 C92.5840814 3.75120815 85.06184557 3.68985219 77.53961438 3.62663645 C68.97625568 3.55492392 60.41285551 3.48899908 51.84944689 3.42356598 C34.23291059 3.28882789 16.61643968 3.14680335 -1 3 C-0.67 2.01 -0.34 1.02 0 0 Z " fill="#4E4E4E" transform="translate(456,440)"/>
<path d="M0 0 C0.65392731 -0.00014603 1.30785461 -0.00029205 1.9815979 -0.0004425 C4.14051646 0.00025351 6.29934848 0.00803131 8.45825195 0.01586914 C9.95612033 0.01773443 11.45398932 0.01915781 12.95185852 0.02015686 C16.89248339 0.02397333 20.83307135 0.03379619 24.77368164 0.04486084 C28.79548646 0.05509367 32.81729724 0.05965849 36.83911133 0.06469727 C44.72910222 0.07541923 52.61906312 0.09248522 60.5090332 0.11352539 C60.5090332 0.44352539 60.5090332 0.77352539 60.5090332 1.11352539 C52.29848245 2.01848277 44.17879003 2.26056695 35.9230957 2.28930664 C33.33845188 2.31247586 30.7538164 2.33659194 28.16918945 2.36157227 C24.13348293 2.39683476 20.09809361 2.42783572 16.06225586 2.43945312 C12.1405844 2.45147042 8.21953924 2.49501923 4.2980957 2.53930664 C3.08973053 2.53739822 1.88136536 2.53548981 0.63638306 2.53352356 C-5.91538781 2.55581668 -5.91538781 2.55581668 -11.7902832 5.14941406 C-12.35150879 5.7975708 -12.91273438 6.44572754 -13.4909668 7.11352539 C-13.4909668 6.12352539 -13.4909668 5.13352539 -13.4909668 4.11352539 C-9.22915785 0.29259323 -5.56880313 -0.01044804 0 0 Z " fill="#3B3328" transform="translate(529.490966796875,503.886474609375)"/>
<path d="M0 0 C0 0.33 0 0.66 0 1 C-1.27875 1.0825 -2.5575 1.165 -3.875 1.25 C-6.04634555 1.30367785 -6.04634555 1.30367785 -8 2 C-8.43626709 2.88171875 -8.43626709 2.88171875 -8.88134766 3.78125 C-10.19585052 6.38845253 -11.78421907 8.04310099 -13.84375 10.109375 C-14.97103516 11.24052734 -14.97103516 11.24052734 -16.12109375 12.39453125 C-16.90613281 13.17183594 -17.69117188 13.94914063 -18.5 14.75 C-19.28503906 15.54277344 -20.07007813 16.33554688 -20.87890625 17.15234375 C-21.63042969 17.90128906 -22.38195312 18.65023437 -23.15625 19.421875 C-23.84525391 20.10862305 -24.53425781 20.79537109 -25.24414062 21.50292969 C-27 23 -27 23 -29 23 C-28.74337755 24.44010481 -28.46909179 25.8770687 -28.1875 27.3125 C-27.96126953 28.51326172 -27.96126953 28.51326172 -27.73046875 29.73828125 C-26.89850863 32.31424332 -26.1659701 33.39315242 -24 35 C-22.02530748 35.53459737 -22.02530748 35.53459737 -19.9375 35.625 C-16 36 -16 36 -14 37 C-15 38 -15 38 -18.6875 38.375 C-21.98757044 38.33945166 -23.79808588 37.8242568 -26.375 35.75 C-30.30232558 31.63565891 -30.30232558 31.63565891 -31 29 C-30.75779748 24.47888626 -30.26668124 21.26668124 -27 18 C-26.34 18 -25.68 18 -25 18 C-25 17.34 -25 16.68 -25 16 C-24.34 16 -23.68 16 -23 16 C-22.77054687 15.44570312 -22.54109375 14.89140625 -22.3046875 14.3203125 C-20.63635335 11.35327511 -18.53722062 9.27290477 -16.125 6.875 C-15.26132812 6.00617188 -14.39765625 5.13734375 -13.5078125 4.2421875 C-8.94687746 0.16434215 -6.11508329 -0.23519551 0 0 Z " fill="#6B6B6B" transform="translate(336,166)"/>
<path d="M0 0 C1.0166637 3.34039528 1.0886036 6.32304007 1.02734375 9.8046875 C1.01380859 10.9388208 1.00027344 12.0729541 0.98632812 13.24145508 C0.97021484 14.4405249 0.95410156 15.63959473 0.9375 16.875 C0.86985535 25.44050348 1.08197035 33.5090625 2.54296875 41.94921875 C4.01635846 51.7844099 3.42992646 61.62276985 0 71 C-0.99 71.99 -0.99 71.99 -2 73 C-1.86722656 72.35933594 -1.73445313 71.71867187 -1.59765625 71.05859375 C1.06377722 58.02339769 1.45874121 47.09113562 -1 34 C-2.84127609 24.19644895 -4.22637605 15.1445142 -1.5 5.375 C-1.2215625 4.35148437 -0.943125 3.32796875 -0.65625 2.2734375 C-0.4396875 1.52320313 -0.223125 0.77296875 0 0 Z " fill="#858585" transform="translate(385,287)"/>
<path d="M0 0 C3.63218181 2.55025531 5.2270072 4.69565063 6 9 C6 13.18191822 5.61037178 14.8095456 3 18 C2.01 18.495 2.01 18.495 1 19 C1.48339844 18.14921875 1.48339844 18.14921875 1.9765625 17.28125 C3.64499685 13.56229709 3.56562647 9.99611426 3 6 C1.73061576 3.31379818 1.73061576 3.31379818 -1 2 C-3.99619307 1.40179278 -6.94994291 1.13034432 -10 1 C-10.38393921 1.87072144 -10.38393921 1.87072144 -10.77563477 2.7590332 C-12.11932446 5.21840064 -13.61395933 6.87262787 -15.58984375 8.85546875 C-16.29173828 9.55994141 -16.99363281 10.26441406 -17.71679688 10.99023438 C-18.44962891 11.71533203 -19.18246094 12.44042969 -19.9375 13.1875 C-21.03094727 14.29254883 -21.03094727 14.29254883 -22.14648438 15.41992188 C-22.84966797 16.12052734 -23.55285156 16.82113281 -24.27734375 17.54296875 C-24.91921631 18.18258545 -25.56108887 18.82220215 -26.22241211 19.48120117 C-28 21 -28 21 -31 22 C-28.25780343 15.51844448 -23.16781679 11.12805626 -17.92578125 6.67578125 C-16.25440727 5.22138077 -14.71519422 3.72654047 -13.1875 2.125 C-9.24059136 -1.70913982 -5.0621181 -1.41107775 0 0 Z " fill="#6A6A6A" transform="translate(385,120)"/>
<path d="M0 0 C2.95011311 2.95011311 3.01015994 6.45873003 3.625 10.4375 C3.75616211 11.28062744 3.88732422 12.12375488 4.02246094 12.99243164 C5.64740757 24.37022356 8.55843097 45.16235354 2 55 C2.01047363 53.86046875 2.02094727 52.7209375 2.03173828 51.546875 C2.0681339 47.2902342 2.09097125 43.03360696 2.10986328 38.77685547 C2.11987648 36.93991782 2.13349102 35.10299593 2.15087891 33.26611328 C2.17533422 30.61486911 2.18653013 27.963837 2.1953125 25.3125 C2.20563507 24.50071289 2.21595764 23.68892578 2.22659302 22.85253906 C2.22761715 17.56308961 1.42446018 13.09411444 0 8 C-0.20992436 5.27938032 -0.09771582 2.736043 0 0 Z " fill="#868686" transform="translate(481,310)"/>
<path d="M0 0 C-8.40976866 3.93648746 -16.22403103 5.20041977 -25.49609375 5.4609375 C-28.12629359 5.72160903 -28.12629359 5.72160903 -29.22265625 7.8515625 C-29.47917969 8.56054688 -29.73570312 9.26953125 -30 10 C-30.99 11.485 -30.99 11.485 -32 13 C-31.71206134 17.41505949 -30.46418114 20.35729745 -28 24 C-31.16115776 22.63016497 -31.9927092 22.0109362 -34 19 C-34.54543879 15.93405985 -34.53376742 13.06781478 -34 10 C-30.42017576 5.32634057 -27.07471107 3.31715329 -21.3203125 2.4375 C-19.92266712 2.284261 -18.52416961 2.13863332 -17.125 2 C-13.16794746 1.6035606 -9.47080938 1.1595213 -5.6796875 -0.125 C-3 -1 -3 -1 0 0 Z " fill="#7F7F7F" transform="translate(215,282)"/>
<path d="M0 0 C6.38294583 6.99084543 6.57574826 16.13610273 6.2890625 25.11328125 C5.71523925 32.82887771 3.68373726 38.86268911 -1 45 C-1.33 44.34 -1.66 43.68 -2 43 C-1.22152461 41.54379309 -0.4000047 40.11057708 0.4375 38.6875 C3.22340701 32.84407944 3.50055201 27.60754876 3.5 21.25 C3.50572021 20.35112061 3.51144043 19.45224121 3.51733398 18.52612305 C3.41342363 12.88937803 2.3958735 9.07211518 0 4 C0 2.68 0 1.36 0 0 Z " fill="#707070" transform="translate(613,587)"/>
<path d="M0 0 C4.27024238 0.66873607 7.90494225 2.12629268 11.875 3.8125 C24.60544373 9.03058814 37.37334312 11.63912494 51 13 C51 13.33 51 13.66 51 14 C36.91906682 15.28789023 23.01878576 10.68117476 9.9375 5.875 C9.27717773 5.63378418 8.61685547 5.39256836 7.93652344 5.14404297 C4.69417325 3.88979698 2.20918917 2.73518659 0 0 Z " fill="#7C7C7C" transform="translate(307,698)"/>
<path d="M0 0 C2 2 2 2 2.22705078 4.52197266 C2.21657715 5.5588623 2.20610352 6.59575195 2.1953125 7.6640625 C2.18886719 8.78554688 2.18242187 9.90703125 2.17578125 11.0625 C2.15902344 12.238125 2.14226562 13.41375 2.125 14.625 C2.11597656 15.80835938 2.10695313 16.99171875 2.09765625 18.2109375 C2.07402812 21.14082523 2.04108514 24.0703134 2 27 C1.67 27 1.34 27 1 27 C-0.76750663 20.92419595 -1.192758 15.28790722 -1.1875 9 C-1.18814453 8.23373291 -1.18878906 7.46746582 -1.18945312 6.67797852 C-1.13477292 1.13477292 -1.13477292 1.13477292 0 0 Z " fill="#C9B48F" transform="translate(405,294)"/>
<path d="M0 0 C9.59017904 0.79719851 17.66349977 1.74960803 26 7 C22.28142064 8.85928968 17.31657162 6.06901587 13.47265625 4.82617188 C9.17294491 3.486733 5.56422874 2.70201691 1 3 C0.34 4.65 -0.32 6.3 -1 8 C-2.2077558 4.37673261 -1.54311128 3.35853631 0 0 Z " fill="#696969" transform="translate(263,680)"/>
<path d="M0 0 C1.05127928 3.38391578 1.04087598 6.33203425 0.87890625 9.859375 C0.83056641 10.97441406 0.78222656 12.08945312 0.73242188 13.23828125 C0.67634766 14.39714844 0.62027344 15.55601562 0.5625 16.75 C0.51029297 17.92433594 0.45808594 19.09867187 0.40429688 20.30859375 C0.27473776 23.20600664 0.13977553 26.10306493 0 29 C-0.33 29 -0.66 29 -1 29 C-3.69018975 19.15079292 -3.51702005 9.62856308 0 0 Z " fill="#545454" transform="translate(385,287)"/>
<path d="M0 0 C0.66 0.99 1.32 1.98 2 3 C-1.63 2.34 -5.26 1.68 -9 1 C-9.66 2.32 -10.32 3.64 -11 5 C-12.98 5.99 -12.98 5.99 -15 7 C-14.34 10.63 -13.68 14.26 -13 18 C-16.80952381 14.19047619 -16.80952381 14.19047619 -17 10 C-15.79673033 5.71335179 -14.47989778 2.92779383 -10.75 0.5 C-6.95389964 -1.37790103 -4.08260723 -1.20076683 0 0 Z " fill="#818181" transform="translate(322,120)"/>
<path d="M0 0 C0.33 0.66 0.66 1.32 1 2 C-1.97 1.67 -4.94 1.34 -8 1 C-8.66 2.32 -9.32 3.64 -10 5 C-10.51175781 5.44988281 -11.02351562 5.89976562 -11.55078125 6.36328125 C-13.676594 8.76413177 -13.74903079 11.0507587 -14.1875 14.1875 C-14.34605469 15.27417969 -14.50460938 16.36085937 -14.66796875 17.48046875 C-14.77753906 18.31191406 -14.88710937 19.14335937 -15 20 C-15.33 20 -15.66 20 -16 20 C-16.23872223 13.31577769 -16.40205815 6.91158564 -11.9375 1.5 C-7.90226801 -0.56054399 -4.44388286 -0.34853983 0 0 Z " fill="#6D6D6D" transform="translate(259,213)"/>
<path d="M0 0 C0.66 0.33 1.32 0.66 2 1 C-3.61 6.61 -9.22 12.22 -15 18 C-15 13.74508832 -12.52840258 11.92686684 -9.75 9 C-9.25886719 8.46632813 -8.76773437 7.93265625 -8.26171875 7.3828125 C-5.68642506 4.62209767 -3.11691202 2.1373111 0 0 Z " fill="#2B2500" transform="translate(276,298)"/>
<path d="M0 0 C0 0.66 0 1.32 0 2 C-0.99 2.33 -1.98 2.66 -3 3 C-4.74853922 4.72517524 -4.74853922 4.72517524 -6.4375 6.8125 C-8.85833652 9.67163535 -11.35075749 12.35075749 -14 15 C-15.02323436 16.31558703 -16.03126968 17.64377755 -17 19 C-15.92460784 11.0448554 -9.305147 6.04287247 -3.48046875 1.03125 C-2 0 -2 0 0 0 Z " fill="#6C6C6C" transform="translate(403,268)"/>
<path d="M0 0 C0 0.66 0 1.32 0 2 C-5.32867983 3.10941367 -10.46281855 3.11548069 -15.875 3.0625 C-16.75414062 3.05798828 -17.63328125 3.05347656 -18.5390625 3.04882812 C-20.69273803 3.03712337 -22.84637817 3.01919069 -25 3 C-25 2.67 -25 2.34 -25 2 C-22.14633646 1.66178803 -19.29219404 1.3293022 -16.4375 1 C-15.63763672 0.90460938 -14.83777344 0.80921875 -14.01367188 0.7109375 C-9.30547833 0.17285824 -4.73852735 -0.10176703 0 0 Z " fill="#7A7A7A" transform="translate(464,190)"/>
<path d="M0 0 C1.32 0.33 2.64 0.66 4 1 C2.9790625 2.051875 2.9790625 2.051875 1.9375 3.125 C-0.29152267 5.83702861 -0.29152267 5.83702861 0.0625 9 C1.01078435 12.03450991 2.22345264 14.37379955 4 17 C0.83884224 15.63016497 0.0072908 15.0109362 -2 12 C-2.265625 9.84375 -2.265625 9.84375 -2.25 7.5 C-2.25773438 6.33984375 -2.25773438 6.33984375 -2.265625 5.15625 C-2 3 -2 3 0 0 Z " fill="#696969" transform="translate(183,289)"/>
<path d="M0 0 C0.33 0.66 0.66 1.32 1 2 C-2.3618226 6.25171681 -5.74828319 9.6381774 -10 13 C-10.66 12.67 -11.32 12.34 -12 12 C-8.04 8.04 -4.08 4.08 0 0 Z " fill="#C0A986" transform="translate(374,410)"/>
<path d="M0 0 C2.86274764 2.86274764 2.9615008 6.10388111 3 10 C2.0625 12.5 2.0625 12.5 1 14 C0.04738513 9.23692563 -0.08333357 4.8333472 0 0 Z " fill="#676767" transform="translate(481,310)"/>
<path d="M0 0 C-1.28519565 2.86697492 -2.57129254 4.97607712 -5 7 C-5.66 7 -6.32 7 -7 7 C-3.86206897 0 -3.86206897 0 0 0 Z " fill="#CC7A00" transform="translate(161,445)"/>
</svg>
