<?xml version="1.0" encoding="UTF-8"?>
<svg version="1.1" xmlns="http://www.w3.org/2000/svg" width="150" height="137">
<path d="M0 0 C7.07227398 4.39710947 12.35110892 10.29699498 14.5 18.4375 C15.69974059 26.81304749 14.45190919 33.53272522 9.5 40.4375 C3.63245836 47.35880423 -2.82485035 50.20632784 -11.5 52.4375 C-11.29375 53.200625 -11.0875 53.96375 -10.875 54.75 C-10.5 57.4375 -10.5 57.4375 -12.5 60.4375 C-14.8125 60.375 -14.8125 60.375 -17.5 59.4375 C-19.3125 55.875 -19.3125 55.875 -20.5 52.4375 C-23.41634129 52.1872843 -23.41634129 52.1872843 -26.5 52.4375 C-28.93771855 56.09407783 -28.75093466 57.84260053 -28.75537109 62.20043945 C-28.75899155 62.88374329 -28.762612 63.56704712 -28.76634216 64.27105713 C-28.77323228 65.75409422 -28.77574232 67.23715664 -28.77439499 68.72020912 C-28.77342943 71.07041669 -28.78637585 73.42016726 -28.80337524 75.77030945 C-28.84963332 82.45189856 -28.87424443 89.13344184 -28.88085938 95.81518555 C-28.88588297 99.90371252 -28.91017756 103.9917639 -28.94618607 108.08012962 C-28.95596666 109.63535897 -28.95832549 111.19065389 -28.95301437 112.74590492 C-28.94591835 114.92657636 -28.96327606 117.10583855 -28.98583984 119.28637695 C-28.98868988 120.52531204 -28.99153992 121.76424713 -28.99447632 123.04072571 C-29.74383837 128.07592754 -31.84087979 131.05233841 -35.71559143 134.2872467 C-39.49316487 135.84778144 -43.02971466 135.86430721 -47.05053711 135.84155273 C-47.8999437 135.84841599 -48.74935028 135.85527924 -49.62449646 135.86235046 C-52.42561675 135.88061589 -55.22617681 135.87678132 -58.02734375 135.87109375 C-59.97880739 135.87565572 -61.93026943 135.88096134 -63.88172913 135.88697815 C-67.96964041 135.89590878 -72.05735633 135.89348669 -76.14526367 135.88354492 C-81.37874589 135.87205617 -86.61155329 135.89226563 -91.84494686 135.92146206 C-95.87447886 135.93982588 -99.9038492 135.93953121 -103.93341255 135.93382454 C-105.86268625 135.93367134 -107.79197092 135.93971431 -109.72120476 135.95211601 C-112.42125406 135.96702738 -115.12005751 135.95634811 -117.82006836 135.93920898 C-119.01022552 135.95371094 -119.01022552 135.95371094 -120.22442627 135.96850586 C-125.41402469 135.89967586 -128.43672837 134.94180602 -132.5 131.4375 C-135.24822098 127.87296274 -135.87910923 125.28242338 -135.90405273 120.82446289 C-135.91673691 119.72304459 -135.92942108 118.62162628 -135.94248962 117.48683167 C-135.93955399 116.30652878 -135.93661835 115.12622589 -135.93359375 113.91015625 C-135.9388356 112.68848251 -135.94407745 111.46680878 -135.94947815 110.20811462 C-135.95589626 107.62678792 -135.95456413 105.04543196 -135.94604492 102.46411133 C-135.9375385 98.51786122 -135.96629687 94.57306015 -135.99804688 90.62695312 C-135.99965908 88.11718793 -135.99908099 85.60742018 -135.99609375 83.09765625 C-136.00732773 81.91937759 -136.01856171 80.74109894 -136.03013611 79.52711487 C-135.94053567 68.9770123 -135.94053567 68.9770123 -131.5 64.4375 C-127.08779549 61.80099269 -123.87426506 61.06753296 -118.76025391 61.09692383 C-118.11564209 61.09648575 -117.47103027 61.09604767 -116.80688477 61.09559631 C-114.69645885 61.09767044 -112.58684797 61.12093424 -110.4765625 61.14453125 C-109.00540602 61.15013215 -107.53424392 61.15439991 -106.06307983 61.15739441 C-102.20620048 61.16880443 -98.34966441 61.19823788 -94.49291992 61.23150635 C-90.55131676 61.2622906 -86.60965769 61.27591753 -82.66796875 61.29101562 C-74.94515664 61.32311182 -67.22262657 61.3742609 -59.5 61.4375 C-59.52161697 60.50429932 -59.52161697 60.50429932 -59.54367065 59.55224609 C-59.55487946 58.73836426 -59.56608826 57.92448242 -59.57763672 57.0859375 C-59.59925369 55.87429932 -59.59925369 55.87429932 -59.62130737 54.63818359 C-59.46294032 51.76518614 -58.64987404 50.45268565 -56.625 48.4375 C-56.09132813 47.880625 -55.55765625 47.32375 -55.0078125 46.75 C-52.50130704 44.56817141 -50.741894 44.27979682 -47.5 44.25 C-46.79875 44.23582031 -46.0975 44.22164062 -45.375 44.20703125 C-43.5 44.4375 -43.5 44.4375 -41.5 46.4375 C-41.875 49.0625 -41.875 49.0625 -42.5 51.4375 C-43.61375 51.56125 -44.7275 51.685 -45.875 51.8125 C-49.53103677 52.0840813 -49.53103677 52.0840813 -51.5 54.4375 C-51.83 56.7475 -52.16 59.0575 -52.5 61.4375 C-47.22 61.4375 -41.94 61.4375 -36.5 61.4375 C-36.5 59.1275 -36.5 56.8175 -36.5 54.4375 C-35.07953365 50.47894149 -33.02644279 47.78846186 -29.5 45.4375 C-29.98210937 44.84582031 -30.46421875 44.25414062 -30.9609375 43.64453125 C-31.90839844 42.45923828 -31.90839844 42.45923828 -32.875 41.25 C-33.50148438 40.47269531 -34.12796875 39.69539063 -34.7734375 38.89453125 C-39.4515925 32.23715683 -39.31015586 25.33221025 -38.5 17.4375 C-36.29882297 9.5303592 -31.42582149 4.61196774 -24.5 0.4375 C-17.65845809 -2.98902015 -7.03040366 -3.21823979 0 0 Z M-127.38163757 69.79008484 C-129.04140113 72.23501644 -128.79029606 74.21244507 -128.6875 77.125 C-128.66042969 78.11886719 -128.63335937 79.11273438 -128.60546875 80.13671875 C-128.57066406 80.89597656 -128.53585938 81.65523437 -128.5 82.4375 C-124.82784827 83.40216333 -122.7087486 83.46584954 -119.1875 82.0625 C-111.50378052 79.3237485 -106.83859339 79.14510739 -99.0703125 81.72265625 C-92.93387534 83.42929455 -87.45003309 82.89501158 -81.5 80.8125 C-75.99624289 78.96351409 -71.98159673 79.99160303 -66.5 81.4375 C-64.17084567 81.82916459 -61.84241222 82.13196797 -59.5 82.4375 C-59.5 77.8175 -59.5 73.1975 -59.5 68.4375 C-68.05352326 68.36975551 -76.60683839 68.31470231 -85.16055775 68.28206348 C-89.13228627 68.26639944 -93.10382193 68.24514801 -97.07543945 68.21118164 C-100.90743089 68.17861404 -104.73923668 68.16065255 -108.57135582 68.15286827 C-110.03422659 68.14732004 -111.49708707 68.13648575 -112.95987892 68.12030983 C-115.00708696 68.09856921 -117.0535254 68.09553153 -119.10083008 68.09692383 C-120.26665115 68.09026199 -121.43247223 68.08360016 -122.63362122 68.07673645 C-125.49223063 68.20468798 -125.49223063 68.20468798 -127.38163757 69.79008484 Z M-52.5 68.4375 C-52.5 70.0875 -52.5 71.7375 -52.5 73.4375 C-47.22 73.4375 -41.94 73.4375 -36.5 73.4375 C-36.5 71.7875 -36.5 70.1375 -36.5 68.4375 C-41.78 68.4375 -47.06 68.4375 -52.5 68.4375 Z M-52.5 80.4375 C-52.17 81.4275 -51.84 82.4175 -51.5 83.4375 C-46.55 83.4375 -41.6 83.4375 -36.5 83.4375 C-36.5 82.4475 -36.5 81.4575 -36.5 80.4375 C-41.78 80.4375 -47.06 80.4375 -52.5 80.4375 Z " fill="#24609A" transform="translate(135.5,1.5625)"/>
<path d="M0 0 C0.65097656 0.27070312 1.30195312 0.54140625 1.97265625 0.8203125 C8.81099936 3.59261376 14.42028556 2.77309152 21.0625 0 C24.69590969 -1.2134612 28.33702439 -1.31162234 32.09765625 -0.6796875 C33.04640625 -0.19113281 33.99515625 0.29742187 34.97265625 0.80078125 C40.76123133 3.41462512 47.30380511 2.89771796 53.53515625 3.0078125 C54.83904297 3.04197266 56.14292969 3.07613281 57.48632812 3.11132812 C60.69001823 3.19347403 63.89344604 3.2627366 67.09765625 3.3203125 C67.19677277 8.21323782 67.26924024 13.10557471 67.31738281 17.99926758 C67.33745832 19.66278263 67.36472501 21.32622746 67.39941406 22.98950195 C67.44811391 25.3851049 67.47066481 27.77977242 67.48828125 30.17578125 C67.50892639 30.9155571 67.52957153 31.65533295 67.55084229 32.41752625 C67.55229605 35.78746702 67.24303034 38.06077256 65.58709717 41.01715088 C62.17873238 44.17047535 59.2292373 44.0173273 54.8125 43.95141602 C53.979534 43.95857132 53.14656799 43.96572662 52.2883606 43.97309875 C49.53673347 43.98999874 46.78673266 43.97057637 44.03515625 43.94921875 C42.12231308 43.95004733 40.20946998 43.95250631 38.29663086 43.95652771 C34.28835612 43.9593866 30.28063989 43.94467568 26.27246094 43.91723633 C21.1339756 43.8831534 15.99648907 43.88917089 10.85795593 43.9078989 C6.90824049 43.91846631 2.95875755 43.90953343 -0.99093628 43.89451408 C-2.88556223 43.88932991 -4.78021244 43.88981693 -6.67483521 43.89605904 C-9.32281727 43.90150814 -11.96936847 43.8811468 -14.6171875 43.85375977 C-15.40068573 43.86028564 -16.18418396 43.86681152 -16.99142456 43.87353516 C-20.47371298 43.81227694 -22.5313131 43.5874965 -25.39178467 41.52763367 C-27.7000678 38.15462941 -27.39599662 34.77180329 -27.29296875 30.8359375 C-27.28730896 30.02034363 -27.28164917 29.20474976 -27.27581787 28.36444092 C-27.25347102 25.76579478 -27.20327997 23.16854008 -27.15234375 20.5703125 C-27.13227646 18.80600953 -27.11402609 17.0416849 -27.09765625 15.27734375 C-27.05361205 10.95779922 -26.98459797 6.63929157 -26.90234375 2.3203125 C-26.15178711 2.33771484 -25.40123047 2.35511719 -24.62792969 2.37304688 C-23.64083008 2.38658203 -22.65373047 2.40011719 -21.63671875 2.4140625 C-20.65928711 2.43146484 -19.68185547 2.44886719 -18.67480469 2.46679688 C-16.0413789 2.32765849 -14.48987242 1.95921062 -12.15234375 0.8203125 C-7.94353097 -1.12221647 -4.45131957 -1.59040987 0 0 Z " fill="#50C5E3" transform="translate(32.90234375,87.6796875)"/>
<path d="M0 0 C4.94726715 3.5380456 9.11075632 7.85470593 10.6875 13.875 C11.52968777 20.97343978 9.55715545 25.91192439 5.6875 31.875 C1.17841989 36.27410255 -2.77067104 38.16849962 -9.0625 38.25 C-15.4652102 38.12522124 -20.15698289 36.89332072 -24.83984375 32.4140625 C-29.7774421 26.77518207 -30.88389645 22.36419247 -30.7578125 14.98828125 C-29.94404197 9.29902589 -26.97358923 5.22301991 -22.71875 1.46875 C-16.2159954 -3.17607471 -6.94722047 -4.11296544 0 0 Z " fill="#50C5E2" transform="translate(133.3125,8.125)"/>
<path d="M0 0 C2 2 2 2 2.1953125 5.4765625 C2.18201493 6.85950968 2.15816232 8.24238654 2.125 9.625 C2.11597656 10.33140625 2.10695312 11.0378125 2.09765625 11.765625 C2.07407603 13.51056098 2.03820461 15.25532295 2 17 C2.99 17 3.98 17 5 17 C5.01458252 18.10512939 5.02916504 19.21025879 5.04418945 20.34887695 C5.10214266 24.44735139 5.17937519 28.54527467 5.26245117 32.64331055 C5.29571464 34.41730812 5.32374218 36.1914119 5.34643555 37.96557617 C5.37995602 40.51527176 5.43226865 43.06399292 5.48828125 45.61328125 C5.49467117 46.40712723 5.5010611 47.20097321 5.50764465 48.01887512 C5.56735406 52.03909082 5.56735406 52.03909082 7.02380371 55.70654297 C10.14433645 57.74898938 13.44054642 57.43906237 17.05151367 57.43237305 C17.87125168 57.4425647 18.69098969 57.45275635 19.53556824 57.46325684 C22.24643724 57.49346314 24.95695335 57.50266432 27.66796875 57.51171875 C29.54699383 57.52855979 31.4260076 57.54670925 33.30500793 57.56611633 C38.25170357 57.61368491 43.19835338 57.64344987 48.14520264 57.66955566 C53.19259698 57.69932663 58.23983329 57.74586882 63.28710938 57.79101562 C73.19132371 57.87712673 83.09557049 57.94443725 93 58 C93.99 60.475 93.99 60.475 95 63 C83.76058302 63.22351621 72.52100693 63.42498276 61.28069878 63.59840012 C56.0612148 63.67961813 50.84208867 63.76839253 45.62304688 63.87451172 C40.58524243 63.97666651 35.54746917 64.05887288 30.50909805 64.12732697 C28.5880827 64.15691898 26.66716366 64.19366657 24.74642563 64.2377243 C22.05335048 64.29826872 19.361054 64.33322821 16.66748047 64.36230469 C15.87553787 64.38603653 15.08359528 64.40976837 14.26765442 64.43421936 C9.05071688 64.45476561 6.13147425 63.46227977 2 60 C-0.27121709 56.59317436 -0.24468887 55.42202816 -0.22705078 51.42700195 C-0.22689972 50.28604568 -0.22674866 49.14508942 -0.22659302 47.96955872 C-0.21627045 46.73823715 -0.20594788 45.50691559 -0.1953125 44.23828125 C-0.1924826 42.97735153 -0.18965271 41.71642181 -0.18673706 40.4172821 C-0.17743125 37.06839578 -0.15946703 33.71978209 -0.1373291 30.37097168 C-0.11685386 26.95241653 -0.10773176 23.5338332 -0.09765625 20.11523438 C-0.0755818 13.41008081 -0.04209362 6.70505615 0 0 Z " fill="#0D5294" transform="translate(1,73)"/>
<path d="M0 0 C2.64624257 1.22931791 4.68588799 1.23863351 7.59375 1.22265625 C9.00140625 1.23039062 9.00140625 1.23039062 10.4375 1.23828125 C13.06307994 1.13655167 13.06307994 1.13655167 15.06640625 -0.0234375 C17.79059688 -1.37241051 20.00481736 -1.32839445 23.03125 -1.33984375 C24.56072266 -1.36498047 24.56072266 -1.36498047 26.12109375 -1.390625 C29.46245105 -0.98228567 31.35715652 0.06258456 34.09375 1.97265625 C33.76375 3.29265625 33.43375 4.61265625 33.09375 5.97265625 C32.23652344 5.86566406 31.37929687 5.75867188 30.49609375 5.6484375 C23.5540934 4.92058402 19.49263245 5.01021067 13.09375 7.97265625 C7.97226188 8.57653321 3.07280268 8.70937036 -1.65625 6.47265625 C-6.80671631 4.09551796 -11.49964744 4.66196472 -16.90625 5.97265625 C-17.23625 4.65265625 -17.56625 3.33265625 -17.90625 1.97265625 C-12.59368209 -2.39123882 -6.26351813 -3.37562555 0 0 Z " fill="#B1333F" transform="translate(36.90625,100.02734375)"/>
<path d="M0 0 C0.78375 0.33 1.5675 0.66 2.375 1 C6.45609059 2.55470118 10.68198095 2.4774395 15 2 C16.34613702 1.35958034 17.68101773 0.69462796 19 0 C24.03483202 -0.457712 26.89610799 0.01535127 31 3 C30.67 4.32 30.34 5.64 30 7 C29.26394531 6.97679688 28.52789062 6.95359375 27.76953125 6.9296875 C26.30580078 6.90261719 26.30580078 6.90261719 24.8125 6.875 C23.36810547 6.84019531 23.36810547 6.84019531 21.89453125 6.8046875 C18.84597683 7.01039293 16.79929877 7.83513051 14 9 C11.68359375 9.265625 11.68359375 9.265625 9.4375 9.25 C8.32181641 9.25773437 8.32181641 9.25773437 7.18359375 9.265625 C5 9 5 9 3.11328125 7.9921875 C0.24569428 6.64585277 -2.10100484 6.80654358 -5.25 6.875 C-6.86648437 6.90207031 -6.86648437 6.90207031 -8.515625 6.9296875 C-9.33546875 6.95289062 -10.1553125 6.97609375 -11 7 C-11.33 5.68 -11.66 4.36 -12 3 C-8.45231153 -0.54768847 -4.75787832 -0.5863244 0 0 Z " fill="#B13440" transform="translate(58,114)"/>
<path d="M0 0 C2.625 -0.1875 2.625 -0.1875 5 0 C5.27977869 2.99623456 5.32256592 4.52892823 3.59472656 7.05224609 C2.94987305 7.70273926 2.30501953 8.35323242 1.640625 9.0234375 C0.93679687 9.73371094 0.23296875 10.44398437 -0.4921875 11.17578125 C-1.23726562 11.90152344 -1.98234375 12.62726562 -2.75 13.375 C-3.47960937 14.12394531 -4.20921875 14.87289063 -4.9609375 15.64453125 C-5.66992188 16.34707031 -6.37890625 17.04960938 -7.109375 17.7734375 C-7.75874023 18.41716309 -8.40810547 19.06088867 -9.07714844 19.72412109 C-11 21 -11 21 -13.10717773 20.80615234 C-15.67698877 19.71167072 -17.31381955 18.19387203 -19.3125 16.25 C-20.38951172 15.23679687 -20.38951172 15.23679687 -21.48828125 14.203125 C-23 12 -23 12 -22.73046875 9.234375 C-22.48941406 8.49703125 -22.24835938 7.7596875 -22 7 C-19.05833742 7.42023751 -18.08790323 7.90660282 -16 10.125 C-15.34 10.74375 -14.68 11.3625 -14 12 C-10.22702063 11.71584256 -8.41986012 9.76662286 -5.875 7.125 C-5.19179687 6.42632812 -4.50859375 5.72765625 -3.8046875 5.0078125 C-1.84787495 2.9274531 -1.84787495 2.9274531 0 0 Z " fill="#105593" transform="translate(132,16)"/>
<path d="M0 0 C1.051875 -0.02126953 1.051875 -0.02126953 2.125 -0.04296875 C4 0.1875 4 0.1875 6 2.1875 C5.625 4.8125 5.625 4.8125 5 7.1875 C3.88625 7.31125 2.7725 7.435 1.625 7.5625 C-2.03103677 7.8340813 -2.03103677 7.8340813 -4 10.1875 C-4.33 12.4975 -4.66 14.8075 -5 17.1875 C0.28 17.1875 5.56 17.1875 11 17.1875 C11 14.8775 11 12.5675 11 10.1875 C11.66 9.1975 12.32 8.2075 13 7.1875 C12.67 10.8175 12.34 14.4475 12 18.1875 C6.06 18.1875 0.12 18.1875 -6 18.1875 C-6.33 16.2075 -6.66 14.2275 -7 12.1875 C-7.66 13.8375 -8.32 15.4875 -9 17.1875 C-9.33 17.1875 -9.66 17.1875 -10 17.1875 C-10 15.2075 -10 13.2275 -10 11.1875 C-10.66 11.1875 -11.32 11.1875 -12 11.1875 C-11.49268371 6.79075886 -8.88085945 4.34941891 -6 1.1875 C-3.77109005 0.07304502 -2.46944894 0.02269714 0 0 Z " fill="#3E6E9F" transform="translate(88,45.8125)"/>
<path d="M0 0 C0.33 0 0.66 0 1 0 C1 3.63 1 7.26 1 11 C2.98 11 4.96 11 7 11 C7.33 11.66 7.66 12.32 8 13 C8.99 13.33 9.98 13.66 11 14 C10.67 14.66 10.34 15.32 10 16 C7.05859375 16.4140625 7.05859375 16.4140625 3.4375 16.625 C2.23996094 16.69976562 1.04242188 16.77453125 -0.19140625 16.8515625 C-1.58166016 16.92503906 -1.58166016 16.92503906 -3 17 C-3.08160748 15.10489301 -3.13946459 13.20875496 -3.1875 11.3125 C-3.22230469 10.25675781 -3.25710937 9.20101562 -3.29296875 8.11328125 C-2.96555119 4.63392401 -2.05643142 2.7919812 0 0 Z " fill="#28659F" transform="translate(6,73)"/>
<path d="M0 0 C2.29141286 -0.05384521 4.58318188 -0.09272087 6.875 -0.125 C8.78925781 -0.15980469 8.78925781 -0.15980469 10.7421875 -0.1953125 C14 0 14 0 16 2 C15.625 4.125 15.625 4.125 15 6 C10.33333333 5.33333333 5.66666667 4.66666667 1 4 C0.67 2.68 0.34 1.36 0 0 Z " fill="#B7303B" transform="translate(55,100)"/>
<path d="M0 0 C1.45792884 -0.05399736 2.91642712 -0.09279177 4.375 -0.125 C5.18710938 -0.14820312 5.99921875 -0.17140625 6.8359375 -0.1953125 C9 0 9 0 11 2 C10.625 4.125 10.625 4.125 10 6 C8.68 6 7.36 6 6 6 C6 5.34 6 4.68 6 4 C4.02 4 2.04 4 0 4 C-0.33 3.34 -0.66 2.68 -1 2 C-0.67 1.34 -0.34 0.68 0 0 Z " fill="#BC2B39" transform="translate(78,115)"/>
<path d="M0 0 C1.85772162 0.08984301 3.71247985 0.24611861 5.5625 0.4375 C7.08037109 0.59025391 7.08037109 0.59025391 8.62890625 0.74609375 C9.80259766 0.87177734 9.80259766 0.87177734 11 1 C10.67 1.99 10.34 2.98 10 4 C5.64334521 5.67563646 2.50462014 6.36503641 -2 5 C-1.125 1.125 -1.125 1.125 0 0 Z " fill="#BA2D3A" transform="translate(48,115)"/>
<path d="M0 0 C-0.99 0.66 -1.98 1.32 -3 2 C-4.36639342 3.6396721 -5.70513179 5.30327614 -7 7 C-8.65 6.67 -10.3 6.34 -12 6 C-11.9375 4.1875 -11.9375 4.1875 -11 2 C-4.07110092 -1.7912844 -4.07110092 -1.7912844 0 0 Z " fill="#AB3945" transform="translate(31,99)"/>
<path d="M0 0 C2.31 0 4.62 0 7 0 C7.38218767 1.65614657 7.71395102 3.32457024 8 5 C7.67 5.33 7.34 5.66 7 6 C4.66055264 5.71269945 2.3260857 5.38063221 0 5 C0 3.33333333 0 1.66666667 0 0 Z " fill="#2E649D" transform="translate(86,47)"/>
<path d="M0 0 C0 0.33 0 0.66 0 1 C-1.98 1 -3.96 1 -6 1 C-6 1.99 -6 2.98 -6 4 C-3.03 4.495 -3.03 4.495 0 5 C0 5.33 0 5.66 0 6 C-3.63 6.66 -7.26 7.32 -11 8 C-11 7.34 -11 6.68 -11 6 C-10.34 6 -9.68 6 -9 6 C-9.33 4.35 -9.66 2.7 -10 1 C-6.52674819 -0.1577506 -3.63932552 -0.06866652 0 0 Z " fill="#A03E49" transform="translate(84,114)"/>
<path d="M0 0 C0 0.66 0 1.32 0 2 C0.66 2.33 1.32 2.66 2 3 C2.33 3.66 2.66 4.32 3 5 C-0.3 5 -3.6 5 -7 5 C-6.01 4.34 -5.02 3.68 -4 3 C-4.66 2.34 -5.32 1.68 -6 1 C-3 0 -3 0 0 0 Z " fill="#C42632" transform="translate(31,99)"/>
<path d="M0 0 C1.32 0.33 2.64 0.66 4 1 C0.04 4.465 0.04 4.465 -4 8 C-4 4.09161134 -2.49432124 2.88405893 0 0 Z " fill="#2F6298" transform="translate(105,6)"/>
<path d="M0 0 C3.41021743 0.78697325 6.68885166 1.87119943 10 3 C10 3.33 10 3.66 10 4 C7.03 4 4.06 4 1 4 C0.67 2.68 0.34 1.36 0 0 Z " fill="#C42532" transform="translate(55,100)"/>
</svg>
