<?xml version="1.0" encoding="UTF-8"?>
<svg version="1.1" xmlns="http://www.w3.org/2000/svg" width="150" height="136">
<path d="M0 0 C3.58361767 2.13492117 5.54511893 4.12031715 7 8 C7.14006626 10.63324571 7.1889934 13.1257044 7.125 15.75 C7.08375 18.1425 7.0425 20.535 7 23 C15.58 23 24.16 23 33 23 C32.83562902 12.05227358 32.83562902 12.05227358 30 7 C25.85906302 6.79029441 25.85906302 6.79029441 22 8 C21.34227572 11.02934491 21.34227572 11.02934491 21 14 C19.34385343 14.38218767 17.67542976 14.71395102 16 15 C15 14 15 14 14.625 10.8125 C15.1163145 5.81746929 16.50591769 4.49408231 20 1 C23.49160447 -0.74580224 27.19045358 -0.56983131 31 0 C34.2896586 1.66906889 36.44897367 3.9271276 38.14794922 7.23510742 C39.19191687 10.62276748 39.22547597 13.50657395 39.1953125 17.05078125 C39.1924826 17.70958786 39.18965271 18.36839447 39.18673706 19.04716492 C39.17560924 21.13580062 39.15051948 23.22399556 39.125 25.3125 C39.11496059 26.73501982 39.10583642 28.1575464 39.09765625 29.58007812 C39.07569447 33.05352681 39.04121646 36.52672033 39 40 C39.6798999 40.01458252 40.3597998 40.02916504 41.06030273 40.04418945 C44.18656282 40.1193642 47.31183482 40.21579232 50.4375 40.3125 C52.04141602 40.34633789 52.04141602 40.34633789 53.67773438 40.38085938 C63.54884484 40.71291508 70.98685779 42.20966005 78.28125 49.11328125 C82.26729625 53.48887293 84.35808905 58.49882712 86.09375 64.10546875 C87.76669774 67.60279484 89.98673153 69.58103754 93.55078125 71.0546875 C94.46214844 71.32539062 95.37351562 71.59609375 96.3125 71.875 C103.10716387 74.20330482 107.65086364 77.43577694 111.375 83.625 C114.85238044 90.84725168 115.12183423 98.88574565 113 106.625 C109.7624438 115.02758772 103.66565676 120.06464169 95.78401375 123.91907883 C91.32938342 125.64863359 87.19303727 125.69889978 82.46069336 125.64697266 C80.95863091 125.66011505 80.95863091 125.66011505 79.42622375 125.67352295 C76.1469774 125.69536176 72.86910156 125.68101994 69.58984375 125.6640625 C67.29398848 125.66743481 64.99813496 125.67229087 62.70228577 125.67855835 C57.90348216 125.68590848 53.10514558 125.67528271 48.30639648 125.65185547 C42.17082311 125.62335343 36.03634273 125.63979365 29.90080929 125.66971779 C25.16426936 125.68782695 20.42798655 125.68201627 15.69143867 125.66907883 C13.42972241 125.66575569 11.1679824 125.66979321 8.90629387 125.68147659 C5.7402084 125.69424627 2.57586833 125.67472196 -0.59008789 125.64697266 C-1.51449677 125.65709381 -2.43890564 125.66721497 -3.3913269 125.67764282 C-12.47293654 125.53097177 -19.61732437 121.38267563 -26 115 C-27.86623513 112.09191002 -29.47257483 109.09744786 -31 106 C-31.33 105.34 -31.66 104.68 -32 104 C-32.10968094 102.52609057 -32.15902741 101.04745553 -32.17700195 99.56958008 C-32.18983719 98.65134964 -32.20267242 97.7331192 -32.21589661 96.7870636 C-32.22328354 95.79127792 -32.23067047 94.79549225 -32.23828125 93.76953125 C-32.246353 92.74574875 -32.25442474 91.72196625 -32.26274109 90.66716003 C-32.27659012 88.49581601 -32.2873086 86.32445014 -32.29516602 84.15307617 C-32.3123409 80.8431624 -32.35621592 77.53425718 -32.40039062 74.22460938 C-32.41052083 72.11459068 -32.41903591 70.00456348 -32.42578125 67.89453125 C-32.44328934 66.90886673 -32.46079742 65.92320221 -32.47883606 64.90766907 C-32.4559689 57.60729738 -31.0118787 53.40932248 -26.10546875 47.85546875 C-17.35340894 40.24420696 -11.27960139 40.87711439 1 40 C0.67 29.44 0.34 18.88 0 8 C-6.35065875 6.32821558 -6.35065875 6.32821558 -8.8125 8.125 C-10.2091667 10.3302632 -11.13587557 12.54056893 -12 15 C-13.32 14.67 -14.64 14.34 -16 14 C-16.59865471 8.01345291 -16.59865471 8.01345291 -14.95703125 5.234375 C-10.46262771 -0.19581345 -6.79121254 -0.85771369 0 0 Z M26.43359375 28.21875 C24.7465332 28.28642578 24.7465332 28.28642578 23.02539062 28.35546875 C21.84138672 28.40316406 20.65738281 28.45085938 19.4375 28.5 C18.24962891 28.54769531 17.06175781 28.59539063 15.83789062 28.64453125 C12.8919199 28.76284333 9.94595677 28.88134122 7 29 C7 31.31 7 33.62 7 36 C15.58 36 24.16 36 33 36 C33 33.36 33 30.72 33 28 C30.81107112 28 28.62014596 28.1308484 26.43359375 28.21875 Z M7 42 C7 44.64 7 47.28 7 50 C15.58 50 24.16 50 33 50 C33 47.36 33 44.72 33 42 C24.42 42 15.84 42 7 42 Z M-22.75 52.75 C-26.67955818 58.42602848 -27.31427569 64.18934659 -27.3359375 70.953125 C-27.3425943 71.69399353 -27.3492511 72.43486206 -27.35610962 73.19818115 C-27.36617754 74.75790956 -27.37092847 76.31768054 -27.37060547 77.87744141 C-27.3749634 80.23023739 -27.41129962 82.58113051 -27.44921875 84.93359375 C-27.52331044 94.95558887 -26.40042466 102.98386406 -21.375 111.875 C-14.68291432 117.86265561 -7.49982452 119.74568388 1.27978516 119.63110352 C2.25350571 119.63825882 3.22722626 119.64541412 4.23045349 119.65278625 C7.41714832 119.66955808 10.60241356 119.65034063 13.7890625 119.62890625 C16.02005122 119.62973587 18.25103988 119.63219876 20.48202515 119.63621521 C25.14380422 119.63906517 29.80510071 119.62444757 34.46679688 119.59692383 C40.42972959 119.56280337 46.39180218 119.56888045 52.35477638 119.5875864 C56.95658488 119.59817348 61.55819456 119.58920359 66.15998459 119.57420158 C68.35832503 119.56903457 70.55668636 119.56948351 72.75502396 119.57574654 C75.83013574 119.58122085 78.90403092 119.56075319 81.97900391 119.53344727 C82.87895584 119.53997314 83.77890778 119.54649902 84.70613098 119.55322266 C91.52883822 119.45064967 96.80924177 117.75341492 102.0234375 113.25390625 C102.69246094 112.41666016 102.69246094 112.41666016 103.375 111.5625 C103.83648437 111.00691406 104.29796875 110.45132813 104.7734375 109.87890625 C108.66442759 103.91850424 108.70931306 97.91355764 108 91 C106.52076959 85.59682304 103.733909 82.09843254 99.0625 79.078125 C96.72150298 77.85442201 94.34785062 76.92731898 91.875 76 C86.39199093 73.87647455 83.23359322 71.78439612 80.76953125 66.22265625 C79.92083425 64.11005356 79.07710693 61.99544782 78.23828125 59.87890625 C75.72514169 54.03605497 72.3606747 50.64741587 66.53442383 47.8203125 C61.3374367 46.13821282 55.90173069 46.59566484 50.5 46.75 C49.29601562 46.76804688 48.09203125 46.78609375 46.8515625 46.8046875 C43.90020395 46.85153446 40.95052964 46.91711995 38 47 C38 50.3 38 53.6 38 57 C39.4953125 57.03738281 40.990625 57.07476562 42.53125 57.11328125 C44.52085696 57.17897582 46.5104392 57.24542193 48.5 57.3125 C49.48226562 57.33505859 50.46453125 57.35761719 51.4765625 57.38085938 C58.57319598 57.64106927 64.55780592 58.30284457 70.328125 62.82421875 C72.27808316 65.36189794 73.47041835 67.88075263 74.75 70.8125 C78.06499166 77.59955275 81.68044866 82.26259377 88.81640625 85.1328125 C90.73116171 85.78041288 92.64904113 86.4188694 94.5703125 87.046875 C97.8976023 88.35211409 99.34929422 89.84865259 101 93 C102.46616932 97.39850796 102.04849087 100.81936529 100.21435738 104.99202919 C98.04488345 108.57930951 94.77066784 110.32956207 91 112 C87.7930736 112.66018146 84.70437653 112.68572053 81.43798828 112.64697266 C80.51654022 112.65573425 79.59509216 112.66449585 78.64572144 112.67352295 C75.6200964 112.69540761 72.59595067 112.68100045 69.5703125 112.6640625 C67.45335614 112.66743434 65.33640167 112.67229003 63.2194519 112.67855835 C58.78950512 112.6859154 54.36006365 112.67526366 49.93017578 112.65185547 C44.27215784 112.62340381 38.61532776 112.63975687 32.95735359 112.66971779 C28.58705828 112.68785198 24.21704095 112.68200406 19.84673691 112.66907883 C17.76168551 112.66575992 15.67660829 112.66977815 13.59158707 112.68147659 C-8.00968525 112.77607133 -8.00968525 112.77607133 -15 107 C-21.5168321 100.01112761 -21.18636928 93.36962317 -21.18530273 84.28588867 C-21.1874813 82.20535585 -21.20562682 80.12536038 -21.22460938 78.04492188 C-21.22754526 76.7109393 -21.22952875 75.37695422 -21.23046875 74.04296875 C-21.23457764 72.83664795 -21.23868652 71.63032715 -21.24291992 70.38745117 C-20.9936645 66.91165317 -20.35076639 64.20584266 -19 61 C-17.00390625 59.79296875 -17.00390625 59.79296875 -14.5625 59.1875 C-13.67949219 58.96835938 -12.79648437 58.74921875 -11.88671875 58.5234375 C-7.262394 57.68492665 -2.68999069 57.30064043 2 57 C2 53.7 2 50.4 2 47 C-0.54232342 46.91847656 -3.08199202 46.85926284 -5.625 46.8125 C-6.33785156 46.78736328 -7.05070312 46.76222656 -7.78515625 46.73632812 C-14.13635866 46.64892626 -18.1588208 48.1588208 -22.75 52.75 Z M7 56 C7 56.33 7 56.66 7 57 C15.58 57 24.16 57 33 57 C33 56.67 33 56.34 33 56 C24.42 56 15.84 56 7 56 Z " fill="#0F5397" transform="translate(32,11)"/>
<path d="M0 0 C0.73207169 -0.00846954 1.46414337 -0.01693909 2.21839905 -0.02566528 C4.64081153 -0.04908141 7.06259027 -0.05005617 9.48510742 -0.04882812 C11.17038731 -0.05592858 12.85566478 -0.0636274 14.54093933 -0.07189941 C18.07586378 -0.08535597 21.61056489 -0.08690851 25.14550781 -0.08105469 C29.66850537 -0.07516709 34.19042634 -0.10570473 38.71321583 -0.14617157 C42.19546754 -0.17206822 45.67746103 -0.17492406 49.15979576 -0.17127991 C50.82672512 -0.17297032 52.49366651 -0.18260541 54.16050148 -0.20042419 C56.49704733 -0.22264716 58.83142811 -0.21289691 61.16796875 -0.1953125 C61.85234009 -0.20857574 62.53671143 -0.22183899 63.24182129 -0.23550415 C68.77877119 -0.13904206 71.03337518 1.62783058 74.77807617 5.41992188 C76.57885742 8.75976562 76.57885742 8.75976562 78.09057617 12.35742188 C81.05325228 18.81953932 84.21707885 22.53308306 90.77807617 25.41992188 C93.11593975 26.27812496 95.42465904 27.04724747 97.83276367 27.68164062 C100.15563894 28.56321377 101.26793113 29.4511745 102.77807617 31.41992188 C103.17726854 34.5136627 103.40721569 36.4589258 102.77807617 39.41992188 C100.24353961 42.63946832 98.66510312 44.12424622 94.77807617 45.41992188 C91.85363379 45.5320744 88.95242112 45.58762975 86.02734375 45.59692383 C85.13267395 45.60349503 84.23800415 45.61006622 83.31622314 45.61683655 C80.35168372 45.63656642 77.38719498 45.64823246 74.42260742 45.65820312 C72.90266961 45.66431642 72.90266961 45.66431642 71.35202599 45.67055321 C65.98712747 45.69141421 60.62225452 45.70571491 55.25732422 45.71508789 C49.7236255 45.72614271 44.19032994 45.76053204 38.65677357 45.80025959 C34.39557665 45.82644325 30.13447547 45.83478138 25.87320518 45.83836937 C23.83392303 45.84323203 21.79464506 45.85483685 19.75544167 45.87340736 C16.89523301 45.89783214 14.03606291 45.89682743 11.17578125 45.88989258 C9.92156624 45.90910767 9.92156624 45.90910767 8.64201355 45.92871094 C2.92838947 45.87843793 -1.45951609 44.65555578 -6.22192383 41.41992188 C-11.50851054 35.50696233 -10.80077863 28.37020182 -10.68847656 20.81201172 C-10.65930296 18.66101021 -10.66793196 16.5124461 -10.6809082 14.36132812 C-10.63408088 4.05931638 -10.63408088 4.05931638 -9.14804077 1.75396729 C-6.26532328 -0.24262802 -3.38497196 -0.01436758 0 0 Z " fill="#4EC5E5" transform="translate(26.221923828125,73.580078125)"/>
<path d="M0 0 C7.46427 2.06458532 10.74242543 10.18215622 14.3125 16.4375 C17.80005363 22.48390746 21.28282742 28.44361822 25.25 34.1875 C28.1491385 38.67323171 28.97644846 41.52330784 27.9375 46.8125 C25.09630422 49.57112601 23.04687429 50.19288264 19.140625 50.23242188 C18.1928418 50.24833374 17.24505859 50.26424561 16.26855469 50.28063965 C15.25180664 50.28084106 14.23505859 50.28104248 13.1875 50.28125 C11.61210449 50.29267029 11.61210449 50.29267029 10.00488281 50.30432129 C7.78583147 50.31511979 5.56672931 50.31797642 3.34765625 50.31347656 C-0.05033836 50.31250348 -3.44608099 50.35414575 -6.84375 50.3984375 C-8.99999529 50.40364389 -11.15624843 50.4063327 -13.3125 50.40625 C-14.32924805 50.42264526 -15.34599609 50.43904053 -16.39355469 50.45593262 C-23.40833125 50.38706092 -23.40833125 50.38706092 -26.73876953 47.46191406 C-28.46034236 44.01622827 -28.18806295 42.46348572 -27.0625 38.8125 C-25.8203125 36.234375 -25.8203125 36.234375 -24.1875 33.5625 C-23.56230469 32.53125 -22.93710938 31.5 -22.29296875 30.4375 C-21.94153809 29.86773438 -21.59010742 29.29796875 -21.22802734 28.7109375 C-19.92421514 26.58725847 -18.64333808 24.45057734 -17.36328125 22.3125 C-16.40947841 20.72879054 -15.45505242 19.14545621 -14.5 17.5625 C-14.05350098 16.81838867 -13.60700195 16.07427734 -13.14697266 15.30761719 C-4.56435065 1.21095017 -4.56435065 1.21095017 0 0 Z " fill="#50C5E4" transform="translate(122.0625,-0.8125)"/>
<path d="M0 0 C2.45286296 3.67929445 2.23228878 5.47377907 2.1953125 9.85546875 C2.1924826 10.51710526 2.18965271 11.17874176 2.18673706 11.86042786 C2.17555918 13.96963737 2.15045981 16.07841925 2.125 18.1875 C2.11496707 19.61913448 2.10584176 21.05077564 2.09765625 22.48242188 C2.07562795 25.98841977 2.04111485 29.49416813 2 33 C2.6798999 33.01458252 3.3597998 33.02916504 4.06030273 33.04418945 C7.18656282 33.1193642 10.31183482 33.21579232 13.4375 33.3125 C15.04141602 33.34633789 15.04141602 33.34633789 16.67773438 33.38085938 C26.54884484 33.71291508 33.98685779 35.20966005 41.28125 42.11328125 C45.26729625 46.48887293 47.35808905 51.49882712 49.09375 57.10546875 C50.76669774 60.60279484 52.98673153 62.58103754 56.55078125 64.0546875 C57.46214844 64.32539062 58.37351562 64.59609375 59.3125 64.875 C66.10716387 67.20330482 70.65086364 70.43577694 74.375 76.625 C77.85238044 83.84725168 78.12183423 91.88574565 76 99.625 C72.76114026 108.03097086 66.66058281 113.06788523 58.77602005 116.92397118 C54.35565525 118.63737376 50.28582118 118.66048094 45.59326172 118.56762695 C44.60669083 118.56835709 43.62011993 118.56908722 42.60365295 118.56983948 C39.37841677 118.56638665 36.15466792 118.5276345 32.9296875 118.48828125 C30.67954293 118.47894494 28.42938814 118.4718327 26.17922974 118.46684265 C20.28372678 118.44783749 14.3888489 118.39879225 8.49359131 118.34332275 C2.4671677 118.29199036 -3.55935784 118.26929877 -9.5859375 118.24414062 C-21.39089822 118.19066749 -33.19539694 118.10543325 -45 118 C-45 117.67 -45 117.34 -45 117 C-12.66 117 19.68 117 53 117 C53 116.01 53 115.02 53 114 C51.79587967 114.00444122 50.59175934 114.00888245 49.35115051 114.01345825 C38.00657154 114.05399175 26.66200726 114.08397839 15.31737232 114.10362434 C9.48490698 114.11406402 3.65250007 114.1282267 -2.17993164 114.15087891 C-7.80794665 114.17260054 -13.43590543 114.18456724 -19.06395912 114.18975449 C-21.21176349 114.19345145 -23.35956475 114.20067061 -25.5073452 114.21146011 C-28.51432332 114.22596585 -31.52106872 114.22797831 -34.52807617 114.22705078 C-35.41712143 114.23424133 -36.30616669 114.24143188 -37.22215271 114.24884033 C-41.60111625 114.23421271 -45.01576304 114.05853677 -49 112 C-46.24564221 111.08188074 -44.68856183 110.88300276 -41.85871887 110.90666199 C-40.59513046 110.91327095 -40.59513046 110.91327095 -39.30601501 110.92001343 C-37.92440941 110.93483261 -37.92440941 110.93483261 -36.51489258 110.94995117 C-35.54219421 110.95623032 -34.56949585 110.96250946 -33.56732178 110.96897888 C-31.45238178 110.98284045 -29.33745463 110.99877867 -27.22254372 111.01653099 C-23.87221576 111.04314602 -20.52195366 111.0610312 -17.17155457 111.07600403 C-7.64444028 111.11877312 1.88254408 111.16630869 11.40942383 111.24682617 C17.23542319 111.29542762 23.06123916 111.32436856 28.88741493 111.34057045 C31.10534414 111.35045464 33.32325355 111.3676444 35.54106712 111.39235497 C38.65024337 111.42621515 41.75858168 111.43499406 44.86791992 111.43823242 C46.2343438 111.46216064 46.2343438 111.46216064 47.62837219 111.48657227 C54.52508034 111.45393237 60.0622412 109.90431183 65.05859375 104.96484375 C65.51363281 104.29582031 65.96867187 103.62679687 66.4375 102.9375 C67.14712891 101.93009766 67.14712891 101.93009766 67.87109375 100.90234375 C70.9530948 95.70879872 70.52525849 89.83702743 70 84 C68.74014637 79.52931941 66.89390096 76.76620082 63.375 73.75 C59.81605537 71.9046213 56.24089073 70.46123147 52.46484375 69.125 C46.47017021 66.38892079 44.26548416 63.13860351 41.9375 57.0625 C39.19521387 49.95990296 36.51630964 44.98702425 29.45703125 41.73242188 C24.41048683 40.2280863 19.21488556 40.5946884 14 40.75 C12.26556641 40.77707031 12.26556641 40.77707031 10.49609375 40.8046875 C7.66318725 40.8515124 4.83204116 40.91707988 2 41 C2 43.64 2 46.28 2 49 C2.62567871 49.01981934 3.25135742 49.03963867 3.89599609 49.06005859 C6.72276519 49.15514226 9.54877815 49.26488746 12.375 49.375 C13.35984375 49.4059375 14.3446875 49.436875 15.359375 49.46875 C16.30039063 49.50742188 17.24140625 49.54609375 18.2109375 49.5859375 C19.08024902 49.6173584 19.94956055 49.6487793 20.84521484 49.68115234 C23 50 23 50 25 52 C24.505 52.99 24.505 52.99 24 54 C14.76 54 5.52 54 -4 54 C-4 53.34 -4 52.68 -4 52 C-12.58 52 -21.16 52 -30 52 C-30 50.35 -30 48.7 -30 47 C-21.09 47 -12.18 47 -3 47 C-1.94729537 44.36893239 -1.94729537 44.36893239 -2 43 C-2 39.66666667 -2 36.33333333 -2 33 C-1.67 33 -1.34 33 -1 33 C-0.67 22.11 -0.34 11.22 0 0 Z " fill="#33669D" transform="translate(69,18)"/>
<path d="M0 0 C0.99 0 1.98 0 3 0 C3.0093457 0.86689453 3.01869141 1.73378906 3.02832031 2.62695312 C3.07262577 5.87775741 3.13436953 9.12765627 3.20751953 12.37792969 C3.23555071 13.77819961 3.25685316 15.17862251 3.27099609 16.57910156 C3.10703572 28.03887003 3.10703572 28.03887003 8 38 C13.5019266 41.90170969 18.76615367 42.57826786 25.35009766 42.50170898 C26.24871017 42.50711197 27.14732269 42.51251495 28.07316589 42.51808167 C31.02047447 42.53051007 33.96679508 42.51411983 36.9140625 42.49609375 C38.97333833 42.49624885 41.03261445 42.49773961 43.09188843 42.50050354 C47.3973285 42.5018848 51.70243434 42.48937281 56.0078125 42.46655273 C61.52025451 42.43813336 67.03214303 42.44091888 72.54462624 42.45364285 C76.79290478 42.46060354 81.04105582 42.45280682 85.28931808 42.44038582 C87.32184739 42.43587766 89.35439041 42.43552895 91.38692093 42.43945122 C94.22779587 42.44236815 97.06791242 42.42583444 99.90869141 42.40405273 C101.16190941 42.41080521 101.16190941 42.41080521 102.44044495 42.41769409 C107.34633442 42.35533418 110.75122004 41.72500911 115 39 C116.59538881 35.80922238 116.51112198 32.4642712 116 29 C113.45253236 26.07512974 110.76562908 25.52300404 107 25 C107 24.67 107 24.34 107 24 C108.65 23.67 110.3 23.34 112 23 C110.68 22.34 109.36 21.68 108 21 C108.33 20.34 108.66 19.68 109 19 C115.24526183 20.90533412 118.42010568 22.46743604 122 28 C123.59000476 32.5712637 122.83034187 35.83915918 121.01953125 40.171875 C118.79890715 44.15368373 115.06018931 46.22430228 111 48 C109.03647423 48.26006222 109.03647423 48.26006222 106.94174194 48.27415466 C106.1429361 48.28412979 105.34413025 48.29410492 104.52111816 48.30438232 C103.21974915 48.30537933 103.21974915 48.30537933 101.89208984 48.30639648 C100.51079391 48.31888176 100.51079391 48.31888176 99.10159302 48.33161926 C96.05466486 48.35572882 93.00795097 48.36449429 89.9609375 48.37109375 C87.83826636 48.3800621 85.71559587 48.38918398 83.59292603 48.39845276 C79.13924627 48.41494983 74.68564172 48.42264371 70.23193359 48.42553711 C64.5425182 48.43090965 58.8538166 48.46854037 53.16460228 48.51428127 C48.77720608 48.54412504 44.38997985 48.55126233 40.002491 48.55226326 C37.90624359 48.55645402 35.80999513 48.56884205 33.71384811 48.58978081 C11.92994599 48.78998932 11.92994599 48.78998932 5 43 C-2.30073775 35.05445677 -2.18226407 28.56053635 -2.1875 18.0625 C-2.19974609 16.77408203 -2.21199219 15.48566406 -2.22460938 14.15820312 C-2.22654297 12.92134766 -2.22847656 11.68449219 -2.23046875 10.41015625 C-2.23457764 9.27715088 -2.23868652 8.14414551 -2.24291992 6.97680664 C-2.00724647 4.08880026 -1.50363523 2.44000852 0 0 Z " fill="#195492" transform="translate(12,76)"/>
<path d="M0 0 C2.46278801 1.231394 3.42497687 2.78064923 5 5 C3.8553125 5.804375 3.8553125 5.804375 2.6875 6.625 C-1.17605744 10.03930658 -3.04370031 13.98330207 -4 19 C-4.12985698 21.56221262 -4.21162891 24.09689861 -4.23828125 26.66015625 C-4.246353 27.40526962 -4.25442474 28.150383 -4.26274109 28.91807556 C-4.27654994 30.49573465 -4.28728636 32.07342321 -4.29516602 33.65112305 C-4.30663257 35.24626575 -4.32699921 36.84137171 -4.35668945 38.4362793 C-4.55581045 49.14765397 -4.6670398 59.25595102 2.4375 68 C4.96637298 70.05760216 4.96637298 70.05760216 7.8125 71.6875 C8.534375 72.120625 9.25625 72.55375 10 73 C10 73.66 10 74.32 10 75 C14.81145872 76.22850094 19.54056905 76.17339787 24.47192383 76.20532227 C25.41875031 76.21522186 26.36557678 76.22512146 27.34109497 76.23532104 C30.46304851 76.26684667 33.58501724 76.29165813 36.70703125 76.31640625 C38.87465302 76.33698349 41.04227084 76.35798017 43.20988464 76.37937927 C48.9095032 76.43452036 54.60915749 76.48396475 60.30883789 76.53222656 C66.12714816 76.58249975 71.94540667 76.63815544 77.76367188 76.69335938 C89.175737 76.80084356 100.58784712 76.90231013 112 77 C112 77.99 112 78.98 112 80 C98.98707038 80.24692676 85.97399422 80.46611167 72.9600153 80.65021229 C66.91661989 80.73656929 60.87368526 80.83235766 54.83081055 80.94995117 C48.99548539 81.06315461 43.16026436 81.15125522 37.32427788 81.22220421 C35.10149231 81.25359136 32.8788138 81.29391393 30.65635872 81.34345436 C27.53512749 81.41147962 24.41502124 81.44727297 21.29321289 81.47583008 C20.38114578 81.5031572 19.46907867 81.53048431 18.52937317 81.55863953 C10.37390581 81.57321409 5.29825665 78.28340845 -1.25 73.75 C-4.76221643 70.23778357 -6.81812548 66.42459812 -9 62 C-9.33 61.34 -9.66 60.68 -10 60 C-10.10968094 58.52609057 -10.15902741 57.04745553 -10.17700195 55.56958008 C-10.18983719 54.65134964 -10.20267242 53.7331192 -10.21589661 52.7870636 C-10.22328354 51.79127792 -10.23067047 50.79549225 -10.23828125 49.76953125 C-10.246353 48.74574875 -10.25442474 47.72196625 -10.26274109 46.66716003 C-10.27659012 44.49581601 -10.2873086 42.32445014 -10.29516602 40.15307617 C-10.3123409 36.8431624 -10.35621592 33.53425718 -10.40039062 30.22460938 C-10.41052083 28.11459068 -10.41903591 26.00456348 -10.42578125 23.89453125 C-10.44328934 22.90886673 -10.46079742 21.92320221 -10.47883606 20.90766907 C-10.45624868 13.69661839 -9.03873791 9.56145658 -4.296875 4.00390625 C-2.86458333 2.66927083 -1.43229167 1.33463542 0 0 Z " fill="#0F5296" transform="translate(10,55)"/>
<path d="M0 0 C7.46427 2.06458532 10.74242543 10.18215622 14.3125 16.4375 C17.80005363 22.48390746 21.28282742 28.44361822 25.25 34.1875 C28.1491385 38.67323171 28.97644846 41.52330784 27.9375 46.8125 C25.09630422 49.57112601 23.04687429 50.19288264 19.140625 50.23242188 C18.1928418 50.24833374 17.24505859 50.26424561 16.26855469 50.28063965 C15.25180664 50.28084106 14.23505859 50.28104248 13.1875 50.28125 C11.61210449 50.29267029 11.61210449 50.29267029 10.00488281 50.30432129 C7.78583147 50.31511979 5.56672931 50.31797642 3.34765625 50.31347656 C-0.05033836 50.31250348 -3.44608099 50.35414575 -6.84375 50.3984375 C-8.99999529 50.40364389 -11.15624843 50.4063327 -13.3125 50.40625 C-14.32924805 50.42264526 -15.34599609 50.43904053 -16.39355469 50.45593262 C-23.40833125 50.38706092 -23.40833125 50.38706092 -26.73876953 47.46191406 C-28.46034236 44.01622827 -28.18806295 42.46348572 -27.0625 38.8125 C-25.8203125 36.234375 -25.8203125 36.234375 -24.1875 33.5625 C-23.56230469 32.53125 -22.93710938 31.5 -22.29296875 30.4375 C-21.94153809 29.86773438 -21.59010742 29.29796875 -21.22802734 28.7109375 C-19.92421514 26.58725847 -18.64333808 24.45057734 -17.36328125 22.3125 C-16.40947841 20.72879054 -15.45505242 19.14545621 -14.5 17.5625 C-14.05350098 16.81838867 -13.60700195 16.07427734 -13.14697266 15.30761719 C-4.56435065 1.21095017 -4.56435065 1.21095017 0 0 Z M-1.0625 5.8125 C-3.41740077 9.56195155 -5.76645897 13.31483238 -8.10546875 17.07421875 C-10.11095127 20.29685884 -12.13747234 23.50506805 -14.17578125 26.70703125 C-15.18007576 28.30444347 -16.18399132 29.902094 -17.1875 31.5 C-17.67259033 32.2532959 -18.15768066 33.0065918 -18.6574707 33.78271484 C-19.1030835 34.49766113 -19.54869629 35.21260742 -20.0078125 35.94921875 C-20.40500488 36.57530029 -20.80219727 37.20138184 -21.21142578 37.84643555 C-22.39354901 40.22019433 -22.39354901 40.22019433 -22.0625 44.8125 C-7.5425 44.8125 6.9775 44.8125 21.9375 44.8125 C23.37580781 40.88309774 23.37580781 40.88309774 21.453125 37.7734375 C20.7107335 36.57012272 19.95447282 35.37529808 19.1875 34.1875 C18.3550729 32.85832074 17.52306083 31.5288815 16.69140625 30.19921875 C16.24555176 29.49458496 15.79969727 28.78995117 15.34033203 28.06396484 C13.86447366 25.69529691 12.44177603 23.30033953 11.02734375 20.89453125 C10.54426758 20.08000488 10.06119141 19.26547852 9.56347656 18.42626953 C8.61756094 16.83079949 7.67791082 15.23159514 6.74511719 13.62841797 C6.3071582 12.89896973 5.86919922 12.16952148 5.41796875 11.41796875 C5.03535889 10.76981201 4.65274902 10.12165527 4.25854492 9.45385742 C2.69877132 7.515887 1.21069599 6.76695956 -1.0625 5.8125 Z " fill="#26619C" transform="translate(122.0625,-0.8125)"/>
<path d="M0 0 C2.45286296 3.67929445 2.23228878 5.47377907 2.1953125 9.85546875 C2.1924826 10.51710526 2.18965271 11.17874176 2.18673706 11.86042786 C2.17555918 13.96963737 2.15045981 16.07841925 2.125 18.1875 C2.11496707 19.61913448 2.10584176 21.05077564 2.09765625 22.48242188 C2.07562795 25.98841977 2.04111485 29.49416813 2 33 C2.69037354 33.01981934 3.38074707 33.03963867 4.09204102 33.06005859 C7.24921471 33.15588293 10.40577822 33.26532814 13.5625 33.375 C15.19155273 33.42140625 15.19155273 33.42140625 16.85351562 33.46875 C22.56870137 33.67720662 27.59508366 34.09238247 33 36 C29.64264863 37.11911712 27.11794614 37.11365586 23.58203125 37.09765625 C22.32841797 37.09443359 21.07480469 37.09121094 19.78320312 37.08789062 C18.47287109 37.07951172 17.16253906 37.07113281 15.8125 37.0625 C14.47721519 37.05748317 13.14192859 37.05292059 11.80664062 37.04882812 C8.53771527 37.03702695 5.26888009 37.02056297 2 37 C2.6705542 37.01981934 3.3411084 37.03963867 4.03198242 37.06005859 C7.08420161 37.15559715 10.13576341 37.26515945 13.1875 37.375 C14.77014648 37.42140625 14.77014648 37.42140625 16.38476562 37.46875 C17.40634766 37.50742187 18.42792969 37.54609375 19.48046875 37.5859375 C20.88655396 37.63306885 20.88655396 37.63306885 22.32104492 37.68115234 C25.16995808 38.02022831 27.39520444 38.82257457 30 40 C26.82212459 41.0592918 24.57411057 41.11458939 21.23828125 41.09765625 C20.12001953 41.09443359 19.00175781 41.09121094 17.84960938 41.08789062 C16.68236328 41.07951172 15.51511719 41.07113281 14.3125 41.0625 C13.13365234 41.05798828 11.95480469 41.05347656 10.74023438 41.04882812 C7.82677211 41.03703273 4.91341137 41.0205727 2 41 C2 43.64 2 46.28 2 49 C2.62567871 49.01981934 3.25135742 49.03963867 3.89599609 49.06005859 C6.72276519 49.15514226 9.54877815 49.26488746 12.375 49.375 C13.35984375 49.4059375 14.3446875 49.436875 15.359375 49.46875 C16.77089844 49.52675781 16.77089844 49.52675781 18.2109375 49.5859375 C19.08024902 49.6173584 19.94956055 49.6487793 20.84521484 49.68115234 C23 50 23 50 25 52 C24.505 52.99 24.505 52.99 24 54 C14.76 54 5.52 54 -4 54 C-4 53.34 -4 52.68 -4 52 C-12.58 52 -21.16 52 -30 52 C-30 50.35 -30 48.7 -30 47 C-21.09 47 -12.18 47 -3 47 C-1.94729537 44.36893239 -1.94729537 44.36893239 -2 43 C-2 39.66666667 -2 36.33333333 -2 33 C-1.67 33 -1.34 33 -1 33 C-0.67 22.11 -0.34 11.22 0 0 Z " fill="#547FAB" transform="translate(69,18)"/>
<path d="M0 0 C2.45650135 1.42506975 3.99181597 2.94032407 6 5 C5.67 5.66 5.34 6.32 5 7 C4.34 6.67 3.68 6.34 3 6 C3.01160156 7.26457031 3.02320312 8.52914063 3.03515625 9.83203125 C3.04453566 11.49218602 3.0536357 13.15234239 3.0625 14.8125 C3.07087891 15.64587891 3.07925781 16.47925781 3.08789062 17.33789062 C3.09272461 18.54155273 3.09272461 18.54155273 3.09765625 19.76953125 C3.10551147 20.87711792 3.10551147 20.87711792 3.11352539 22.00708008 C3 24 3 24 2 27 C2.33 27.33 2.66 27.66 3 28 C3.0979057 29.49738124 3.12974864 30.99942892 3.125 32.5 C3.12886719 33.72203125 3.12886719 33.72203125 3.1328125 34.96875 C3 37 3 37 2 38 C-0.00163877 38.0167793 -2.00394864 37.96262541 -4.00390625 37.87890625 C-5.21884766 37.83056641 -6.43378906 37.78222656 -7.68554688 37.73242188 C-8.96494141 37.67634766 -10.24433594 37.62027344 -11.5625 37.5625 C-12.84576172 37.51029297 -14.12902344 37.45808594 -15.45117188 37.40429688 C-18.63433391 37.2741304 -21.81722004 37.13914999 -25 37 C-26.125 30.25 -26.125 30.25 -25 28 C-25.66 28 -26.32 28 -27 28 C-26.67 20.74 -26.34 13.48 -26 6 C-24 8 -24 8 -23.8046875 11.4765625 C-23.81612305 12.85952633 -23.84208742 14.24238057 -23.875 15.625 C-23.91625 18.05875 -23.9575 20.4925 -24 23 C-15.42 23 -6.84 23 2 23 C1.83562902 12.05227358 1.83562902 12.05227358 -1 7 C-5.14093698 6.79029441 -5.14093698 6.79029441 -9 8 C-9.65772428 11.02934491 -9.65772428 11.02934491 -10 14 C-11.65614657 14.38218767 -13.32457024 14.71395102 -15 15 C-16 14 -16 14 -16.375 10.8125 C-15.8836855 5.81746929 -14.49408231 4.49408231 -11 1 C-7.52011442 -0.73994279 -3.7956593 -0.5976415 0 0 Z M-4.56640625 28.21875 C-6.2534668 28.28642578 -6.2534668 28.28642578 -7.97460938 28.35546875 C-9.15861328 28.40316406 -10.34261719 28.45085938 -11.5625 28.5 C-12.75037109 28.54769531 -13.93824219 28.59539063 -15.16210938 28.64453125 C-18.1080801 28.76284333 -21.05404323 28.88134122 -24 29 C-24 31.31 -24 33.62 -24 36 C-15.42 36 -6.84 36 2 36 C2 33.36 2 30.72 2 28 C-0.18892888 28 -2.37985404 28.1308484 -4.56640625 28.21875 Z " fill="#406EA1" transform="translate(63,11)"/>
<path d="M0 0 C0.99 0.495 0.99 0.495 2 1 C0.35 1.99 -1.3 2.98 -3 4 C-1.68 4.66 -0.36 5.32 1 6 C-1.23030694 8.23030694 -2.7955485 8.92386062 -5.94649792 9.12304783 C-7.05956295 9.12166514 -7.05956295 9.12166514 -8.19511414 9.12025452 C-9.47604446 9.12231651 -9.47604446 9.12231651 -10.78285217 9.12442017 C-11.71649094 9.12082489 -12.6501297 9.11722961 -13.61206055 9.11352539 C-15.09038361 9.11374443 -15.09038361 9.11374443 -16.59857178 9.1139679 C-19.8613097 9.11327035 -23.12399078 9.10548527 -26.38671875 9.09765625 C-28.6468757 9.09579151 -30.90703305 9.09436787 -33.16719055 9.09336853 C-39.1200573 9.08954776 -45.07289971 9.07972119 -51.02575684 9.06866455 C-57.09854808 9.058441 -63.17134326 9.05386888 -69.24414062 9.04882812 C-81.16277112 9.03809856 -93.08138354 9.02102738 -105 9 C-105 8.67 -105 8.34 -105 8 C-72.66 8 -40.32 8 -7 8 C-7 7.01 -7 6.02 -7 5 C-8.20412033 5.00444122 -9.40824066 5.00888245 -10.64884949 5.01345825 C-21.99342846 5.05399175 -33.33799274 5.08397839 -44.68262768 5.10362434 C-50.51509302 5.11406402 -56.34749993 5.1282267 -62.17993164 5.15087891 C-67.80794665 5.17260054 -73.43590543 5.18456724 -79.06395912 5.18975449 C-81.21176349 5.19345145 -83.35956475 5.20067061 -85.5073452 5.21146011 C-88.51432332 5.22596585 -91.52106872 5.22797831 -94.52807617 5.22705078 C-95.41712143 5.23424133 -96.30616669 5.24143188 -97.22215271 5.24884033 C-101.60111625 5.23421271 -105.01576304 5.05853677 -109 3 C-106.24724541 2.08241514 -104.66906679 1.87966029 -101.83853149 1.89320374 C-100.56843987 1.89547722 -100.56843987 1.89547722 -99.27268982 1.89779663 C-97.88401451 1.90790268 -97.88401451 1.90790268 -96.46728516 1.91821289 C-95.48976791 1.92127945 -94.51225067 1.92434601 -93.50511169 1.92750549 C-91.38034882 1.93466445 -89.25559258 1.94405647 -87.13084793 1.95540047 C-83.76873588 1.97276121 -80.40667117 1.98308067 -77.04452515 1.99131775 C-67.48439042 2.01579747 -57.92431941 2.05134706 -48.36425781 2.09594727 C-42.51882728 2.12272383 -36.67343373 2.13977138 -30.82795334 2.15081596 C-28.59920256 2.15702747 -26.37045904 2.16703489 -24.14174271 2.18089485 C-21.02494869 2.2001026 -17.90834912 2.20700612 -14.79150391 2.21118164 C-13.40890129 2.22432404 -13.40890129 2.22432404 -11.99836731 2.23773193 C-7.46082353 2.23078924 -4.18764031 1.92279241 0 0 Z " fill="#6788AD" transform="translate(129,127)"/>
<path d="M0 0 C0.928125 0.495 1.85625 0.99 2.8125 1.5 C7.24176924 3.58436199 11.17780748 3.61559904 16 3 C18.02323613 2.04788888 20.02699884 1.05226728 22 0 C27.44504111 -0.70583866 30.46077151 0.6017582 35.09765625 3.09375 C37.97125724 4.46269339 39.86793677 4.52201054 43 4 C45.07469822 3.00989649 47.08107343 1.92733987 49.09765625 0.82421875 C51.67859328 -0.29401064 53.40581041 0.0271789 56 1 C55.77734375 2.89453125 55.77734375 2.89453125 55 5 C53.00390625 6.01171875 53.00390625 6.01171875 50.5625 6.6875 C47.20141834 7.6372485 47.20141834 7.6372485 44 9 C38.20391672 9.59213424 34.98237372 8.98942423 30 6 C24.02118658 5.12832253 20.33338728 6.2765682 15 9 C10.83554117 9.65621776 7.83595235 9.42686929 4.0625 7.5 C0.0733667 5.54613879 -3.61412395 5.32457509 -8 6 C-8.66 6.66 -9.32 7.32 -10 8 C-12.125 7.625 -12.125 7.625 -14 7 C-12.98929671 4.3354186 -12.0600516 3.04804128 -9.8125 1.25 C-6.24464367 -0.33571392 -3.87665241 -0.40806867 0 0 Z " fill="#105D9F" transform="translate(36,87)"/>
<path d="M0 0 C5.02312411 1.19143466 9.77549102 1.38856661 14.92140198 1.40127563 C15.86881256 1.41132126 16.81622314 1.42136688 17.79234314 1.43171692 C20.89256743 1.46235996 23.99270613 1.47953122 27.09303284 1.49649048 C29.25494107 1.51521733 31.41684211 1.53479186 33.57873535 1.55517578 C39.24540452 1.60634265 44.91209734 1.64605082 50.57887268 1.68331909 C56.37076088 1.72345586 62.16255199 1.77450395 67.95436096 1.82461548 C79.30129781 1.92119177 90.64828968 2.00565479 101.99537659 2.08242798 C101.99537659 3.07242798 101.99537659 4.06242798 101.99537659 5.08242798 C69.65537659 5.08242798 37.31537659 5.08242798 3.99537659 5.08242798 C3.99537659 4.42242798 3.99537659 3.76242798 3.99537659 3.08242798 C3.08787659 2.95867798 2.18037659 2.83492798 1.24537659 2.70742798 C-1.59432664 2.1613312 -3.53052933 1.50978995 -6.00462341 0.08242798 C-3.46484004 -1.18746371 -2.69703977 -0.72544967 0 0 Z " fill="#074F96" transform="translate(20.004623413085938,129.91757202148438)"/>
<path d="M0 0 C1.69719127 0.94726954 3.36935236 1.94228261 5 3 C8.98039852 3.43422529 11.25780513 3.39583726 14.8125 1.5 C19.23445408 -0.58091957 23.1860407 -0.62089592 28 0 C30.875 1.4375 30.875 1.4375 33 3 C35.19130534 3.69579454 35.19130534 3.69579454 37 4 C37 5.32 37 6.64 37 8 C30.375 7.25 30.375 7.25 27 5 C22.54395339 4.63475028 20.05544326 4.46105025 16.0625 6.5 C11.96130909 8.50874657 8.49439582 8.63278497 4 8 C1.98413316 7.03238392 -0.01753602 6.03432904 -2 5 C-6.00061299 4.57136289 -8.24309632 4.59631804 -11.8125 6.5 C-16.23299354 8.58023226 -20.19487468 8.25639997 -25 8 C-25.33 6.68 -25.66 5.36 -26 4 C-23 3 -23 3 -19.6875 3.125 C-16.01164585 3.27138367 -16.01164585 3.27138367 -13.1875 1.5 C-8.77142869 -0.57815121 -4.80886779 -0.63146749 0 0 Z " fill="#0E599B" transform="translate(71,101)"/>
<path d="M0 0 C3.0625 2 3.0625 2 5 4 C4.76120117 5.25139771 4.76120117 5.25139771 4.51757812 6.52807617 C3.96525116 10.23309585 3.80581718 13.80619796 3.71875 17.55078125 C3.68099883 18.98502629 3.64323814 20.41927107 3.60546875 21.85351562 C3.55160179 24.09640727 3.4993824 26.33933116 3.44775391 28.58227539 C3.3962048 30.7593973 3.33894515 32.93631496 3.28125 35.11328125 C3.23581055 37.05908081 3.23581055 37.05908081 3.18945312 39.04418945 C3 42 3 42 2 43 C0.36743242 43.15714654 -1.27135338 43.25085414 -2.91015625 43.31640625 C-3.89951172 43.35830078 -4.88886719 43.40019531 -5.90820312 43.44335938 C-7.46958008 43.50233398 -7.46958008 43.50233398 -9.0625 43.5625 C-10.10728516 43.60568359 -11.15207031 43.64886719 -12.22851562 43.69335938 C-14.81886884 43.79981225 -17.40932186 43.9018276 -20 44 C-15.16568925 39.16568925 -4.62027312 40.40144808 1 40 C0.67 29.44 0.34 18.88 0 8 C-6.35065875 6.32821558 -6.35065875 6.32821558 -8.8125 8.125 C-10.2091667 10.3302632 -11.13587557 12.54056893 -12 15 C-13.32 14.67 -14.64 14.34 -16 14 C-16.59865471 8.01345291 -16.59865471 8.01345291 -14.95703125 5.234375 C-10.48421533 -0.16973103 -6.77274894 -0.89914081 0 0 Z " fill="#5278A6" transform="translate(32,11)"/>
<path d="M0 0 C-0.75 6.625 -0.75 6.625 -3 10 C-3.33 11.65 -3.66 13.3 -4 15 C18.275 14.505 18.275 14.505 41 14 C41 14.66 41 15.32 41 16 C40.34 16.66 39.68 17.32 39 18 C39.99 18.66 40.98 19.32 42 20 C35.23750813 20.12673206 28.47532217 20.21432235 21.71191406 20.2746582 C19.4110164 20.29980906 17.11019868 20.33393396 14.80957031 20.37719727 C11.50305467 20.43782147 8.19759479 20.46620441 4.890625 20.48828125 C3.3466806 20.52699089 3.3466806 20.52699089 1.77154541 20.56648254 C-5.35084424 20.5692824 -5.35084424 20.5692824 -8.68066406 17.64916992 C-10.42280394 14.15102784 -10.18648836 12.70777611 -9 9 C-7.47758846 5.58350839 -6.01806211 2.66901224 -2.8125 0.5625 C-1 0 -1 0 0 0 Z " fill="#195F9C" transform="translate(104,29)"/>
<path d="M0 0 C4.95 0 9.9 0 15 0 C15.09765625 9.27734375 15.09765625 9.27734375 15 12 C14 13 14 13 11.05859375 13.09765625 C9.26615234 13.08025391 9.26615234 13.08025391 7.4375 13.0625 C5.64119141 13.04896484 5.64119141 13.04896484 3.80859375 13.03515625 C2.88175781 13.02355469 1.95492188 13.01195313 1 13 C1.33 13.66 1.66 14.32 2 15 C25.1 15.33 48.2 15.66 72 16 C72 16.33 72 16.66 72 17 C70.63483749 17.01213028 70.63483749 17.01213028 69.24209595 17.02450562 C60.67779917 17.10234889 52.1136618 17.18960811 43.54957008 17.28752708 C39.14636021 17.33753753 34.74317488 17.38386693 30.33984375 17.421875 C26.09278412 17.45866811 21.84592756 17.50501133 17.59904099 17.55806351 C15.97631761 17.57663935 14.35355065 17.59173545 12.73076248 17.60334396 C10.46303628 17.62015225 8.19577842 17.64917295 5.92822266 17.68115234 C3.98962875 17.70113785 3.98962875 17.70113785 2.01187134 17.7215271 C-1.11293605 17.68693383 -1.11293605 17.68693383 -3 20 C-3.37296556 23.00972657 -3.37296556 23.00972657 -3.4140625 26.5390625 C-3.45273437 27.84101562 -3.49140625 29.14296875 -3.53125 30.484375 C-3.56270763 31.86457862 -3.59395491 33.24478704 -3.625 34.625 C-3.66317934 36.01304541 -3.70223105 37.40106711 -3.7421875 38.7890625 C-3.83672943 42.19257185 -3.92227897 45.59607165 -4 49 C-4.33 49 -4.66 49 -5 49 C-5 39.1 -5 29.2 -5 19 C-5.99 19 -6.98 19 -8 19 C-8 20.98 -8 22.96 -8 25 C-9.1875 23.375 -9.1875 23.375 -10 21 C-8.33752519 16.20816083 -6.50441383 14.18470207 -2 12 C0.64466251 11.487511 3.14794753 11.0904294 5.8125 10.8125 C6.50537109 10.73064453 7.19824219 10.64878906 7.91210938 10.56445312 C9.60686984 10.36575707 11.30330194 10.18140797 13 10 C13 7.36 13 4.72 13 2 C8.71 1.67 4.42 1.34 0 1 C0 0.67 0 0.34 0 0 Z " fill="#438BB6" transform="translate(20,57)"/>
<path d="M0 0 C4.47915328 -0.02886338 8.95828291 -0.04675187 13.4375 -0.0625 C14.71689453 -0.07087891 15.99628906 -0.07925781 17.31445312 -0.08789062 C19.13686523 -0.09272461 19.13686523 -0.09272461 20.99609375 -0.09765625 C22.12200928 -0.10289307 23.2479248 -0.10812988 24.40795898 -0.11352539 C27 0 27 0 28 1 C28.14193337 4.00331018 28.04236378 6.99217134 28 10 C21.565 10.495 21.565 10.495 15 11 C15 11.33 15 11.66 15 12 C10.38 12 5.76 12 1 12 C1 13.98 1 15.96 1 18 C9.58 18 18.16 18 27 18 C27 18.66 27 19.32 27 20 C12.48 20 -2.04 20 -17 20 C-17 19.34 -17 18.68 -17 18 C-16.07316406 17.93941406 -15.14632813 17.87882812 -14.19140625 17.81640625 C-12.39509766 17.69072266 -12.39509766 17.69072266 -10.5625 17.5625 C-8.77005859 17.44068359 -8.77005859 17.44068359 -6.94140625 17.31640625 C-4.11429756 17.32343886 -4.11429756 17.32343886 -3 16 C-2.62677755 13.69360186 -2.30108195 11.37941973 -2 9.0625 C-1.10866575 2.2173315 -1.10866575 2.2173315 0 0 Z M1 1 C1 3.64 1 6.28 1 9 C9.58 9 18.16 9 27 9 C27 6.36 27 3.72 27 1 C18.42 1 9.84 1 1 1 Z " fill="#25609C" transform="translate(38,52)"/>
<path d="M0 0 C2.46278801 1.231394 3.42497687 2.78064923 5 5 C3.8553125 5.804375 3.8553125 5.804375 2.6875 6.625 C-1.21471323 10.0734675 -2.94881298 13.9687504 -4 19 C-4.08363974 21.83691625 -4.11621679 24.64817989 -4.09765625 27.484375 C-4.0962413 28.29996887 -4.09482635 29.11556274 -4.09336853 29.95587158 C-4.08778303 32.55395212 -4.07523321 35.15194563 -4.0625 37.75 C-4.05748312 39.51432167 -4.05292054 41.27864469 -4.04882812 43.04296875 C-4.03781835 47.36201256 -4.02056369 51.68099154 -4 56 C-4.66 56 -5.32 56 -6 56 C-6.02505615 54.82381104 -6.0501123 53.64762207 -6.07592773 52.43579102 C-6.16982806 48.08785378 -6.27009048 43.74008284 -6.37231445 39.39233398 C-6.41572933 37.50760782 -6.45739943 35.62284064 -6.49731445 33.73803711 C-6.55485893 31.03486751 -6.61859804 28.33190564 -6.68359375 25.62890625 C-6.70030624 24.78099014 -6.71701874 23.93307404 -6.73423767 23.0594635 C-6.46409195 19.21707924 -6.46409195 19.21707924 -8 16 C-8 31.18 -8 46.36 -8 62 C-10.43868851 59.56131149 -10.25901335 58.91541323 -10.29052734 55.56958008 C-10.30328705 54.65134964 -10.31604675 53.7331192 -10.32919312 52.7870636 C-10.33141876 51.79127792 -10.33364441 50.79549225 -10.3359375 49.76953125 C-10.3425943 48.74574875 -10.3492511 47.72196625 -10.35610962 46.66716003 C-10.36625111 44.49581705 -10.37092618 42.32444281 -10.37060547 40.15307617 C-10.3749598 36.84305684 -10.41121216 33.53439092 -10.44921875 30.22460938 C-10.45509047 28.11458789 -10.45905748 26.00456007 -10.4609375 23.89453125 C-10.47530853 22.90886673 -10.48967957 21.92320221 -10.50448608 20.90766907 C-10.45704329 13.70641962 -9.03262164 9.55428821 -4.296875 4.00390625 C-2.86458333 2.66927083 -1.43229167 1.33463542 0 0 Z " fill="#5079A7" transform="translate(10,55)"/>
<path d="M0 0 C0.99 0 1.98 0 3 0 C3.02505615 0.86689453 3.0501123 1.73378906 3.07592773 2.62695312 C3.17169454 5.87737824 3.27088544 9.12767671 3.37231445 12.37792969 C3.41533026 13.77827952 3.45702493 15.17867064 3.49731445 16.57910156 C3.80688681 27.32448276 3.80688681 27.32448276 5 38 C2.625 37.8125 2.625 37.8125 0 37 C-2.04935698 33.16683038 -2.256981 29.82434031 -2.265625 25.52734375 C-2.26820312 24.29822266 -2.27078125 23.06910156 -2.2734375 21.80273438 C-2.26570312 20.52720703 -2.25796875 19.25167969 -2.25 17.9375 C-2.25773438 16.65810547 -2.26546875 15.37871094 -2.2734375 14.06054688 C-2.27085938 12.83271484 -2.26828125 11.60488281 -2.265625 10.33984375 C-2.26336914 9.21956787 -2.26111328 8.09929199 -2.25878906 6.94506836 C-2.00734798 4.08362141 -1.48593708 2.42331696 0 0 Z " fill="#135090" transform="translate(12,76)"/>
<path d="M0 0 C4.52077862 -0.05834421 9.04145953 -0.09371252 13.5625 -0.125 C15.47772461 -0.15013672 15.47772461 -0.15013672 17.43164062 -0.17578125 C31.90629645 -0.25097427 31.90629645 -0.25097427 37.1796875 3.5859375 C37.73914063 4.17632812 38.29859375 4.76671875 38.875 5.375 C39.44992188 5.96023437 40.02484375 6.54546875 40.6171875 7.1484375 C42.08902341 9.11920084 42.5869226 10.59567769 43 13 C41.68 12.67 40.36 12.34 39 12 C38.67 13.32 38.34 14.64 38 16 C37.278125 14.906875 36.55625 13.81375 35.8125 12.6875 C33.5701671 9.51884724 31.46172092 7.82701938 28 6 C27.67 5.34 27.34 4.68 27 4 C23.8401472 2.88159979 20.6875408 2.80751482 17.359375 2.68359375 C16.28945312 2.64169922 15.21953125 2.59980469 14.1171875 2.55664062 C13.00601563 2.51732422 11.89484375 2.47800781 10.75 2.4375 C9.06003906 2.37272461 9.06003906 2.37272461 7.3359375 2.30664062 C4.55741046 2.20067985 1.77879609 2.09860858 -1 2 C-0.67 1.34 -0.34 0.68 0 0 Z " fill="#396AA0" transform="translate(71,54)"/>
<path d="M0 0 C5.82590529 4.33844011 5.82590529 4.33844011 6.625 7.375 C6.74875 8.24125 6.8725 9.1075 7 10 C7.67543185 11.20651738 8.38701676 12.39319547 9.125 13.5625 C11 17 11 17 10.75 19.4375 C10.5025 19.953125 10.255 20.46875 10 21 C9.67 21 9.34 21 9 21 C8.74476563 20.13761719 8.48953125 19.27523437 8.2265625 18.38671875 C6.55498291 13.77124263 4.02803105 9.87200956 1.4609375 5.70703125 C0 3 0 3 0 0 Z M-35 21 C-33.10253906 20.6257782 -33.10253906 20.6257782 -30.765625 20.62768555 C-29.89131836 20.62145676 -29.01701172 20.61522797 -28.11621094 20.60881042 C-26.69743652 20.62262505 -26.69743652 20.62262505 -25.25 20.63671875 C-23.7964209 20.63597099 -23.7964209 20.63597099 -22.31347656 20.63520813 C-20.26234896 20.63755116 -18.21121862 20.64729306 -16.16015625 20.66381836 C-13.0127605 20.68740438 -9.86621159 20.68438186 -6.71875 20.67773438 C-4.72916159 20.68331107 -2.73957677 20.69042089 -0.75 20.69921875 C0.19584961 20.69830734 1.14169922 20.69739594 2.11621094 20.69645691 C3.4276709 20.71075493 3.4276709 20.71075493 4.765625 20.7253418 C5.53680664 20.72994919 6.30798828 20.73455658 7.10253906 20.73930359 C9 21 9 21 11 23 C10 24 10 24 8.09544373 24.12025452 C7.26271439 24.11803391 6.42998505 24.11581329 5.57202148 24.11352539 C4.63112167 24.11344986 3.69022186 24.11337433 2.72080994 24.11329651 C1.69790359 24.10813522 0.67499725 24.10297394 -0.37890625 24.09765625 C-1.42070541 24.0962413 -2.46250458 24.09482635 -3.53587341 24.09336853 C-6.87811094 24.0877508 -10.22028257 24.0751953 -13.5625 24.0625 C-15.82226466 24.05748728 -18.08203037 24.05292398 -20.34179688 24.04882812 C-25.89455391 24.03777561 -31.44727225 24.02102024 -37 24 C-36.34 23.01 -35.68 22.02 -35 21 Z " fill="#054891" transform="translate(136,24)"/>
<path d="M0 0 C6.5435421 1.62519346 10.35560666 3.19174811 14 9 C15.60620307 13.61783383 14.7750883 16.85678852 12.96875 21.23046875 C11.71898088 23.51331315 10.26709476 24.7491891 8 26 C6.68 25.34 5.36 24.68 4 24 C5.2684375 23.319375 5.2684375 23.319375 6.5625 22.625 C9.20995861 20.30069179 9.20995861 20.30069179 9.25 17.61328125 C9.02826785 12.35602842 9.02826785 12.35602842 6.10546875 8.234375 C3.73485862 6.84455533 1.70801419 6.37611308 -1 6 C-1 5.67 -1 5.34 -1 5 C0.65 4.67 2.3 4.34 4 4 C2.68 3.34 1.36 2.68 0 2 C0 1.34 0 0.68 0 0 Z " fill="#205F9B" transform="translate(120,95)"/>
<path d="M0 0 C0.33 0 0.66 0 1 0 C1.02705729 1.77074917 1.04642195 3.54161711 1.0625 5.3125 C1.07410156 6.29863281 1.08570313 7.28476563 1.09765625 8.30078125 C1 11 1 11 0 14 C1.32 14 2.64 14 4 14 C2.23188872 20.28661788 -2.6680649 25.4453766 -8 29 C-11.62683775 29.37198336 -13.87350101 28.85274014 -17 27 C-16.01 26.731875 -15.02 26.46375 -14 26.1875 C-8.19256239 23.64452834 -4.84597813 18.47200947 -2 13 C-0.86400989 8.67575782 -0.28345959 4.45740209 0 0 Z " fill="#32669E" transform="translate(140,104)"/>
<path d="M0 0 C2.475 0.495 2.475 0.495 5 1 C5 7.40229732 4.7987928 13.80077378 4.62768555 20.20043945 C4.58408904 21.86380145 4.54243463 23.52721544 4.50268555 25.19067383 C4.44519322 27.58949956 4.38148299 29.9880883 4.31640625 32.38671875 C4.29969376 33.13459152 4.28298126 33.88246429 4.26576233 34.65299988 C4.11399953 39.88600047 4.11399953 39.88600047 3 41 C1.36743242 41.15714654 -0.27135338 41.25085414 -1.91015625 41.31640625 C-2.89951172 41.35830078 -3.88886719 41.40019531 -4.90820312 41.44335938 C-6.46958008 41.50233398 -6.46958008 41.50233398 -8.0625 41.5625 C-9.10728516 41.60568359 -10.15207031 41.64886719 -11.22851562 41.69335938 C-13.81886884 41.79981225 -16.40932186 41.9018276 -19 42 C-15.23779783 38.23779783 -9.78076653 38.77070435 -4.6875 38.4375 C-3.43324219 38.35371094 -2.17898437 38.26992188 -0.88671875 38.18359375 C0.06589844 38.12300781 1.01851562 38.06242187 2 38 C1.96447021 37.0212793 1.92894043 36.04255859 1.89233398 35.03417969 C1.76177884 31.3965066 1.63868503 27.75861242 1.51782227 24.12060547 C1.46451436 22.54729317 1.40919411 20.97404769 1.35180664 19.40087891 C1.26958171 17.13719081 1.1946411 14.87335962 1.12109375 12.609375 C1.09405869 11.90818542 1.06702362 11.20699585 1.03916931 10.48455811 C0.93777283 7.15257463 0.94022117 4.18290477 2 1 C1.34 0.67 0.68 0.34 0 0 Z " fill="#5F85AF" transform="translate(31,13)"/>
<path d="M0 0 C0.33 0.66 0.66 1.32 1 2 C2.91666667 2.83333333 2.91666667 2.83333333 5 3 C5.66 2.34 6.32 1.68 7 1 C7.515625 1.9075 8.03125 2.815 8.5625 3.75 C11.03556267 7.51762616 14.01682961 9.0084148 18 11 C17.67 11.99 17.34 12.98 17 14 C18.65 14.66 20.3 15.32 22 16 C22 16.99 22 17.98 22 19 C12.88610632 17.57291345 6.58331094 12.25976276 1.1796875 5.05078125 C0 3 0 3 0 0 Z " fill="#275F9A" transform="translate(2,117)"/>
<path d="M0 0 C0.495 0.99 0.495 0.99 1 2 C1.99 2.33 2.98 2.66 4 3 C3.34 3 2.68 3 2 3 C2 3.66 2 4.32 2 5 C-34.63 4.505 -34.63 4.505 -72 4 C-72 3.67 -72 3.34 -72 3 C-56.16 2.67 -40.32 2.34 -24 2 C-24 1.67 -24 1.34 -24 1 C-16.08 0.67 -8.16 0.34 0 0 Z " fill="#084E94" transform="translate(94,69)"/>
<path d="M0 0 C0.99 0 1.98 0 3 0 C3 0.99 3 1.98 3 3 C2.319375 3.598125 1.63875 4.19625 0.9375 4.8125 C0.298125 5.534375 -0.34125 6.25625 -1 7 C-0.84239972 10.11304814 -0.84239972 10.11304814 0 13 C0 14.33333333 0 15.66666667 0 17 C15.51 17 31.02 17 47 17 C47 17.33 47 17.66 47 18 C40.23750813 18.12673206 33.47532217 18.21432235 26.71191406 18.2746582 C24.4110164 18.29980906 22.11019868 18.33393396 19.80957031 18.37719727 C16.50305467 18.43782147 13.19759479 18.46620441 9.890625 18.48828125 C8.3466806 18.52699089 8.3466806 18.52699089 6.77154541 18.56648254 C-0.35084424 18.5692824 -0.35084424 18.5692824 -3.68066406 15.64916992 C-5.42280394 12.15102784 -5.18648836 10.70777611 -4 7 C-2.77994714 4.56969389 -1.43631942 2.31664422 0 0 Z " fill="#4774A3" transform="translate(99,31)"/>
<path d="M0 0 C1.98 0.495 1.98 0.495 4 1 C4 5.95 4 10.9 4 16 C2.35 16.33 0.7 16.66 -1 17 C-1.02684679 14.35409986 -1.04676357 11.70846904 -1.0625 9.0625 C-1.07087891 8.30775391 -1.07925781 7.55300781 -1.08789062 6.77539062 C-1.09652441 4.85005687 -1.05224333 2.92464419 -1 1 C-0.67 0.67 -0.34 0.34 0 0 Z " fill="#C12E3A" transform="translate(121,16)"/>
<path d="M0 0 C-2 3 -2 3 -4.5 3.6875 C-7.12634656 4.72272389 -7.12634656 4.72272389 -7.76953125 6.90234375 C-8.26159867 8.91663414 -8.63777379 10.95836137 -9 13 C-10.65614657 13.38218767 -12.32457024 13.71395102 -14 14 C-15 13 -15 13 -15.5625 9.8125 C-14.94212562 5.60774033 -14.57765517 5.10857176 -11.4375 2.5625 C-7.4006765 -0.15030296 -4.77143428 -0.59642929 0 0 Z " fill="#0C5095" transform="translate(62,12)"/>
<path d="M0 0 C1.21041317 4.70160486 1.9892025 8.07350651 -0.33984375 12.609375 C-1.84163182 15.11117724 -3.38596537 17.56934071 -5 20 C-5.66 19.01 -6.32 18.02 -7 17 C-7.99 17.33 -8.98 17.66 -10 18 C-8.47146065 13.72813475 -6.28490519 10.00673137 -3.875 6.1875 C-3.50246094 5.59001953 -3.12992187 4.99253906 -2.74609375 4.37695312 C-1.8342952 2.91573749 -0.91764024 1.45755415 0 0 Z " fill="#356AA0" transform="translate(110,13)"/>
<path d="M0 0 C3.93268867 -0.02473868 7.86534713 -0.04287835 11.7980957 -0.05493164 C13.79314768 -0.06242729 15.78817786 -0.07513345 17.78320312 -0.08789062 C19.03681641 -0.09111328 20.29042969 -0.09433594 21.58203125 -0.09765625 C22.73936768 -0.10289307 23.8967041 -0.10812988 25.08911133 -0.11352539 C28 0 28 0 31 1 C30.67 2.32 30.34 3.64 30 5 C29.10152344 4.68289062 28.20304687 4.36578125 27.27734375 4.0390625 C21.81218217 2.47758776 16.20872153 2.53584192 10.5625 2.375 C8.8928418 2.31699219 8.8928418 2.31699219 7.18945312 2.2578125 C4.45979524 2.16409034 1.73013437 2.07837706 -1 2 C-0.67 1.34 -0.34 0.68 0 0 Z " fill="#085297" transform="translate(71,54)"/>
<path d="M0 0 C0.391875 0.53625 0.78375 1.0725 1.1875 1.625 C2.87033635 3.89681461 2.87033635 3.89681461 4.34765625 5.49609375 C5.63692129 6.93619202 6.82465057 8.46551602 8 10 C7.67 10.99 7.34 11.98 7 13 C7.66 13 8.32 13 9 13 C8.67 13.66 8.34 14.32 8 15 C-0.6309795 10.18223235 -0.6309795 10.18223235 -3 5 C-2.01 4.67 -1.02 4.34 0 4 C0 2.68 0 1.36 0 0 Z " fill="#245F99" transform="translate(16,108)"/>
<path d="M0 0 C0.33 0 0.66 0 1 0 C1.02895225 3.29164829 1.0467823 6.58326399 1.0625 9.875 C1.07087891 10.81214844 1.07925781 11.74929687 1.08789062 12.71484375 C1.09111328 13.61074219 1.09433594 14.50664063 1.09765625 15.4296875 C1.10289307 16.25710449 1.10812988 17.08452148 1.11352539 17.93701172 C1 20 1 20 0 22 C-0.33 22.99 -0.66 23.98 -1 25 C-3.63659972 20.16786744 -2.88524539 16.04767951 -2.1875 10.8125 C-2.09146484 9.99330078 -1.99542969 9.17410156 -1.89648438 8.33007812 C-1.15926595 2.3185319 -1.15926595 2.3185319 0 0 Z " fill="#24639F" transform="translate(13,88)"/>
<path d="M0 0 C0.33 0 0.66 0 1 0 C1.02505615 0.80630859 1.0501123 1.61261719 1.07592773 2.44335938 C1.1926268 6.12903875 1.31501591 9.81450852 1.4375 13.5 C1.47681641 14.7684375 1.51613281 16.036875 1.55664062 17.34375 C1.76921362 23.62282914 2.06615589 29.78483581 3 36 C1.68 35.67 0.36 35.34 -1 35 C-1.33 32.36 -1.66 29.72 -2 27 C-1.67 27 -1.34 27 -1 27 C-0.67 18.09 -0.34 9.18 0 0 Z " fill="#034187" transform="translate(14,78)"/>
<path d="M0 0 C0.33 0 0.66 0 1 0 C1.02694851 1.95825873 1.04637218 3.91662226 1.0625 5.875 C1.07410156 6.96554688 1.08570312 8.05609375 1.09765625 9.1796875 C1 12 1 12 0 14 C-0.66 14 -1.32 14 -2 14 C-2 13.34 -2 12.68 -2 12 C-10.58 12 -19.16 12 -28 12 C-28 11.67 -28 11.34 -28 11 C-19.42 11 -10.84 11 -2 11 C-2 10.34 -2 9.68 -2 9 C-1.34 9 -0.68 9 0 9 C0 6.03 0 3.06 0 0 Z " fill="#125C9F" transform="translate(67,39)"/>
<path d="M0 0 C0.33 0 0.66 0 1 0 C1.02705729 1.77074917 1.04642195 3.54161711 1.0625 5.3125 C1.07410156 6.29863281 1.08570313 7.28476563 1.09765625 8.30078125 C1 11 1 11 0 14 C1.32 14 2.64 14 4 14 C2.92598892 16.91517292 2.22189824 18.77810176 0 21 C-2.60260089 13.62596416 -1.50049108 7.57170885 0 0 Z " fill="#5981AC" transform="translate(140,104)"/>
<path d="M0 0 C0.99 0.33 1.98 0.66 3 1 C2.67 2.32 2.34 3.64 2 5 C-1.82092412 6.37553268 -5.08234111 5.81309902 -9 5 C-9.33 4.34 -9.66 3.68 -10 3 C-8.906875 2.87625 -7.81375 2.7525 -6.6875 2.625 C-2.92618198 2.24535199 -2.92618198 2.24535199 0 0 Z " fill="#0D569A" transform="translate(54,89)"/>
<path d="M0 0 C0.99 0.33 1.98 0.66 3 1 C3 6.28 3 11.56 3 17 C2.34 17 1.68 17 1 17 C0.67 11.39 0.34 5.78 0 0 Z " fill="#0A5398" transform="translate(66,17)"/>
<path d="M0 0 C2.475 0.495 2.475 0.495 5 1 C5 1.66 5 2.32 5 3 C6.65 3.33 8.3 3.66 10 4 C9.67 4.66 9.34 5.32 9 6 C6.69 6 4.38 6 2 6 C1.34 4.02 0.68 2.04 0 0 Z " fill="#105396" transform="translate(115,94)"/>
<path d="M0 0 C2.97 0.495 2.97 0.495 6 1 C6 1.66 6 2.32 6 3 C7.65 3.33 9.3 3.66 11 4 C10.67 5.65 10.34 7.3 10 9 C9.278125 8.38125 8.55625 7.7625 7.8125 7.125 C5.21618062 5.16333647 3.05328334 4.04684 0 3 C0 2.01 0 1.02 0 0 Z " fill="#0B5095" transform="translate(125,84)"/>
<path d="M0 0 C5.81605351 4.33110368 5.81605351 4.33110368 6.6875 7.5 C6.790625 8.325 6.89375 9.15 7 10 C7.53625 10.845625 8.0725 11.69125 8.625 12.5625 C10 15 10 15 9.5859375 17.15234375 C9.39257812 17.76207031 9.19921875 18.37179688 9 19 C8.60167969 18.26394531 8.20335937 17.52789062 7.79296875 16.76953125 C7.26316406 15.79371094 6.73335937 14.81789063 6.1875 13.8125 C5.40439453 12.36810547 5.40439453 12.36810547 4.60546875 10.89453125 C3.55829123 9.00655426 2.45814312 7.14673113 1.30078125 5.32421875 C0 3 0 3 0 0 Z " fill="#115596" transform="translate(136,24)"/>
<path d="M0 0 C0 0.66 0 1.32 0 2 C0.66 2 1.32 2 2 2 C1.67 3.32 1.34 4.64 1 6 C0.01 5.34 -0.98 4.68 -2 4 C-2.825 4 -3.65 4 -4.5 4 C-7 4 -7 4 -10 2 C-6.3558226 -0.4294516 -4.28758728 -0.16179575 0 0 Z " fill="#074D94" transform="translate(31,12)"/>
<path d="M0 0 C0.99 1.32 1.98 2.64 3 4 C3.66 3.34 4.32 2.68 5 2 C6.7578125 7.95703125 6.7578125 7.95703125 7 10 C6.01 11.485 6.01 11.485 5 13 C4.15930585 11.39967863 3.32768495 9.79458829 2.5 8.1875 C1.80390625 6.84751953 1.80390625 6.84751953 1.09375 5.48046875 C0 3 0 3 0 0 Z " fill="#0B5194" transform="translate(101,78)"/>
<path d="M0 0 C1.11084961 0.02030273 1.11084961 0.02030273 2.24414062 0.04101562 C4.05891075 0.07614021 5.87330288 0.12994028 7.6875 0.1875 C7.6875 0.5175 7.6875 0.8475 7.6875 1.1875 C3.3975 1.1875 -0.8925 1.1875 -5.3125 1.1875 C-5.6425 2.1775 -5.9725 3.1675 -6.3125 4.1875 C-8.6225 4.5175 -10.9325 4.8475 -13.3125 5.1875 C-13.3125 4.5275 -13.3125 3.8675 -13.3125 3.1875 C-9.13759198 -0.21336196 -5.14953989 -0.17947458 0 0 Z " fill="#2F649B" transform="translate(26.3125,68.8125)"/>
<path d="M0 0 C1.04005702 3.38018531 1.08004482 6.4780279 1 10 C-1 10 -3 10 -5 10 C-3.66511872 6.40608886 -2.03977277 3.24509304 0 0 Z " fill="#3D6DA0" transform="translate(110,13)"/>
<path d="M0 0 C0.33 0.66 0.66 1.32 1 2 C2.91666667 2.83333333 2.91666667 2.83333333 5 3 C5.66 2.34 6.32 1.68 7 1 C7.99 2.98 8.98 4.96 10 7 C9.236875 6.835 8.47375 6.67 7.6875 6.5 C4.96403764 5.90854604 4.96403764 5.90854604 2 6 C0 3 0 3 0 0 Z " fill="#4572A4" transform="translate(2,117)"/>
<path d="M0 0 C0.99 0.33 1.98 0.66 3 1 C3 4.3 3 7.6 3 11 C1.68 11 0.36 11 -1 11 C-0.67 7.37 -0.34 3.74 0 0 Z " fill="#0A5196" transform="translate(141,107)"/>
<path d="M0 0 C-0.33 1.32 -0.66 2.64 -1 4 C-2.98 4.33 -4.96 4.66 -7 5 C-6.67 3.68 -6.34 2.36 -6 1 C-6.66 0.67 -7.32 0.34 -8 0 C-4.71023192 -1.09658936 -3.28696233 -0.79953138 0 0 Z " fill="#1261A1" transform="translate(92,88)"/>
<path d="M0 0 C0.66 1.32 1.32 2.64 2 4 C2.99 3.67 3.98 3.34 5 3 C5 4.65 5 6.3 5 8 C3.34385343 8.38218767 1.67542976 8.71395102 0 9 C-1 8 -1 8 -1.125 4.5 C-1 1 -1 1 0 0 Z " fill="#5578A5" transform="translate(48,17)"/>
<path d="M0 0 C2.0625 0.4375 2.0625 0.4375 4 1 C3.38245741 2.31602523 2.75571258 3.62773556 2.125 4.9375 C1.77695313 5.66839844 1.42890625 6.39929688 1.0703125 7.15234375 C0 9 0 9 -2 10 C-1.85950482 8.52031676 -1.71245174 7.04125484 -1.5625 5.5625 C-1.48128906 4.73878906 -1.40007812 3.91507813 -1.31640625 3.06640625 C-1 1 -1 1 0 0 Z " fill="#0F5497" transform="translate(112,12)"/>
<path d="M0 0 C-0.26218749 4.4571874 -0.57711289 6.51522698 -3.5625 9.9375 C-4.366875 10.618125 -5.17125 11.29875 -6 12 C-6.33 11.01 -6.66 10.02 -7 9 C-5.35 7.35 -3.7 5.7 -2 4 C-2.66 4 -3.32 4 -4 4 C-3.67 3.01 -3.34 2.02 -3 1 C-1 0 -1 0 0 0 Z " fill="#0C5095" transform="translate(104,29)"/>
<path d="M0 0 C5.94 1.485 5.94 1.485 12 3 C12 3.99 12 4.98 12 6 C7.24518354 5.42365861 4.02951788 3.44931479 0 1 C0 0.67 0 0.34 0 0 Z " fill="#416C9E" transform="translate(12,130)"/>
<path d="M0 0 C2.6875 -0.3125 2.6875 -0.3125 6 0 C8.875 2.5 8.875 2.5 11 5 C10.67 5.66 10.34 6.32 10 7 C9.484375 6.360625 8.96875 5.72125 8.4375 5.0625 C5.34064377 2.44208319 2.97932377 2.30610183 -1 2 C-0.67 1.34 -0.34 0.68 0 0 Z " fill="#4F74A2" transform="translate(119,0)"/>
<path d="M0 0 C1.32 0.33 2.64 0.66 4 1 C4.33 2.98 4.66 4.96 5 7 C4.01 7.33 3.02 7.66 2 8 C0.23537317 4.91190305 0 3.76687864 0 0 Z " fill="#0A5196" transform="translate(110,66)"/>
<path d="M0 0 C1.32 0 2.64 0 4 0 C2.25 5.75 2.25 5.75 0 8 C-0.66 7.34 -1.32 6.68 -2 6 C-1.44444444 1.44444444 -1.44444444 1.44444444 0 0 Z " fill="#0A4E94" transform="translate(4,63)"/>
<path d="M0 0 C0.66 0.66 1.32 1.32 2 2 C2.66 1.67 3.32 1.34 4 1 C4.33 3.64 4.66 6.28 5 9 C3.68 8.67 2.36 8.34 1 8 C0.67 5.36 0.34 2.72 0 0 Z " fill="#0B5095" transform="translate(12,105)"/>
<path d="M0 0 C2.06473354 2.06473354 2.60506767 3.24566146 3.5625 5.9375 C3.81128906 6.62714844 4.06007813 7.31679687 4.31640625 8.02734375 C4.88940471 9.68085359 5.44660846 11.33982537 6 13 C4.68 12.67 3.36 12.34 2 12 C0.86235649 7.73383684 0 4.43513689 0 0 Z " fill="#547AA7" transform="translate(114,67)"/>
<path d="M0 0 C0.99 0 1.98 0 3 0 C3 3 3 3 1.125 5.1875 C-1 7 -1 7 -3 7 C-1.125 1.125 -1.125 1.125 0 0 Z " fill="#3D70A4" transform="translate(99,31)"/>
<path d="M0 0 C0.66 0.33 1.32 0.66 2 1 C0.515 3.475 0.515 3.475 -1 6 C-3.31 5.67 -5.62 5.34 -8 5 C-5.56159764 2.56159764 -3.14759102 1.37707107 0 0 Z " fill="#074C93" transform="translate(131,127)"/>
<path d="M0 0 C0.66 0.99 1.32 1.98 2 3 C1.67 3.66 1.34 4.32 1 5 C1.99 5.33 2.98 5.66 4 6 C3.67 6.99 3.34 7.98 3 9 C1.0625 8.3125 1.0625 8.3125 -1 7 C-1.875 4.5 -1.875 4.5 -2 2 C-1.34 1.34 -0.68 0.68 0 0 Z " fill="#0A4E93" transform="translate(4,112)"/>
<path d="M0 0 C0.66 1.32 1.32 2.64 2 4 C2.99 3.67 3.98 3.34 5 3 C5 4.98 5 6.96 5 9 C4.01 9.495 4.01 9.495 3 10 C0 3.375 0 3.375 0 0 Z " fill="#3D6EA2" transform="translate(110,70)"/>
<path d="M0 0 C0 0.66 0 1.32 0 2 C0.99 1.67 1.98 1.34 3 1 C5.6875 1.9375 5.6875 1.9375 8 3 C3.79788161 4.40070613 0.66690632 3.76587588 -3.3125 1.9375 C-3.869375 1.628125 -4.42625 1.31875 -5 1 C-2 0 -2 0 0 0 Z " fill="#0B5398" transform="translate(69,102)"/>
<path d="M0 0 C2.475 0.495 2.475 0.495 5 1 C4.67 2.32 4.34 3.64 4 5 C2.68 4.67 1.36 4.34 0 4 C0 2.68 0 1.36 0 0 Z " fill="#C42B37" transform="translate(120,36)"/>
<path d="M0 0 C1.125 1.5 1.125 1.5 2 4 C1.57598348 6.7773082 0.81108065 9.29639783 0 12 C-0.33 12 -0.66 12 -1 12 C-1.14285714 3.42857143 -1.14285714 3.42857143 0 0 Z " fill="#537BA8" transform="translate(133,104)"/>
<path d="M0 0 C0.33 1.32 0.66 2.64 1 4 C-0.98 4.99 -0.98 4.99 -3 6 C-3 5.34 -3 4.68 -3 4 C-3.99 3.34 -4.98 2.68 -6 2 C-2.25 0 -2.25 0 0 0 Z " fill="#1160A0" transform="translate(89,102)"/>
<path d="M0 0 C0.66 0.33 1.32 0.66 2 1 C1.625 3.4375 1.625 3.4375 1 6 C0.01 6.495 0.01 6.495 -1 7 C-1.33 5.02 -1.66 3.04 -2 1 C-1.34 0.67 -0.68 0.34 0 0 Z " fill="#0F5598" transform="translate(107,22)"/>
<path d="M0 0 C1.485 0.99 1.485 0.99 3 2 C2.34 3.65 1.68 5.3 1 7 C0.34 7 -0.32 7 -1 7 C-1.04254356 5.00045254 -1.04080783 2.99958364 -1 1 C-0.67 0.67 -0.34 0.34 0 0 Z " fill="#0E5397" transform="translate(18,17)"/>
</svg>
