<?xml version="1.0" encoding="UTF-8"?>
<svg version="1.1" xmlns="http://www.w3.org/2000/svg" width="800" height="800">
<path d="M0 0 C0.87060059 -0.01039307 1.74120117 -0.02078613 2.63818359 -0.03149414 C11.37384855 0.08798062 19.43302223 1.9417676 26.375 7.4375 C27.11234375 8.02015625 27.8496875 8.6028125 28.609375 9.203125 C38.64226292 17.61579499 45.36939144 28.08779246 51.3359375 39.625 C53.98082841 44.66552508 56.91081113 49.54197984 59.8125 54.4375 C60.37952637 55.39438721 60.94655273 56.35127441 61.53076172 57.3371582 C64.57866838 62.46270214 67.6656046 67.55970875 70.8125 72.625 C73.58104648 77.08798883 76.14291254 81.61525272 78.625 86.2421875 C84.83819077 97.58680815 91.47462078 108.70728419 98.20703125 119.75 C99.94599889 122.65347321 101.56460631 125.61158265 103.171875 128.58984375 C106.5530804 134.82741072 110.17143588 140.91153096 113.8125 147 C119.4124054 156.39325154 124.93131891 165.82777873 130.375 175.3125 C134.72174705 182.88544458 139.1329388 190.38890317 143.76171875 197.79296875 C145.87342002 201.25452264 147.77957559 204.81022205 149.6953125 208.3828125 C152.99977858 214.39232987 156.53927007 220.26740242 160.03417969 226.16748047 C161.39644419 228.47380518 162.75023844 230.78490628 164.1015625 233.09765625 C164.54532227 233.8561084 164.98908203 234.61456055 165.44628906 235.39599609 C166.29063375 236.83960414 167.13380877 238.28389721 167.97558594 239.72900391 C169.75309449 242.76231264 171.56363516 245.71873787 173.5234375 248.640625 C175.12435843 251.05889374 176.40345189 253.37914118 177.625 256 C180.13991854 261.13685489 183.07859511 265.92950038 186.11328125 270.7734375 C189.20745186 275.7390488 192.12569382 280.81000386 195.04956055 285.87719727 C195.45343994 286.57127686 195.85731934 287.26535645 196.2734375 287.98046875 C196.63099121 288.59946045 196.98854492 289.21845215 197.35693359 289.85620117 C198.40854409 291.61222175 198.40854409 291.61222175 200.375 293.4375 C201.07403575 294.93462516 201.71259044 296.46047305 202.3125 298 C202.63089844 298.80566406 202.94929688 299.61132812 203.27734375 300.44140625 C203.63957031 301.43011719 204.00179688 302.41882813 204.375 303.4375 C204.6323291 304.0982251 204.8896582 304.7589502 205.15478516 305.43969727 C207.24314222 311.1194051 207.91888627 316.21476074 207.875 322.25 C207.87077026 323.55831787 207.87077026 323.55831787 207.86645508 324.89306641 C207.68311908 332.2469527 205.91568668 337.97331055 202.375 344.4375 C201.9625 345.489375 201.55 346.54125 201.125 347.625 C194.37400183 358.47481849 183.36380684 365.6637583 171.375 369.4375 C166.59727729 370.10574175 161.89918048 370.11849745 157.08047485 370.07914734 C155.67352771 370.0856388 154.26658922 370.09430082 152.85966718 370.10492164 C149.0256737 370.12757298 145.19229265 370.11941114 141.35827971 370.10578239 C137.21089465 370.09648196 133.06362693 370.11604978 128.91627502 370.13175964 C120.80376774 370.15778358 112.69148256 370.15677702 104.57894947 370.14572146 C97.9817946 370.13714591 91.38470374 370.13800731 84.78754807 370.14551735 C83.37645279 370.14709968 83.37645279 370.14709968 81.93685054 370.14871398 C80.02545217 370.15088502 78.11405382 370.1530718 76.20265548 370.15527413 C58.29813937 370.17468317 40.39374757 370.16272635 22.48924164 370.14048818 C7.14703607 370.12224285 -8.19492877 370.13313736 -23.53710938 370.16479492 C-41.37663279 370.20160379 -59.21600593 370.21856273 -77.05556738 370.20538265 C-78.96035041 370.20404162 -80.86513346 370.20273264 -82.76991653 370.20145607 C-84.1754942 370.20051007 -84.1754942 370.20051007 -85.60946738 370.19954496 C-92.19294179 370.19652474 -98.7763023 370.20774698 -105.35975266 370.22470665 C-113.39130003 370.24508603 -121.42250796 370.24407936 -129.45403789 370.21607425 C-133.547099 370.20235344 -137.63956861 370.19800413 -141.73260689 370.22002411 C-145.48837947 370.23996175 -149.24304534 370.23161078 -152.99874301 370.20182977 C-154.98209902 370.1930888 -156.96551958 370.21346682 -158.9487747 370.23529834 C-171.94994065 370.07358125 -183.06833709 365.35969567 -192.625 356.4375 C-193.16382813 355.93992187 -193.70265625 355.44234375 -194.2578125 354.9296875 C-203.30851408 345.49989894 -207.05365048 333.13170793 -207.06494141 320.4440918 C-206.87393903 311.80543616 -204.69240117 305.04837146 -200.625 297.4375 C-200.12033203 296.49148926 -199.61566406 295.54547852 -199.09570312 294.57080078 C-193.88141079 284.90524686 -188.46783353 275.37304885 -182.6796875 266.0390625 C-178.48565489 259.26891239 -174.54063702 252.37016594 -170.625 245.4375 C-166.71096796 238.5076757 -162.76770302 231.61353876 -158.56640625 224.8515625 C-154.06113997 217.59252784 -149.94313138 210.13994691 -145.82617188 202.65625 C-142.47655713 196.61262564 -138.97333241 190.72553712 -135.2253418 184.92041016 C-133.10534325 181.6312591 -131.07113175 178.29547008 -129.0625 174.9375 C-128.68101807 174.30078369 -128.29953613 173.66406738 -127.90649414 173.00805664 C-125.20329908 168.46963352 -122.63653312 163.87047138 -120.1328125 159.21875 C-115.33694906 150.37249413 -110.22486815 141.74593463 -104.9375 133.1875 C-100.77582783 126.45509772 -100.77582783 126.45509772 -97.125 119.4375 C-93.68878756 112.20402381 -89.23132334 105.50611577 -85.02392578 98.70507812 C-79.88207393 90.3704324 -74.84636306 81.99013793 -70.20703125 73.36328125 C-65.05464897 63.83455451 -59.69303718 54.42844879 -54.07543945 45.16650391 C-52.04060502 41.80966671 -50.03913916 38.43801547 -48.08203125 35.03515625 C-39.91258919 20.84523088 -31.09472786 5.825459 -14.265625 1.0234375 C-9.49635143 0.25585055 -4.82578573 0.05123005 0 0 Z M-10.203125 106.8046875 C-15.44770013 112.62194612 -14.77380278 119.07272049 -14.77026367 126.44091797 C-14.77362228 127.44477539 -14.7769809 128.44863281 -14.78044128 129.48291016 C-14.78993334 132.79851522 -14.7918935 136.1140697 -14.79296875 139.4296875 C-14.79618244 141.73747783 -14.79954659 144.04526796 -14.80305481 146.35305786 C-14.80904163 151.18996656 -14.81089516 156.02685739 -14.81030273 160.86376953 C-14.81020111 167.05652451 -14.82385531 173.24916482 -14.84107494 179.44189262 C-14.85220221 184.20830815 -14.85422172 188.97469601 -14.85369301 193.7411232 C-14.85487195 196.0240328 -14.85928889 198.30694314 -14.86702538 200.58983994 C-14.87684017 203.7850723 -14.87394126 206.98005647 -14.86791992 210.17529297 C-14.87634918 211.58447495 -14.87634918 211.58447495 -14.88494873 213.02212524 C-14.87740203 221.61716643 -14.87740203 221.61716643 -11.22265625 229.1796875 C-6.11298507 232.95018277 -1.96558331 234.2417284 4.375 233.4375 C8.66726432 232.07885988 11.42839011 229.92143786 13.54676819 225.93922424 C15.89597607 220.95536267 15.93192454 216.34364081 15.87670898 210.90991211 C15.88211197 209.88610947 15.88751495 208.86230682 15.89308167 207.80747986 C15.90552951 204.44296849 15.88910462 201.07931934 15.87109375 197.71484375 C15.87124882 195.3665004 15.87273907 193.01815679 15.87550354 190.66981506 C15.87688573 185.75656777 15.86435814 180.84361303 15.84155273 175.93041992 C15.81315341 169.64012142 15.8159123 163.35030822 15.82864285 157.05997372 C15.83560493 152.2137489 15.82780486 147.3676358 15.81538582 142.52142525 C15.8108776 140.2022399 15.810529 137.88304254 15.81445122 135.56385612 C15.81736894 132.32088593 15.8008293 129.07857957 15.77905273 125.83569336 C15.78355438 124.88225037 15.78805603 123.92880737 15.79269409 122.94647217 C15.7185612 116.28540364 14.93919809 111.14822369 10.1875 106.125 C3.13760702 101.89506421 -3.65642605 101.13304237 -10.203125 106.8046875 Z M-12.625 282.4375 C-15.06812347 286.20398201 -14.9041307 289.82203224 -14.296875 294.15234375 C-12.86222001 299.03183891 -9.49010165 302.22770433 -5.3125 304.9375 C-0.65439583 305.80412403 4.01154453 305.779462 8.21875 303.390625 C11.75213695 300.58470007 13.99974572 297.79811125 14.7109375 293.32421875 C14.81470114 287.48232598 13.87308161 284.16463731 10.375 279.4375 C6.54293788 275.83768407 2.1528545 275.81689327 -2.89453125 275.953125 C-7.34774869 276.74310921 -9.85039929 278.9754609 -12.625 282.4375 Z " fill="#C02E3A" transform="translate(399.625,215.5625)"/>
<path d="M0 0 C0.87060059 -0.01039307 1.74120117 -0.02078613 2.63818359 -0.03149414 C11.37384855 0.08798062 19.43302223 1.9417676 26.375 7.4375 C27.11234375 8.02015625 27.8496875 8.6028125 28.609375 9.203125 C38.64226292 17.61579499 45.36939144 28.08779246 51.3359375 39.625 C53.98082841 44.66552508 56.91081113 49.54197984 59.8125 54.4375 C60.37952637 55.39438721 60.94655273 56.35127441 61.53076172 57.3371582 C64.57866838 62.46270214 67.6656046 67.55970875 70.8125 72.625 C73.58104648 77.08798883 76.14291254 81.61525272 78.625 86.2421875 C84.83819077 97.58680815 91.47462078 108.70728419 98.20703125 119.75 C99.94599889 122.65347321 101.56460631 125.61158265 103.171875 128.58984375 C106.5530804 134.82741072 110.17143588 140.91153096 113.8125 147 C119.4124054 156.39325154 124.93131891 165.82777873 130.375 175.3125 C134.72174705 182.88544458 139.1329388 190.38890317 143.76171875 197.79296875 C145.87342002 201.25452264 147.77957559 204.81022205 149.6953125 208.3828125 C152.99977858 214.39232987 156.53927007 220.26740242 160.03417969 226.16748047 C161.39644419 228.47380518 162.75023844 230.78490628 164.1015625 233.09765625 C164.54532227 233.8561084 164.98908203 234.61456055 165.44628906 235.39599609 C166.29063375 236.83960414 167.13380877 238.28389721 167.97558594 239.72900391 C169.75309449 242.76231264 171.56363516 245.71873787 173.5234375 248.640625 C175.12435843 251.05889374 176.40345189 253.37914118 177.625 256 C180.13991854 261.13685489 183.07859511 265.92950038 186.11328125 270.7734375 C189.20745186 275.7390488 192.12569382 280.81000386 195.04956055 285.87719727 C195.45343994 286.57127686 195.85731934 287.26535645 196.2734375 287.98046875 C196.63099121 288.59946045 196.98854492 289.21845215 197.35693359 289.85620117 C198.40854409 291.61222175 198.40854409 291.61222175 200.375 293.4375 C201.07403575 294.93462516 201.71259044 296.46047305 202.3125 298 C202.63089844 298.80566406 202.94929688 299.61132812 203.27734375 300.44140625 C203.63957031 301.43011719 204.00179688 302.41882813 204.375 303.4375 C204.6323291 304.0982251 204.8896582 304.7589502 205.15478516 305.43969727 C207.24314222 311.1194051 207.91888627 316.21476074 207.875 322.25 C207.87077026 323.55831787 207.87077026 323.55831787 207.86645508 324.89306641 C207.68311908 332.2469527 205.91568668 337.97331055 202.375 344.4375 C201.9625 345.489375 201.55 346.54125 201.125 347.625 C194.37400183 358.47481849 183.36380684 365.6637583 171.375 369.4375 C166.59727729 370.10574175 161.89918048 370.11849745 157.08047485 370.07914734 C155.67352771 370.0856388 154.26658922 370.09430082 152.85966718 370.10492164 C149.0256737 370.12757298 145.19229265 370.11941114 141.35827971 370.10578239 C137.21089465 370.09648196 133.06362693 370.11604978 128.91627502 370.13175964 C120.80376774 370.15778358 112.69148256 370.15677702 104.57894947 370.14572146 C97.9817946 370.13714591 91.38470374 370.13800731 84.78754807 370.14551735 C83.37645279 370.14709968 83.37645279 370.14709968 81.93685054 370.14871398 C80.02545217 370.15088502 78.11405382 370.1530718 76.20265548 370.15527413 C58.29813937 370.17468317 40.39374757 370.16272635 22.48924164 370.14048818 C7.14703607 370.12224285 -8.19492877 370.13313736 -23.53710938 370.16479492 C-41.37663279 370.20160379 -59.21600593 370.21856273 -77.05556738 370.20538265 C-78.96035041 370.20404162 -80.86513346 370.20273264 -82.76991653 370.20145607 C-84.1754942 370.20051007 -84.1754942 370.20051007 -85.60946738 370.19954496 C-92.19294179 370.19652474 -98.7763023 370.20774698 -105.35975266 370.22470665 C-113.39130003 370.24508603 -121.42250796 370.24407936 -129.45403789 370.21607425 C-133.547099 370.20235344 -137.63956861 370.19800413 -141.73260689 370.22002411 C-145.48837947 370.23996175 -149.24304534 370.23161078 -152.99874301 370.20182977 C-154.98209902 370.1930888 -156.96551958 370.21346682 -158.9487747 370.23529834 C-171.94994065 370.07358125 -183.06833709 365.35969567 -192.625 356.4375 C-193.16382813 355.93992187 -193.70265625 355.44234375 -194.2578125 354.9296875 C-203.30851408 345.49989894 -207.05365048 333.13170793 -207.06494141 320.4440918 C-206.87393903 311.80543616 -204.69240117 305.04837146 -200.625 297.4375 C-200.12033203 296.49148926 -199.61566406 295.54547852 -199.09570312 294.57080078 C-193.88141079 284.90524686 -188.46783353 275.37304885 -182.6796875 266.0390625 C-178.48565489 259.26891239 -174.54063702 252.37016594 -170.625 245.4375 C-166.71096796 238.5076757 -162.76770302 231.61353876 -158.56640625 224.8515625 C-154.06113997 217.59252784 -149.94313138 210.13994691 -145.82617188 202.65625 C-142.47655713 196.61262564 -138.97333241 190.72553712 -135.2253418 184.92041016 C-133.10534325 181.6312591 -131.07113175 178.29547008 -129.0625 174.9375 C-128.68101807 174.30078369 -128.29953613 173.66406738 -127.90649414 173.00805664 C-125.20329908 168.46963352 -122.63653312 163.87047138 -120.1328125 159.21875 C-115.33694906 150.37249413 -110.22486815 141.74593463 -104.9375 133.1875 C-100.77582783 126.45509772 -100.77582783 126.45509772 -97.125 119.4375 C-93.68878756 112.20402381 -89.23132334 105.50611577 -85.02392578 98.70507812 C-79.88207393 90.3704324 -74.84636306 81.99013793 -70.20703125 73.36328125 C-65.05464897 63.83455451 -59.69303718 54.42844879 -54.07543945 45.16650391 C-52.04060502 41.80966671 -50.03913916 38.43801547 -48.08203125 35.03515625 C-39.91258919 20.84523088 -31.09472786 5.825459 -14.265625 1.0234375 C-9.49635143 0.25585055 -4.82578573 0.05123005 0 0 Z M-17.87109375 34.04296875 C-21.74498546 39.33182314 -24.81968805 45.09385409 -27.92919922 50.85302734 C-32.24936909 58.8332417 -36.81086506 66.65715724 -41.4140625 74.4765625 C-44.23208971 79.2808644 -47.00653108 84.09663812 -49.65625 88.99609375 C-52.6770354 94.57993945 -55.87886338 100.04479416 -59.125 105.5 C-59.93904297 106.87381836 -59.93904297 106.87381836 -60.76953125 108.27539062 C-65.06997053 115.52660865 -65.06997053 115.52660865 -67.2265625 119.06591797 C-69.90039749 123.4604464 -72.37479364 127.85554545 -74.62353516 132.48046875 C-76.47228152 136.09323102 -78.66212833 139.49888024 -80.8125 142.9375 C-85.9890436 151.3123895 -90.85402218 159.8271428 -95.625 168.4375 C-101.43737597 178.89011487 -107.42247872 189.21172167 -113.625 199.4375 C-118.2298475 207.03176161 -122.77320413 214.61917013 -126.9765625 222.4453125 C-131.81958221 231.23619662 -137.0409875 239.82413062 -142.22900391 248.41455078 C-145.61552532 254.02316123 -148.87609356 259.67261618 -151.9765625 265.4453125 C-156.82017819 274.23727843 -162.04218389 282.82631785 -167.23095703 291.41772461 C-171.20519985 297.99990526 -175.04971537 304.62687583 -178.625 311.4375 C-179.00140625 312.0871875 -179.3778125 312.736875 -179.765625 313.40625 C-181.97836417 318.63636077 -181.08429669 324.90651103 -179.5 330.1875 C-175.52963527 337.06946554 -171.36596884 341.78212078 -163.625 344.4375 C-159.22133872 345.00749481 -154.85864681 344.96903506 -150.42323303 344.93197632 C-149.08630239 344.93515642 -147.74937497 344.94008751 -146.41245645 344.94660914 C-142.7536387 344.95939085 -139.09526611 344.94733575 -135.43647778 344.93108058 C-131.48479344 344.91789027 -127.5331574 344.92783146 -123.58146667 344.93484497 C-115.84574766 344.94491594 -108.11019997 344.9336619 -100.37450225 344.91514437 C-91.36220401 344.89434871 -82.34994256 344.8945175 -73.33762484 344.89548953 C-57.25442538 344.89649033 -41.17130551 344.8781804 -25.08813477 344.84912109 C-9.4894872 344.8209519 6.10909032 344.80677941 21.70776367 344.80810547 C22.66835982 344.80818538 23.62895597 344.80826529 24.6186611 344.80834763 C26.05708762 344.80846869 26.05708762 344.80846869 27.52457327 344.8085922 C45.29256452 344.80997299 63.06052606 344.79818485 80.82850767 344.78028577 C87.10716361 344.77426 93.38581407 344.77212746 99.66447258 344.77122116 C107.31920733 344.76985485 114.97389202 344.76089727 122.62860554 344.74255554 C126.5324822 344.73334078 130.43629498 344.72722071 134.34018326 344.72974396 C137.91725928 344.73194382 141.49419432 344.724838 145.07124097 344.71044691 C146.97097893 344.70513596 148.87073646 344.70952345 150.7704758 344.714311 C163.34935635 344.73678131 163.34935635 344.73678131 174.375 339.4375 C180.46643328 331.33544693 182.65130913 325.72433338 181.375 315.4375 C179.61161763 310.42855672 177.09142208 305.97367229 174.375 301.4375 C173.97313477 300.76090332 173.57126953 300.08430664 173.15722656 299.38720703 C170.44691917 294.85029784 167.66950655 290.35677068 164.87939453 285.86865234 C153.00258096 266.67532071 153.00258096 266.67532071 148.0625 257.25 C143.96952698 249.46014812 139.3511614 241.97952981 134.79174805 234.45629883 C131.19435398 228.51259668 127.70751168 222.53326332 124.375 216.4375 C120.03625704 208.68451415 115.54808231 201.055687 110.875 193.5 C107.45479071 187.96463816 104.19691006 182.39435092 101.1875 176.625 C98.25480149 171.00319966 95.07835624 165.59761582 91.71484375 160.22265625 C88.64907979 155.29910226 85.70362265 150.30382521 82.75 145.3125 C82.21157471 144.4062085 81.67314941 143.49991699 81.1184082 142.56616211 C77.89309797 137.10836254 74.80344916 131.59328453 71.78613281 126.01806641 C69.78703964 122.36228528 67.68787924 118.77090688 65.5625 115.1875 C65.1387207 114.46933105 64.71494141 113.75116211 64.27832031 113.01123047 C61.79764086 108.81436349 59.29129641 104.63361232 56.77099609 100.46044922 C53.38447468 94.85183877 50.12390644 89.20238382 47.0234375 83.4296875 C41.47327078 73.35521427 35.44942637 63.53542253 29.49560547 53.69604492 C27.28225641 50.01718001 25.19655433 46.29372078 23.1875 42.5 C19.25534781 35.22064389 14.91872178 27.45095285 6.49609375 24.859375 C-4.19004102 22.73395593 -11.07798885 25.8517304 -17.87109375 34.04296875 Z " fill="#11589B" transform="translate(399.625,215.5625)"/>
<path d="M0 0 C8.32648713 4.34574191 14.51279817 9.89770281 17.7265625 18.86328125 C18.92827392 24.38128622 18.87441037 29.80606466 18.87182617 35.42333984 C18.87518478 36.47450485 18.8785434 37.52566986 18.88200378 38.60868835 C18.89148651 42.07637724 18.89345551 45.54401771 18.89453125 49.01171875 C18.8977455 51.42778544 18.90110971 53.84385193 18.90461731 56.25991821 C18.91060174 61.32204642 18.91245789 66.38415757 18.91186523 71.44628906 C18.91176361 77.9247704 18.92541935 84.40314215 18.94263744 90.88159752 C18.95376885 95.87108867 18.95578409 100.8605534 18.95525551 105.85005569 C18.95643376 108.2381999 18.96084685 110.62634483 18.96858788 113.01447678 C18.97841135 116.35787333 18.97550035 119.70103304 18.96948242 123.04443359 C18.97510193 124.02547562 18.98072144 125.00651764 18.98651123 126.01728821 C18.94119779 135.95039655 16.9341833 145.00633117 10.16015625 152.625 C2.68112289 159.51404001 -4.80891448 161.57876535 -14.90625 161.2421875 C-23.19917158 160.30899331 -29.8268956 156.12858435 -35.2734375 149.86328125 C-39.24685023 143.55314689 -41.39688307 137.61674309 -41.40042114 130.13308716 C-41.40324097 129.21077301 -41.40606079 128.28845886 -41.40896606 127.3381958 C-41.40694183 126.33858826 -41.4049176 125.33898071 -41.40283203 124.30908203 C-41.40458435 123.24670319 -41.40633667 122.18432434 -41.40814209 121.0897522 C-41.41254165 117.57934941 -41.40962883 114.06899705 -41.40625 110.55859375 C-41.40692368 108.11628205 -41.40789425 105.67397041 -41.40914917 103.23165894 C-41.41062366 98.11227785 -41.40847992 92.99291421 -41.40380859 87.87353516 C-41.39811751 81.31760833 -41.40138797 74.76172251 -41.40738106 68.2057972 C-41.41099851 63.16144503 -41.40984252 58.11710255 -41.40725327 53.07275009 C-41.40658697 50.6558723 -41.40740204 48.23899362 -41.40973282 45.82211685 C-41.41227807 42.44014416 -41.40839201 39.05823734 -41.40283203 35.67626953 C-41.40485626 34.68071045 -41.40688049 33.68515137 -41.40896606 32.65942383 C-41.37616771 21.86607159 -40.02955072 14.8990437 -32.34375 6.83984375 C-23.37292041 -1.43286681 -11.61693103 -4.03404168 0 0 Z M-21.8515625 18.23046875 C-27.09613763 24.04772737 -26.42224028 30.49850174 -26.41870117 37.86669922 C-26.42205978 38.87055664 -26.4254184 39.87441406 -26.42887878 40.90869141 C-26.43837084 44.22429647 -26.440331 47.53985095 -26.44140625 50.85546875 C-26.44461994 53.16325908 -26.44798409 55.47104921 -26.45149231 57.77883911 C-26.45747913 62.61574781 -26.45933266 67.45263864 -26.45874023 72.28955078 C-26.45863861 78.48230576 -26.47229281 84.67494607 -26.48951244 90.86767387 C-26.50063971 95.6340894 -26.50265922 100.40047726 -26.50213051 105.16690445 C-26.50330945 107.44981405 -26.50772639 109.73272439 -26.51546288 112.01562119 C-26.52527767 115.21085355 -26.52237876 118.40583772 -26.51635742 121.60107422 C-26.52478668 123.0102562 -26.52478668 123.0102562 -26.53338623 124.44790649 C-26.52583953 133.04294768 -26.52583953 133.04294768 -22.87109375 140.60546875 C-17.76142257 144.37596402 -13.61402081 145.66750965 -7.2734375 144.86328125 C-2.98117318 143.50464113 -0.22004739 141.34721911 1.89833069 137.36500549 C4.24753857 132.38114392 4.28348704 127.76942206 4.22827148 122.33569336 C4.23367447 121.31189072 4.23907745 120.28808807 4.24464417 119.23326111 C4.25709201 115.86874974 4.24066712 112.50510059 4.22265625 109.140625 C4.22281132 106.79228165 4.22430157 104.44393804 4.22706604 102.09559631 C4.22844823 97.18234902 4.21592064 92.26939428 4.19311523 87.35620117 C4.16471591 81.06590267 4.1674748 74.77608947 4.18020535 68.48575497 C4.18716743 63.63953015 4.17936736 58.79341705 4.16694832 53.9472065 C4.1624401 51.62802115 4.1620915 49.30882379 4.16601372 46.98963737 C4.16893144 43.74666718 4.1523918 40.50436082 4.13061523 37.26147461 C4.13511688 36.30803162 4.13961853 35.35458862 4.14425659 34.37225342 C4.0701237 27.71118489 3.29076059 22.57400494 -1.4609375 17.55078125 C-8.51083048 13.32084546 -15.30486355 12.55882362 -21.8515625 18.23046875 Z " fill="#155A9B" transform="translate(411.2734375,304.13671875)"/>
<path d="M0 0 C0 0.66 0 1.32 0 2 C0.721875 2.09539062 1.44375 2.19078125 2.1875 2.2890625 C8.29003155 3.83164686 13.21321121 8.43893606 16.7578125 13.51953125 C20.86420432 21.53286157 21.53820922 29.66963418 19.04296875 38.31640625 C15.55913856 47.33012562 10.53479148 52.60141849 2 57 C-5.34207082 59.93272661 -14.20999441 60.6372618 -21.765625 58.0546875 C-24.00030391 56.84613666 -25.97897148 55.53598168 -28 54 C-29.0725 53.2575 -30.145 52.515 -31.25 51.75 C-36.14814247 46.85185753 -39.57916229 41.01396178 -40 34 C-40.061875 33.18789063 -40.12375 32.37578125 -40.1875 31.5390625 C-40.57144377 22.97231703 -38.60729274 15.96462169 -33.25 9.1875 C-24.87262618 0.26286055 -11.90248529 -3.9674951 0 0 Z M-23 21 C-25.44312347 24.76648201 -25.2791307 28.38453224 -24.671875 32.71484375 C-23.23722001 37.59433891 -19.86510165 40.79020433 -15.6875 43.5 C-11.02939583 44.36662403 -6.36345547 44.341962 -2.15625 41.953125 C1.37713695 39.14720007 3.62474572 36.36061125 4.3359375 31.88671875 C4.43970114 26.04482598 3.49808161 22.72713731 0 18 C-3.83206212 14.40018407 -8.2221455 14.37939327 -13.26953125 14.515625 C-17.72274869 15.30560921 -20.22539929 17.5379609 -23 21 Z " fill="#14589A" transform="translate(410,477)"/>
<path d="M0 0 C1 2 1 2 0.1875 4.9375 C-1 8 -1 8 -3 11 C-3.66 11 -4.32 11 -5 11 C-5.33 12.65 -5.66 14.3 -6 16 C-6.66 16 -7.32 16 -8 16 C-6.42986223 10.03347646 -3.24970218 5.17090975 0 0 Z " fill="#638AB2" transform="translate(228,463)"/>
<path d="M0 0 C1 3 1 3 -0.3125 5.9375 C-0.869375 6.948125 -1.42625 7.95875 -2 9 C-2.28875 9.70125 -2.5775 10.4025 -2.875 11.125 C-4.43851825 13.73086375 -6.57601649 15.21390689 -9 17 C-7.51481201 12.95698825 -5.57122002 9.38853744 -3.375 5.6875 C-2.74335938 4.61886719 -2.11171875 3.55023438 -1.4609375 2.44921875 C-0.97882813 1.64097656 -0.49671875 0.83273437 0 0 Z " fill="#6D90B4" transform="translate(342,267)"/>
<path d="M0 0 C1.73635297 6.26139403 -0.71773256 11.14548788 -3 17 C-3.33 17 -3.66 17 -4 17 C-3.58411954 10.80481527 -2.39748106 5.73310689 0 0 Z " fill="#6087AF" transform="translate(197,517)"/>
<path d="M0 0 C2.63978826 3.18595135 5.10498388 6.30970546 7 10 C6.67 10.66 6.34 11.32 6 12 C4 10.25 4 10.25 2 8 C2 6.68 2 5.36 2 4 C1.34 4 0.68 4 0 4 C0 2.68 0 1.36 0 0 Z " fill="#547FAA" transform="translate(526,386)"/>
<path d="M0 0 C0.625 1.8125 0.625 1.8125 1 4 C0.01 5.485 0.01 5.485 -1 7 C-1.66 7 -2.32 7 -3 7 C-3 7.99 -3 8.98 -3 10 C-3.66 10 -4.32 10 -5 10 C-3.66511872 6.40608886 -2.03977277 3.24509304 0 0 Z " fill="#6089B1" transform="translate(275,383)"/>
<path d="M0 0 C0.66 0.99 1.32 1.98 2 3 C1.01 3.495 1.01 3.495 0 4 C-0.72693904 5.97888961 -1.39816251 7.97954558 -2 10 C-2.99 10 -3.98 10 -5 10 C-3.66511872 6.40608886 -2.03977277 3.24509304 0 0 Z " fill="#557FA9" transform="translate(348,257)"/>
<path d="M0 0 C0.6875 1.6875 0.6875 1.6875 1 4 C-0.3125 6.75 -0.3125 6.75 -2 9 C-2.66 9 -3.32 9 -4 9 C-2.94124926 5.59687262 -1.99097846 2.98646769 0 0 Z " fill="#A73244" transform="translate(371,268)"/>
<path d="M0 0 C0.99 0.33 1.98 0.66 3 1 C1.71937515 2.7074998 0.38232443 4.37373596 -1 6 C-1.66 6 -2.32 6 -3 6 C-1.125 1.125 -1.125 1.125 0 0 Z " fill="#4475A6" transform="translate(240,443)"/>
<path d="M0 0 C0.66 0.99 1.32 1.98 2 3 C1.01 3.33 0.02 3.66 -1 4 C-1.33 5.65 -1.66 7.3 -2 9 C-2.66 9 -3.32 9 -4 9 C-2.94124926 5.59687262 -1.99097846 2.98646769 0 0 Z " fill="#5D86AE" transform="translate(261,406)"/>
</svg>
