<?xml version="1.0" encoding="UTF-8"?>
<svg version="1.1" xmlns="http://www.w3.org/2000/svg" width="800" height="800">
<path d="M0 0 C0.11214844 1.23363281 0.11214844 1.23363281 0.2265625 2.4921875 C1.33163253 11.87444872 3.59218472 19.16711715 10.875 25.5 C18.93971753 29.37106441 26.67851521 30.00198486 35.26953125 27.28125 C40.44403151 24.98586939 43.66386795 21.49872352 47 17 C50.02990095 18.71967351 52.76327296 20.29238306 55 23 C55 23.66 55 24.32 55 25 C55.66 25 56.32 25 57 25 C58.39873124 26.50423899 59.71795269 28.08265149 61 29.6875 C61.7940625 30.67878906 62.588125 31.67007812 63.40625 32.69140625 C66.98985533 37.24373925 70.51910401 41.83773155 74.03125 46.4453125 C75.76377329 48.80659343 75.76377329 48.80659343 77 50 C85.25559018 50.9274298 93.13746015 48.91327143 101.125 47.0625 C115.96221643 43.69324801 115.96221643 43.69324801 123 43 C123.84306996 45.87245978 124.67465502 48.7474459 125.5 51.625 C125.73847656 52.43324219 125.97695313 53.24148438 126.22265625 54.07421875 C126.44824219 54.86699219 126.67382812 55.65976562 126.90625 56.4765625 C127.22045898 57.5605835 127.22045898 57.5605835 127.54101562 58.66650391 C128.09437986 61.47983121 128.07194746 64.14008833 128 67 C127.10917725 67.22139648 126.21835449 67.44279297 125.30053711 67.67089844 C121.91747293 68.51234125 118.5346988 69.35493284 115.15209961 70.19824219 C113.70266565 70.55936232 112.25312542 70.92005624 110.8034668 71.28027344 C108.69029352 71.80544944 106.57748086 72.33204648 104.46484375 72.859375 C103.76285858 73.03429474 103.06087341 73.20921448 102.33761597 73.38943481 C98.82270145 74.27085115 95.31743663 75.17752494 91.82275391 76.13623047 C91.15345352 76.31921692 90.48415314 76.50220337 89.79457092 76.69073486 C87.96852035 77.19329842 86.14446188 77.70308438 84.32055664 78.21337891 C78.63148022 79.56108894 72.34024668 80.74329065 66.94921875 77.9296875 C65.08023587 76.41295194 63.56445733 74.82843524 62 73 C61.42894531 72.36191406 60.85789062 71.72382813 60.26953125 71.06640625 C59.0866814 69.72688754 57.91607821 68.37645736 56.7578125 67.015625 C53.9966444 63.84948558 50.9983389 60.93890047 48 58 C46.33213213 56.3345354 44.6652452 54.66808692 43 53 C36.57785202 68.89451448 36.57785202 68.89451448 30.375 84.875 C28.30251335 90.31992012 26.069973 95.69231322 23.8125 101.0625 C23.46687012 101.88540527 23.12124023 102.70831055 22.76513672 103.55615234 C21.26889919 107.09384784 19.74545455 110.5766476 18 114 C9.95565219 113.57377767 2.34434962 111.76699939 -5.43435669 109.79003906 C-20.20364497 106.04217464 -35.02093017 102.80793039 -50 100 C-49.42916223 95.44735576 -48.21411035 91.87619879 -46.234375 87.74609375 C-45.67363281 86.56080078 -45.11289062 85.37550781 -44.53515625 84.15429688 C-43.9407291 82.91506463 -43.34567476 81.67613303 -42.75 80.4375 C-38.8731403 72.34463663 -35.22610561 64.2430254 -32.07666016 55.83276367 C-30.79226696 52.45344071 -29.35415116 49.2067924 -27.8125 45.9375 C-27.07966797 44.37322266 -27.07966797 44.37322266 -26.33203125 42.77734375 C-25.24287936 40.50641415 -24.1370793 38.2472136 -23 36 C-25.50077472 36.11532699 -28.00014998 36.24202925 -30.5 36.375 C-31.19609375 36.4059375 -31.8921875 36.436875 -32.609375 36.46875 C-41.07891866 36.9392802 -46.9436525 38.17497017 -53.3125 44.125 C-54.42834993 45.11755884 -55.54688535 46.10710612 -56.66796875 47.09375 C-57.49820557 47.82851563 -57.49820557 47.82851563 -58.34521484 48.578125 C-68.23957359 57.07985786 -68.23957359 57.07985786 -74 59 C-74 59.66 -74 60.32 -74 61 C-75.46875 62.32861328 -75.46875 62.32861328 -77.5 63.8203125 C-78.221875 64.35527344 -78.94375 64.89023437 -79.6875 65.44140625 C-80.8321875 66.27478516 -80.8321875 66.27478516 -82 67.125 C-83.1446875 67.96998047 -83.1446875 67.96998047 -84.3125 68.83203125 C-86.20418566 70.22714943 -88.10008585 71.61611971 -90 73 C-93.97628173 69.77627629 -96.45400401 67.48095295 -99 63 C-100.82817483 60.66948884 -102.69030312 58.37159912 -104.57421875 56.0859375 C-106 54 -106 54 -106 51 C-104.0859375 49.16015625 -104.0859375 49.16015625 -101.375 47.0625 C-100.38113281 46.27746094 -99.38726562 45.49242187 -98.36328125 44.68359375 C-97.82268066 44.25675293 -97.28208008 43.82991211 -96.72509766 43.39013672 C-92.99276992 40.3825123 -89.39518391 37.21290934 -85.77294922 34.07446289 C-77.57628162 27 -77.57628162 27 -75 27 C-75 26.34 -75 25.68 -75 25 C-72.875 22.9765625 -72.875 22.9765625 -70 20.625 C-69.071875 19.85414063 -68.14375 19.08328125 -67.1875 18.2890625 C-59.75786782 12.95356684 -51.80110125 10.51400301 -43.0625 8 C-41.26703735 7.47889648 -41.26703735 7.47889648 -39.43530273 6.94726562 C-12.29133436 -0.85257811 -12.29133436 -0.85257811 0 0 Z " fill="#115799" transform="translate(408,329)"/>
<path d="M0 0 C8.70681039 0.03952785 17.20172756 2.20400563 25.625 4.1875 C26.98856743 4.50619053 28.35217481 4.82471014 29.71582031 5.14306641 C31.79177002 5.62785805 33.86752647 6.11336112 35.94250488 6.60229492 C40.34672555 7.63492219 44.76141634 8.58143845 49.1953125 9.48046875 C61.09904347 11.96005082 69.51021574 13.92758349 78 23 C79.58625426 24.50519728 81.1967999 25.98098691 82.81152344 27.45556641 C83.93075665 28.47931847 85.04350949 29.51020385 86.14941406 30.54833984 C89.63108402 33.8122752 93.23282676 36.81322516 97 39.75 C102.44683939 44.12493951 106.77514878 48.93835774 108 56 C108.58735582 62.67685365 106.68902827 68.38238905 104.75 74.6875 C104.23276367 76.4032019 104.23276367 76.4032019 103.70507812 78.15356445 C98.80217808 94.20801294 93.38674999 110.10288034 88 126 C88.65009033 126.0424585 89.30018066 126.08491699 89.9699707 126.12866211 C99.53426868 126.89278123 107.56053618 129.82356935 114.125 137.125 C116.12817246 139.606542 117.77955841 142.04461694 119 145 C118.625 147.75 118.625 147.75 118 150 C110.39558707 149.39249662 102.98911336 148.18088026 95.5 146.75 C93.76375366 146.42273926 93.76375366 146.42273926 91.99243164 146.08886719 C89.56503914 145.6303178 87.13804135 145.1696745 84.71142578 144.70703125 C80.98442995 143.99703389 77.25600834 143.29492501 73.52734375 142.59375 C71.16397459 142.14629739 68.8006902 141.6983968 66.4375 141.25 C65.31988281 141.03956055 64.20226562 140.82912109 63.05078125 140.61230469 C62.02210938 140.41540039 60.9934375 140.21849609 59.93359375 140.015625 C59.02665771 139.84321289 58.11972168 139.67080078 57.18530273 139.49316406 C55 139 55 139 53 138 C54.42827607 131.01010346 56.39970834 124.33678686 58.625 117.5625 C61.97550404 107.23838079 65.21528556 96.88506896 68.38525391 86.50415039 C68.85584229 84.96488892 68.85584229 84.96488892 69.3359375 83.39453125 C69.6256543 82.44271973 69.91537109 81.4909082 70.21386719 80.51025391 C70.8382746 78.51641634 71.52228423 76.54126348 72.2265625 74.57421875 C73.08519288 71.716454 73.57332172 69.9464977 73 67 C71.1603453 65.01060596 69.4833746 63.46682782 67.375 61.8125 C66.79322998 61.3383667 66.21145996 60.8642334 65.61206055 60.37573242 C60.89605273 56.58238069 56.0018432 53.04504024 51.04492188 49.57519531 C46.58140558 46.44972974 42.30602964 43.14093549 38.0859375 39.69140625 C37.39757812 39.13324219 36.70921875 38.57507813 36 38 C35.33226562 37.43152344 34.66453125 36.86304688 33.9765625 36.27734375 C31.83230915 34.63815371 31.83230915 34.63815371 28 35 C27.81937012 35.70495605 27.63874023 36.40991211 27.45263672 37.13623047 C26.60973554 40.38696431 25.74255977 43.63076388 24.875 46.875 C24.59140625 47.98359375 24.3078125 49.0921875 24.015625 50.234375 C21.46694825 59.65339776 17.96915088 69.00466595 9.546875 74.640625 C-0.45442823 79.9787439 -11.49852244 82.80275363 -22.40014648 85.66650391 C-30.37163219 87.77259684 -38.20505657 90.22630306 -46.03173828 92.81616211 C-46.90169434 93.10112549 -47.77165039 93.38608887 -48.66796875 93.6796875 C-49.43391357 93.93476074 -50.1998584 94.18983398 -50.98901367 94.45263672 C-53 95 -53 95 -56 95 C-55.855625 95.83660156 -55.71125 96.67320312 -55.5625 97.53515625 C-51.63219255 122.1814592 -51.63219255 122.1814592 -57 131 C-59.1875 133.9375 -59.1875 133.9375 -61 136 C-62.84936523 135.79394531 -62.84936523 135.79394531 -65 135 C-66.29321289 132.97949219 -66.29321289 132.97949219 -67.41015625 130.296875 C-67.83184082 129.29849609 -68.25352539 128.30011719 -68.68798828 127.27148438 C-69.12095215 126.19189453 -69.55391602 125.11230469 -70 124 C-70.43940918 122.91525391 -70.87881836 121.83050781 -71.33154297 120.71289062 C-72.72149865 117.23323272 -74.08342416 113.74376779 -75.4375 110.25 C-76.39991743 107.77430004 -77.3639717 105.29924391 -78.328125 102.82421875 C-78.78638672 101.64778809 -79.24464844 100.47135742 -79.71679688 99.25927734 C-80.80251688 96.50159812 -81.9110121 93.75682203 -83.046875 91.01953125 C-83.47335327 89.98747559 -83.47335327 89.98747559 -83.90844727 88.93457031 C-84.62387861 87.21538274 -85.34860015 85.50006895 -86.07421875 83.78515625 C-87.00907687 80.97269278 -87.07292884 78.93161627 -87 76 C-82.86146871 74.64386672 -78.72117663 73.29327774 -74.5793457 71.94726562 C-73.17783789 71.49101277 -71.77677679 71.03338483 -70.3762207 70.57421875 C-63.07026884 68.18002971 -55.77404729 65.89330239 -48.33203125 63.95703125 C-41.18685176 62.09528234 -34.22334337 59.85857296 -27.25 57.4375 C-26.10273438 57.05142578 -24.95546875 56.66535156 -23.7734375 56.26757812 C-22.12988281 55.70006836 -22.12988281 55.70006836 -20.453125 55.12109375 C-19.47504883 54.7852124 -18.49697266 54.44933105 -17.48925781 54.10327148 C-14.95488391 52.98000396 -13.63435162 52.22056885 -12 50 C-11.22985406 47.70273646 -11.22985406 47.70273646 -10.82421875 45.08203125 C-10.63891602 44.08558594 -10.45361328 43.08914063 -10.26269531 42.0625 C-10.07288086 40.99 -9.88306641 39.9175 -9.6875 38.8125 C-7.96356951 29.63613363 -6.02651853 20.55585173 -3.75 11.5 C-3.49178467 10.46206299 -3.23356934 9.42412598 -2.9675293 8.35473633 C-1.13289755 1.13289755 -1.13289755 1.13289755 0 0 Z " fill="#125799" transform="translate(354,435)"/>
<path d="M0 0 C5.70391843 1.85456053 10.84048087 4.99862436 16 8 C17.43291475 8.80329574 18.86651593 9.60536817 20.30078125 10.40625 C26.47699256 13.9069168 32.45387849 17.49792692 38.10205078 21.80688477 C49.88660709 30.78584375 63.82118827 36.01576148 78 40 C74.60052681 47.10915059 68.18094371 51.11281645 61 54 C43.10744719 59.55156775 23.26281905 49.57318098 7.39160156 42.11474609 C2.90925344 40.02548501 -1.61176622 38.02141907 -6.125 36 C-7.83617372 35.2296912 -9.54713315 34.45890606 -11.2578125 33.6875 C-12.34280029 33.19830078 -12.34280029 33.19830078 -13.44970703 32.69921875 C-13.96130371 32.46847656 -14.47290039 32.23773438 -15 32 C-15.185625 33.0209375 -15.185625 33.0209375 -15.375 34.0625 C-18.86259094 50.45417741 -28.67521195 69.58656786 -43 79 C-43.99 79 -44.98 79 -46 79 C-46.48225331 76.8131784 -46.96065583 74.62550745 -47.4375 72.4375 C-47.70433594 71.21933594 -47.97117187 70.00117188 -48.24609375 68.74609375 C-51.65033681 51.83070984 -52.35981549 30.2345933 -43 15 C-40.5 12.1875 -40.5 12.1875 -38 10 C-37.071875 8.88625 -37.071875 8.88625 -36.125 7.75 C-33.13722469 5.28947915 -30.82384032 5.13416984 -27 5 C-24.0625 5.9375 -24.0625 5.9375 -22 7 C-21.236875 6.21625 -20.47375 5.4325 -19.6875 4.625 C-13.86177846 -1.06523965 -7.85796355 -1.43636086 0 0 Z " fill="#125799" transform="translate(451,215)"/>
<path d="M0 0 C4.05129063 1.296413 7.92253979 2.78222553 11.8125 4.5 C18.73384363 7.48842662 25.69886024 10.36010192 32.6875 13.1875 C33.73204346 13.61546875 34.77658691 14.0434375 35.8527832 14.484375 C42.47155562 17.14795731 49.07281365 19.29027134 56 21 C55.17788353 41.12467113 45.21337954 57.37760823 31 71 C22.54187032 78.3975902 12.16457363 81.50226231 1 81 C-2.22992152 80.38879947 -5.01692511 79.36060095 -8 78 C-8.67546875 77.74347656 -9.3509375 77.48695313 -10.046875 77.22265625 C-20.39195851 72.87210756 -25.90449907 62.95583943 -30 53 C-30.85610204 50.32056526 -31.46781583 47.76735767 -32 45 C-31.07380859 44.41605469 -31.07380859 44.41605469 -30.12890625 43.8203125 C-13.98152139 33.15369906 -5.68408144 17.981373 0 0 Z " fill="#51C7E6" transform="translate(439,254)"/>
<path d="M0 0 C4.39691607 1.13702015 6.0415618 4.82031056 8.42578125 8.48828125 C9.48363166 10.0551896 10.54222643 11.62159567 11.6015625 13.1875 C12.11412598 13.95626465 12.62668945 14.7250293 13.15478516 15.51708984 C15.61675088 19.16099693 18.26178376 22.66171662 20.89453125 26.18359375 C22.5996097 28.65595751 24.05449523 31.2149502 25.5234375 33.83203125 C27.43545036 37.066691 29.66371136 40.07030087 31.86328125 43.11328125 C37.11660525 50.50541657 42.31129973 57.93688074 47.42578125 65.42578125 C48.14991211 66.4614624 48.87404297 67.49714355 49.62011719 68.56420898 C50.28430664 69.54462158 50.94849609 70.52503418 51.6328125 71.53515625 C52.23198486 72.40624023 52.83115723 73.27732422 53.44848633 74.17480469 C54.86137469 77.20847235 54.73390292 78.55878301 53.61328125 81.67578125 C51.3828125 83.5625 51.3828125 83.5625 48.42578125 85.36328125 C44.82238501 87.61486576 41.3080811 89.85672969 37.9140625 92.4140625 C37.30135498 92.87272705 36.68864746 93.3313916 36.05737305 93.80395508 C34.86755051 94.70123233 33.68502913 95.60829538 32.51098633 96.52612305 C29.76848977 98.5666687 27.80388185 99.64799015 24.3984375 100.14453125 C18.87481721 99.21488969 16.50125821 94.32032318 13.40576172 89.984375 C10.56847933 85.95767819 7.80221024 81.88432075 5.04833984 77.80029297 C2.77476592 74.43441337 0.47642624 71.08569273 -1.82421875 67.73828125 C-2.27144287 67.08657959 -2.71866699 66.43487793 -3.17944336 65.76342773 C-7.14792453 59.99333948 -11.1916714 54.27769367 -15.23999023 48.56347656 C-18.2995687 44.23753468 -21.32667518 39.89757931 -24.20703125 35.44921875 C-25.31507806 33.7834795 -26.53569565 32.19420577 -27.76171875 30.61328125 C-29.41154259 27.63090739 -30.40162076 25.2046936 -30.2109375 21.74609375 C-28.25931742 16.84392009 -22.66608871 14.3510343 -18.38671875 11.67578125 C-16.23807087 10.24249159 -14.0921605 8.80508831 -11.94921875 7.36328125 C-10.98113281 6.72777344 -10.01304687 6.09226562 -9.015625 5.4375 C-6.41867227 3.76958344 -6.41867227 3.76958344 -4.3515625 1.9453125 C-2.38671875 0.67578125 -2.38671875 0.67578125 0 0 Z " fill="#C52D3E" transform="translate(229.38671875,390.32421875)"/>
<path d="M0 0 C-0.35369252 4.36220776 -1.71766504 7.62721183 -3.625 11.5 C-5.18897193 14.84617251 -5.9918174 16.7708873 -6.125 20.5 C-5.14393231 23.09204269 -5.14393231 23.09204269 -3.0625 24.875 C1.30366682 26.47889802 5.39896121 26.24121951 10 26 C10.11730469 25.47664063 10.23460937 24.95328125 10.35546875 24.4140625 C11.17825719 21.33234579 12.21997839 18.37182398 13.3125 15.375 C13.72113281 14.22773438 14.12976563 13.08046875 14.55078125 11.8984375 C16 9 16 9 18.16796875 7.6015625 C18.77253906 7.40304687 19.37710938 7.20453125 20 7 C24.94658084 12.47657164 28.17586148 18.55639034 28.5 26 C28.09716536 33.88579316 25.33123086 39.11056094 19.5 44.375 C17.27674499 46.22517455 15.29764101 47.84812154 12.71875 49.1640625 C10.61544052 51.04458644 10.61544052 51.04458644 10.57421875 54.765625 C10.88523803 61.53406225 12.41036013 68.14038559 13.8125 74.75 C14.07676162 76.06368359 14.34043746 77.37748515 14.60351562 78.69140625 C14.86455078 79.94308594 15.12558594 81.19476563 15.39453125 82.484375 C15.63018799 83.61584961 15.86584473 84.74732422 16.10864258 85.91308594 C17.51312362 90.77702958 19.77461313 94.0254197 23.5 97.375 C28.93158322 102.74916691 30.16472165 107.05257099 30.4375 114.5625 C30.29036654 119.9267406 29.75308215 122.95821922 26 127 C25.16662109 127.90878906 25.16662109 127.90878906 24.31640625 128.8359375 C17.63136209 135.88039263 17.63136209 135.88039263 12.25 136.125 C11.5075 136.08375 10.765 136.0425 10 136 C10.43289235 131.88752272 10.91507777 128.2783562 12.125 124.3125 C13.01318874 120.9500712 13.11555277 119.25369558 12 116 C10.05765911 113.61214724 10.05765911 113.61214724 6.5 113.8125 C3.15035297 113.75868763 3.15035297 113.75868763 1 115 C0.10880644 118.38129323 -0.63929445 121.75794743 -1.32421875 125.18554688 C-2.55028085 130.68289034 -2.55028085 130.68289034 -5.1328125 132.50390625 C-5.74898437 132.66761719 -6.36515625 132.83132813 -7 133 C-13.09300822 126.58116246 -16.5752735 121.53534472 -16.390625 112.44140625 C-15.55225511 107.20159446 -12.85687317 102.0588941 -9.3125 98.12890625 C-7.41186104 95.04602461 -7.9222417 92.79780273 -8.3125 89.25 C-8.43238281 88.07953125 -8.55226563 86.9090625 -8.67578125 85.703125 C-8.78277344 84.81109375 -8.88976562 83.9190625 -9 83 C-8.195625 82.7525 -7.39125 82.505 -6.5625 82.25 C-3.90085654 81.29106913 -3.90085654 81.29106913 -3.203125 79.21484375 C-2.69787144 73.70563666 -2.23134536 68.30596391 -4 63 C-6.21317199 60.78682801 -7.06406858 60.69080739 -10 60 C-12.1484375 59.32421875 -12.1484375 59.32421875 -14 58 C-15.12354948 54.7866485 -15.65464183 51.6386911 -16.2265625 48.28515625 C-17.18776396 44.20247733 -18.91719727 42.03212462 -21.5703125 38.890625 C-25.13214675 34.18043982 -26.60938587 27.96899693 -26.3515625 22.109375 C-25.2144187 15.28651222 -22.51146226 9.28669287 -17 5 C-6.40597015 -1.55820896 -6.40597015 -1.55820896 0 0 Z " fill="#D5564F" transform="translate(570,307)"/>
<path d="M0 0 C1.5162925 -0.01268921 1.5162925 -0.01268921 3.06321716 -0.02563477 C4.16621155 -0.01956207 5.26920593 -0.01348938 6.40562439 -0.00723267 C7.57181808 -0.01248962 8.73801178 -0.01774658 9.93954468 -0.02316284 C13.79938599 -0.03638093 17.6588159 -0.02761852 21.5186615 -0.01748657 C24.19619258 -0.01950664 26.87371108 -0.02241271 29.55123901 -0.02618408 C35.16420463 -0.03164015 40.77705177 -0.02445322 46.38999939 -0.01016235 C52.88051305 0.00617194 59.3707441 0.0008696 65.86125094 -0.01564157 C71.43418074 -0.02925128 77.00702543 -0.0311789 82.57996649 -0.02332556 C85.90838801 -0.01864718 89.23664741 -0.01920569 92.56506538 -0.02793503 C96.27383347 -0.03552739 99.98205353 -0.02397599 103.69078064 -0.00723267 C104.79579926 -0.01330536 105.90081787 -0.01937805 107.0393219 -0.02563477 C108.55138466 -0.01294556 108.55138466 -0.01294556 110.09399414 0 C110.97095475 0.00113108 111.84791536 0.00226215 112.75145054 0.00342751 C115.47567557 0.46419522 116.36510666 1.17006304 117.98350525 3.38095093 C118.38611785 6.60185172 118.61092015 8.51452083 116.67100525 11.19345093 C113.63082272 13.33283863 110.92957775 13.50851276 107.3352356 13.52139282 C106.380569 13.52710297 105.4259024 13.53281311 104.44230652 13.53869629 C103.39653442 13.53981415 102.35076233 13.54093201 101.27330017 13.54208374 C100.1705928 13.54704865 99.06788544 13.55201355 97.9317627 13.55712891 C94.27582683 13.57176014 90.61993436 13.57855414 86.963974 13.58407593 C84.42672728 13.58982656 81.88948058 13.5955843 79.35223389 13.60134888 C74.70912158 13.61051739 70.06602232 13.6168166 65.42290324 13.61984563 C58.59541497 13.62432447 51.7681271 13.64186548 44.94069976 13.67084622 C39.02203449 13.69509482 33.10341897 13.70279129 27.18470192 13.70452118 C24.66929852 13.70754955 22.153896 13.71558425 19.63852501 13.72870636 C16.11949343 13.74575386 12.60095 13.74388947 9.08189392 13.73739624 C8.04219452 13.74661102 7.00249512 13.75582581 5.93128967 13.76531982 C0.61163541 13.73455961 -3.54064658 13.61918874 -8.01649475 10.38095093 C-8.89149475 6.69345093 -8.89149475 6.69345093 -9.01649475 3.38095093 C-5.94760336 0.69470629 -4.05942289 0.00523347 0 0 Z " fill="#105394" transform="translate(248.01649475097656,276.6190490722656)"/>
<path d="M0 0 C1.82068374 2.19752293 3.57656045 4.4160421 5.2734375 6.7109375 C6.91976189 8.97520489 6.91976189 8.97520489 8.6640625 10.7890625 C10.19818009 12.52007218 11.20778556 13.82254204 12 16 C11.6641049 19.63591709 10.48068414 22.68305525 9 26 C8.69191406 26.71285156 8.38382812 27.42570312 8.06640625 28.16015625 C6.60715622 31.1089312 5.60221888 32.75911245 2.5 34 C0 34 0 34 -1.75390625 33.25 C-5.78786468 32.80100289 -8.95332892 35.95476099 -12.13476562 38.1953125 C-14.78826479 39.96637612 -16.50002135 41.0064283 -19.734375 40.96484375 C-22.34069965 39.85490894 -23.27250633 38.91404589 -24.8125 36.5625 C-25.23144531 35.94503906 -25.65039062 35.32757813 -26.08203125 34.69140625 C-27 33 -27 33 -27 31 C-27.66 31 -28.32 31 -29 31 C-29.89708109 29.61825429 -30.76697652 28.21883261 -31.625 26.8125 C-32.11226563 26.03519531 -32.59953125 25.25789063 -33.1015625 24.45703125 C-34 22 -34 22 -33.53125 19.46875 C-31.49530532 16.18630857 -29.13384648 14.73294619 -25.875 12.6875 C-24.77929688 11.99011719 -23.68359375 11.29273438 -22.5546875 10.57421875 C-21.71164062 10.05472656 -20.86859375 9.53523438 -20 9 C-20.495 7.8553125 -20.495 7.8553125 -21 6.6875 C-22 4 -22 4 -22 1 C-14.65390615 -3.14052563 -6.57527655 -7.26741092 0 0 Z " fill="#53C6E6" transform="translate(300,390)"/>
<path d="M0 0 C0.73689056 -0.00511093 1.47378113 -0.01022186 2.23300171 -0.01548767 C4.6697399 -0.02939234 7.10619559 -0.02842648 9.54296875 -0.02612305 C11.23543402 -0.03000911 12.92789831 -0.0343436 14.62036133 -0.03910828 C18.16783815 -0.04657207 21.71521546 -0.04627778 25.26269531 -0.04101562 C29.8126223 -0.03521656 34.36214281 -0.05216158 38.91200256 -0.0753603 C42.40696603 -0.09007803 45.90183111 -0.0909721 49.39682007 -0.08785057 C51.07458299 -0.08836463 52.7523513 -0.0936183 54.43008423 -0.10366249 C56.77397245 -0.11597379 59.11706244 -0.10926816 61.4609375 -0.09765625 C62.50367325 -0.10912186 62.50367325 -0.10912186 63.56747437 -0.12081909 C66.39980268 -0.08974143 68.29635388 -0.02417237 70.6652832 1.60652161 C72.31326539 4.1873484 72.04725885 6.29683122 71.73046875 9.2746582 C68.76810183 12.23702512 65.47486883 11.76099647 61.484375 11.9152832 C60.17467491 11.97235443 60.17467491 11.97235443 58.83851624 12.03057861 C47.09731275 12.4666608 35.35076875 12.28637013 23.60620117 12.08764648 C20.27985171 12.03444469 16.95398083 11.99567403 13.62740231 11.96401596 C10.4206668 11.92959479 7.21429114 11.87426872 4.0078125 11.8215332 C2.81735825 11.81200623 1.62690399 11.80247925 0.40037537 11.79266357 C-0.69604782 11.76964172 -1.79247101 11.74661987 -2.92211914 11.72290039 C-4.3671859 11.7017215 -4.3671859 11.7017215 -5.84144592 11.68011475 C-8.26953125 11.2746582 -8.26953125 11.2746582 -10.11155701 9.93804932 C-11.26953125 8.2746582 -11.26953125 8.2746582 -11.14453125 5.2121582 C-9.42187378 -0.57104903 -5.14819863 -0.01834727 0 0 Z " fill="#105699" transform="translate(263.26953125,303.725341796875)"/>
<path d="M0 0 C1.24809448 -0.01260864 2.49618896 -0.02521729 3.78210449 -0.03820801 C5.14054937 -0.03104816 6.49898909 -0.02284416 7.85742188 -0.01367188 C9.25460073 -0.01636757 10.65177775 -0.02025064 12.0489502 -0.02526855 C14.97438452 -0.03116013 17.89932966 -0.02261251 20.82470703 -0.00390625 C24.57098579 0.01888418 28.31611832 0.00575912 32.06235504 -0.01819611 C34.9466411 -0.03266392 37.83065626 -0.02804383 40.71495056 -0.01768494 C42.09602495 -0.01502031 43.47712408 -0.01827818 44.85816956 -0.02760315 C46.78955604 -0.03778276 48.72102898 -0.01951075 50.65234375 0 C51.75058472 0.00318237 52.84882568 0.00636475 53.98034668 0.00964355 C57.48808175 0.63571852 58.6744218 1.72831988 60.82617188 4.51757812 C61.26367188 7.08007812 61.26367188 7.08007812 60.82617188 9.51757812 C58.94756355 12.02238923 57.86515314 12.50458437 54.82617188 13.51757812 C52.9358215 13.62100073 51.04206132 13.66611691 49.14892578 13.67871094 C47.98406647 13.68831848 46.81920715 13.69792603 45.61904907 13.70782471 C43.7299733 13.71419952 43.7299733 13.71419952 41.80273438 13.72070312 C39.86253922 13.72925323 39.86253922 13.72925323 37.88314819 13.73797607 C35.14442553 13.74847485 32.40573213 13.75432488 29.66699219 13.7578125 C26.16426664 13.7632955 22.66193015 13.78732354 19.15932655 13.81578445 C15.81130332 13.8389307 12.46333347 13.84086163 9.11523438 13.84570312 C7.23223129 13.86422333 7.23223129 13.86422333 5.31118774 13.88311768 C4.14002411 13.88011658 2.96886047 13.87711548 1.76220703 13.87402344 C0.73423004 13.87766907 -0.29374695 13.8813147 -1.35287476 13.8850708 C-4.65683254 13.45465593 -6.52727433 12.52029008 -9.17382812 10.51757812 C-10.23632812 7.58007812 -10.23632812 7.58007812 -10.17382812 4.51757812 C-7.155018 0.4893854 -4.92113309 0.01425997 0 0 Z " fill="#0D569B" transform="translate(262.173828125,329.482421875)"/>
<path d="M0 0 C3.17457096 2.5914865 4.54580349 4.07435695 5.47265625 8.00390625 C5.74161517 11.63829983 5.16403674 13.75941278 3.125 16.75 C-2.95343411 21.12647256 -9.57211848 23.35409726 -17 24 C-21.59225513 10.55125285 -21.59225513 10.55125285 -21 3 C-5.59022564 -1.38044347 -5.59022564 -1.38044347 0 0 Z " fill="#56C7E6" transform="translate(558,369)"/>
<path d="M0 0 C5.11479985 2.96005438 10.09150198 8.35450285 12 14 C10.59928979 18.22573809 7.8205407 19.8948041 4 22 C0.31197956 20.77065985 -0.72356973 19.06140622 -3 16 C-7.45274745 16.50888542 -9.58285408 18.21232833 -13 21 C-13.99 21 -14.98 21 -16 21 C-17.60546875 19.35546875 -17.60546875 19.35546875 -19.1875 17.1875 C-19.71730469 16.47980469 -20.24710938 15.77210938 -20.79296875 15.04296875 C-22 13 -22 13 -22 10 C-19.48046875 8.02734375 -19.48046875 8.02734375 -16.1875 5.9375 C-15.10855469 5.24527344 -14.02960938 4.55304688 -12.91796875 3.83984375 C-11.47357422 2.92912109 -11.47357422 2.92912109 -10 2 C-6.19593784 -0.53604144 -4.51491096 -0.60198813 0 0 Z " fill="#B53549" transform="translate(262,381)"/>
<path d="M0 0 C1.91015625 2.44921875 1.91015625 2.44921875 4.0625 5.6875 C5.13177734 7.27111328 5.13177734 7.27111328 6.22265625 8.88671875 C7.87180341 11.77544466 8.71980822 13.71615236 9 17 C7.08129165 23.01195284 2.99793598 25.62071374 -2 29 C-2.5775 29.42925781 -3.155 29.85851562 -3.75 30.30078125 C-5.3125 31.4375 -5.3125 31.4375 -8 33 C-11.27864546 31.90711818 -11.78134149 31.33827067 -13.6875 28.625 C-14.12449219 28.01914062 -14.56148438 27.41328125 -15.01171875 26.7890625 C-16 25 -16 25 -16 22 C-11.545 19.525 -11.545 19.525 -7 17 C-7.83462035 12.28941438 -7.83462035 12.28941438 -9 9 C-9.66 9 -10.32 9 -11 9 C-10.63165987 6.34795104 -10.3132309 5.26159944 -8.22265625 3.515625 C-7.50980469 3.09796875 -6.79695313 2.6803125 -6.0625 2.25 C-5.35222656 1.82203125 -4.64195312 1.3940625 -3.91015625 0.953125 C-2 0 -2 0 0 0 Z " fill="#B3364A" transform="translate(297,429)"/>
<path d="M0 0 C2.39504757 1.06446559 4.14672824 2.12946609 6.125 3.875 C12.66697433 8.71037233 20.66868861 11.00674079 28.6875 11.5625 C29.86699219 11.64628906 31.04648437 11.73007812 32.26171875 11.81640625 C33.16535156 11.87699219 34.06898438 11.93757813 35 12 C31.48384642 16.79475488 28.87028837 19.20906456 23 21 C16.65702913 21.70477454 12.27204344 20.64640264 7 17 C2.86624009 13.36857041 1.09226909 9.36204827 0 4 C0 2.68 0 1.36 0 0 Z " fill="#57C6E5" transform="translate(414,331)"/>
<path d="M0 0 C1.24809448 -0.01260864 2.49618896 -0.02521729 3.78210449 -0.03820801 C5.14054937 -0.03104816 6.49898909 -0.02284416 7.85742188 -0.01367188 C9.25460073 -0.01636757 10.65177775 -0.02025064 12.0489502 -0.02526855 C14.97438452 -0.03116013 17.89932966 -0.02261251 20.82470703 -0.00390625 C24.57098579 0.01888418 28.31611832 0.00575912 32.06235504 -0.01819611 C34.9466411 -0.03266392 37.83065626 -0.02804383 40.71495056 -0.01768494 C42.09602495 -0.01502031 43.47712408 -0.01827818 44.85816956 -0.02760315 C46.78955604 -0.03778276 48.72102898 -0.01951075 50.65234375 0 C51.75058472 0.00318237 52.84882568 0.00636475 53.98034668 0.00964355 C57.49037527 0.63612788 58.68842979 1.71118119 60.82617188 4.51757812 C61.07617188 7.26757812 61.07617188 7.26757812 60.82617188 9.51757812 C60.72304688 8.87820313 60.61992187 8.23882812 60.51367188 7.58007812 C60.28679687 6.89945312 60.05992187 6.21882813 59.82617188 5.51757812 C58.83617187 5.18757813 57.84617187 4.85757812 56.82617188 4.51757812 C56.82617188 3.85757812 56.82617188 3.19757813 56.82617188 2.51757812 C36.03617187 2.51757812 15.24617188 2.51757812 -6.17382812 2.51757812 C-6.50382813 5.15757812 -6.83382812 7.79757812 -7.17382812 10.51757812 C13.28617187 10.84757812 33.74617188 11.17757813 54.82617188 11.51757812 C54.82617188 12.17757813 54.82617188 12.83757812 54.82617188 13.51757812 C47.21995175 13.58717656 39.61376477 13.64043928 32.00729847 13.67301464 C28.47504722 13.68865155 24.94301429 13.70985313 21.41088867 13.74389648 C17.34747251 13.78281415 13.28428467 13.7973036 9.22070312 13.81054688 C7.3235833 13.83377266 7.3235833 13.83377266 5.38813782 13.85746765 C4.20729111 13.85769424 3.0264444 13.85792084 1.80981445 13.8581543 C0.77278885 13.86481613 -0.26423676 13.87147797 -1.33268738 13.87834167 C-4.652562 13.45678926 -6.51772373 12.53144663 -9.17382812 10.51757812 C-10.23632812 7.58007812 -10.23632812 7.58007812 -10.17382812 4.51757812 C-7.155018 0.4893854 -4.92113309 0.01425997 0 0 Z " fill="#193D75" transform="translate(262.173828125,329.482421875)"/>
<path d="M0 0 C0.66 0 1.32 0 2 0 C1.1875 1.9375 1.1875 1.9375 0 4 C-2.8781846 4.95939487 -4.66316695 5.12357029 -7.65068054 5.12025452 C-9.08306564 5.12231651 -9.08306564 5.12231651 -10.54438782 5.12442017 C-12.11315926 5.11902725 -12.11315926 5.11902725 -13.71362305 5.11352539 C-15.36751038 5.11374443 -15.36751038 5.11374443 -17.05480957 5.1139679 C-20.70713249 5.11327002 -24.35940471 5.10548344 -28.01171875 5.09765625 C-30.5409187 5.09579163 -33.07011902 5.09436793 -35.59931946 5.09336853 C-41.58098662 5.08993768 -47.56263195 5.08205244 -53.54429036 5.07201904 C-60.35438502 5.06084387 -67.16448054 5.05534391 -73.97458208 5.05032361 C-87.98306483 5.03986946 -101.99153142 5.02227875 -116 5 C-116 4.34 -116 3.68 -116 3 C-77.72 2.67 -39.44 2.34 0 2 C0 1.34 0 0.68 0 0 Z " fill="#657595" transform="translate(363,285)"/>
<path d="M0 0 C24.42 0 48.84 0 74 0 C74.495 1.485 74.495 1.485 75 3 C50.25 2.67 25.5 2.34 0 2 C0 1.34 0 0.68 0 0 Z " fill="#194B88" transform="translate(258,304)"/>
<path d="M0 0 C0 0.99 0 1.98 0 3 C-1.03060547 3.02126953 -1.03060547 3.02126953 -2.08203125 3.04296875 C-4.80374651 3.18703665 -7.3404684 3.395561 -10 4 C-11.88051585 6.35589996 -11.88051585 6.35589996 -13 9 C-15.6875 10.3125 -15.6875 10.3125 -18 11 C-18 11.99 -18 12.98 -18 14 C-18.66 14 -19.32 14 -20 14 C-18.59491996 9.52929078 -16.40653888 7.16321468 -13 4 C-11.9790625 2.88625 -11.9790625 2.88625 -10.9375 1.75 C-7.31903549 -1.51829053 -4.57149031 -1.14287258 0 0 Z " fill="#376194" transform="translate(426,221)"/>
<path d="M0 0 C0.93088676 2.51339426 1.14656899 3.63911457 0.12109375 6.1640625 C-1.23725532 9.60016504 -1.89931878 13.06982893 -2.5625 16.6875 C-3.87556904 23.75113809 -3.87556904 23.75113809 -5 26 C-5.66 26 -6.32 26 -7 26 C-7.33 27.32 -7.66 28.64 -8 30 C-9.48720819 27.02558363 -8.36423959 25.31973425 -7.3828125 22.1875 C-7.02316406 21.02992188 -6.66351563 19.87234375 -6.29296875 18.6796875 C-5.90753906 17.46539063 -5.52210938 16.25109375 -5.125 15 C-4.74730469 13.78570313 -4.36960937 12.57140625 -3.98046875 11.3203125 C-1.17099144 2.34198289 -1.17099144 2.34198289 0 0 Z " fill="#4A709D" transform="translate(426,511)"/>
<path d="M0 0 C3 1 3 1 4.38671875 3.65234375 C4.81597656 4.73644531 5.24523437 5.82054687 5.6875 6.9375 C6.12449219 8.01902344 6.56148438 9.10054687 7.01171875 10.21484375 C8 13 8 13 8 15 C8.99 14.67 9.98 14.34 11 14 C10.67 14.99 10.34 15.98 10 17 C8.16796875 16.828125 8.16796875 16.828125 6 16 C4.55078125 13.671875 4.55078125 13.671875 3.3125 10.75 C2.89613281 9.79609375 2.47976563 8.8421875 2.05078125 7.859375 C1.08479198 5.23073506 0.45785726 2.75720635 0 0 Z " fill="#3D6799" transform="translate(283,554)"/>
<path d="M0 0 C0.33 0 0.66 0 1 0 C1.94970406 8.07248448 -1.37503678 13.92269085 -5 21 C-5.33 21 -5.66 21 -6 21 C-5.55355616 13.41045469 -2.88499438 6.98360263 0 0 Z " fill="#3A669A" transform="translate(434,415)"/>
<path d="M0 0 C3.96 0 7.92 0 12 0 C12.33 3.96 12.66 7.92 13 12 C10.70366176 8.55549263 10.45983515 6.06187717 10 2 C6.7 2 3.4 2 0 2 C0 1.34 0 0.68 0 0 Z " fill="#4A6D97" transform="translate(396,329)"/>
<path d="M0 0 C4.62 1.32 9.24 2.64 14 4 C12 8 12 8 9 10 C9 9.01 9 8.02 9 7 C8.01 6.34 7.02 5.68 6 5 C6 4.34 6 3.68 6 3 C3.03 2.505 3.03 2.505 0 2 C0 1.34 0 0.68 0 0 Z " fill="#32598C" transform="translate(515,251)"/>
<path d="M0 0 C0.66 0 1.32 0 2 0 C2 4.62 2 9.24 2 14 C1.34 14 0.68 14 0 14 C-0.94238698 11.17283905 -1.13465647 9.36823877 -1.125 6.4375 C-1.12757813 5.65246094 -1.13015625 4.86742187 -1.1328125 4.05859375 C-1 2 -1 2 0 0 Z " fill="#D3655F" transform="translate(555,415)"/>
<path d="M0 0 C0.66 0 1.32 0 2 0 C1.25 1.9375 1.25 1.9375 0 4 C-3.17197417 5.16077157 -6.0796105 5.04601948 -9.421875 4.87890625 C-10.95908203 4.80639648 -10.95908203 4.80639648 -12.52734375 4.73242188 C-14.12255859 4.64831055 -14.12255859 4.64831055 -15.75 4.5625 C-16.82894531 4.51029297 -17.90789062 4.45808594 -19.01953125 4.40429688 C-21.67999422 4.27480531 -24.34006452 4.13984639 -27 4 C-27 3.67 -27 3.34 -27 3 C-18.09 2.67 -9.18 2.34 0 2 C0 1.34 0 0.68 0 0 Z " fill="#385785" transform="translate(363,285)"/>
<path d="M0 0 C0.66 0.33 1.32 0.66 2 1 C0.9375 3.375 0.9375 3.375 -1 6 C-4.625 7.25 -4.625 7.25 -8 8 C-9.96822886 9.96822886 -9.66248381 13.34808709 -10 16 C-10.33 16 -10.66 16 -11 16 C-11.96891192 11.06735751 -11.96891192 11.06735751 -11 8 C-7.64397616 4.83131402 -3.93195016 2.40002153 0 0 Z " fill="#825672" transform="translate(211,402)"/>
<path d="M0 0 C1.43410153 3.78819273 0.51009497 6.06521279 -0.9375 9.75 C-1.31777344 10.73484375 -1.69804687 11.7196875 -2.08984375 12.734375 C-2.39019531 13.48203125 -2.69054687 14.2296875 -3 15 C-3.66 15 -4.32 15 -5 15 C-4.5188509 9.22621075 -2.81532819 5.04140164 0 0 Z " fill="#416B9B" transform="translate(434,249)"/>
<path d="M0 0 C0 0.66 0 1.32 0 2 C-0.66 2 -1.32 2 -2 2 C-2.33 4.64 -2.66 7.28 -3 10 C-1.68 10.33 -0.36 10.66 1 11 C0.01 11.33 -0.98 11.66 -2 12 C-4.0625 10.375 -4.0625 10.375 -6 8 C-5.9375 4.875 -5.9375 4.875 -5 2 C-2 0 -2 0 0 0 Z " fill="#345F93" transform="translate(258,330)"/>
<path d="M0 0 C0.53122363 1.76774419 1.04964073 3.53934083 1.5625 5.3125 C1.85253906 6.29863281 2.14257812 7.28476562 2.44140625 8.30078125 C3 11 3 11 2 14 C1.49663233 12.37604003 0.99741024 10.75079459 0.5 9.125 C0.2215625 8.22007812 -0.056875 7.31515625 -0.34375 6.3828125 C-1 4 -1 4 -1 2 C-2.32 2 -3.64 2 -5 2 C-5 2.66 -5 3.32 -5 4 C-6.32 3.34 -7.64 2.68 -9 2 C-3.375 0 -3.375 0 0 0 Z " fill="#536F97" transform="translate(531,372)"/>
<path d="M0 0 C3.71279784 1.44386582 4.9486443 3.12236392 6.75 6.625 C7.17796875 7.44226563 7.6059375 8.25953125 8.046875 9.1015625 C8.51867187 10.04128906 8.51867187 10.04128906 9 11 C8.01 11.495 8.01 11.495 7 12 C7 11.01 7 10.02 7 9 C6.01 8.67 5.02 8.34 4 8 C2.8125 5.9375 2.8125 5.9375 2 4 C0.68 4 -0.64 4 -2 4 C-1.34 2.68 -0.68 1.36 0 0 Z " fill="#D2635D" transform="translate(588,314)"/>
<path d="M0 0 C3.0831351 1.19899698 6.06279492 2.47700477 9 4 C9.19622241 8.21878192 8.80230168 11.17010894 7 15 C6.29678292 12.62664236 5.99385731 11.04791296 6.3125 8.5625 C5.93657156 5.47988683 5.33366999 5.14644845 3 3.25 C2.01 2.5075 1.02 1.765 0 1 C0 0.67 0 0.34 0 0 Z " fill="#496A95" transform="translate(421,496)"/>
<path d="M0 0 C0.66 0 1.32 0 2 0 C5.1889511 5.16830006 7.26017005 10.18738629 9 16 C3.9674742 11.32694033 0.66361236 6.96792981 0 0 Z " fill="#8F4A65" transform="translate(209,427)"/>
<path d="M0 0 C0.66 0 1.32 0 2 0 C1.37321829 3.66172475 0.35548154 6.8818995 -1.0625 10.3125 C-1.42472656 11.19550781 -1.78695313 12.07851563 -2.16015625 12.98828125 C-2.43730469 13.65214844 -2.71445312 14.31601562 -3 15 C-3.66 13.68 -4.32 12.36 -5 11 C-4.67 11 -4.34 11 -4 11 C-3.69255859 10.06027344 -3.69255859 10.06027344 -3.37890625 9.1015625 C-3.10949219 8.28429687 -2.84007812 7.46703125 -2.5625 6.625 C-2.29566406 5.81289063 -2.02882813 5.00078125 -1.75390625 4.1640625 C-1 2 -1 2 0 0 Z " fill="#3D6799" transform="translate(447,384)"/>
<path d="M0 0 C1.28497537 3.85492611 0.4052209 5.40346836 -0.9375 9.1875 C-1.31777344 10.27417969 -1.69804687 11.36085938 -2.08984375 12.48046875 C-2.39019531 13.31191406 -2.69054687 14.14335938 -3 15 C-3.33 15 -3.66 15 -4 15 C-4.20705455 9.92716361 -3.72487541 5.79132057 -2 1 C-1.34 0.67 -0.68 0.34 0 0 Z " fill="#597CA5" transform="translate(455,516)"/>
<path d="M0 0 C2.29296875 -0.25 2.29296875 -0.25 5 0 C6.80078125 1.75 6.80078125 1.75 8.3125 4 C8.82425781 4.7425 9.33601562 5.485 9.86328125 6.25 C10.23839844 6.8275 10.61351562 7.405 11 8 C10.67 8.66 10.34 9.32 10 10 C5.2 6.67692308 5.2 6.67692308 4.1875 3.25 C4.125625 2.5075 4.06375 1.765 4 1 C2.35 1.33 0.7 1.66 -1 2 C-0.67 1.34 -0.34 0.68 0 0 Z " fill="#885672" transform="translate(227,391)"/>
<path d="M0 0 C0.66 0.33 1.32 0.66 2 1 C1.979375 1.9075 1.95875 2.815 1.9375 3.75 C1.9889755 6.42672588 2.2215017 8.46988052 3 11 C-2.57142857 5.85714286 -2.57142857 5.85714286 -3 2 C-2.01 1.34 -1.02 0.68 0 0 Z " fill="#92526D" transform="translate(243,389)"/>
<path d="M0 0 C5.31027254 1.46032495 9.46330032 3.98320986 14 7 C13.67 7.66 13.34 8.32 13 9 C10.36 7.68 7.72 6.36 5 5 C5 4.34 5 3.68 5 3 C4.01 3.33 3.02 3.66 2 4 C1.34 2.68 0.68 1.36 0 0 Z " fill="#3B6191" transform="translate(460,220)"/>
<path d="M0 0 C2.125 0.375 2.125 0.375 4 1 C3.319375 1.721875 2.63875 2.44375 1.9375 3.1875 C-0.31737069 5.8205652 -0.31737069 5.8205652 0.25 8.8125 C0.62125 9.8953125 0.62125 9.8953125 1 11 C0.01 10.34 -0.98 9.68 -2 9 C-2.3125 5.5 -2.3125 5.5 -2 2 C-1.34 1.34 -0.68 0.68 0 0 Z " fill="#C32637" transform="translate(203,409)"/>
<path d="M0 0 C0 0.99 0 1.98 0 3 C-3.3 3 -6.6 3 -10 3 C-9.67 2.01 -9.34 1.02 -9 0 C-5.8033 -1.37001429 -3.30096158 -0.8252404 0 0 Z " fill="#2D588F" transform="translate(426,221)"/>
<path d="M0 0 C1.98 0.495 1.98 0.495 4 1 C3.01 1 2.02 1 1 1 C1.165 1.639375 1.33 2.27875 1.5 2.9375 C2.15932515 6.97586652 2.08003779 10.91807258 2 15 C1.67 15 1.34 15 1 15 C-0.66251802 9.42567486 -1.18609365 5.6932495 0 0 Z " fill="#4B6D97" transform="translate(297,529)"/>
<path d="M0 0 C0.33 0 0.66 0 1 0 C1 2.64 1 5.28 1 8 C2.65 8.33 4.3 8.66 6 9 C6 9.33 6 9.66 6 10 C0.25 10.125 0.25 10.125 -2 9 C-1.34 6.03 -0.68 3.06 0 0 Z " fill="#56749B" transform="translate(409,564)"/>
<path d="M0 0 C0.66 0 1.32 0 2 0 C2.33 0.99 2.66 1.98 3 3 C3.66 3.61875 4.32 4.2375 5 4.875 C7.27060644 7.28751935 7.64008575 8.76077175 8 12 C5.07066405 9.17528319 2.37644966 6.31005488 0 3 C0 2.01 0 1.02 0 0 Z " fill="#486793" transform="translate(302,380)"/>
<path d="M0 0 C0.66 0 1.32 0 2 0 C1.57742724 1.4835001 1.13643678 2.96176424 0.6875 4.4375 C0.44386719 5.26121094 0.20023438 6.08492188 -0.05078125 6.93359375 C-0.36402344 7.61550781 -0.67726563 8.29742187 -1 9 C-1.99 9.33 -2.98 9.66 -4 10 C-3.52449439 8.51965236 -3.04448784 7.04074979 -2.5625 5.5625 C-2.29566406 4.73878906 -2.02882813 3.91507812 -1.75390625 3.06640625 C-1 1 -1 1 0 0 Z " fill="#D36863" transform="translate(596,336)"/>
<path d="M0 0 C3.39417765 3.12621626 5.6062718 5.56541027 7 10 C4.625 9.5 4.625 9.5 2 8 C0.91758097 5.33474712 0.50727893 2.8592085 0 0 Z " fill="#8B5670" transform="translate(272,451)"/>
<path d="M0 0 C1.258125 -0.04125 2.51625 -0.0825 3.8125 -0.125 C4.52019531 -0.14820313 5.22789062 -0.17140625 5.95703125 -0.1953125 C9.12620049 0.10766735 10.81430306 1.81430306 13 4 C11.01926635 3.719172 9.04041552 3.42503386 7.0625 3.125 C5.40927734 2.88136719 5.40927734 2.88136719 3.72265625 2.6328125 C2.82417969 2.42398437 1.92570312 2.21515625 1 2 C0.67 1.34 0.34 0.68 0 0 Z " fill="#3F628F" transform="translate(406,438)"/>
<path d="M0 0 C1.48117801 0.28127421 2.95993249 0.57533732 4.4375 0.875 C5.67306641 1.11863281 5.67306641 1.11863281 6.93359375 1.3671875 C7.61550781 1.57601563 8.29742187 1.78484375 9 2 C9.33 2.66 9.66 3.32 10 4 C7.36 4 4.72 4 2 4 C1.34 2.68 0.68 1.36 0 0 Z " fill="#36598A" transform="translate(387,441)"/>
<path d="M0 0 C0.66 0.99 1.32 1.98 2 3 C1.34 4.32 0.68 5.64 0 7 C-0.66 7 -1.32 7 -2 7 C-2.33 8.32 -2.66 9.64 -3 11 C-3.66 10.67 -4.32 10.34 -5 10 C-3.35 6.7 -1.7 3.4 0 0 Z " fill="#4F719A" transform="translate(378,381)"/>
<path d="M0 0 C0.33 0 0.66 0 1 0 C0.125 6.75 0.125 6.75 -1 9 C-1.66 9 -2.32 9 -3 9 C-3.33 9.66 -3.66 10.32 -4 11 C-3.39301257 6.87248551 -1.96189209 3.6678852 0 0 Z " fill="#3F6797" transform="translate(386,363)"/>
<path d="M0 0 C0.99 0.33 1.98 0.66 3 1 C3.765625 2.7421875 3.765625 2.7421875 4.25 4.875 C4.50523437 5.92300781 4.50523437 5.92300781 4.765625 6.9921875 C5 9 5 9 4 12 C3.3291288 10.3767313 2.66342971 8.75132422 2 7.125 C1.62875 6.22007812 1.2575 5.31515625 0.875 4.3828125 C0 2 0 2 0 0 Z " fill="#4A719D" transform="translate(275,534)"/>
<path d="M0 0 C0.33 0.66 0.66 1.32 1 2 C-3.55426184 4.66590937 -6.73946963 5.31563182 -12 5 C-9.3139714 3.20931427 -7.3373411 2.33944209 -4.3125 1.375 C-3.50425781 1.11460937 -2.69601562 0.85421875 -1.86328125 0.5859375 C-1.24839844 0.39257812 -0.63351562 0.19921875 0 0 Z " fill="#3E5F8F" transform="translate(331,491)"/>
<path d="M0 0 C0.66 0 1.32 0 2 0 C2.33 0.66 2.66 1.32 3 2 C3.99 2.66 4.98 3.32 6 4 C5.01 5.485 5.01 5.485 4 7 C3.01 6.67 2.02 6.34 1 6 C0.67 4.02 0.34 2.04 0 0 Z " fill="#A83B53" transform="translate(285,455)"/>
<path d="M0 0 C1.21386936 3.64160808 0.6674695 4.33165469 -0.9375 7.6875 C-1.31777344 8.49574219 -1.69804687 9.30398438 -2.08984375 10.13671875 C-2.39019531 10.75160156 -2.69054687 11.36648438 -3 12 C-3.33 12 -3.66 12 -4 12 C-3.67 9.36 -3.34 6.72 -3 4 C-2.34 4 -1.68 4 -1 4 C-0.67 2.68 -0.34 1.36 0 0 Z " fill="#74CFEA" transform="translate(490,292)"/>
<path d="M0 0 C0.66 1.32 1.32 2.64 2 4 C2.99 3.67 3.98 3.34 5 3 C4.67 3.99 4.34 4.98 4 6 C2.68 5.67 1.36 5.34 0 5 C-0.5625 3.0625 -0.5625 3.0625 -1 1 C-0.67 0.67 -0.34 0.34 0 0 Z " fill="#325A8C" transform="translate(289,565)"/>
<path d="M0 0 C3.0580872 3.0580872 3.69074569 3.87660924 4 8 C3.01 9.485 3.01 9.485 2 11 C1.34 7.37 0.68 3.74 0 0 Z " fill="#6F7092" transform="translate(302,438)"/>
<path d="M0 0 C0 3 0 3 -1.3125 4.38671875 C-2.875 5.59114583 -4.4375 6.79557292 -6 8 C-6 7.01 -6 6.02 -6 5 C-5.34 5 -4.68 5 -4 5 C-3.71125 4.360625 -3.4225 3.72125 -3.125 3.0625 C-2 1 -2 1 0 0 Z " fill="#D2615C" transform="translate(597,430)"/>
<path d="M0 0 C0.66 0.33 1.32 0.66 2 1 C1.67 1.99 1.34 2.98 1 4 C-0.84765625 4.73046875 -0.84765625 4.73046875 -3.0625 5.1875 C-3.79597656 5.34605469 -4.52945313 5.50460937 -5.28515625 5.66796875 C-6.13400391 5.83232422 -6.13400391 5.83232422 -7 6 C-4.74259377 3.66475218 -2.7194239 1.81294927 0 0 Z " fill="#89506B" transform="translate(220,396)"/>
<path d="M0 0 C0.33 0 0.66 0 1 0 C1.36923077 5.41538462 1.36923077 5.41538462 -0.5 8.375 C-0.995 8.91125 -1.49 9.4475 -2 10 C-1.125 2.25 -1.125 2.25 0 0 Z " fill="#335E92" transform="translate(430,426)"/>
<path d="M0 0 C-0.99 1.485 -0.99 1.485 -2 3 C-4.31 2.67 -6.62 2.34 -9 2 C-5.5647952 -0.29013653 -4.014669 -0.17842973 0 0 Z " fill="#2E6095" transform="translate(322,339)"/>
<path d="M0 0 C1.9375 0.5625 1.9375 0.5625 4 2 C4.75 5.625 4.75 5.625 5 9 C4.896875 8.360625 4.79375 7.72125 4.6875 7.0625 C4.3471875 6.0415625 4.3471875 6.0415625 4 5 C3.01 4.67 2.02 4.34 1 4 C0.3125 1.9375 0.3125 1.9375 0 0 Z " fill="#446794" transform="translate(318,330)"/>
<path d="M0 0 C5.75 1.75 5.75 1.75 8 4 C5.36 3.67 2.72 3.34 0 3 C-0.33 3.66 -0.66 4.32 -1 5 C-0.67 3.35 -0.34 1.7 0 0 Z " fill="#6EC8E4" transform="translate(439,254)"/>
</svg>
