<?xml version="1.0" encoding="UTF-8"?>
<!DOCTYPE svg PUBLIC "-//W3C//DTD SVG 1.1//EN" "http://www.w3.org/Graphics/SVG/1.1/DTD/svg11.dtd">
<svg xmlns="http://www.w3.org/2000/svg" version="1.1" width="800px" height="800px" style="shape-rendering:geometricPrecision; text-rendering:geometricPrecision; image-rendering:optimizeQuality; fill-rule:evenodd; clip-rule:evenodd" xmlns:xlink="http://www.w3.org/1999/xlink">
<g><path style="opacity:1" fill="#808080" d="M 401.5,358.5 C 402.436,362.735 402.769,367.069 402.5,371.5C 400.833,372.833 399.167,372.833 397.5,371.5C 397.5,367.5 397.5,363.5 397.5,359.5C 398.568,358.566 399.901,358.232 401.5,358.5 Z"/></g>
<g><path style="opacity:0.769" fill="#acacac" d="M 401.5,358.5 C 402.75,358.577 403.583,359.244 404,360.5C 404.667,363.833 404.667,367.167 404,370.5C 403.617,371.056 403.117,371.389 402.5,371.5C 402.769,367.069 402.436,362.735 401.5,358.5 Z"/></g>
<g><path style="opacity:0.749" fill="#aaaaaa" d="M 397.5,359.5 C 397.5,363.5 397.5,367.5 397.5,371.5C 396.883,371.389 396.383,371.056 396,370.5C 395.333,367.167 395.333,363.833 396,360.5C 396.383,359.944 396.883,359.611 397.5,359.5 Z"/></g>
<g><path style="opacity:0.933" fill="#aeaeae" d="M 385.5,366.5 C 383.521,364.832 381.188,364.166 378.5,364.5C 381.623,361.879 383.957,362.546 385.5,366.5 Z"/></g>
<g><path style="opacity:0.894" fill="#b4b4b4" d="M 421.5,369.5 C 421.177,364.161 418.843,363.161 414.5,366.5C 416.08,362.462 418.58,361.795 422,364.5C 422.78,366.387 422.613,368.054 421.5,369.5 Z"/></g>
<g><path style="opacity:0.995" fill="#868686" d="M 378.5,364.5 C 381.188,364.166 383.521,364.832 385.5,366.5C 385.427,368.027 386.094,369.027 387.5,369.5C 387.5,369.833 387.5,370.167 387.5,370.5C 387.5,371.833 387.5,373.167 387.5,374.5C 385.5,374.5 383.5,374.5 381.5,374.5C 380.356,372.9 379.189,371.233 378,369.5C 377.22,367.613 377.387,365.946 378.5,364.5 Z"/></g>
<g><path style="opacity:0.993" fill="#878787" d="M 421.5,369.5 C 420.89,371.434 419.89,373.101 418.5,374.5C 416.621,375.341 414.621,375.675 412.5,375.5C 411.104,372.155 411.77,369.155 414.5,366.5C 418.843,363.161 421.177,364.161 421.5,369.5 Z"/></g>
<g><path style="opacity:0.161" fill="#c8c8c8" d="M 385.5,366.5 C 386.906,366.973 387.573,367.973 387.5,369.5C 386.094,369.027 385.427,368.027 385.5,366.5 Z"/></g>
<g><path style="opacity:0.992" fill="#999999" d="M 387.5,370.5 C 389.681,375.493 388.014,377.327 382.5,376C 381.944,375.617 381.611,375.117 381.5,374.5C 383.5,374.5 385.5,374.5 387.5,374.5C 387.5,373.167 387.5,371.833 387.5,370.5 Z"/></g>
<g><path style="opacity:0.667" fill="#b0b0b0" d="M 418.5,374.5 C 416.987,377.927 414.987,378.261 412.5,375.5C 414.621,375.675 416.621,375.341 418.5,374.5 Z"/></g>
<g><path style="opacity:0.99" fill="#8e8e8e" d="M 376.5,386.5 C 374.5,386.5 372.5,386.5 370.5,386.5C 365.837,385.685 363.67,383.018 364,378.5C 364.804,377.196 365.971,376.529 367.5,376.5C 371.025,377.512 374.192,379.179 377,381.5C 377.78,383.387 377.613,385.054 376.5,386.5 Z"/></g>
<g><path style="opacity:0.995" fill="#8e8e8e" d="M 429.5,386.5 C 427.5,386.5 425.5,386.5 423.5,386.5C 422.167,384.833 422.167,383.167 423.5,381.5C 425.027,381.573 426.027,380.906 426.5,379.5C 429.438,376.3 432.605,375.966 436,378.5C 436.33,383.018 434.163,385.685 429.5,386.5 Z"/></g>
<g><path style="opacity:0.624" fill="#b5b5b5" d="M 426.5,379.5 C 426.027,380.906 425.027,381.573 423.5,381.5C 423.973,380.094 424.973,379.427 426.5,379.5 Z"/></g>
<g><path style="opacity:0.716" fill="#acacac" d="M 370.5,386.5 C 372.5,386.5 374.5,386.5 376.5,386.5C 374.5,389.167 372.5,389.167 370.5,386.5 Z"/></g>
<g><path style="opacity:0.81" fill="#a8a8a8" d="M 423.5,386.5 C 425.5,386.5 427.5,386.5 429.5,386.5C 427.5,389.167 425.5,389.167 423.5,386.5 Z"/></g>
<g><path style="opacity:0.855" fill="#b0b0b0" d="M 372.5,401.5 C 372.744,397.051 370.578,395.385 366,396.5C 359.784,395.519 358.284,397.519 361.5,402.5C 360.504,402.586 359.671,402.252 359,401.5C 357.985,396.132 360.318,393.799 366,394.5C 372.08,393.863 374.247,396.197 372.5,401.5 Z"/></g>
<g><path style="opacity:0.784" fill="#a4a4a4" d="M 440.5,396.5 C 440.5,396.833 440.5,397.167 440.5,397.5C 436.167,396.167 431.833,396.167 427.5,397.5C 429.223,396.2 431.39,395.533 434,395.5C 436.361,395.504 438.527,395.837 440.5,396.5 Z"/></g>
<g><path style="opacity:0.998" fill="#888888" d="M 372.5,401.5 C 370.71,402.997 368.544,403.664 366,403.5C 364.293,403.492 362.793,403.158 361.5,402.5C 358.284,397.519 359.784,395.519 366,396.5C 370.578,395.385 372.744,397.051 372.5,401.5 Z"/></g>
<g><path style="opacity:0.993" fill="#818181" d="M 440.5,397.5 C 440.703,399.39 440.037,400.89 438.5,402C 434.779,402.678 431.112,402.511 427.5,401.5C 426.167,400.167 426.167,398.833 427.5,397.5C 431.833,396.167 436.167,396.167 440.5,397.5 Z"/></g>
<g><path style="opacity:0.192" fill="#cacaca" d="M 440.5,396.5 C 441.942,398.817 441.608,400.984 439.5,403C 435.833,403.667 432.167,403.667 428.5,403C 427.944,402.617 427.611,402.117 427.5,401.5C 431.112,402.511 434.779,402.678 438.5,402C 440.037,400.89 440.703,399.39 440.5,397.5C 440.5,397.167 440.5,396.833 440.5,396.5 Z"/></g>
<g><path style="opacity:0.545" fill="#b6b6b6" d="M 376.5,416.5 C 376.47,411.549 374.137,410.216 369.5,412.5C 369.611,411.883 369.944,411.383 370.5,411C 376.494,409.164 378.494,410.997 376.5,416.5 Z"/></g>
<g><path style="opacity:0.296" fill="#aeaeae" d="M 430.5,412.5 C 425.863,410.216 423.53,411.549 423.5,416.5C 421.506,410.997 423.506,409.164 429.5,411C 430.056,411.383 430.389,411.883 430.5,412.5 Z"/></g>
<g><path style="opacity:0.983" fill="#898989" d="M 376.5,416.5 C 376.5,417.167 376.167,417.5 375.5,417.5C 373.326,417.75 371.659,418.75 370.5,420.5C 367.046,422.332 364.713,421.332 363.5,417.5C 364.289,414.432 366.289,412.765 369.5,412.5C 374.137,410.216 376.47,411.549 376.5,416.5 Z"/></g>
<g><path style="opacity:0.985" fill="#858585" d="M 430.5,412.5 C 432.062,412.733 433.395,413.4 434.5,414.5C 435.038,416.117 435.371,417.784 435.5,419.5C 433.621,420.341 431.621,420.675 429.5,420.5C 426.802,420.155 424.802,418.822 423.5,416.5C 423.53,411.549 425.863,410.216 430.5,412.5 Z"/></g>
<g><path style="opacity:0.192" fill="#cccccc" d="M 434.5,414.5 C 436.597,415.879 436.93,417.545 435.5,419.5C 435.371,417.784 435.038,416.117 434.5,414.5 Z"/></g>
<g><path style="opacity:0.176" fill="#b4b4b4" d="M 375.5,417.5 C 374.341,419.25 372.674,420.25 370.5,420.5C 371.659,418.75 373.326,417.75 375.5,417.5 Z"/></g>
<g><path style="opacity:0.569" fill="#b4b4b4" d="M 435.5,419.5 C 435.03,420.693 434.03,421.36 432.5,421.5C 431.274,421.48 430.274,421.147 429.5,420.5C 431.621,420.675 433.621,420.341 435.5,419.5 Z"/></g>
<g><path style="opacity:0.351" fill="#bebebe" d="M 382.5,422.5 C 388.251,420.744 389.918,422.744 387.5,428.5C 388.575,424.062 386.908,422.062 382.5,422.5 Z"/></g>
<g><path style="opacity:0.322" fill="#c0c0c0" d="M 417.5,422.5 C 413.092,422.062 411.425,424.062 412.5,428.5C 410.082,422.744 411.749,420.744 417.5,422.5 Z"/></g>
<g><path style="opacity:0.995" fill="#8c8c8c" d="M 382.5,422.5 C 386.908,422.062 388.575,424.062 387.5,428.5C 386.658,431.867 384.658,434.2 381.5,435.5C 377.853,434.514 376.686,432.181 378,428.5C 378.278,427.584 378.778,426.918 379.5,426.5C 380.906,426.027 381.573,425.027 381.5,423.5C 381.5,422.833 381.833,422.5 382.5,422.5 Z"/></g>
<g><path style="opacity:0.994" fill="#848484" d="M 417.5,422.5 C 417.427,424.027 418.094,425.027 419.5,425.5C 420.338,425.842 420.672,426.508 420.5,427.5C 421.15,429.435 421.483,431.435 421.5,433.5C 421.5,434.167 421.167,434.5 420.5,434.5C 418.784,434.371 417.117,434.038 415.5,433.5C 414.11,432.101 413.11,430.434 412.5,428.5C 411.425,424.062 413.092,422.062 417.5,422.5 Z"/></g>
<g><path style="opacity:0.325" fill="#b3b3b3" d="M 417.5,422.5 C 418.906,422.973 419.573,423.973 419.5,425.5C 418.094,425.027 417.427,424.027 417.5,422.5 Z"/></g>
<g><path style="opacity:0.137" fill="#cdcdcd" d="M 381.5,423.5 C 381.573,425.027 380.906,426.027 379.5,426.5C 379.427,424.973 380.094,423.973 381.5,423.5 Z"/></g>
<g><path style="opacity:0.99" fill="#828282" d="M 401.5,426.5 C 401.833,426.5 402.167,426.5 402.5,426.5C 403.344,430.099 403.677,433.766 403.5,437.5C 403.5,438.833 402.833,439.5 401.5,439.5C 400.178,439.67 399.011,439.337 398,438.5C 397.502,435.183 397.335,431.85 397.5,428.5C 398.287,426.896 399.62,426.229 401.5,426.5 Z"/></g>
<g><path style="opacity:0.808" fill="#989898" d="M 397.5,428.5 C 397.335,431.85 397.502,435.183 398,438.5C 399.011,439.337 400.178,439.67 401.5,439.5C 400.399,440.598 399.066,440.765 397.5,440C 396.748,439.329 396.414,438.496 396.5,437.5C 396.19,434.287 396.523,431.287 397.5,428.5 Z"/></g>
<g><path style="opacity:0.212" fill="#bdbdbd" d="M 420.5,427.5 C 421.947,428.134 422.613,429.301 422.5,431C 422.472,432.07 422.139,432.903 421.5,433.5C 421.483,431.435 421.15,429.435 420.5,427.5 Z"/></g>
<g><path style="opacity:0.043" fill="#c4c4c4" d="M 402.5,426.5 C 403.117,426.611 403.617,426.944 404,427.5C 404.808,431.027 404.641,434.36 403.5,437.5C 403.677,433.766 403.344,430.099 402.5,426.5 Z"/></g>
<g><path style="opacity:0.083" fill="#b5b5b5" d="M 401.5,426.5 C 399.62,426.229 398.287,426.896 397.5,428.5C 396.523,431.287 396.19,434.287 396.5,437.5C 395.359,434.36 395.192,431.027 396,427.5C 397.678,425.447 399.511,425.113 401.5,426.5 Z"/></g>
<g><path style="opacity:0.224" fill="#b7b7b7" d="M 415.5,433.5 C 417.117,434.038 418.784,434.371 420.5,434.5C 418.545,435.93 416.879,435.597 415.5,433.5 Z"/></g>
</svg>
