<?xml version="1.0" standalone="no"?>
<!DOCTYPE svg PUBLIC "-//W3C//DTD SVG 20010904//EN"
 "http://www.w3.org/TR/2001/REC-SVG-20010904/DTD/svg10.dtd">
<svg version="1.0" xmlns="http://www.w3.org/2000/svg"
 width="200.000000pt" height="200.000000pt" viewBox="0 0 200.000000 200.000000"
 preserveAspectRatio="xMidYMid meet">
<metadata>
Created by potrace 1.16, written by Peter Selinger 2001-2019
</metadata>
<g transform="translate(0.000000,200.000000) scale(0.100000,-0.100000)"
fill="#000000" stroke="none">
<path d="M798 1966 c-25 -6 -50 -14 -54 -18 -4 -5 -16 -8 -26 -8 -10 0 -18 -4
-18 -9 0 -5 -16 -12 -35 -15 -19 -4 -35 -11 -35 -16 0 -6 -7 -10 -15 -10 -8 0
-15 -4 -15 -10 0 -5 -6 -10 -14 -10 -7 0 -29 -13 -47 -30 -19 -16 -37 -30 -42
-30 -8 0 -117 -108 -117 -116 0 -8 -54 -78 -62 -82 -5 -2 -8 -10 -8 -17 0 -13
-30 -76 -41 -85 -5 -5 -15 -36 -39 -130 -5 -19 -10 -93 -10 -165 0 -108 4
-142 22 -200 12 -38 25 -72 28 -75 11 -11 40 -72 40 -86 0 -8 5 -14 10 -14 6
0 10 -7 10 -15 0 -8 5 -15 11 -15 5 0 8 -4 5 -8 -3 -5 2 -18 12 -29 23 -26 41
-55 48 -76 4 -9 10 -17 14 -17 5 0 11 -8 14 -18 4 -10 14 -27 24 -38 9 -10 25
-32 35 -47 20 -30 39 -55 75 -95 12 -14 22 -28 22 -32 0 -4 17 -25 37 -47 21
-23 46 -52 56 -65 10 -12 50 -58 90 -101 139 -152 208 -217 228 -217 12 0 56
36 110 90 49 50 87 90 84 90 -3 0 26 32 65 72 38 39 70 75 70 78 0 4 18 26 40
50 22 24 40 47 40 51 0 4 14 21 30 37 17 17 30 33 30 37 0 3 11 18 25 33 14
15 25 32 25 39 0 7 4 13 8 13 5 0 17 16 28 35 10 19 22 35 26 35 4 0 15 17 25
38 9 20 25 46 35 56 10 11 21 29 24 40 4 12 10 23 13 26 4 3 15 25 26 50 11
25 22 47 25 50 3 3 16 37 29 75 21 64 23 83 19 225 -3 122 -8 167 -23 210 -11
30 -22 57 -25 60 -11 11 -40 73 -40 86 0 8 -4 14 -10 14 -5 0 -10 7 -10 15 0
8 -4 15 -9 15 -5 0 -12 9 -16 19 -3 11 -37 50 -75 88 -82 81 -96 93 -110 93
-5 0 -10 4 -10 10 0 5 -11 12 -25 16 -14 3 -25 10 -25 15 0 5 -7 9 -15 9 -8 0
-15 5 -15 10 0 6 -5 10 -11 10 -6 0 -27 7 -47 16 -64 28 -76 32 -124 43 -60
14 -329 12 -390 -3z m356 -182 c192 -50 354 -203 422 -399 24 -70 28 -95 27
-195 0 -100 -4 -125 -28 -190 -67 -182 -206 -321 -383 -382 -56 -19 -87 -23
-192 -23 -151 0 -221 20 -336 97 -120 80 -208 200 -250 344 -24 80 -24 238 0
319 60 202 209 356 410 421 88 29 236 32 330 8z"/>
<path d="M742 1428 c-24 -24 -11 -45 88 -143 55 -55 100 -104 100 -109 0 -6
-45 -56 -100 -111 -55 -56 -100 -109 -100 -117 0 -19 20 -38 40 -38 8 0 60 45
115 100 55 55 104 100 110 100 6 0 55 -45 110 -100 98 -99 119 -112 143 -88
24 24 11 45 -88 143 -55 55 -100 104 -100 109 0 6 45 56 100 111 55 56 100
109 100 117 0 19 -20 38 -40 38 -8 0 -60 -45 -115 -100 -55 -55 -104 -100
-110 -100 -6 0 -55 45 -110 100 -98 99 -119 112 -143 88z"/>
</g>
</svg>
