<svg width="513" height="513" viewBox="0 0 513 513" fill="none" xmlns="http://www.w3.org/2000/svg">
<path d="M448.286 245.733C448.359 273.89 441.781 301.666 429.086 326.799C414.034 356.917 390.894 382.248 362.258 399.957C333.622 417.666 300.622 427.053 266.952 427.066C238.795 427.14 211.019 420.561 185.886 407.866L64.2857 448.399L104.819 326.799C92.1242 301.666 85.5456 273.89 85.619 245.733C85.6321 212.064 95.0188 179.063 112.728 150.427C130.437 121.791 155.768 98.6515 185.886 83.5994C211.019 70.9046 238.795 64.326 266.952 64.3994H277.619C322.085 66.8526 364.084 85.621 395.574 117.111C427.064 148.601 445.833 190.6 448.286 235.066V245.733Z" stroke="black" stroke-width="30" stroke-linecap="round" stroke-linejoin="round"/>
<path d="M318.177 241.302V229.178C318.177 222.747 315.623 216.579 311.075 212.032C306.528 207.484 300.36 204.93 293.929 204.93H245.434C239.003 204.93 232.835 207.484 228.288 212.032C223.74 216.579 221.186 222.747 221.186 229.178V241.302" stroke="black" stroke-width="15" stroke-linecap="round" stroke-linejoin="round"/>
<path d="M269.681 180.682C283.073 180.682 293.929 169.826 293.929 156.434C293.929 143.042 283.073 132.186 269.681 132.186C256.29 132.186 245.434 143.042 245.434 156.434C245.434 169.826 256.29 180.682 269.681 180.682Z" stroke="black" stroke-width="15" stroke-linecap="round" stroke-linejoin="round"/>
<path d="M407.378 296.664V284.54C407.378 278.109 404.823 271.942 400.276 267.394C395.729 262.847 389.561 260.292 383.13 260.292H334.634C328.203 260.292 322.036 262.847 317.488 267.394C312.941 271.942 310.386 278.109 310.386 284.54V296.664" stroke="black" stroke-width="15" stroke-linecap="round" stroke-linejoin="round"/>
<path d="M358.882 236.044C372.274 236.044 383.13 225.188 383.13 211.797C383.13 198.405 372.274 187.549 358.882 187.549C345.49 187.549 334.634 198.405 334.634 211.797C334.634 225.188 345.49 236.044 358.882 236.044Z" stroke="black" stroke-width="15" stroke-linecap="round" stroke-linejoin="round"/>
<path d="M226.996 301.814V289.69C226.996 283.259 224.441 277.091 219.894 272.544C215.346 267.997 209.179 265.442 202.748 265.442H154.252C147.821 265.442 141.654 267.997 137.106 272.544C132.559 277.091 130.004 283.259 130.004 289.69V301.814" stroke="black" stroke-width="15" stroke-linecap="round" stroke-linejoin="round"/>
<path d="M178.5 241.194C191.892 241.194 202.748 230.338 202.748 216.946C202.748 203.554 191.892 192.698 178.5 192.698C165.108 192.698 154.252 203.554 154.252 216.946C154.252 230.338 165.108 241.194 178.5 241.194Z" stroke="black" stroke-width="15" stroke-linecap="round" stroke-linejoin="round"/>
</svg>
