<?xml version="1.0" encoding="UTF-8"?>
<!DOCTYPE svg PUBLIC "-//W3C//DTD SVG 1.1//EN" "http://www.w3.org/Graphics/SVG/1.1/DTD/svg11.dtd">
<svg xmlns="http://www.w3.org/2000/svg" version="1.1" width="157px" height="165px" style="shape-rendering:geometricPrecision; text-rendering:geometricPrecision; image-rendering:optimizeQuality; fill-rule:evenodd; clip-rule:evenodd" xmlns:xlink="http://www.w3.org/1999/xlink">
<g><path style="opacity:0.71" fill="#596e9a" d="M 71.5,-0.5 C 73.1667,-0.5 74.8333,-0.5 76.5,-0.5C 76.5,-0.166667 76.5,0.166667 76.5,0.5C 75.1266,0.343323 73.7932,0.50999 72.5,1C 71.2107,2.80216 69.5441,3.96882 67.5,4.5C 68.8333,2.83333 70.1667,1.16667 71.5,-0.5 Z"/></g>
<g><path style="opacity:0.816" fill="#526896" d="M 89.5,-0.5 C 91.1667,-0.5 92.8333,-0.5 94.5,-0.5C 94.8333,0.166667 95.1667,0.833333 95.5,1.5C 94.3052,1.32246 93.1385,0.989131 92,0.5C 90.5936,1.41382 89.0936,2.08049 87.5,2.5C 88.1667,1.5 88.8333,0.5 89.5,-0.5 Z"/></g>
<g><path style="opacity:0.999" fill="#26447d" d="M 64.5,6.5 C 65.5,5.83333 66.5,5.16667 67.5,4.5C 69.5441,3.96882 71.2107,2.80216 72.5,1C 73.7932,0.50999 75.1266,0.343323 76.5,0.5C 77.1667,1.83333 78.1667,2.83333 79.5,3.5C 80.1667,4.83333 81.1667,5.83333 82.5,6.5C 84.1667,5.16667 85.8333,3.83333 87.5,2.5C 89.0936,2.08049 90.5936,1.41382 92,0.5C 93.1385,0.989131 94.3052,1.32246 95.5,1.5C 95.5,3.5 96.5,4.5 98.5,4.5C 99.5,5.16667 100.5,5.83333 101.5,6.5C 103.891,4.10633 106.557,2.10633 109.5,0.5C 112.5,2.5 115.5,4.5 118.5,6.5C 121.105,5.23053 123.438,3.56386 125.5,1.5C 126.5,1.5 127.5,1.5 128.5,1.5C 128.333,31.5019 128.5,61.5019 129,91.5C 129.5,61.1685 129.667,30.8352 129.5,0.5C 130.117,0.610709 130.617,0.944043 131,1.5C 131.667,31.1667 131.667,60.8333 131,90.5C 130.777,92.8808 129.61,94.5475 127.5,95.5C 122.562,96.3924 117.562,96.7257 112.5,96.5C 112.371,94.7839 112.038,93.1172 111.5,91.5C 115.5,91.5 119.5,91.5 123.5,91.5C 124.833,78.0165 125.499,64.1832 125.5,50C 125.167,36.1667 124.833,22.3333 124.5,8.5C 123.893,8.62358 123.56,8.95691 123.5,9.5C 123.5,10.1667 123.167,10.5 122.5,10.5C 121.406,11.5817 120.073,12.2483 118.5,12.5C 115.822,10.8164 113.156,9.14976 110.5,7.5C 107.907,8.75355 105.573,10.4202 103.5,12.5C 100.812,12.8342 98.4786,12.1675 96.5,10.5C 93.5,5.16667 90.5,5.16667 87.5,10.5C 87.1898,12.1436 86.1898,13.1436 84.5,13.5C 82.8333,12.8333 81.1667,12.1667 79.5,11.5C 77.8333,10.5 76.5,9.16667 75.5,7.5C 74.7494,6.42654 73.7494,6.25988 72.5,7C 70.5709,9.43833 68.2376,11.2717 65.5,12.5C 63.2525,11.5944 61.2525,10.2611 59.5,8.5C 58.8933,8.62358 58.56,8.95691 58.5,9.5C 58.5,34.5 58.5,59.5 58.5,84.5C 57.1667,84.5 55.8333,84.5 54.5,84.5C 53.3364,57.003 53.1697,29.3364 54,1.5C 55.3876,0.446361 56.8876,0.279695 58.5,1C 60.3702,3.03961 62.3702,4.87294 64.5,6.5 Z"/></g>
<g><path style="opacity:0.004" fill="#6679a1" d="M 76.5,0.5 C 78.5,0.5 79.5,1.5 79.5,3.5C 78.1667,2.83333 77.1667,1.83333 76.5,0.5 Z"/></g>
<g><path style="opacity:0.745" fill="#6478a2" d="M 95.5,1.5 C 96.8333,2.16667 97.8333,3.16667 98.5,4.5C 96.5,4.5 95.5,3.5 95.5,1.5 Z"/></g>
<g><path style="opacity:0.008" fill="#697ea2" d="M 79.5,3.5 C 81.5,3.5 82.5,4.5 82.5,6.5C 81.1667,5.83333 80.1667,4.83333 79.5,3.5 Z"/></g>
<g><path style="opacity:0.525" fill="#546a97" d="M 106.5,-0.5 C 108.5,-0.5 110.5,-0.5 112.5,-0.5C 114.146,1.8122 116.146,3.8122 118.5,5.5C 120.854,3.8122 122.854,1.8122 124.5,-0.5C 126.167,-0.5 127.833,-0.5 129.5,-0.5C 129.5,-0.166667 129.5,0.166667 129.5,0.5C 127.901,0.232191 126.568,0.565525 125.5,1.5C 123.438,3.56386 121.105,5.23053 118.5,6.5C 115.5,4.5 112.5,2.5 109.5,0.5C 106.557,2.10633 103.891,4.10633 101.5,6.5C 102.754,3.90657 104.42,1.57324 106.5,-0.5 Z"/></g>
<g><path style="opacity:0.741" fill="#6779a1" d="M 110.5,7.5 C 113.156,9.14976 115.822,10.8164 118.5,12.5C 120.073,12.2483 121.406,11.5817 122.5,10.5C 122.021,12.8445 120.521,14.1778 118,14.5C 115.014,12.6799 112.514,10.3466 110.5,7.5 Z"/></g>
<g><path style="opacity:0.012" fill="#4f6492" d="M 96.5,10.5 C 94.629,10.1412 93.129,9.14117 92,7.5C 90.871,9.14117 89.371,10.1412 87.5,10.5C 90.5,5.16667 93.5,5.16667 96.5,10.5 Z"/></g>
<g><path style="opacity:0.773" fill="#6477a0" d="M 79.5,11.5 C 81.1667,12.1667 82.8333,12.8333 84.5,13.5C 82.2572,14.8584 80.5905,14.1917 79.5,11.5 Z"/></g>
<g><path style="opacity:0.02" fill="#5b6f9b" d="M 75.5,7.5 C 72.2027,9.78289 68.8694,12.1162 65.5,14.5C 63.2099,13.5329 61.2099,12.1996 59.5,10.5C 59.5,9.83333 59.1667,9.5 58.5,9.5C 58.56,8.95691 58.8933,8.62358 59.5,8.5C 61.2525,10.2611 63.2525,11.5944 65.5,12.5C 68.2376,11.2717 70.5709,9.43833 72.5,7C 73.7494,6.25988 74.7494,6.42654 75.5,7.5 Z"/></g>
<g><path style="opacity:0.8" fill="#5d719b" d="M 96.5,10.5 C 98.4786,12.1675 100.812,12.8342 103.5,12.5C 101.861,14.9422 99.8607,15.1089 97.5,13C 96.7476,12.3292 96.4142,11.4959 96.5,10.5 Z"/></g>
<g><path style="opacity:0.322" fill="#4e6592" d="M 53.5,-0.5 C 55.5,-0.5 57.5,-0.5 59.5,-0.5C 61.5798,1.57324 63.2464,3.90657 64.5,6.5C 62.3702,4.87294 60.3702,3.03961 58.5,1C 56.8876,0.279695 55.3876,0.446361 54,1.5C 53.1697,29.3364 53.3364,57.003 54.5,84.5C 55.9187,85.4511 57.5853,85.7845 59.5,85.5C 57.3926,86.4682 55.0593,86.8016 52.5,86.5C 52.1753,57.4262 52.5086,28.4262 53.5,-0.5 Z"/></g>
<g><path style="opacity:0.996" fill="#8fd4f9" d="M 91.5,17.5 C 95.3969,19.6616 96.3969,22.8283 94.5,27C 97.8333,27.3333 101.167,27.6667 104.5,28C 103.253,29.4579 103.253,30.9579 104.5,32.5C 101.586,33.1247 98.2522,33.6247 94.5,34C 96.1782,37.6263 95.3449,40.4597 92,42.5C 91.1268,42.2645 90.2935,41.9312 89.5,41.5C 88.52,38.9135 88.1866,36.2469 88.5,33.5C 85.8127,33.6641 83.146,33.4974 80.5,33C 79.1667,31.3333 79.1667,29.6667 80.5,28C 83.146,27.5026 85.8127,27.3359 88.5,27.5C 88.5,24.5 88.5,21.5 88.5,18.5C 89.791,18.7373 90.791,18.404 91.5,17.5 Z"/></g>
<g><path style="opacity:1" fill="#07306e" d="M 125.5,1.5 C 126.568,0.565525 127.901,0.232191 129.5,0.5C 129.667,30.8352 129.5,61.1685 129,91.5C 128.5,61.5019 128.333,31.5019 128.5,1.5C 127.5,1.5 126.5,1.5 125.5,1.5 Z"/></g>
<g><path style="opacity:1" fill="#193e78" d="M 116.5,47.5 C 116.5,49.1667 116.5,50.8333 116.5,52.5C 99.4528,52.8051 82.4528,52.4718 65.5,51.5C 65.2965,49.6096 65.9632,48.1096 67.5,47C 83.9074,46.1828 100.241,46.3494 116.5,47.5 Z"/></g>
<g><path style="opacity:0.565" fill="#7284a9" d="M 116.5,47.5 C 118.922,49.2855 118.922,50.9522 116.5,52.5C 116.5,50.8333 116.5,49.1667 116.5,47.5 Z"/></g>
<g><path style="opacity:0.408" fill="#546b96" d="M 65.5,51.5 C 82.4528,52.4718 99.4528,52.8051 116.5,52.5C 100.005,53.6616 83.3384,53.8283 66.5,53C 65.944,52.6174 65.6107,52.1174 65.5,51.5 Z"/></g>
<g><path style="opacity:0.388" fill="#2f4d83" d="M 58.5,9.5 C 59.1667,9.5 59.5,9.83333 59.5,10.5C 59.5,35.5 59.5,60.5 59.5,85.5C 57.5853,85.7845 55.9187,85.4511 54.5,84.5C 55.8333,84.5 57.1667,84.5 58.5,84.5C 58.5,59.5 58.5,34.5 58.5,9.5 Z"/></g>
<g><path style="opacity:1" fill="#1d3f79" d="M 116.5,60.5 C 116.5,60.8333 116.5,61.1667 116.5,61.5C 100.406,63.4621 84.0727,64.1288 67.5,63.5C 66.8333,63.5 66.1667,63.5 65.5,63.5C 65.5394,62.4168 65.8728,61.4168 66.5,60.5C 83.3286,59.1731 99.9952,59.1731 116.5,60.5 Z"/></g>
<g><path style="opacity:1" fill="#0a3471" d="M 116.5,61.5 C 116.5,62.5 116.5,63.5 116.5,64.5C 99.9915,64.8298 83.6581,64.4964 67.5,63.5C 84.0727,64.1288 100.406,63.4621 116.5,61.5 Z"/></g>
<g><path style="opacity:0.494" fill="#7486aa" d="M 116.5,60.5 C 119.167,62.1667 119.167,63.8333 116.5,65.5C 116.5,65.1667 116.5,64.8333 116.5,64.5C 116.5,63.5 116.5,62.5 116.5,61.5C 116.5,61.1667 116.5,60.8333 116.5,60.5 Z"/></g>
<g><path style="opacity:0.863" fill="#506997" d="M 65.5,63.5 C 66.1667,63.5 66.8333,63.5 67.5,63.5C 83.6581,64.4964 99.9915,64.8298 116.5,64.5C 116.5,64.8333 116.5,65.1667 116.5,65.5C 100.339,66.6615 84.0052,66.8282 67.5,66C 66.6195,65.2917 65.9528,64.4584 65.5,63.5 Z"/></g>
<g><path style="opacity:0.596" fill="#697da3" d="M 123.5,9.5 C 123.56,8.95691 123.893,8.62358 124.5,8.5C 124.833,22.3333 125.167,36.1667 125.5,50C 125.499,64.1832 124.833,78.0165 123.5,91.5C 123.501,64.1284 123.501,36.7951 123.5,9.5 Z"/></g>
<g><path style="opacity:0.517" fill="#6276a0" d="M 100.5,77.5 C 100.737,76.209 100.404,75.209 99.5,74.5C 88.2947,73.2003 76.9613,73.2003 65.5,74.5C 65.6107,73.8826 65.944,73.3826 66.5,73C 77.8333,72.3333 89.1667,72.3333 100.5,73C 101.801,74.6155 101.801,76.1155 100.5,77.5 Z"/></g>
<g><path style="opacity:1" fill="#133a76" d="M 99.5,74.5 C 99.5,75.5 99.5,76.5 99.5,77.5C 88.1159,77.79 76.7825,77.4567 65.5,76.5C 65.5,75.8333 65.5,75.1667 65.5,74.5C 76.9613,73.2003 88.2947,73.2003 99.5,74.5 Z"/></g>
<g><path style="opacity:0.02" fill="#2b487f" d="M 99.5,74.5 C 100.404,75.209 100.737,76.209 100.5,77.5C 100.082,78.2216 99.4158,78.7216 98.5,79C 88.5,79.6667 78.5,79.6667 68.5,79C 67.0577,78.6232 66.0577,77.7899 65.5,76.5C 76.7825,77.4567 88.1159,77.79 99.5,77.5C 99.5,76.5 99.5,75.5 99.5,74.5 Z"/></g>
<g><path style="opacity:0.294" fill="#d86c71" d="M 151.5,90.5 C 147.34,88.9993 143.34,89.3326 139.5,91.5C 141.031,89.3199 143.198,88.3199 146,88.5C 148.221,88.3932 150.054,89.0598 151.5,90.5 Z"/></g>
<g><path style="opacity:1" fill="#c83b41" d="M 151.5,90.5 C 153.833,90.8333 155.167,92.1667 155.5,94.5C 155.492,97.5448 155.159,100.545 154.5,103.5C 151.841,108.129 148.674,112.462 145,116.5C 142.297,119.371 139.464,122.038 136.5,124.5C 135.094,124.973 134.427,125.973 134.5,127.5C 130.568,132.129 125.901,135.796 120.5,138.5C 121.463,137.637 121.463,136.97 120.5,136.5C 118.265,137.752 115.931,138.252 113.5,138C 116.167,136.667 118.833,135.333 121.5,134C 120.906,133.536 120.239,133.369 119.5,133.5C 119.5,133.167 119.5,132.833 119.5,132.5C 119.842,131.662 120.508,131.328 121.5,131.5C 127.5,127.5 132.5,122.5 136.5,116.5C 138.094,113.236 140.427,110.569 143.5,108.5C 144.906,108.027 145.573,107.027 145.5,105.5C 145.833,104.5 146.5,103.833 147.5,103.5C 148.906,103.027 149.573,102.027 149.5,100.5C 150.139,99.9032 150.472,99.0698 150.5,98C 150.316,96.6244 149.649,95.7911 148.5,95.5C 146.345,95.372 144.345,95.872 142.5,97C 137.298,102.37 131.965,107.536 126.5,112.5C 124.5,112.5 123.5,113.5 123.5,115.5C 121.777,117.218 119.777,118.551 117.5,119.5C 117.67,118.178 117.337,117.011 116.5,116C 117.381,115.292 118.047,114.458 118.5,113.5C 125.167,108.833 130.833,103.167 135.5,96.5C 136.833,94.8333 138.167,93.1667 139.5,91.5C 143.34,89.3326 147.34,88.9993 151.5,90.5 Z"/></g>
<g><path style="opacity:0.702" fill="#62719b" d="M 111.5,91.5 C 112.038,93.1172 112.371,94.7839 112.5,96.5C 110.218,94.9334 109.551,92.9334 110.5,90.5C 111.107,90.6236 111.44,90.9569 111.5,91.5 Z"/></g>
<g><path style="opacity:0.578" fill="#db6b6d" d="M 53.5,94.5 C 51.5,95.8333 49.5,95.8333 47.5,94.5C 49.5,93.1667 51.5,93.1667 53.5,94.5 Z"/></g>
<g><path style="opacity:0.21" fill="#d76669" d="M 59.5,95.5 C 64.2829,96.5085 68.9496,97.5085 73.5,98.5C 72.1667,98.5 70.8333,98.5 69.5,98.5C 65.7144,98.68 62.381,97.68 59.5,95.5 Z"/></g>
<g><path style="opacity:0.647" fill="#516a96" d="M 127.5,95.5 C 127.389,96.1174 127.056,96.6174 126.5,97C 121.648,97.8151 116.981,97.6484 112.5,96.5C 117.562,96.7257 122.562,96.3924 127.5,95.5 Z"/></g>
<g><path style="opacity:1" fill="#c83d43" d="M 46.5,94.5 C 44.5907,97.3753 42.2573,99.8753 39.5,102C 40.0944,102.464 40.7611,102.631 41.5,102.5C 41.1667,103.5 40.5,104.167 39.5,104.5C 37.9731,104.427 36.9731,105.094 36.5,106.5C 34.8333,108.833 32.8333,110.833 30.5,112.5C 29.391,112.443 28.391,112.11 27.5,111.5C 24.8761,109.802 24.8761,107.969 27.5,106C 30.8333,103.333 34.1667,100.667 37.5,98C 40.3093,96.2589 43.3093,95.0922 46.5,94.5 Z"/></g>
<g><path style="opacity:0.611" fill="#cc4449" d="M 104.5,100.5 C 92.7044,99.8732 81.0378,99.2066 69.5,98.5C 70.8333,98.5 72.1667,98.5 73.5,98.5C 81.7548,97.3656 90.0881,97.199 98.5,98C 100.974,98.0367 102.974,98.87 104.5,100.5 Z"/></g>
<g><path style="opacity:0.255" fill="#d87074" d="M 148.5,95.5 C 149.649,95.7911 150.316,96.6244 150.5,98C 150.472,99.0698 150.139,99.9032 149.5,100.5C 149.634,98.7085 149.301,97.0418 148.5,95.5 Z"/></g>
<g><path style="opacity:0.008" fill="#7494b8" d="M 129.5,99.5 C 128.833,99.5 128.5,99.8333 128.5,100.5C 127.833,100.5 127.5,100.833 127.5,101.5C 124.966,100.162 125.3,99.1624 128.5,98.5C 129.107,98.6236 129.44,98.9569 129.5,99.5 Z"/></g>
<g><path style="opacity:0.016" fill="#de878a" d="M 155.5,94.5 C 155.833,94.5 156.167,94.5 156.5,94.5C 156.5,96.8333 156.5,99.1667 156.5,101.5C 155.833,102.167 155.167,102.833 154.5,103.5C 155.159,100.545 155.492,97.5448 155.5,94.5 Z"/></g>
<g><path style="opacity:0.408" fill="#d86c71" d="M 104.5,100.5 C 106.5,100.5 107.5,101.5 107.5,103.5C 106.167,102.833 105.167,101.833 104.5,100.5 Z"/></g>
<g><path style="opacity:0.443" fill="#d66468" d="M 149.5,100.5 C 149.573,102.027 148.906,103.027 147.5,103.5C 147.427,101.973 148.094,100.973 149.5,100.5 Z"/></g>
<g><path style="opacity:0.475" fill="#d3585d" d="M 66.5,103.5 C 67.0968,102.861 67.9302,102.528 69,102.5C 79.4774,103.275 89.9774,103.775 100.5,104C 101.942,104.377 102.942,105.21 103.5,106.5C 103.167,106.5 102.833,106.5 102.5,106.5C 101.527,106.013 100.527,105.513 99.5,105C 88.424,104.811 77.424,104.311 66.5,103.5 Z"/></g>
<g><path style="opacity:0.004" fill="#dc7578" d="M 39.5,104.5 C 39.0269,105.906 38.0269,106.573 36.5,106.5C 36.9731,105.094 37.9731,104.427 39.5,104.5 Z"/></g>
<g><path style="opacity:1" fill="#c22833" d="M 135.5,96.5 C 130.833,103.167 125.167,108.833 118.5,113.5C 123.833,107.5 129.5,101.833 135.5,96.5 Z"/></g>
<g><path style="opacity:0.533" fill="#d66267" d="M 139.5,91.5 C 138.167,93.1667 136.833,94.8333 135.5,96.5C 129.5,101.833 123.833,107.5 118.5,113.5C 117.833,113.5 117.167,113.5 116.5,113.5C 120.167,109.5 123.833,105.5 127.5,101.5C 128.167,101.5 128.5,101.167 128.5,100.5C 129.167,100.5 129.5,100.167 129.5,99.5C 132.564,96.4297 135.897,93.7631 139.5,91.5 Z"/></g>
<g><path style="opacity:0.467" fill="#da787d" d="M 145.5,105.5 C 145.573,107.027 144.906,108.027 143.5,108.5C 143.427,106.973 144.094,105.973 145.5,105.5 Z"/></g>
<g><path style="opacity:0.522" fill="#d4646a" d="M 14.5,106.5 C 12.8065,109.19 10.4732,111.19 7.5,112.5C 9.21929,109.781 11.5526,107.781 14.5,106.5 Z"/></g>
<g><path style="opacity:1" fill="#c5323b" d="M 14.5,106.5 C 16.2915,106.366 17.9582,106.699 19.5,107.5C 19.427,109.027 20.0937,110.027 21.5,110.5C 22.1667,110.5 22.5,110.833 22.5,111.5C 22.427,113.027 23.0937,114.027 24.5,114.5C 25.5,114.833 26.1667,115.5 26.5,116.5C 26.427,118.027 27.0937,119.027 28.5,119.5C 28.7376,121.404 29.7376,122.738 31.5,123.5C 33.6326,125.091 35.2993,127.091 36.5,129.5C 36.427,131.027 37.0937,132.027 38.5,132.5C 42.1349,136.307 45.6349,140.307 49,144.5C 50.8849,146.914 51.5516,149.581 51,152.5C 47.5903,156.416 43.757,159.749 39.5,162.5C 36.5701,163.299 33.5701,163.632 30.5,163.5C 29.5,163.167 28.8333,162.5 28.5,161.5C 28.573,159.973 27.9063,158.973 26.5,158.5C 25.8333,158.5 25.5,158.167 25.5,157.5C 25.573,155.973 24.9063,154.973 23.5,154.5C 22.5,154.167 21.8333,153.5 21.5,152.5C 21.573,150.973 20.9063,149.973 19.5,149.5C 15.3621,145.235 11.6954,140.569 8.5,135.5C 8.57298,133.973 7.90632,132.973 6.5,132.5C 3.6952,130.208 1.36186,127.541 -0.5,124.5C -0.5,122.5 -0.5,120.5 -0.5,118.5C 1.90241,116.091 4.56908,114.091 7.5,112.5C 10.4732,111.19 12.8065,109.19 14.5,106.5 Z"/></g>
<g><path style="opacity:0.541" fill="#dd7c7e" d="M 19.5,107.5 C 20.9063,107.973 21.573,108.973 21.5,110.5C 20.0937,110.027 19.427,109.027 19.5,107.5 Z"/></g>
<g><path style="opacity:0.059" fill="#dc7c81" d="M 102.5,106.5 C 102.833,106.5 103.167,106.5 103.5,106.5C 104.867,109.012 104.534,111.345 102.5,113.5C 103.546,111.118 103.546,108.785 102.5,106.5 Z"/></g>
<g><path style="opacity:0.678" fill="#d96d72" d="M 22.5,111.5 C 23.9063,111.973 24.573,112.973 24.5,114.5C 23.0937,114.027 22.427,113.027 22.5,111.5 Z"/></g>
<g><path style="opacity:0.055" fill="#db7e82" d="M 27.5,111.5 C 28.391,112.11 29.391,112.443 30.5,112.5C 29.0527,113.885 28.0527,113.552 27.5,111.5 Z"/></g>
<g><path style="opacity:0.016" fill="#e29093" d="M 126.5,112.5 C 125.833,113.833 124.833,114.833 123.5,115.5C 123.5,113.5 124.5,112.5 126.5,112.5 Z"/></g>
<g><path style="opacity:0.561" fill="#da7478" d="M 26.5,116.5 C 27.9063,116.973 28.573,117.973 28.5,119.5C 27.0937,119.027 26.427,118.027 26.5,116.5 Z"/></g>
<g><path style="opacity:0.078" fill="#dc777a" d="M 69.5,115.5 C 68.1667,117.167 68.1667,118.833 69.5,120.5C 66.8333,118.833 66.8333,117.167 69.5,115.5 Z"/></g>
<g><path style="opacity:1" fill="#c5333c" d="M 46.5,94.5 C 46.8333,94.5 47.1667,94.5 47.5,94.5C 49.5,95.8333 51.5,95.8333 53.5,94.5C 55.6208,94.3253 57.6208,94.6586 59.5,95.5C 62.381,97.68 65.7144,98.68 69.5,98.5C 81.0378,99.2066 92.7044,99.8732 104.5,100.5C 105.167,101.833 106.167,102.833 107.5,103.5C 108.117,103.611 108.617,103.944 109,104.5C 109.784,107.76 109.617,110.927 108.5,114C 111.192,114.43 113.859,114.263 116.5,113.5C 117.167,113.5 117.833,113.5 118.5,113.5C 118.047,114.458 117.381,115.292 116.5,116C 117.337,117.011 117.67,118.178 117.5,119.5C 117.167,119.5 116.833,119.5 116.5,119.5C 100.862,120.437 85.1952,120.771 69.5,120.5C 68.1667,118.833 68.1667,117.167 69.5,115.5C 80.3709,114.791 91.3709,114.124 102.5,113.5C 104.534,111.345 104.867,109.012 103.5,106.5C 102.942,105.21 101.942,104.377 100.5,104C 89.9774,103.775 79.4774,103.275 69,102.5C 67.9302,102.528 67.0968,102.861 66.5,103.5C 65.0413,103.567 63.7079,103.234 62.5,102.5C 60.1617,100.96 57.4951,100.294 54.5,100.5C 49.8414,98.8336 45.5081,99.5003 41.5,102.5C 40.7611,102.631 40.0944,102.464 39.5,102C 42.2573,99.8753 44.5907,97.3753 46.5,94.5 Z"/></g>
<g><path style="opacity:0.016" fill="#db7478" d="M 46.5,101.5 C 48.9479,100.527 51.6146,100.194 54.5,100.5C 57.4951,100.294 60.1617,100.96 62.5,102.5C 57.2032,101.725 51.8699,101.392 46.5,101.5 Z"/></g>
<g><path style="opacity:0.637" fill="#d46369" d="M 54.5,100.5 C 51.6146,100.194 48.9479,100.527 46.5,101.5C 44.8828,102.038 43.2161,102.371 41.5,102.5C 45.5081,99.5003 49.8414,98.8336 54.5,100.5 Z"/></g>
<g><path style="opacity:0.187" fill="#d25f65" d="M 116.5,119.5 C 115.737,120.268 114.737,120.768 113.5,121C 98.6609,121.828 83.9942,121.661 69.5,120.5C 85.1952,120.771 100.862,120.437 116.5,119.5 Z"/></g>
<g><path style="opacity:0.608" fill="#d86d71" d="M 28.5,119.5 C 30.2624,120.262 31.2624,121.596 31.5,123.5C 29.7376,122.738 28.7376,121.404 28.5,119.5 Z"/></g>
<g><path style="opacity:0.561" fill="#d56266" d="M 136.5,116.5 C 132.5,122.5 127.5,127.5 121.5,131.5C 126.167,126.167 131.167,121.167 136.5,116.5 Z"/></g>
<g><path style="opacity:0.039" fill="#dd7b7e" d="M 136.5,124.5 C 136.573,126.027 135.906,127.027 134.5,127.5C 134.427,125.973 135.094,124.973 136.5,124.5 Z"/></g>
<g><path style="opacity:0.588" fill="#da7174" d="M 36.5,129.5 C 37.9063,129.973 38.573,130.973 38.5,132.5C 37.0937,132.027 36.427,131.027 36.5,129.5 Z"/></g>
<g><path style="opacity:0.227" fill="#da7378" d="M 119.5,132.5 C 119.5,132.833 119.5,133.167 119.5,133.5C 117.703,134.73 115.703,135.396 113.5,135.5C 115.181,133.992 117.181,132.992 119.5,132.5 Z"/></g>
<g><path style="opacity:0.082" fill="#dd7b7e" d="M 6.5,132.5 C 7.90632,132.973 8.57298,133.973 8.5,135.5C 7.09368,135.027 6.42702,134.027 6.5,132.5 Z"/></g>
<g><path style="opacity:0.216" fill="#d86d72" d="M 49.5,136.5 C 48.5946,137.702 48.5946,139.036 49.5,140.5C 48.5946,139.036 48.5946,137.702 49.5,136.5 Z"/></g>
<g><path style="opacity:0.969" fill="#c5323b" d="M 119.5,133.5 C 120.239,133.369 120.906,133.536 121.5,134C 118.833,135.333 116.167,136.667 113.5,138C 115.931,138.252 118.265,137.752 120.5,136.5C 121.463,136.97 121.463,137.637 120.5,138.5C 117.088,139.075 114.088,140.408 111.5,142.5C 111.167,142.5 110.833,142.5 110.5,142.5C 95.0043,141.419 79.671,141.419 64.5,142.5C 64.1667,142.5 63.8333,142.5 63.5,142.5C 63.3893,141.883 63.056,141.383 62.5,141C 59.3035,140.195 56.3035,140.362 53.5,141.5C 51.8716,142.853 50.5383,142.519 49.5,140.5C 48.5946,139.036 48.5946,137.702 49.5,136.5C 65.0003,135.607 80.667,135.607 96.5,136.5C 96.7911,137.649 97.6244,138.316 99,138.5C 100.07,138.472 100.903,138.139 101.5,137.5C 105.5,136.833 109.5,136.167 113.5,135.5C 115.703,135.396 117.703,134.73 119.5,133.5 Z"/></g>
<g><path style="opacity:0.702" fill="#d35d63" d="M 96.5,136.5 C 98.2161,136.629 99.8828,136.962 101.5,137.5C 100.903,138.139 100.07,138.472 99,138.5C 97.6244,138.316 96.7911,137.649 96.5,136.5 Z"/></g>
<g><path style="opacity:0.58" fill="#d77076" d="M 53.5,141.5 C 56.3035,140.362 59.3035,140.195 62.5,141C 63.056,141.383 63.3893,141.883 63.5,142.5C 60.1667,142.167 56.8333,141.833 53.5,141.5 Z"/></g>
<g><path style="opacity:0.333" fill="#db777b" d="M 120.5,138.5 C 117.943,140.607 114.943,141.941 111.5,142.5C 114.088,140.408 117.088,139.075 120.5,138.5 Z"/></g>
<g><path style="opacity:0.933" fill="#d46165" d="M 64.5,142.5 C 79.671,141.419 95.0043,141.419 110.5,142.5C 95.3333,143.377 80,143.377 64.5,142.5 Z"/></g>
<g><path style="opacity:0.008" fill="#de8388" d="M 19.5,149.5 C 20.9063,149.973 21.573,150.973 21.5,152.5C 20.0937,152.027 19.427,151.027 19.5,149.5 Z"/></g>
<g><path style="opacity:0.137" fill="#d97074" d="M 23.5,154.5 C 24.9063,154.973 25.573,155.973 25.5,157.5C 24.0937,157.027 23.427,156.027 23.5,154.5 Z"/></g>
<g><path style="opacity:0.004" fill="#de8386" d="M 26.5,158.5 C 27.9063,158.973 28.573,159.973 28.5,161.5C 27.0937,161.027 26.427,160.027 26.5,158.5 Z"/></g>
<g><path style="opacity:0.361" fill="#d45e64" d="M 39.5,162.5 C 39.1667,163.167 38.8333,163.833 38.5,164.5C 35.8333,164.5 33.1667,164.5 30.5,164.5C 30.5,164.167 30.5,163.833 30.5,163.5C 33.5701,163.632 36.5701,163.299 39.5,162.5 Z"/></g>
</svg>
