<?xml version="1.0" encoding="UTF-8"?>
<svg version="1.1" xmlns="http://www.w3.org/2000/svg" width="200" height="200">
<path d="M0 0 C0.65607953 -0.00453111 1.31215906 -0.00906223 1.98811978 -0.01373065 C4.178935 -0.02635582 6.36950102 -0.02475553 8.56034851 -0.02310181 C10.13429584 -0.02908828 11.70824024 -0.0358941 13.28218079 -0.04345703 C17.55296254 -0.06111305 21.82366413 -0.06581227 26.09447885 -0.0670886 C28.764514 -0.06851109 31.43452884 -0.07278255 34.10455894 -0.07808304 C43.42463345 -0.09658261 52.74465078 -0.10475382 62.06474304 -0.10317993 C70.74383297 -0.10197883 79.4226741 -0.12307517 88.10170108 -0.15466726 C95.56005117 -0.18084572 103.01832008 -0.19154656 110.47671574 -0.19026911 C114.92817285 -0.1897599 119.37940885 -0.19542023 123.83082008 -0.21662521 C128.01946898 -0.23603391 132.20768647 -0.23611428 136.39635086 -0.22159195 C137.92976832 -0.21950594 139.46321296 -0.22419239 140.99658394 -0.23631287 C150.05318332 -0.30323828 157.10308037 -0.14672102 164.32865906 5.94320679 C164.76565125 6.48332397 165.20264343 7.02344116 165.65287781 7.57992554 C166.32770203 8.37849976 166.32770203 8.37849976 167.01615906 9.19320679 C172.02001388 17.03110327 171.78095234 24.20124223 171.76029968 33.31552124 C171.76764623 34.84711321 171.77623417 36.37869965 171.78596497 37.91027832 C171.80813021 42.0571465 171.8111141 46.20381567 171.80921745 50.35073495 C171.8090975 53.81967965 171.81767191 57.28858258 171.82599497 60.75751561 C171.84521178 68.94631293 171.84811944 77.13500833 171.84135437 85.32382202 C171.83471749 93.75418525 171.85756753 102.18411052 171.8946681 110.61438495 C171.92542184 117.86730183 171.93671892 125.12007825 171.93283129 132.37305897 C171.93076932 136.69828091 171.93615683 141.02316208 171.96072388 145.34832191 C171.98308215 149.41890814 171.98103867 153.48878551 171.96079636 157.55937576 C171.95740205 159.04680247 171.96240687 160.53427774 171.97677994 162.02163887 C172.06077432 171.36385355 171.42706878 179.6135751 164.89771271 186.87094593 C159.66696967 191.53882232 154.51626672 193.63968952 147.56723022 193.66183472 C146.91100184 193.66792582 146.25477345 193.67401692 145.57865936 193.68029261 C143.39317749 193.69686015 141.20828226 193.69215601 139.02275085 193.68734741 C137.45027566 193.6946915 135.87780585 193.70327872 134.30534363 193.7130127 C130.04278601 193.73520411 125.78042185 193.7381605 121.5178144 193.73626518 C117.95438357 193.73614535 114.39099353 193.74471496 110.82757407 193.7530427 C102.41685654 193.77226902 94.00623825 193.77516374 85.59550476 193.7684021 C76.93168394 193.76176483 68.26828924 193.78461464 59.60455483 193.82171583 C52.15549768 193.85245267 44.7065773 193.86376846 37.25745803 193.85987902 C32.8132082 193.85781527 28.36928986 193.86323233 23.92510033 193.88777161 C19.74291099 193.91010169 15.56141208 193.90810947 11.37921906 193.88784409 C9.84944684 193.88444481 8.31962758 193.88947632 6.7899189 193.90382767 C-2.96887503 193.98902195 -10.52057091 193.26451408 -17.78071594 186.20492554 C-18.21513 185.56555054 -18.64954407 184.92617554 -19.09712219 184.26742554 C-19.54958313 183.62805054 -20.00204407 182.98867554 -20.46821594 182.32992554 C-23.11510908 177.74776299 -23.91217947 174.06819569 -23.93377686 168.77311707 C-23.94375198 167.45967316 -23.95372711 166.14622925 -23.96400452 164.79298401 C-23.96490025 163.34411633 -23.96556385 161.8952485 -23.96601868 160.44638062 C-23.9736433 158.91508583 -23.98207132 157.38379486 -23.99124146 155.85250854 C-24.01316741 151.69729961 -24.02198314 147.54216425 -24.0270679 143.386904 C-24.03071465 140.78787699 -24.03695646 138.18886916 -24.04406929 135.58984947 C-24.06856014 126.51386038 -24.08161426 117.43792839 -24.0851593 108.36190796 C-24.08879115 99.91683461 -24.11866216 91.47212545 -24.16056389 83.02716333 C-24.19532294 75.76580723 -24.21070874 68.50457146 -24.21140534 61.24313277 C-24.21219644 56.91115601 -24.22085742 52.57955011 -24.249403 48.24765968 C-24.27567927 44.16891736 -24.27773619 40.09085078 -24.26174736 36.01206207 C-24.25994024 34.52140256 -24.26655664 33.03070334 -24.28256607 31.54012871 C-24.3791213 21.96030024 -23.69856768 13.63330903 -16.84555721 6.33565998 C-11.70861607 1.55734532 -7.02544685 0.02008676 0 0 Z " fill="#A2A2A2" transform="translate(26.659622192382813,3.732574462890625)"/>
<path d="M0 0 C15.36891236 -0.58280988 15.36891236 -0.58280988 22 3 C22.66386719 3.3403125 23.32773438 3.680625 24.01171875 4.03125 C31.08620348 8.01991187 37.93085383 14.80713294 40.5546875 22.66015625 C42.29480688 31.80341509 41.65305876 41.47619622 38 50 C38.80566406 50.81984375 39.61132812 51.6396875 40.44140625 52.484375 C41.48242729 53.57228888 42.52275628 54.66086529 43.5625 55.75 C44.09552734 56.28882813 44.62855469 56.82765625 45.17773438 57.3828125 C46.69140625 58.984375 46.69140625 58.984375 49 62 C48.67241299 65.19444895 48.07049013 65.93282149 45.671875 68.21875 C44.70765625 68.9715625 43.7434375 69.724375 42.75 70.5 C41.79609375 71.2528125 40.8421875 72.005625 39.859375 72.78125 C38.91578125 73.5134375 37.9721875 74.245625 37 75 C36.11828125 75.7528125 35.2365625 76.505625 34.328125 77.28125 C32 79 32 79 29 79 C26.9921875 76.84765625 26.9921875 76.84765625 24.875 74.0625 C24.17117187 73.14597656 23.46734375 72.22945313 22.7421875 71.28515625 C22.16726562 70.53105469 21.59234375 69.77695313 21 69 C20.01755764 67.78419863 20.01755764 67.78419863 18.14916992 67.98168945 C16.95191284 68.04682739 16.95191284 68.04682739 15.73046875 68.11328125 C3.46112438 68.59778888 -5.6752046 68.37730943 -15.35546875 59.94921875 C-22.67538321 52.4426398 -26.30359518 42.87857484 -26.234375 32.4609375 C-25.84883204 28.41273641 -24.49341469 24.76020486 -23 21 C-19.21905568 22.26031477 -18.25856275 23.88289348 -15.8125 27 C-15.00941406 27.98484375 -14.20632812 28.9696875 -13.37890625 29.984375 C-11.89277472 31.86827245 -10.45349379 33.79126052 -9.08984375 35.765625 C-7.18486474 38.33795335 -5.66299915 40.21269197 -3 42 C2.5794777 42.62362771 7.70049002 41.76650333 13 40 C14.29903915 37.12493264 14.29903915 37.12493264 15.25 33.6875 C15.60578125 32.53636719 15.9615625 31.38523437 16.328125 30.19921875 C17.17499968 26.44620053 17.17499968 26.44620053 16 23 C14.31832338 20.96880967 12.63572429 19.08116976 10.8125 17.1875 C9.81336431 16.11889873 8.81466375 15.04989045 7.81640625 13.98046875 C6.18370542 12.24868438 4.5450913 10.52306593 2.90234375 8.80078125 C1.25 7 1.25 7 -1 4 C-0.640625 1.8125 -0.640625 1.8125 0 0 Z " fill="#FBFBFB" transform="translate(59,27)"/>
<path d="M0 0 C3.89570037 3.84501282 7.65560777 7.79712337 11.375 11.8125 C11.9515332 12.43415039 12.52806641 13.05580078 13.12207031 13.69628906 C16.58418408 17.43990728 19.99589093 21.21801226 23.328125 25.078125 C25.35758073 27.41105074 27.427647 29.70511245 29.5 32 C33.37540615 36.29805951 37.20576752 40.63023788 41 45 C41.49081055 45.56444824 41.98162109 46.12889648 42.48730469 46.71044922 C44.20071993 48.6812293 45.91302183 50.65297148 47.625 52.625 C48.17575195 53.25881592 48.72650391 53.89263184 49.29394531 54.5456543 C60.36880751 67.31779421 60.36880751 67.31779421 60.28515625 73.90234375 C59.69903493 78.21394851 57.10208184 81.03150384 53.9375 83.8125 C50.71359568 85.78844136 47.83473787 86.22841461 44.125 86.375 C43.28195313 86.42398438 42.43890625 86.47296875 41.5703125 86.5234375 C37.83010769 85.76175445 36.50268446 83.8422255 34 81 C33.52675293 80.47470703 33.05350586 79.94941406 32.56591797 79.40820312 C30.98280753 77.64248512 29.4261508 75.85634628 27.875 74.0625 C27.02240601 73.07842163 27.02240601 73.07842163 26.15258789 72.07446289 C21.98653786 67.22966458 18.00981202 62.26396821 14.10180664 57.21020508 C10.31046792 52.33070738 6.3197408 47.64603442 2.27587891 42.97509766 C-1.26361892 38.88056587 -4.68657399 34.71156638 -8.04296875 30.46484375 C-11.64128365 25.93283436 -15.32733545 21.47180915 -19 17 C-18.29230469 16.44828125 -17.58460937 15.8965625 -16.85546875 15.328125 C-12.87454046 12.08238866 -9.17379125 8.55651359 -5.42578125 5.046875 C-3 3 -3 3 -1 3 C-0.67 2.01 -0.34 1.02 0 0 Z " fill="#B6B6B6" transform="translate(108,90)"/>
<path d="M0 0 C2.69302739 0.62628544 4.41864967 1.64444199 6.75 3.0703125 C13.44994378 5.83869205 22.35262434 4.4734421 29 2 C29 1.34 29 0.68 29 0 C29.66 0 30.32 0 31 0 C31.1743959 3.58271776 31.28087658 7.16434602 31.375 10.75 C31.42527344 11.76578125 31.47554687 12.7815625 31.52734375 13.828125 C31.58337837 16.66721259 31.55910022 19.21474718 31 22 C25.56104139 27.17850144 19.85246633 27.27814558 12.69140625 27.23046875 C9.2657983 26.93712932 6.9156812 25.77785439 4 24 C1.67244489 23.13828946 0.57878927 22.7382294 -1.71875 23.77734375 C-2.3065625 24.16019531 -2.894375 24.54304688 -3.5 24.9375 C-8.73681234 27.73176927 -14.20907093 28.16542447 -20 27 C-23.22533062 25.83468363 -25.68098408 24.55916948 -28 22 C-28.97666999 18.35059469 -28.76153597 14.93199093 -28.5 11.1875 C-28.46390625 10.20845703 -28.4278125 9.22941406 -28.390625 8.22070312 C-28.29654015 5.80977881 -28.16531451 3.40691563 -28 1 C-23.25 2.875 -23.25 2.875 -21 4 C-11.57222551 4.93843707 -11.57222551 4.93843707 -2.9375 1.875 C-1.968125 1.25625 -0.99875 0.6375 0 0 Z " fill="#D0D0D0" transform="translate(136,61)"/>
<path d="M0 0 C0.66 0 1.32 0 2 0 C2.13535156 0.62648438 2.27070312 1.25296875 2.41015625 1.8984375 C3.48228668 6.70902233 3.48228668 6.70902233 6.7578125 10.04296875 C8.89503065 10.66366222 8.89503065 10.66366222 12 11 C12 11.66 12 12.32 12 13 C9.36 13.66 6.72 14.32 4 15 C3.34 17.31 2.68 19.62 2 22 C1.34 22 0.68 22 0 22 C-0.37125 20.88625 -0.7425 19.7725 -1.125 18.625 C-2.4794021 15.38621238 -2.76212803 15.10727559 -6.1875 13.5625 C-7.5796875 13.2840625 -7.5796875 13.2840625 -9 13 C-9 12.34 -9 11.68 -9 11 C-7.88625 10.67 -6.7725 10.34 -5.625 10 C-3.15203321 8.97584204 -2.22232628 8.48377436 -1.08984375 6.01953125 C-0.46843436 3.56193256 -0.46843436 3.56193256 0 0 Z " fill="#F1F1F1" transform="translate(120,27)"/>
<path d="M0 0 C0.66 0.66 1.32 1.32 2 2 C1.625 5.625 1.625 5.625 1 9 C-5.42548263 10.33359073 -5.42548263 10.33359073 -7.9375 8.875 C-9.37604008 6.33639987 -9.50262362 4.87213496 -9 2 C-6.07557433 -1.24936186 -4.04996841 -1.38551551 0 0 Z " fill="#A2A2A2" transform="translate(156,157)"/>
<path d="M0 0 C1.32 0.66 2.64 1.32 4 2 C4 2.66 4 3.32 4 4 C3.34 4 2.68 4 2 4 C2 4.66 2 5.32 2 6 C0.02 5.34 -1.96 4.68 -4 4 C-4 3.34 -4 2.68 -4 2 C-2.68 2 -1.36 2 0 2 C0 1.34 0 0.68 0 0 Z " fill="#EFEFEF" transform="translate(132,50)"/>
</svg>
