<?xml version="1.0" encoding="UTF-8"?>
<svg version="1.1" xmlns="http://www.w3.org/2000/svg" width="341" height="274">
<path d="M0 0 C112.53 0 225.06 0 341 0 C341 90.42 341 180.84 341 274 C228.47 274 115.94 274 0 274 C0 183.58 0 93.16 0 0 Z " fill="#00FE01" transform="translate(0,0)"/>
<path d="M0 0 C10.45869239 7.53918877 16.93890813 17.97546697 19.52124023 30.53515625 C20.125987 34.91178357 20.16235709 39.19259479 20.16796875 43.60546875 C20.17296135 44.98524651 20.17296135 44.98524651 20.17805481 46.39289856 C20.1831033 48.33525088 20.18546378 50.27761183 20.18530273 52.2199707 C20.18747998 55.1604683 20.20563249 58.10058474 20.22460938 61.04101562 C20.27955182 78.61512349 19.01460095 93.55895491 6.265625 106.96484375 C-4.61727757 116.74069244 -16.77821216 120.42399883 -31.171875 120.2734375 C-44.10349094 119.34975065 -55.34946561 114.16523153 -64.3125 104.8125 C-73.43928172 93.79289497 -76.31539339 81.81971442 -76.30078125 67.8203125 C-76.30506638 66.88629608 -76.3093515 65.95227966 -76.31376648 64.98995972 C-76.31946831 63.02863367 -76.32004096 61.0672865 -76.31567383 59.10595703 C-76.3125152 56.13927395 -76.33602121 53.17359149 -76.36132812 50.20703125 C-76.41882202 33.12345228 -74.47499891 18.05920317 -62.30078125 5.10546875 C-44.89983139 -10.81832068 -19.88626954 -12.34431318 0 0 Z " fill="#FDFDFD" transform="translate(149,80)"/>
<path d="M0 0 C112.53 0 225.06 0 341 0 C341 90.42 341 180.84 341 274 C228.47 274 115.94 274 0 274 C0 183.58 0 93.16 0 0 Z M11 25 C1.65509885 37.69363683 0.54987501 50.90962174 0.61181641 66.14453125 C0.6077429 67.84109839 0.60239668 69.53766287 0.59588623 71.23422241 C0.58229935 75.80861896 0.58747534 80.38281077 0.59702349 84.95721054 C0.6046651 89.76420356 0.59756205 94.57118006 0.59286499 99.37817383 C0.58742048 107.44778563 0.59456471 115.51731483 0.60888672 123.58691406 C0.6252107 132.89144289 0.61992127 142.19577445 0.6034075 151.5002985 C0.58975536 159.51596536 0.58789115 167.53157314 0.59572351 175.54724789 C0.60037958 180.32284207 0.60108213 185.09834379 0.59111404 189.87393188 C0.58239218 194.36550673 0.58856075 198.85682938 0.60579681 203.34837723 C0.60973395 204.98815112 0.6086757 206.62794657 0.60200882 208.26771164 C0.5383311 225.53302318 3.62565159 238.94675504 15.6796875 251.89453125 C30.40643995 265.25769551 47.77494104 264.43960705 66.39648438 264.38818359 C68.87136567 264.39225308 71.34624515 264.39759707 73.82112122 264.40411377 C79.82338209 264.41633524 85.82548663 264.41459904 91.82774127 264.40587585 C96.70960767 264.39907707 101.59144258 264.39819202 106.47331238 264.4014473 C107.17038822 264.401907 107.86746406 264.40236669 108.58566341 264.40284032 C110.00213723 264.40379958 111.41861105 264.40477222 112.83508486 264.4057581 C126.09076675 264.41429525 139.34638622 264.40450423 152.60205787 264.388357 C163.95495133 264.37495533 175.30775273 264.3772839 186.66064453 264.39111328 C199.87165989 264.40719878 213.08262065 264.41347144 226.29364443 264.40427649 C227.70465882 264.40332093 229.11567322 264.40237781 230.52668762 264.4014473 C231.22077912 264.40098447 231.91487062 264.40052164 232.6299952 264.40004479 C237.50116155 264.39746379 242.37229303 264.4018066 247.24345398 264.40888596 C253.80990823 264.41822012 260.37621635 264.41149358 266.94266319 264.39420319 C269.34679057 264.39025004 271.75093263 264.39135219 274.15505409 264.39799118 C292.55381435 264.44409954 308.42054143 263.95158717 322.8125 250.8125 C334.79263209 237.69000813 336.45579628 222.73838959 336.40405273 205.77954102 C336.4097667 204.0747432 336.4167349 202.36994921 336.42485046 200.66516113 C336.44268296 196.06798213 336.44163237 191.47099503 336.43590808 186.87379193 C336.43280204 183.02214262 336.43892428 179.17052942 336.44494683 175.31888527 C336.45895769 166.22614967 336.45745927 157.13350811 336.44604492 148.04077148 C336.43456494 138.68964264 336.44864525 129.33880065 336.4754414 119.98770958 C336.49765759 111.9304105 336.50422254 103.87320107 336.49836498 95.81587356 C336.4950086 91.01617711 336.49732231 86.21666451 336.51461601 81.41699409 C336.53017802 76.90156054 336.52602794 72.38654933 336.50731087 67.8711319 C336.50365056 66.22371178 336.50665787 64.57625972 336.51719666 62.92886925 C336.60965886 47.26777689 333.767833 33.71206117 322.96875 21.75 C311.96075312 11.22061168 299.21996855 7.68032136 284.39360046 7.73930359 C283.36123868 7.73547804 282.3288769 7.73165249 281.26523143 7.72771102 C277.82479894 7.71743728 274.38453509 7.7213625 270.9440918 7.7253418 C268.46965379 7.72099219 265.99521713 7.71580822 263.52078247 7.70985413 C257.50811822 7.69786687 251.49551962 7.6953096 245.48284944 7.69765439 C240.59233437 7.69944134 235.70183281 7.69767985 230.81131935 7.69342995 C230.11383704 7.69283476 229.41635473 7.69223957 228.69773659 7.69162634 C227.28053817 7.69041452 225.86333976 7.68920039 224.44614134 7.68798397 C211.17045941 7.67712013 197.89480291 7.67926531 184.61911956 7.68536881 C172.49332953 7.69053577 160.36761988 7.67928634 148.24184575 7.66027059 C135.77067843 7.64086419 123.29954909 7.63264118 110.82836658 7.63639385 C103.83496474 7.63830179 96.84163128 7.63585818 89.84824181 7.62167931 C83.26952524 7.60847543 76.6909425 7.61106351 70.11221695 7.62409019 C67.70325096 7.62645137 65.29427361 7.62373783 62.88532066 7.61546707 C42.14394814 7.549412 25.82785919 8.82415361 11 25 Z " fill="#FEFEFE" transform="translate(0,0)"/>
<path d="M0 0 C3.87524726 2.27460165 5.42975406 5.95332467 6.796875 10.0546875 C6.94179623 11.46133676 7.04316431 12.8728008 7.11328125 14.28515625 C7.15517578 15.08759766 7.19707031 15.89003906 7.24023438 16.71679688 C7.27955078 17.55017578 7.31886719 18.38355469 7.359375 19.2421875 C7.40255859 20.08716797 7.44574219 20.93214844 7.49023438 21.80273438 C7.59619018 23.88653183 7.6970252 25.97058853 7.796875 28.0546875 C8.83026222 26.71710906 9.86340631 25.37934226 10.89550781 24.04077148 C11.796208 22.87285043 12.69791909 21.70570836 13.60058594 20.53930664 C15.86140028 17.60887042 18.09404989 14.66597838 20.25390625 11.66015625 C21.01058594 10.61472656 21.76726562 9.56929687 22.546875 8.4921875 C23.22234375 7.54214844 23.8978125 6.59210938 24.59375 5.61328125 C28.64440682 0.90906101 32.74130025 -1.50359142 38.84765625 -1.98046875 C44.2258721 -1.88346686 47.9766709 0.44671696 51.796875 4.0546875 C54.88702744 8.94922965 54.3779717 14.47910148 53.796875 20.0546875 C52.41114458 24.35294115 49.35251755 27.6386939 46.59765625 31.1484375 C42.82435852 35.99012301 39.17480783 40.91608004 35.546875 45.8671875 C34.33346438 47.51962749 33.11992731 49.17197463 31.90625 50.82421875 C31.37999023 51.54198486 30.85373047 52.25975098 30.31152344 52.99926758 C29.26557979 54.4186421 28.19129835 55.81741351 27.0949707 57.19824219 C25.58824325 58.94250325 25.58824325 58.94250325 25.91796875 60.98828125 C29.19708809 68.69785517 34.80618979 75.51781573 39.74609375 82.22265625 C42.62041478 86.19195672 45.35447406 90.2429152 48.03125 94.34765625 C49.05207279 95.91276729 50.09356677 97.4655556 51.1875 98.98046875 C54.59645848 104.00988285 54.64379209 109.22331047 53.796875 115.0546875 C51.39419508 120.46071732 47.27595506 123.9212404 41.796875 126.0546875 C37.00657186 126.69005057 32.93685374 125.51907573 28.859375 122.9921875 C23.11465741 118.2659557 19.72216425 111.31328478 15.98095703 105.00195312 C13.46910094 100.87111514 10.61932719 96.97566132 7.796875 93.0546875 C7.7875293 93.64894531 7.77818359 94.24320312 7.76855469 94.85546875 C7.71434507 97.58933395 7.63080222 100.32157949 7.546875 103.0546875 C7.53269531 103.98925781 7.51851562 104.92382812 7.50390625 105.88671875 C7.28932111 112.02385384 6.38553603 116.95631943 2.796875 122.0546875 C-2.17658038 125.90911542 -7.00239177 126.57141527 -13.203125 126.0546875 C-17.98812636 124.65049084 -20.86805097 123.02364069 -23.28918457 118.59667969 C-25.68543199 113.63986282 -25.76792419 109.15698495 -25.72070312 103.7265625 C-25.7277124 102.72387329 -25.73472168 101.72118408 -25.74194336 100.68811035 C-25.75946265 97.39334937 -25.74792169 94.09945632 -25.734375 90.8046875 C-25.73707164 88.50357906 -25.7409555 86.20247174 -25.74597168 83.90136719 C-25.75185854 79.08647782 -25.74332963 74.27188595 -25.72460938 69.45703125 C-25.70182075 63.2967765 -25.71494813 57.13721894 -25.73889923 50.97698975 C-25.75337893 46.22764875 -25.74874117 41.47847202 -25.73838806 36.72912598 C-25.7357268 34.45821042 -25.73896931 32.18727976 -25.74830627 29.91638184 C-25.75850729 26.73812563 -25.74292008 23.56098593 -25.72070312 20.3828125 C-25.72880005 19.45166626 -25.73689697 18.52052002 -25.74523926 17.56115723 C-25.66809784 11.58021803 -24.57240897 7.06307792 -21.203125 2.0546875 C-15.05843964 -3.31716114 -7.21079433 -2.9346256 0 0 Z " fill="#FEFEFD" transform="translate(210.203125,73.9453125)"/>
<path d="M0 0 C3.31440373 2.83179248 5.46036167 6.43723889 6.19523621 10.72169495 C6.33388218 13.14488348 6.35281863 15.53791376 6.3203125 17.96484375 C6.32176773 18.84837524 6.32322296 19.73190674 6.32472229 20.64221191 C6.32306998 22.50125442 6.31158398 24.36031155 6.29077148 26.21923828 C6.26180258 29.05040116 6.27017968 31.87968977 6.28320312 34.7109375 C6.27696497 36.5247486 6.26857343 38.33855384 6.2578125 40.15234375 C6.26074814 40.99108032 6.26368378 41.82981689 6.26670837 42.69396973 C6.18168208 48.04141167 5.38807572 51.832743 2.82421875 56.55859375 C-2.21720548 60.54972127 -6.43226109 61.99130856 -12.7578125 61.8984375 C-16.90287208 61.31585239 -20.26478157 59.55521107 -23.17578125 56.55859375 C-26.10315219 50.96019463 -26.63129151 46.41407622 -26.609375 40.15234375 C-26.61461685 39.26881226 -26.6198587 38.38528076 -26.6252594 37.47497559 C-26.63165296 35.61597744 -26.63037733 33.75693869 -26.62182617 31.89794922 C-26.61330548 29.06664577 -26.64213115 26.23735517 -26.67382812 23.40625 C-26.67544022 21.59244852 -26.67486244 19.77864349 -26.671875 17.96484375 C-26.68310898 17.12610718 -26.69434296 16.28737061 -26.70591736 15.42321777 C-26.63811299 9.65733546 -25.52214018 6.28818471 -22.17578125 1.55859375 C-15.3188363 -4.18967971 -7.78019127 -3.66990154 0 0 Z " fill="#00FE01" transform="translate(131.17578125,106.44140625)"/>
<path d="M0 0 C0.66 0.66 1.32 1.32 2 2 C1.625 5.125 1.625 5.125 1 8 C1.99 8.33 2.98 8.66 4 9 C3.68191155 10.00101997 3.68191155 10.00101997 3.35739708 11.02226257 C0.75056564 20.11560164 0.5737695 28.78663589 0.61181641 38.14453125 C0.6077429 39.84109839 0.60239668 41.53766287 0.59588623 43.23422241 C0.58229935 47.80861896 0.58747534 52.38281077 0.59702349 56.95721054 C0.6046651 61.76420356 0.59756205 66.57118006 0.59286499 71.37817383 C0.58742048 79.44778563 0.59456471 87.51731483 0.60888672 95.58691406 C0.6252107 104.89144289 0.61992127 114.19577445 0.6034075 123.5002985 C0.58975536 131.51596536 0.58789115 139.53157314 0.59572351 147.54724789 C0.60037958 152.32284207 0.60108213 157.09834379 0.59111404 161.87393188 C0.58239218 166.36550673 0.58856075 170.85682938 0.60579681 175.34837723 C0.60973395 176.98815112 0.6086757 178.62794657 0.60200882 180.26771164 C0.53480411 198.48931612 4.71764726 210.67701319 16 225 C14.02 225.99 14.02 225.99 12 227 C10.68 224.03 9.36 221.06 8 218 C6.68 218 5.36 218 4 218 C0.85484258 215.90322838 0.18286964 215.43636472 -1 212 C-1.18817399 209.13858281 -1.26543408 206.37604673 -1.24723816 203.51533508 C-1.24965257 202.6509934 -1.25206699 201.78665172 -1.25455457 200.89611787 C-1.26019814 197.99487777 -1.25152352 195.09385721 -1.24291992 192.19262695 C-1.24399262 190.11486756 -1.24593111 188.03710845 -1.24867249 185.95935059 C-1.25352506 180.31297669 -1.24586063 174.66668167 -1.23571944 169.02031732 C-1.2269487 163.12041323 -1.22869618 157.22051169 -1.2290802 151.32060242 C-1.22814331 141.41513749 -1.21945482 131.50970319 -1.20581055 121.60424805 C-1.19007178 110.13550494 -1.18481287 98.66679534 -1.1855461 87.19804221 C-1.18615538 76.18186559 -1.18105989 65.16569993 -1.17275429 54.1495266 C-1.16921459 49.4529531 -1.16739007 44.75638349 -1.16686058 40.05980873 C-1.16585967 34.53673949 -1.15978382 29.01369862 -1.14969444 23.49063873 C-1.14676168 21.45762239 -1.14554563 19.42460278 -1.14612198 17.3915844 C-1.146609 14.62893027 -1.14099345 11.86635692 -1.13371277 9.10371399 C-1.13526137 8.28836522 -1.13680997 7.47301645 -1.1384055 6.63296014 C-1.1141788 1.1141788 -1.1141788 1.1141788 0 0 Z " fill="#FEFCFE" transform="translate(1,28)"/>
<path d="M0 0 C0.99 0 1.98 0 3 0 C2.56645611 5.41929865 1.64128877 8.89187933 -2 13 C-6.7347827 15.73793956 -11.5686374 16.67892033 -17 16 C-21.22780151 14.54375726 -24.23926869 12.94515103 -27.0625 9.4375 C-28 7 -28 7 -27 4 C-26.34 4 -25.68 4 -25 4 C-25 3.01 -25 2.02 -25 1 C-24.34 1 -23.68 1 -23 1 C-22.67 3.64 -22.34 6.28 -22 9 C-20.9275 8.814375 -19.855 8.62875 -18.75 8.4375 C-15.50500633 8.05891741 -13.97938242 8.04234136 -11 9 C-10.01 9 -9.02 9 -8 9 C-6.68 9 -5.36 9 -4 9 C-4 7.68 -4 6.36 -4 5 C-2.02 4.34 -0.04 3.68 2 3 C2 2.34 2 1.68 2 1 C1.34 0.67 0.68 0.34 0 0 Z " fill="#F6F9F6" transform="translate(214,184)"/>
<path d="M0 0 C1.19266634 1.78899952 2.35387468 3.60063053 3.4453125 5.453125 C9.58800251 15.68141814 16.13724023 21.16963346 27 26 C27 26.66 27 27.32 27 28 C26.01 28 25.02 28 24 28 C24 28.66 24 29.32 24 30 C22.68 29.67 21.36 29.34 20 29 C20 28.34 20 27.68 20 27 C19.443125 26.773125 18.88625 26.54625 18.3125 26.3125 C15.36753316 24.64103234 13.31843456 22.44723648 11 20 C10.67 20.66 10.34 21.32 10 22 C7 22 7 22 4 21 C4.495 20.1028125 4.495 20.1028125 5 19.1875 C6.20787988 16.94613529 6.20787988 16.94613529 6 14 C5.34 13.67 4.68 13.34 4 13 C4 12.34 4 11.68 4 11 C2.02 10.34 0.04 9.68 -2 9 C-1.95875 8.236875 -1.9175 7.47375 -1.875 6.6875 C-1.77919176 3.77281584 -1.77919176 3.77281584 -4 1 C-2.68 0.67 -1.36 0.34 0 0 Z " fill="#08F909" transform="translate(76,170)"/>
<path d="M0 0 C6.16857998 0.3701148 8.75775103 1.75775103 13 6 C16.08921629 10.87105095 15.60923523 16.44435489 15 22 C13.77274286 25.41547978 12.36869798 28.31565101 9 30 C7.99890485 26.68929162 7.89643866 23.69915231 7.9375 20.25 C7.94652344 19.26515625 7.95554687 18.2803125 7.96484375 17.265625 C7.97644531 16.51796875 7.98804688 15.7703125 8 15 C8.66 15.66 9.32 16.32 10 17 C10.66 16.34 11.32 15.68 12 15 C12 15.66 12 16.32 12 17 C12.66 17 13.32 17 14 17 C13.43545368 15.51356155 12.84765111 14.03593984 12.25 12.5625 C11.92515625 11.73878906 11.6003125 10.91507813 11.265625 10.06640625 C10.18802041 7.83914799 10.18802041 7.83914799 7.984375 7.21484375 C4.78787808 6.86876633 2.13779629 7.33941131 -1 8 C-1 7.34 -1 6.68 -1 6 C0.32 6 1.64 6 3 6 C3 5.01 3 4.02 3 3 C2.01 3 1.02 3 0 3 C0 2.01 0 1.02 0 0 Z " fill="#F4F7F3" transform="translate(249,72)"/>
<path d="M0 0 C0.33 0 0.66 0 1 0 C1.14695313 0.75023437 1.29390625 1.50046875 1.4453125 2.2734375 C3.85870226 13.28626202 9.10367474 21.24509063 16 30 C14.02 30.99 14.02 30.99 12 32 C10.68 29.03 9.36 26.06 8 23 C6.68 23 5.36 23 4 23 C0.89238733 20.92825822 0.20246153 20.3794298 -1 17 C-1.23046875 13.65234375 -1.23046875 13.65234375 -1.1875 9.9375 C-1.18105469 8.70902344 -1.17460937 7.48054687 -1.16796875 6.21484375 C-1 3 -1 3 0 0 Z " fill="#F5F8F6" transform="translate(1,223)"/>
<path d="M0 0 C0.66 0.66 1.32 1.32 2 2 C-0.92594285 7.24231428 -4.28382529 10.82384226 -10 13 C-13.17061389 13.25139172 -15.98884994 13.04529075 -19 12 C-20.76171875 10.4375 -20.76171875 10.4375 -22 9 C-21.01 8.67 -20.02 8.34 -19 8 C-19 7.34 -19 6.68 -19 6 C-15.04 6.33 -11.08 6.66 -7 7 C-6.67 5.68 -6.34 4.36 -6 3 C-3.525 3.495 -3.525 3.495 -1 4 C-0.67 2.68 -0.34 1.36 0 0 Z " fill="#F6F9F4" transform="translate(262,187)"/>
<path d="M0 0 C-1.98 0.99 -1.98 0.99 -4 2 C-4 2.99 -4 3.98 -4 5 C-3.34 5.33 -2.68 5.66 -2 6 C-2.99 6 -3.98 6 -5 6 C-5.33 6.66 -5.66 7.32 -6 8 C-8.31 8 -10.62 8 -13 8 C-14.00217064 11.58327753 -14.00217064 11.58327753 -13 15 C-14.65 15.33 -16.3 15.66 -18 16 C-19.08858688 12.77028528 -19.01269431 11.08091074 -17.5625 8 C-15.44925174 4.09413426 -13.15232903 2.34048972 -9.10546875 0.609375 C-5.93144019 -0.30926777 -3.28443457 -0.27370288 0 0 Z " fill="#F2F5F2" transform="translate(204,72)"/>
<path d="M0 0 C2.62386487 3.06117568 3 3.73173127 3 8 C0.69 8 -1.62 8 -4 8 C-4.33 9.98 -4.66 11.96 -5 14 C-6.0725 14.144375 -7.145 14.28875 -8.25 14.4375 C-10.91662949 14.83749442 -13.41399729 15.27591924 -16 16 C-16.66 15.01 -17.32 14.02 -18 13 C-17.03578125 12.39671875 -16.0715625 11.7934375 -15.078125 11.171875 C-13.80191031 10.36485689 -12.52587824 9.55754992 -11.25 8.75 C-10.29867188 8.15638672 -10.29867188 8.15638672 -9.328125 7.55078125 C-5.81799859 5.32038843 -2.81965894 3.10447297 0 0 Z " fill="#F2F3EE" transform="translate(324,248)"/>
<path d="M0 0 C0.66 0.33 1.32 0.66 2 1 C2.58265625 0.84660156 3.1653125 0.69320312 3.765625 0.53515625 C6.57306954 -0.13725617 8.88619031 0.13066325 11.75 0.4375 C12.73484375 0.53933594 13.7196875 0.64117187 14.734375 0.74609375 C15.48203125 0.82988281 16.2296875 0.91367188 17 1 C17 3.31 17 5.62 17 8 C9.88515313 7.6143354 3.64558134 6.60900601 -3 4 C-2.67 3.34 -2.34 2.68 -2 2 C-1.34 2 -0.68 2 0 2 C0 1.34 0 0.68 0 0 Z " fill="#FBF9F9" transform="translate(103,192)"/>
<path d="M0 0 C0.5775 0.37125 1.155 0.7425 1.75 1.125 C4 2.29166667 4 2.29166667 6.25 1.125 C6.8275 0.75375 7.405 0.3825 8 0 C7.46624006 4.06369233 6.33377919 6.21289675 3.6875 9.3125 C0.3956958 13.34936277 -1.84824148 17.26613125 -4 22 C-5.65 21.67 -7.3 21.34 -9 21 C-8.11952663 15.54106509 -8.11952663 15.54106509 -7 13 C-3.9375 11.625 -3.9375 11.625 -1 11 C0.38801861 8.22396277 0.00693128 7.03773695 -0.5625 3.9375 C-0.706875 2.968125 -0.85125 1.99875 -1 1 C-0.67 0.67 -0.34 0.34 0 0 Z " fill="#06FB07" transform="translate(81,80)"/>
<path d="M0 0 C2.6875 -0.25 2.6875 -0.25 5 0 C5.33 0.66 5.66 1.32 6 2 C3.69 2.66 1.38 3.32 -1 4 C-1.33 5.32 -1.66 6.64 -2 8 C-2.66 8 -3.32 8 -4 8 C-6.95709818 11.20023415 -6.95709818 11.20023415 -8.5 15.1875 C-9 17 -9 17 -11.0625 18.25 C-11.701875 18.4975 -12.34125 18.745 -13 19 C-13 18.34 -13 17.68 -13 17 C-14.98 17.99 -14.98 17.99 -17 19 C-18.32 18.01 -19.64 17.02 -21 16 C-20.3709375 15.72027344 -19.741875 15.44054687 -19.09375 15.15234375 C-12.18335149 11.91569625 -5.92218139 8.1336385 -1.4453125 1.80078125 C-0.96835938 1.20652344 -0.49140625 0.61226562 0 0 Z " fill="#07FA09" transform="translate(160,180)"/>
<path d="M0 0 C0.33 1.32 0.66 2.64 1 4 C0.34 4 -0.32 4 -1 4 C-0.67 4.66 -0.34 5.32 0 6 C0.99 5.67 1.98 5.34 3 5 C3.99 5.99 4.98 6.98 6 8 C4.52444734 9.83624331 3.04446569 11.6689285 1.5625 13.5 C0.73878906 14.5209375 -0.08492187 15.541875 -0.93359375 16.59375 C-1.61550781 17.3878125 -2.29742187 18.181875 -3 19 C-3.33 19 -3.66 19 -4 19 C-4 13.72 -4 8.44 -4 3 C-3.01 3 -2.02 3 -1 3 C-0.67 2.01 -0.34 1.02 0 0 Z " fill="#02FC05" transform="translate(221,84)"/>
<path d="M0 0 C0.66 0.33 1.32 0.66 2 1 C1.88566637 3.25056722 1.75813564 5.50046674 1.625 7.75 C1.55539063 9.00296875 1.48578125 10.2559375 1.4140625 11.546875 C1.03968402 14.66905022 0.44611036 16.30724277 -1 19 C-0.21690533 21.23470405 -0.21690533 21.23470405 1 23 C-0.98 23.33 -2.96 23.66 -5 24 C-4.72320153 15.29468814 -3.45302262 8.01422458 0 0 Z " fill="#F4F7F5" transform="translate(78,97)"/>
<path d="M0 0 C2.33944736 0.28730055 4.6739143 0.61936779 7 1 C7.33 1.99 7.66 2.98 8 4 C6.70703125 5.796875 6.70703125 5.796875 4.8125 7.75 C1.52545364 11.30001007 -0.76997736 14.71835653 -3 19 C-3.97983761 15.95161632 -4.21704816 13.99581086 -3 11 C-0.9375 8.75 -0.9375 8.75 1 7 C0.34 7 -0.32 7 -1 7 C-1.04254356 5.00045254 -1.04080783 2.99958364 -1 1 C-0.67 0.67 -0.34 0.34 0 0 Z " fill="#FAF9FA" transform="translate(9,16)"/>
<path d="M0 0 C3.50541631 2.93476714 5.85298053 5.52662406 7 10 C6.625 12.3125 6.625 12.3125 6 14 C3.47154472 12.73577236 3.23577236 11.47154472 2 9 C1.34 8.67 0.68 8.34 0 8 C0 7.01 0 6.02 0 5 C-0.78375 4.9175 -1.5675 4.835 -2.375 4.75 C-5 4 -5 4 -6.3125 1.9375 C-6.539375 1.298125 -6.76625 0.65875 -7 0 C-4.19664415 -1.40167793 -2.9650644 -0.96536981 0 0 Z " fill="#F5F6F5" transform="translate(210,74)"/>
<path d="M0 0 C0.99 0.33 1.98 0.66 3 1 C1.56981607 5.13164246 0.64646789 7.41510048 -2.625 10.375 C-6.77859527 12.37487921 -10.4387128 12.79727612 -15 13 C-15 12.34 -15 11.68 -15 11 C-13.02 10.34 -11.04 9.68 -9 9 C-9 8.34 -9 7.68 -9 7 C-8.01 7.33 -7.02 7.66 -6 8 C-6.33 8.66 -6.66 9.32 -7 10 C-6.34 9.34 -5.68 8.68 -5 8 C-5 7.34 -5 6.68 -5 6 C-4.34 6 -3.68 6 -3 6 C-2.87625 5.38125 -2.7525 4.7625 -2.625 4.125 C-2 2 -2 2 0 0 Z " fill="#08F808" transform="translate(134,155)"/>
<path d="M0 0 C4.17781634 3.87671246 7.22712043 8.03587533 10.3125 12.8125 C10.76689453 13.50537109 11.22128906 14.19824219 11.68945312 14.91210938 C12.79831476 16.6045824 13.89991438 18.30180958 15 20 C14.34 20.33 13.68 20.66 13 21 C12.01 20.67 11.02 20.34 10 20 C9.67 20.66 9.34 21.32 9 22 C8.34 21.34 7.68 20.68 7 20 C7.66 19.67 8.32 19.34 9 19 C7.6910428 15.87802522 7.6910428 15.87802522 5 14 C5.33 13.01 5.66 12.02 6 11 C4.68798827 9.43750191 4.68798827 9.43750191 3 8 C2.01 8 1.02 8 0 8 C0 5.36 0 2.72 0 0 Z " fill="#EDF0EC" transform="translate(241,145)"/>
<path d="M0 0 C0.99 0 1.98 0 3 0 C4 7.625 4 7.625 4 11 C2.22566188 10.06915029 0.45564851 9.13005387 -1.3125 8.1875 C-2.29863281 7.66542969 -3.28476562 7.14335937 -4.30078125 6.60546875 C-6.61665068 5.2280124 -8.23611001 4.00469409 -10 2 C-2.25 0.875 -2.25 0.875 0 2 C0 1.34 0 0.68 0 0 Z " fill="#F5F6F4" transform="translate(316,8)"/>
<path d="M0 0 C5.89889027 0.35393342 8.90482848 1.71435539 13 6 C14.375 9.3125 14.375 9.3125 15 12 C14.01 12 13.02 12 12 12 C10.97971135 10.68212715 9.98028616 9.34789347 9 8 C5.15783941 6.7192798 2.90779056 7.17730725 -1 8 C-1 7.34 -1 6.68 -1 6 C0.32 6 1.64 6 3 6 C3 5.01 3 4.02 3 3 C2.01 3 1.02 3 0 3 C0 2.01 0 1.02 0 0 Z " fill="#EEEFEA" transform="translate(249,72)"/>
<path d="M0 0 C0.86625 0.3403125 0.86625 0.3403125 1.75 0.6875 C1.75 1.3475 1.75 2.0075 1.75 2.6875 C0.76 2.6875 -0.23 2.6875 -1.25 2.6875 C-0.26 3.3475 0.73 4.0075 1.75 4.6875 C1.75 6.0075 1.75 7.3275 1.75 8.6875 C2.74 8.6875 3.73 8.6875 4.75 8.6875 C6.75 11.6875 6.75 11.6875 6.75 15.6875 C5.76 16.0175 4.77 16.3475 3.75 16.6875 C3.27949219 16.01203125 2.80898438 15.3365625 2.32421875 14.640625 C1.70160156 13.74859375 1.07898438 12.8565625 0.4375 11.9375 C-0.17738281 11.05578125 -0.79226563 10.1740625 -1.42578125 9.265625 C-2.99833065 7.04317831 -4.60368512 4.85557006 -6.25 2.6875 C-2.80384615 -0.38942308 -2.80384615 -0.38942308 0 0 Z " fill="#F1F6F0" transform="translate(326.25,16.3125)"/>
<path d="M0 0 C3 4 3 4 3 8 C2.814375 8.70125 2.62875 9.4025 2.4375 10.125 C1.77180827 12.07591269 1.77180827 12.07591269 3 14 C2.34 14 1.68 14 1 14 C0.67 14.66 0.34 15.32 0 16 C-2.31 15.34 -4.62 14.68 -7 14 C-4.69 9.38 -2.38 4.76 0 0 Z " fill="#F1F3ED" transform="translate(333,232)"/>
<path d="M0 0 C0 0.66 0 1.32 0 2 C0.99 2.33 1.98 2.66 3 3 C-4.02680781 5.87217429 -10.39845954 7.67021516 -18 8 C-17.37609375 7.7009375 -16.7521875 7.401875 -16.109375 7.09375 C-13.93017094 5.96379234 -12.56638472 4.87966166 -11 3 C-11 2.34 -11 1.68 -11 1 C-7.26562152 0.12132271 -3.83225427 -0.08912219 0 0 Z " fill="#F2F2F1" transform="translate(141,192)"/>
<path d="M0 0 C0.33 0.66 0.66 1.32 1 2 C0.01 2 -0.98 2 -2 2 C-2 2.99 -2 3.98 -2 5 C-2.7425 4.979375 -3.485 4.95875 -4.25 4.9375 C-6.72988569 4.99386104 -8.62245271 5.38643941 -11 6 C-12.32 6 -13.64 6 -15 6 C-15 5.01 -15 4.02 -15 3 C-13.25531628 2.29911844 -11.50398839 1.61475991 -9.75 0.9375 C-8.77546875 0.55464844 -7.8009375 0.17179687 -6.796875 -0.22265625 C-3.95467542 -1.01259719 -2.67548593 -1.1720592 0 0 Z " fill="#F1F3F0" transform="translate(113,74)"/>
<path d="M0 0 C7.60154046 0.32978484 13.97319219 2.12782571 21 5 C19.63671875 6.51953125 19.63671875 6.51953125 18 8 C15.8125 7.6875 15.8125 7.6875 14 7 C14 6.34 14 5.68 14 5 C12.35 5 10.7 5 9 5 C9 5.66 9 6.32 9 7 C7.0625 6.1875 7.0625 6.1875 5 5 C4.67 4.01 4.34 3.02 4 2 C1.99983534 0.79117904 1.99983534 0.79117904 0 0 Z " fill="#E8E9E7" transform="translate(123,72)"/>
<path d="M0 0 C-0.99 0.495 -0.99 0.495 -2 1 C-2.33 1.66 -2.66 2.32 -3 3 C-4.32 3 -5.64 3 -7 3 C-6.731875 3.556875 -6.46375 4.11375 -6.1875 4.6875 C-6 7 -6 7 -8.0625 9.5625 C-10.93090848 11.94266874 -13.6023776 13.49872499 -17 15 C-14.12413501 8.78076488 -7.8800416 -2.62668053 0 0 Z " fill="#EAEDE8" transform="translate(246,74)"/>
<path d="M0 0 C0.556875 0.144375 1.11375 0.28875 1.6875 0.4375 C4.04945411 1.04352665 4.04945411 1.04352665 6.6875 1.4375 C7.450625 1.623125 8.21375 1.80875 9 2 C9.33 2.66 9.66 3.32 10 4 C9.0625 6.625 9.0625 6.625 8 9 C8.66 9 9.32 9 10 9 C10 10.65 10 12.3 10 14 C9.01 14 8.02 14 7 14 C4.66666667 9.33333333 2.33333333 4.66666667 0 0 Z " fill="#05FC05" transform="translate(158,88)"/>
<path d="M0 0 C3.71279784 1.44386582 4.9486443 3.12236392 6.75 6.625 C7.17796875 7.44226563 7.6059375 8.25953125 8.046875 9.1015625 C8.51867187 10.04128906 8.51867187 10.04128906 9 11 C8.401875 10.814375 7.80375 10.62875 7.1875 10.4375 C4.83591238 9.77906313 4.83591238 9.77906313 2 11 C1.01 10.01 0.02 9.02 -1 8 C-0.34 7.34 0.32 6.68 1 6 C0.34 5.67 -0.32 5.34 -1 5 C-1.33 5.66 -1.66 6.32 -2 7 C-2 3 -2 3 0 0 Z " fill="#09F80B" transform="translate(226,181)"/>
<path d="M0 0 C1.2065625 0.2475 1.2065625 0.2475 2.4375 0.5 C4.97658116 1.26597109 4.97658116 1.26597109 7 0 C7.16873478 1.43725871 7.33490737 2.87481838 7.5 4.3125 C7.5928125 5.11300781 7.685625 5.91351563 7.78125 6.73828125 C8 9 8 9 8 12 C4.28720216 10.55613418 3.0513557 8.87763608 1.25 5.375 C0.82203125 4.55773437 0.3940625 3.74046875 -0.046875 2.8984375 C-0.36140625 2.27195313 -0.6759375 1.64546875 -1 1 C-0.67 0.67 -0.34 0.34 0 0 Z " fill="#F0F1EE" transform="translate(232,184)"/>
<path d="M0 0 C1.52519276 0.08937803 3.04681929 0.24537146 4.5625 0.4375 C5.80193359 0.59025391 5.80193359 0.59025391 7.06640625 0.74609375 C7.70449219 0.82988281 8.34257812 0.91367188 9 1 C9 1.99 9 2.98 9 4 C7.03125 5.60546875 7.03125 5.60546875 4.5 7.1875 C3.6646875 7.71730469 2.829375 8.24710938 1.96875 8.79296875 C1.3190625 9.19128906 0.669375 9.58960938 0 10 C-0.19412181 8.52168779 -0.38012131 7.04230684 -0.5625 5.5625 C-0.66691406 4.73878906 -0.77132812 3.91507813 -0.87890625 3.06640625 C-0.91886719 2.38449219 -0.95882812 1.70257813 -1 1 C-0.67 0.67 -0.34 0.34 0 0 Z " fill="#EFF0EB" transform="translate(145,184)"/>
<path d="M0 0 C0.66 0.66 1.32 1.32 2 2 C1.625 5.125 1.625 5.125 1 8 C1.99 8.33 2.98 8.66 4 9 C2.515 14.94 2.515 14.94 1 21 C-1 19 -1 19 -1.24291992 17.13647461 C-1.23881104 16.39921143 -1.23470215 15.66194824 -1.23046875 14.90234375 C-1.22853516 14.10119141 -1.22660156 13.30003906 -1.22460938 12.47460938 C-1.21236328 11.63736328 -1.20011719 10.80011719 -1.1875 9.9375 C-1.18685547 9.09638672 -1.18621094 8.25527344 -1.18554688 7.38867188 C-1.14023184 1.14023184 -1.14023184 1.14023184 0 0 Z " fill="#F0F4EF" transform="translate(1,28)"/>
<path d="M0 0 C3.00494237 2.32883034 4.08628558 4.44041696 5.5 7.9375 C5.5 8.5975 5.5 9.2575 5.5 9.9375 C3.8125 9.8125 3.8125 9.8125 1.5 8.9375 C-0.17067133 6.94084402 -1.83752986 4.94098966 -3.5 2.9375 C-4.49 2.9375 -5.48 2.9375 -6.5 2.9375 C-6.17 1.9475 -5.84 0.9575 -5.5 -0.0625 C-2.5 -1.0625 -2.5 -1.0625 0 0 Z " fill="#0CF70A" transform="translate(131.5,107.0625)"/>
<path d="M0 0 C0.33 0 0.66 0 1 0 C1 1.98 1 3.96 1 6 C1.66 6 2.32 6 3 6 C3.33 4.35 3.66 2.7 4 1 C4.33 1 4.66 1 5 1 C5 3.31 5 5.62 5 8 C4.01 8.33 3.02 8.66 2 9 C2.66 9.33 3.32 9.66 4 10 C4 12.64 4 15.28 4 18 C3.34 18 2.68 18 2 18 C-0.03358813 11.64647324 -1.60671734 6.57293456 0 0 Z " fill="#06FA08" transform="translate(2,216)"/>
<path d="M0 0 C0.99 0.66 1.98 1.32 3 2 C3.1875 5.625 3.1875 5.625 3 9 C1 10 1 10 -1.5 10.4375 C-4.15791333 10.80148552 -4.15791333 10.80148552 -6 13 C-6.71484375 11.296875 -6.71484375 11.296875 -7 9 C-5.56640625 6.640625 -5.56640625 6.640625 -3.5625 4.25 C-2.57443359 3.05117187 -2.57443359 3.05117187 -1.56640625 1.828125 C-1.04949219 1.22484375 -0.53257812 0.6215625 0 0 Z " fill="#05FA0A" transform="translate(253,109)"/>
<path d="M0 0 C-0.33 1.65 -0.66 3.3 -1 5 C0.32 5.66 1.64 6.32 3 7 C2.67 8.65 2.34 10.3 2 12 C-2.77135213 8.42148591 -5.29076328 5.31427203 -8 0 C-5.13822943 -1.43088528 -3.06624227 -0.59991697 0 0 Z " fill="#F2F5EE" transform="translate(88,177)"/>
<path d="M0 0 C0.66 0.66 1.32 1.32 2 2 C1.34 2 0.68 2 0 2 C0.33 2.66 0.66 3.32 1 4 C1.99 3.01 2.98 2.02 4 1 C4.99 1.33 5.98 1.66 7 2 C6.6641593 5.10652645 6.40950721 6.60414303 4.125 8.8125 C2 10 2 10 -1 10 C-2.23076923 4.58461538 -2.23076923 4.58461538 -1.0625 1.625 C-0.5365625 0.820625 -0.5365625 0.820625 0 0 Z " fill="#F5F9F5" transform="translate(18,8)"/>
<path d="M0 0 C1.65 0 3.3 0 5 0 C5 2.31 5 4.62 5 7 C1.37 6.67 -2.26 6.34 -6 6 C-5.67 5.01 -5.34 4.02 -5 3 C-3.35 2.67 -1.7 2.34 0 2 C0 1.34 0 0.68 0 0 Z " fill="#EFF2EE" transform="translate(115,193)"/>
<path d="M0 0 C0.99 0.33 1.98 0.66 3 1 C1.93204565 5.50066475 0.85961414 9.7494534 -1 14 C-1.12375 13.360625 -1.2475 12.72125 -1.375 12.0625 C-1.58125 11.381875 -1.7875 10.70125 -2 10 C-2.66 9.67 -3.32 9.34 -4 9 C-3.67 7.02 -3.34 5.04 -3 3 C-2.34 3 -1.68 3 -1 3 C-0.67 2.01 -0.34 1.02 0 0 Z " fill="#EDF0EC" transform="translate(165,161)"/>
<path d="M0 0 C0.309375 0.639375 0.61875 1.27875 0.9375 1.9375 C1.8345163 3.93610821 1.8345163 3.93610821 3 5 C3.3709602 9.91522262 3.15164348 12.24290923 0 16 C-0.36504603 14.41913952 -0.71660506 12.83516093 -1.0625 11.25 C-1.25972656 10.36828125 -1.45695312 9.4865625 -1.66015625 8.578125 C-2.10919531 5.17162178 -1.51689348 3.03378695 0 0 Z " fill="#EFF2EF" transform="translate(75,152)"/>
<path d="M0 0 C1.41750563 0.11509661 2.83401169 0.24253658 4.25 0.375 C5.03890625 0.44460938 5.8278125 0.51421875 6.640625 0.5859375 C9.085877 1.01507113 10.84836903 1.78600638 13 3 C11.375 4.5625 11.375 4.5625 9 6 C5.72279458 5.86623651 3.74536943 5.5714499 1.125 3.5625 C0 2 0 2 0 0 Z " fill="#07FA08" transform="translate(291,8)"/>
<path d="M0 0 C0.66 0 1.32 0 2 0 C2 1.32 2 2.64 2 4 C2.99 4 3.98 4 5 4 C5 6.64 5 9.28 5 12 C3 11 3 11 2 9 C1.34 9.99 0.68 10.98 0 12 C-0.33 11.67 -0.66 11.34 -1 11 C-0.91015699 9.14227838 -0.75388139 7.28752015 -0.5625 5.4375 C-0.46066406 4.42558594 -0.35882813 3.41367187 -0.25390625 2.37109375 C-0.17011719 1.58863281 -0.08632813 0.80617187 0 0 Z " fill="#06FB09" transform="translate(2,44)"/>
<path d="M0 0 C0.515625 0.66 1.03125 1.32 1.5625 2 C4.61208585 5.75333644 7.7986681 9.37602035 11 13 C10.01 14.485 10.01 14.485 9 16 C8.34 16 7.68 16 7 16 C6.66226562 15.30132812 6.32453125 14.60265625 5.9765625 13.8828125 C5.53054687 12.97273437 5.08453125 12.06265625 4.625 11.125 C4.18414063 10.22007812 3.74328125 9.31515625 3.2890625 8.3828125 C2.09497301 5.90465528 2.09497301 5.90465528 0 4 C0 2.68 0 1.36 0 0 Z " fill="#F0F7F1" transform="translate(6,239)"/>
<path d="M0 0 C2.31 0.33 4.62 0.66 7 1 C6.01 1.495 6.01 1.495 5 2 C7.83967231 2 10.23735711 1.59732819 13 1 C13 1.99 13 2.98 13 4 C12.01 4 11.02 4 10 4 C9.67 4.99 9.34 5.98 9 7 C7.68176698 6.40844669 6.37052949 5.80128537 5.0625 5.1875 C4.33160156 4.85105469 3.60070312 4.51460937 2.84765625 4.16796875 C1 3 1 3 0 0 Z " fill="#06FA0A" transform="translate(108,161)"/>
<path d="M0 0 C2 0.66666667 4 1.33333333 6 2 C6.33 4.31 6.66 6.62 7 9 C5.68 9 4.36 9 3 9 C2.34 7.35 1.68 5.7 1 4 C0.34 4 -0.32 4 -1 4 C-0.67 2.68 -0.34 1.36 0 0 Z " fill="#F3F7F0" transform="translate(217,161)"/>
<path d="M0 0 C2.62386487 3.06117568 3 3.73173127 3 8 C1.02 8 -0.96 8 -3 8 C-3 7.34 -3 6.68 -3 6 C-3.66 5.67 -4.32 5.34 -5 5 C-3.35 3.35 -1.7 1.7 0 0 Z " fill="#F6F9F5" transform="translate(324,248)"/>
<path d="M0 0 C0.99 0 1.98 0 3 0 C2.54996653 5.62541841 1.31558515 8.61487125 -2 13 C-2.66 12.34 -3.32 11.68 -4 11 C-3.34 11 -2.68 11 -2 11 C-2.33 9.02 -2.66 7.04 -3 5 C-1.35 4.34 0.3 3.68 2 3 C2 2.34 2 1.68 2 1 C1.34 0.67 0.68 0.34 0 0 Z " fill="#E7EEEA" transform="translate(214,184)"/>
<path d="M0 0 C1.65 0.33 3.3 0.66 5 1 C3.35 3.64 1.7 6.28 0 9 C-0.99 8.01 -1.98 7.02 -3 6 C-3 4.68 -3 3.36 -3 2 C-2.34 2 -1.68 2 -1 2 C-0.67 1.34 -0.34 0.68 0 0 Z " fill="#EFF1ED" transform="translate(251,104)"/>
<path d="M0 0 C4.43458973 1.3937282 6.87378374 3.60582235 10 7 C9.01 7 8.02 7 7 7 C6.67 7.66 6.34 8.32 6 9 C5.01 8.67 4.02 8.34 3 8 C3 7.34 3 6.68 3 6 C2.505 5.525625 2.01 5.05125 1.5 4.5625 C0 3 0 3 0 0 Z " fill="#EEF1E9" transform="translate(145,79)"/>
<path d="M0 0 C3.06081203 2.75473082 4.89882863 4.99574049 6 9 C5.625 11.3125 5.625 11.3125 5 13 C2.10619861 11.5530993 1.38837696 9.90297 0 7 C-0.1875 3.1875 -0.1875 3.1875 0 0 Z " fill="#EEF5F2" transform="translate(211,75)"/>
<path d="M0 0 C0.8353125 0.2475 0.8353125 0.2475 1.6875 0.5 C4.18691249 1.04041351 6.45045662 1.07082065 9 1 C7.8553125 1.804375 7.8553125 1.804375 6.6875 2.625 C3.77135526 5.20205814 2.5294378 7.45814404 1 11 C0.34 10.01 -0.32 9.02 -1 8 C-0.67 7.34 -0.34 6.68 0 6 C-0.33 5.01 -0.66 4.02 -1 3 C-0.67 2.01 -0.34 1.02 0 0 Z " fill="#F0F0EE" transform="translate(105,104)"/>
<path d="M0 0 C0.66 0 1.32 0 2 0 C3.65 3.3 5.3 6.6 7 10 C5.35 10.33 3.7 10.66 2 11 C2 10.01 2 9.02 2 8 C1.34 7.67 0.68 7.34 0 7 C0 4.66666667 0 2.33333333 0 0 Z " fill="#F1F1EF" transform="translate(233,133)"/>
<path d="M0 0 C2.05123248 2.05123248 2.64147118 3.27005063 3.625 5.9375 C3.88539063 6.62714844 4.14578125 7.31679687 4.4140625 8.02734375 C5 10 5 10 5 13 C4.34 13 3.68 13 3 13 C1.67578125 11.390625 1.67578125 11.390625 0.3125 9.25 C-0.14511719 8.55390625 -0.60273438 7.8578125 -1.07421875 7.140625 C-2.17680634 4.59118198 -2.00198126 3.5464717 -1 1 C-0.67 0.67 -0.34 0.34 0 0 Z " fill="#0BF90D" transform="translate(237,131)"/>
<path d="M0 0 C-1.64178265 4.77609498 -4.26546702 8.79382904 -7 13 C-7.84648337 9.86801152 -8.29734145 8.05801913 -7 5 C-2.56818182 0 -2.56818182 0 0 0 Z " fill="#EDF2E9" transform="translate(13,22)"/>
<path d="M0 0 C3.65316671 1.24976756 4.78065836 1.67098753 7 5 C6.01 6.485 6.01 6.485 5 8 C3.02 7.34 1.04 6.68 -1 6 C-1 3 -1 3 0 0 Z " fill="#06FA08" transform="translate(314,16)"/>
<path d="M0 0 C3.3053792 0.51920779 5.86964968 1.91053438 8.75 3.5625 C9.94882812 4.24505859 9.94882812 4.24505859 11.171875 4.94140625 C11.77515625 5.29074219 12.3784375 5.64007813 13 6 C13 6.99 13 7.98 13 9 C10.72243014 7.90339229 8.62403009 6.75561956 6.5 5.375 C3.89138574 3.67872083 3.89138574 3.67872083 0 4 C-0.33 3.01 -0.66 2.02 -1 1 C-0.67 0.67 -0.34 0.34 0 0 Z " fill="#F1F3EC" transform="translate(17,254)"/>
<path d="M0 0 C2.375 2.5625 2.375 2.5625 4 5 C-1.28798182 4.58525633 -4.11690718 3.64775386 -8 0 C-4.99733781 -1.5013311 -3.18669322 -0.8922741 0 0 Z " fill="#EFEEEE" transform="translate(197,195)"/>
<path d="M0 0 C2.6486859 3.19668988 4.93992341 6.39486597 7 10 C6.360625 9.814375 5.72125 9.62875 5.0625 9.4375 C4.0415625 9.2209375 4.0415625 9.2209375 3 9 C2.67 9.33 2.34 9.66 2 10 C1.34 10 0.68 10 0 10 C0 6.7 0 3.4 0 0 Z " fill="#08FA0A" transform="translate(217,165)"/>
<path d="M0 0 C0.5775 0.78375 1.155 1.5675 1.75 2.375 C3.82897637 4.80047244 5.09040333 5.85694417 8 7 C7.67 7.66 7.34 8.32 7 9 C6.05125 8.814375 5.1025 8.62875 4.125 8.4375 C1.10131207 7.71313368 1.10131207 7.71313368 -1 9 C-1.33 7.68 -1.66 6.36 -2 5 C-1.34 5 -0.68 5 0 5 C0 3.35 0 1.7 0 0 Z " fill="#EEECEC" transform="translate(106,159)"/>
<path d="M0 0 C0.33 0.66 0.66 1.32 1 2 C-1.3125 2.625 -1.3125 2.625 -4 3 C-4.99 2.34 -5.98 1.68 -7 1 C-7 1.66 -7 2.32 -7 3 C-6.34 3.33 -5.68 3.66 -5 4 C-6.98 4.99 -6.98 4.99 -9 6 C-9.66 4.35 -10.32 2.7 -11 1 C-3.29268293 -1.51969981 -3.29268293 -1.51969981 0 0 Z " fill="#07FB0B" transform="translate(41,10)"/>
<path d="M0 0 C0.99 0.495 0.99 0.495 2 1 C1.01 1.495 1.01 1.495 0 2 C0 1.34 0 0.68 0 0 Z M-3 2 C0.37462715 2.54723683 2.08235 3.0549 5 5 C4.67 5.66 4.34 6.32 4 7 C1.36 6.67 -1.28 6.34 -4 6 C-3.67 4.68 -3.34 3.36 -3 2 Z " fill="#07FB0A" transform="translate(37,256)"/>
<path d="M0 0 C2 2 2 2 2.1953125 3.9453125 C2.13020833 5.96354167 2.06510417 7.98177083 2 10 C0.02 10.33 -1.96 10.66 -4 11 C-4 10.34 -4 9.68 -4 9 C-3.34 9 -2.68 9 -2 9 C-1.34 6.03 -0.68 3.06 0 0 Z " fill="#F1F5F0" transform="translate(262,176)"/>
<path d="M0 0 C0.7425 0.845625 1.485 1.69125 2.25 2.5625 C3.61125 3.7690625 3.61125 3.7690625 5 5 C7.27523089 4.95502158 7.27523089 4.95502158 9 4 C9 4.99 9 5.98 9 7 C7.56138706 6.91253716 6.12402492 6.80434652 4.6875 6.6875 C3.88699219 6.62949219 3.08648437 6.57148438 2.26171875 6.51171875 C-0.36272334 5.91793306 -1.30820672 5.04219706 -3 3 C-2.01 2.67 -1.02 2.34 0 2 C0 1.34 0 0.68 0 0 Z " fill="#E7EBE7" transform="translate(243,193)"/>
<path d="M0 0 C-0.33 1.32 -0.66 2.64 -1 4 C-0.34 4.33 0.32 4.66 1 5 C-3.24645065 5 -5.38524772 3.18249194 -9 1 C-5.64919071 -1.10976881 -3.77897651 -1.0497157 0 0 Z " fill="#EDF1E7" transform="translate(315,10)"/>
<path d="M0 0 C0.33 0.99 0.66 1.98 1 3 C-8.41002278 5.29612756 -8.41002278 5.29612756 -13 5 C-11.66666667 4.33333333 -10.33333333 3.66666667 -9 3 C-7.989375 2.46375 -6.97875 1.9275 -5.9375 1.375 C-3 0 -3 0 0 0 Z " fill="#E5E9E4" transform="translate(136,195)"/>
<path d="M0 0 C0.66 0 1.32 0 2 0 C2.66 1.32 3.32 2.64 4 4 C2.8125 5.5625 2.8125 5.5625 1 7 C-1.6875 6.6875 -1.6875 6.6875 -4 6 C-2.7260411 3.96166576 -1.38938077 1.96147874 0 0 Z " fill="#08FA07" transform="translate(244,121)"/>
<path d="M0 0 C2.475 0.495 2.475 0.495 5 1 C5 1.99 5 2.98 5 4 C5.33 4.99 5.66 5.98 6 7 C4.35 7 2.7 7 1 7 C0.31292445 4.50935112 0 2.62113708 0 0 Z " fill="#F8F9F6" transform="translate(8,249)"/>
<path d="M0 0 C0 3.10551666 -0.5393715 4.35261084 -2 7 C-2.66 7 -3.32 7 -4 7 C-4.66 7.66 -5.32 8.32 -6 9 C-6 8.34 -6 7.68 -6 7 C-6.66 6.67 -7.32 6.34 -8 6 C-5.36 4.02 -2.72 2.04 0 0 Z " fill="#E8EDE6" transform="translate(95,79)"/>
<path d="M0 0 C1.79240663 0.11389875 3.58394835 0.24147687 5.375 0.375 C6.87160156 0.47941406 6.87160156 0.47941406 8.3984375 0.5859375 C11 1 11 1 13 3 C10 5 10 5 7.8125 4.625 C7.214375 4.41875 6.61625 4.2125 6 4 C6 3.34 6 2.68 6 2 C3.03 1.505 3.03 1.505 0 1 C0 0.67 0 0.34 0 0 Z " fill="#F0F3ED" transform="translate(131,75)"/>
<path d="M0 0 C0.66 0.66 1.32 1.32 2 2 C1.01 2.495 1.01 2.495 0 3 C-0.46523063 4.89533342 -0.46523063 4.89533342 -0.625 7.0625 C-0.74875 8.361875 -0.8725 9.66125 -1 11 C-1.99 11 -2.98 11 -4 11 C-4.35233161 5.62694301 -4.35233161 5.62694301 -4 3 C-2 1 -2 1 0 0 Z " fill="#F9F7F9" transform="translate(6,25)"/>
<path d="M0 0 C0.33 0 0.66 0 1 0 C1.66 3.63 2.32 7.26 3 11 C1.68 11 0.36 11 -1 11 C-1.125 3.375 -1.125 3.375 0 0 Z " fill="#ECEEE9" transform="translate(1,223)"/>
<path d="M0 0 C0.66 0 1.32 0 2 0 C2 0.99 2 1.98 2 3 C-0.8125 5.75 -0.8125 5.75 -4 8 C-4.99 7.67 -5.98 7.34 -7 7 C-4.66666667 4.66666667 -2.33333333 2.33333333 0 0 Z " fill="#0CF70D" transform="translate(22,15)"/>
<path d="M0 0 C0.66 0.33 1.32 0.66 2 1 C0.55746343 4.36591866 -1.33264727 6.51047079 -4 9 C-4.66 7.68 -5.32 6.36 -6 5 C-5.34 4.34 -4.68 3.68 -4 3 C-3.34 3 -2.68 3 -2 3 C-1.34 2.01 -0.68 1.02 0 0 Z " fill="#E6EDE3" transform="translate(159,177)"/>
<path d="M0 0 C0.99 0.33 1.98 0.66 3 1 C1.8125 3.4375 1.8125 3.4375 0 6 C-2.6875 6.8125 -2.6875 6.8125 -5 7 C-4.67 5.68 -4.34 4.36 -4 3 C-3.34 3 -2.68 3 -2 3 C-2 2.34 -2 1.68 -2 1 C-1.34 0.67 -0.68 0.34 0 0 Z " fill="#12F30F" transform="translate(224,90)"/>
<path d="M0 0 C2.66666667 0.66666667 5.33333333 1.33333333 8 2 C7.34 3.65 6.68 5.3 6 7 C2.58841744 5.86280581 1.88145399 4.95657056 0 2 C0 1.34 0 0.68 0 0 Z " fill="#0BF60D" transform="translate(158,88)"/>
<path d="M0 0 C0.99 0.66 1.98 1.32 3 2 C2.67 2.99 2.34 3.98 2 5 C2.66 5.33 3.32 5.66 4 6 C0.88742431 6 -1.10765685 5.82638376 -4 5 C-2.68 3.35 -1.36 1.7 0 0 Z " fill="#F0F4F0" transform="translate(228,89)"/>
<path d="M0 0 C2.31 0.33 4.62 0.66 7 1 C7.33 1.99 7.66 2.98 8 4 C4.25 5.125 4.25 5.125 2 4 C0.875 1.9375 0.875 1.9375 0 0 Z " fill="#F1F8F0" transform="translate(9,16)"/>
<path d="M0 0 C2.31 0 4.62 0 7 0 C7.33 1.65 7.66 3.3 8 5 C7.34 4.34 6.68 3.68 6 3 C5.67 3.66 5.34 4.32 5 5 C2 4 2 4 0.8125 1.9375 C0.544375 1.298125 0.27625 0.65875 0 0 Z " fill="#07F90C" transform="translate(7,240)"/>
<path d="M0 0 C2.31 0.33 4.62 0.66 7 1 C6.67 2.65 6.34 4.3 6 6 C3.97945196 4.35830472 1.97956942 2.69088222 0 1 C0 0.67 0 0.34 0 0 Z " fill="#E5E7E5" transform="translate(84,183)"/>
<path d="M0 0 C0.66 0 1.32 0 2 0 C2.42820102 3.63970867 1.97413512 5.04569463 0.125 8.3125 C-0.926875 9.6428125 -0.926875 9.6428125 -2 11 C-2.66 11 -3.32 11 -4 11 C-3.38722388 8.03824877 -2.74627478 6.61941217 -1 4 C-0.36707617 1.88719655 -0.36707617 1.88719655 0 0 Z " fill="#0BF410" transform="translate(82,85)"/>
<path d="M0 0 C1.32 0.33 2.64 0.66 4 1 C4.33 2.65 4.66 4.3 5 6 C2.36 5.34 -0.28 4.68 -3 4 C-2.67 3.34 -2.34 2.68 -2 2 C-1.34 2 -0.68 2 0 2 C0 1.34 0 0.68 0 0 Z " fill="#EDF4EF" transform="translate(103,192)"/>
<path d="M0 0 C0.66 0 1.32 0 2 0 C3.4606285 2.64738916 4 3.89448334 4 7 C2.0625 6.1875 2.0625 6.1875 0 5 C-0.33 4.01 -0.66 3.02 -1 2 C-0.67 1.34 -0.34 0.68 0 0 Z " fill="#F2F5F1" transform="translate(91,185)"/>
<path d="M0 0 C0.66 0.99 1.32 1.98 2 3 C1.34 4.32 0.68 5.64 0 7 C-2.97 6.505 -2.97 6.505 -6 6 C-5.195625 5.38125 -4.39125 4.7625 -3.5625 4.125 C-0.96125481 2.25835959 -0.96125481 2.25835959 0 0 Z " fill="#ECEEEB" transform="translate(134,161)"/>
<path d="M0 0 C0.66 0.99 1.32 1.98 2 3 C1.34 3.66 0.68 4.32 0 5 C0.99 5.99 1.98 6.98 3 8 C2.01 8.33 1.02 8.66 0 9 C-2.1519437 5.77208445 -2.20086443 4.71599191 -2 1 C-1.34 0.67 -0.68 0.34 0 0 Z " fill="#07F907" transform="translate(252,152)"/>
<path d="M0 0 C1.65 1.65 3.3 3.3 5 5 C4.67 5.66 4.34 6.32 4 7 C3.34 7 2.68 7 2 7 C1.67 7.66 1.34 8.32 1 9 C0.67 6.03 0.34 3.06 0 0 Z " fill="#E9EDE7" transform="translate(155,86)"/>
<path d="M0 0 C0.66 0.33 1.32 0.66 2 1 C0.515 3.475 0.515 3.475 -1 6 C-1.99 5.67 -2.98 5.34 -4 5 C-4 4.01 -4 3.02 -4 2 C-2.125 0.9375 -2.125 0.9375 0 0 Z " fill="#E9EBE9" transform="translate(194,73)"/>
<path d="M0 0 C2.6486859 3.19668988 4.93992341 6.39486597 7 10 C6.01 10 5.02 10 4 10 C1.61685817 6.79192446 0.56231391 3.93619738 0 0 Z " fill="#E5E9DC" transform="translate(6,239)"/>
<path d="M0 0 C0.66 0.66 1.32 1.32 2 2 C0.02 4.97 0.02 4.97 -2 8 C-2.66 7.67 -3.32 7.34 -4 7 C-4 6.01 -4 5.02 -4 4 C-3.01 4 -2.02 4 -1 4 C-0.67 2.68 -0.34 1.36 0 0 Z " fill="#EAEEE7" transform="translate(262,187)"/>
<path d="M0 0 C0.66 0 1.32 0 2 0 C1.67 1.65 1.34 3.3 1 5 C2.65 4.34 4.3 3.68 6 3 C5.67 3.99 5.34 4.98 5 6 C3.0625 6.8125 3.0625 6.8125 1 7 C0.34 6.34 -0.32 5.68 -1 5 C-0.625 2.375 -0.625 2.375 0 0 Z " fill="#10F411" transform="translate(146,73)"/>
<path d="M0 0 C1.32 0 2.64 0 4 0 C3.75 1.875 3.75 1.875 3 4 C0.9375 5.25 0.9375 5.25 -1 6 C-1 3 -1 3 0 0 Z " fill="#12F60D" transform="translate(257,103)"/>
<path d="M0 0 C0.66 0.33 1.32 0.66 2 1 C2 2.65 2 4.3 2 6 C1.01 6.495 1.01 6.495 0 7 C-0.33 7.66 -0.66 8.32 -1 9 C-1.66 9 -2.32 9 -3 9 C-2.01 6.03 -1.02 3.06 0 0 Z " fill="#E4E6E2" transform="translate(78,97)"/>
<path d="M0 0 C1.65 1.65 3.3 3.3 5 5 C3.35 5.33 1.7 5.66 0 6 C-1 3 -1 3 0 0 Z " fill="#F7F9F6" transform="translate(145,82)"/>
<path d="M0 0 C-0.33 1.65 -0.66 3.3 -1 5 C-2.65 4.67 -4.3 4.34 -6 4 C-2.25 0 -2.25 0 0 0 Z " fill="#06F907" transform="translate(215,195)"/>
<path d="M0 0 C0.12375 0.969375 0.2475 1.93875 0.375 2.9375 C0.58125 3.948125 0.7875 4.95875 1 6 C1.66 6.33 2.32 6.66 3 7 C1.1875 6.8125 1.1875 6.8125 -1 6 C-2.75 3.4375 -2.75 3.4375 -4 1 C-2 0 -2 0 0 0 Z " fill="#0DF90E" transform="translate(260,165)"/>
<path d="M0 0 C0.66 1.98 1.32 3.96 2 6 C-1.465 4.02 -1.465 4.02 -5 2 C-2 0 -2 0 0 0 Z " fill="#07FA08" transform="translate(214,72)"/>
<path d="M0 0 C2 1 2 1 4 4 C2.02 4.99 2.02 4.99 0 6 C-0.66 4.68 -1.32 3.36 -2 2 C-1.34 2 -0.68 2 0 2 C0 1.34 0 0.68 0 0 Z " fill="#EFF3EC" transform="translate(228,176)"/>
<path d="M0 0 C0.99 0.99 1.98 1.98 3 3 C2.34 4.32 1.68 5.64 1 7 C1 6.34 1 5.68 1 5 C0.34 5 -0.32 5 -1 5 C-0.67 3.35 -0.34 1.7 0 0 Z " fill="#EAECE3" transform="translate(259,171)"/>
<path d="M0 0 C0.33 0.99 0.66 1.98 1 3 C0.34 2.67 -0.32 2.34 -1 2 C-0.67 1.34 -0.34 0.68 0 0 Z M-3 2 C-2.34 2.66 -1.68 3.32 -1 4 C-2.375 5.5 -2.375 5.5 -4 7 C-4.66 7 -5.32 7 -6 7 C-5.625 5.0625 -5.625 5.0625 -5 3 C-4.34 2.67 -3.68 2.34 -3 2 Z " fill="#0DF712" transform="translate(174,153)"/>
<path d="M0 0 C1.9375 0.8125 1.9375 0.8125 4 2 C4.33 2.99 4.66 3.98 5 5 C4.21625 4.814375 3.4325 4.62875 2.625 4.4375 C0.02910225 3.74037734 0.02910225 3.74037734 -2 5 C-2 4.01 -2 3.02 -2 2 C-1.34 2 -0.68 2 0 2 C0 1.34 0 0.68 0 0 Z " fill="#F2FCF9" transform="translate(243,152)"/>
<path d="M0 0 C0.66 0 1.32 0 2 0 C2.33 1.98 2.66 3.96 3 6 C1.68 6.33 0.36 6.66 -1 7 C-0.67 4.69 -0.34 2.38 0 0 Z " fill="#11F412" transform="translate(264,88)"/>
<path d="M0 0 C0.91058531 3.07322544 1.08886184 5.80097361 1 9 C0.71125 8.360625 0.4225 7.72125 0.125 7.0625 C-0.82823451 4.84793921 -0.82823451 4.84793921 -3 4 C-2.01 2.68 -1.02 1.36 0 0 Z " fill="#EBEEE7" transform="translate(86,86)"/>
<path d="M0 0 C2.52588702 2.36292656 3.88820837 3.66462511 5 7 C3.68 6.67 2.36 6.34 1 6 C0.4465236 3.92446352 0 2.15634036 0 0 Z " fill="#E1E7E2" transform="translate(211,75)"/>
<path d="M0 0 C0.33 1.32 0.66 2.64 1 4 C0.01 4.66 -0.98 5.32 -2 6 C-2.66 5.67 -3.32 5.34 -4 5 C-2.25 1.125 -2.25 1.125 0 0 Z " fill="#15F310" transform="translate(96,74)"/>
</svg>
