<?xml version="1.0" standalone="no"?>
<!DOCTYPE svg PUBLIC "-//W3C//DTD SVG 20010904//EN"
 "http://www.w3.org/TR/2001/REC-SVG-20010904/DTD/svg10.dtd">
<svg version="1.0" xmlns="http://www.w3.org/2000/svg"
 width="200.000000pt" height="200.000000pt" viewBox="0 0 200.000000 200.000000"
 preserveAspectRatio="xMidYMid meet">
<metadata>
Created by potrace 1.16, written by Peter Selinger 2001-2019
</metadata>
<g transform="translate(0.000000,200.000000) scale(0.100000,-0.100000)"
fill="#000000" stroke="none">
<path d="M712 1976 c-29 -12 -58 -28 -64 -34 -7 -7 -17 -12 -23 -12 -7 0 -43
-33 -82 -73 -64 -66 -113 -144 -113 -181 0 -8 -4 -18 -10 -21 -5 -3 -10 -26
-10 -51 0 -24 -4 -44 -10 -44 -5 0 -10 -9 -10 -21 0 -11 -3 -18 -7 -16 -5 3
-24 -2 -43 -12 -26 -12 -36 -23 -38 -44 -5 -40 24 -70 63 -65 29 3 30 2 27
-30 -3 -19 0 -44 6 -55 6 -12 13 -40 15 -62 6 -47 27 -128 37 -135 3 -3 16
-21 28 -40 26 -41 68 -90 78 -90 4 0 14 -8 23 -17 20 -22 70 -57 93 -66 14 -5
18 -21 20 -83 l3 -78 99 -61 100 -61 35 18 c20 10 54 30 76 44 22 13 52 29 67
35 31 12 31 14 28 110 l-2 66 43 22 c49 26 169 138 169 158 0 7 4 13 8 13 31
0 94 246 77 299 -4 15 -1 17 20 14 13 -3 36 -2 50 1 22 6 25 11 25 55 0 46 -1
49 -32 56 -18 5 -40 8 -49 7 -13 -1 -17 13 -22 70 -3 39 -11 76 -17 82 -5 5
-10 18 -10 28 0 10 -4 18 -10 18 -5 0 -7 7 -4 15 4 8 1 15 -5 15 -6 0 -11 7
-11 15 0 8 -4 15 -9 15 -5 0 -13 9 -16 20 -8 24 -95 109 -112 110 -7 0 -13 4
-13 8 0 5 -34 25 -75 45 l-75 37 -133 0 c-115 -1 -139 -4 -185 -24z m308 -326
c41 -6 79 -15 84 -20 6 -6 18 -10 27 -10 9 0 61 -27 116 -60 54 -33 106 -60
116 -60 13 0 17 -9 17 -39 l0 -39 -35 8 c-19 4 -55 21 -81 36 -90 56 -189 104
-216 104 -15 0 -30 5 -33 10 -8 12 -232 13 -239 1 -3 -5 -22 -12 -42 -16 -20
-3 -44 -10 -53 -15 -9 -5 -23 -11 -31 -14 -16 -6 -52 -28 -60 -36 -23 -24 -99
-62 -135 -69 l-45 -8 0 37 c0 23 5 37 13 37 24 0 137 61 150 81 4 6 13 12 18
12 6 0 36 12 67 26 31 14 83 29 115 32 32 2 60 9 63 14 7 10 60 7 184 -12z"/>
<path d="M484 761 c-84 -44 -108 -62 -195 -146 -38 -37 -77 -88 -95 -122 -16
-32 -32 -60 -37 -61 -4 -2 -10 -22 -13 -44 -4 -22 -13 -42 -20 -45 -11 -4 -14
-34 -14 -132 0 -119 1 -128 23 -146 12 -11 33 -25 47 -32 19 -9 21 -12 7 -12
-10 -1 -15 -5 -12 -11 4 -6 153 -10 413 -10 l407 0 -3 112 c-2 95 0 119 16
148 29 54 71 70 180 70 106 0 149 -14 181 -58 19 -27 21 -43 21 -151 l0 -121
115 0 c70 0 115 4 115 10 0 6 -6 10 -12 10 -7 0 4 10 25 22 21 13 40 33 44 46
3 14 3 79 1 146 -5 97 -10 129 -26 158 -11 20 -18 39 -15 42 4 3 1 6 -5 6 -7
0 -12 9 -12 20 0 11 -4 20 -10 20 -5 0 -10 5 -10 10 0 19 -76 115 -133 166
-52 48 -72 61 -167 109 -63 33 -69 35 -94 35 -23 0 -25 -4 -28 -51 -2 -42 -7
-53 -28 -64 -14 -8 -74 -44 -134 -80 -103 -61 -146 -78 -146 -55 0 5 -17 17
-37 27 -21 9 -40 19 -43 22 -3 4 -23 15 -45 26 -21 11 -51 29 -65 41 -14 11
-33 23 -42 27 -14 5 -18 18 -18 57 0 50 0 50 -32 49 -18 0 -65 -17 -104 -38z"/>
<path d="M1107 213 c-4 -3 -7 -53 -7 -110 l0 -103 93 0 94 0 0 97 c1 53 -1
102 -4 110 -4 9 -28 13 -87 13 -46 0 -86 -3 -89 -7z"/>
</g>
</svg>
