<?xml version="1.0" encoding="UTF-8"?>
<!DOCTYPE svg PUBLIC "-//W3C//DTD SVG 1.1//EN" "http://www.w3.org/Graphics/SVG/1.1/DTD/svg11.dtd">
<svg xmlns="http://www.w3.org/2000/svg" version="1.1" width="200px" height="165px" style="shape-rendering:geometricPrecision; text-rendering:geometricPrecision; image-rendering:optimizeQuality; fill-rule:evenodd; clip-rule:evenodd" xmlns:xlink="http://www.w3.org/1999/xlink">
<g><path style="opacity:1" fill="#19447d" d="M 111.5,-0.5 C 117.833,-0.5 124.167,-0.5 130.5,-0.5C 154.722,7.24484 166.222,23.9115 165,49.5C 159.597,72.9032 144.931,85.5699 121,87.5C 97.0731,85.5741 82.4064,72.9074 77,49.5C 75.8112,23.8864 87.3112,7.2197 111.5,-0.5 Z"/></g>
<g><path style="opacity:1" fill="#c8343d" d="M 74.5,10.5 C 75.5,10.5 76.5,10.5 77.5,10.5C 76.3965,17.521 72.3965,22.021 65.5,24C 59.6073,28.9555 55.6073,35.1221 53.5,42.5C 56.1071,43.3184 58.7737,43.8184 61.5,44C 65.5,47.3333 65.5,50.6667 61.5,54C 55.1667,56.8333 48.8333,59.6667 42.5,62.5C 38.8782,60.6035 36.7115,57.6035 36,53.5C 34.3672,48.2686 32.5339,43.102 30.5,38C 34.1688,30.8929 38.3355,30.7262 43,37.5C 48.4636,22.5307 58.9636,13.5307 74.5,10.5 Z"/></g>
<g><path style="opacity:1" fill="#c62f38" d="M 115.5,7.5 C 135.821,7.0698 149.321,16.4031 156,35.5C 158.447,56.7842 149.614,70.9509 129.5,78C 106.802,80.9066 92.3022,71.4066 86,49.5C 84.3833,27.3058 94.2167,13.3058 115.5,7.5 Z"/></g>
<g><path style="opacity:1" fill="#8bd2f5" d="M 112.5,13.5 C 139.152,11.6525 151.652,23.9858 150,50.5C 144.163,67.3197 132.329,74.8197 114.5,73C 93.8257,65.1476 86.9924,50.6476 94,29.5C 98.6768,22.4164 104.843,17.0831 112.5,13.5 Z"/></g>
<g><path style="opacity:1" fill="#0e407a" d="M 117.5,20.5 C 119.833,20.5 122.167,20.5 124.5,20.5C 124.5,22.1667 124.5,23.8333 124.5,25.5C 133.24,25.8272 134.573,28.8272 128.5,34.5C 125.417,32.6544 122.084,32.1544 118.5,33C 117.483,34.0495 117.316,35.2161 118,36.5C 122.483,38.6632 126.983,40.8298 131.5,43C 136.619,51.6131 134.453,57.7797 125,61.5C 124.506,63.1341 124.34,64.8008 124.5,66.5C 122.167,66.5 119.833,66.5 117.5,66.5C 117.5,64.8333 117.5,63.1667 117.5,61.5C 114.729,61.5793 112.063,61.0793 109.5,60C 107.201,57.4651 107.201,54.7984 109.5,52C 112.566,52.5872 115.732,53.0872 119,53.5C 123.427,54.4123 124.927,52.9123 123.5,49C 117.291,47.9977 112.124,45.1643 108,40.5C 105.922,32.7395 108.756,27.7395 116.5,25.5C 117.452,23.9547 117.785,22.288 117.5,20.5 Z"/></g>
<g><path style="opacity:0.95" fill="#0d427b" d="M 199.5,86.5 C 199.5,89.8333 199.5,93.1667 199.5,96.5C 179.509,116.654 159.842,136.821 140.5,157C 137.114,160.018 133.447,162.518 129.5,164.5C 124.5,164.5 119.5,164.5 114.5,164.5C 94.5018,157.727 74.1685,151.727 53.5,146.5C 45.5375,148.648 38.2041,152.148 31.5,157C 26.273,159.31 22.4397,157.81 20,152.5C 13.3925,140.275 6.55913,128.275 -0.5,116.5C -0.5,113.833 -0.5,111.167 -0.5,108.5C 13.1393,100.678 26.8059,92.8451 40.5,85C 46.6373,82.5461 52.9706,81.5461 59.5,82C 83.4423,88.8039 107.109,96.4706 130.5,105C 135.833,111 135.833,117 130.5,123C 128.487,124.257 126.321,125.091 124,125.5C 107.524,121.089 91.024,116.756 74.5,112.5C 70.1649,114.007 69.4982,116.507 72.5,120C 89.902,125.225 107.402,130.059 125,134.5C 140.464,130.914 146.964,121.248 144.5,105.5C 156.969,97.5297 169.302,89.363 181.5,81C 189.055,77.9527 195.055,79.786 199.5,86.5 Z"/></g>
</svg>
