<?xml version="1.0" encoding="UTF-8"?>
<svg version="1.1" xmlns="http://www.w3.org/2000/svg" width="200" height="200">
<path d="M0 0 C17.49360085 -0.45242071 31.27350007 1.62170288 44.60058594 13.98608398 C45.37737513 14.70658133 45.37737513 14.70658133 46.16985703 15.44163418 C51.86036726 20.75016078 57.38636701 26.22234048 62.890625 31.72265625 C63.97199765 32.80080427 65.05344034 33.87888205 66.13494873 34.95689392 C68.37182799 37.1878594 70.6067075 39.42080547 72.84033203 41.6550293 C75.70684129 44.52164158 78.58025647 47.38122795 81.45532608 50.23925114 C83.67710104 52.44995456 85.89436388 54.66514017 88.11034393 56.88165092 C89.16932735 57.93945371 90.22993403 58.995634 91.29218292 60.05015755 C92.76367856 61.51192032 94.2287806 62.97980284 95.69238281 64.44946289 C96.52666809 65.28232315 97.36095337 66.11518341 98.22052002 66.97328186 C100 69 100 69 100 71 C94.78934229 74.78956925 90.64107233 75.72117734 84.203125 75.53515625 C79.50808484 74.750741 75.78875244 72.76822079 71.69140625 70.41015625 C65.45679862 67.14354761 57.84069577 66.94875265 51.1171875 68.7890625 C47.21680288 70.18129788 43.62517736 71.62755391 40.0625 73.75 C35.07293274 75.78655807 30.29513121 75.85383991 25 75 C21.36769673 73.36830127 18.19146059 71.37241318 15 69 C19.96194855 63.00499003 25.3476624 57.53572963 30.875 52.0625 C31.75414063 51.18787109 32.63328125 50.31324219 33.5390625 49.41210938 C35.6904346 47.27242952 37.84411792 45.13513403 40 43 C36.28952655 35.13807122 28.95876643 28.53737481 21.0703125 24.9609375 C14.2107135 22.8140401 7.10176051 22.00696604 0 21 C0 14.07 0 7.14 0 0 Z " fill="#FFFFFF" transform="translate(41,25)"/>
<path d="M0 0 C4.97523073 2.52694525 9.66474086 2.80330199 15.125 1.8125 C18.39625888 0.47947189 21.41945281 -1.04442881 24.49609375 -2.77734375 C31.06702975 -6.30202116 39.05553964 -6.23869053 46.1796875 -4.3984375 C49.90429427 -3.07615163 53.28903811 -1.72303808 56.625 0.4140625 C61.01314753 2.86868253 65.24866212 2.61067295 70.125 1.8125 C73.40200224 0.48590632 76.41717241 -1.04314438 79.49609375 -2.77734375 C85.86675111 -6.19459086 93.64407107 -6.13821191 100.62890625 -4.65625 C105.00384045 -3.25627106 109.07203317 -1.34041665 113.10546875 0.84765625 C115.67706808 2.076254 118.42124003 2.91124668 121.125 3.8125 C121.125 9.4225 121.125 15.0325 121.125 20.8125 C114.47397432 20.63747301 109.96753739 20.0001026 104.125 16.75 C98.27432452 13.636174 93.68528306 12.39825261 87.125 13.8125 C83.86274178 15.15624913 80.82719743 16.67131556 77.75390625 18.40234375 C71.20121789 21.91723305 63.20869719 21.87964985 56.10546875 20.0234375 C52.22099071 18.63118956 48.64786052 17.11127744 45.0625 15.0625 C40.64081531 13.18093205 36.85123558 12.96640468 32.125 13.8125 C28.91039211 15.15759122 25.92003618 16.68926862 22.88671875 18.40234375 C16.06379842 21.88618285 7.3970629 21.91743816 0.07421875 20.0234375 C-3.65241749 18.70222141 -7.03775977 17.34885702 -10.375 15.2109375 C-14.76314753 12.75631747 -18.99866212 13.01432705 -23.875 13.8125 C-27.15200224 15.13909368 -30.16717241 16.66814438 -33.24609375 18.40234375 C-38.25245812 21.08777843 -40.80195218 20.8125 -46.875 20.8125 C-46.875 14.8725 -46.875 8.9325 -46.875 2.8125 C-44.235 2.1525 -41.595 1.4925 -38.875 0.8125 C-36.08107456 -0.38226334 -36.08107456 -0.38226334 -33.625 -1.75 C-22.53805291 -7.69952415 -10.67535259 -6.07241716 0 0 Z " fill="#FFFFFF" transform="translate(62.875,117.1875)"/>
<path d="M0 0 C0.87785156 0.53947266 0.87785156 0.53947266 1.7734375 1.08984375 C6.47751912 3.77789039 10.37778204 5.23709275 15.7734375 4.08984375 C18.96367163 2.71205626 21.99195042 1.16959638 25.0390625 -0.5 C32.43742768 -4.31544262 42.83753908 -4.18190559 50.8359375 -2.12109375 C54.36270732 -0.71253629 57.58652023 0.98517008 60.8984375 2.83984375 C64.70346361 4.49420293 67.75327604 4.94321136 71.7734375 4.08984375 C74.9962804 2.71389049 78.05584357 1.16864302 81.13671875 -0.5 C88.28479457 -4.32289684 98.87304279 -4.23885388 106.68359375 -2.12109375 C108.8118501 -1.16465608 110.78136903 -0.12196158 112.7734375 1.08984375 C116.7505753 3.15489607 119.27864765 4.19088578 123.7734375 5.08984375 C123.7734375 10.69984375 123.7734375 16.30984375 123.7734375 22.08984375 C116.58258353 22.54640591 112.13062255 21.35023829 105.7734375 18.08984375 C100.97338349 15.69981686 97.20399814 14.28861349 91.7734375 15.08984375 C88.61167282 16.48767656 85.58072407 18.03017466 82.54296875 19.6796875 C75.27325105 23.38119397 64.44982944 23.93167945 56.64257812 21.3984375 C53.37050813 20.00193681 50.33607106 18.37732105 47.23828125 16.62109375 C43.15266321 14.81549931 40.16316862 14.32688614 35.7734375 15.08984375 C32.24928407 16.57865677 32.24928407 16.57865677 28.8359375 18.58984375 C19.99818429 23.15312071 10.5913515 24.04858147 0.9453125 21.27734375 C-1.21495084 20.33682094 -3.20002082 19.28773597 -5.2265625 18.08984375 C-10.03460263 15.65526411 -13.78257249 14.70589919 -19.2265625 15.08984375 C-22.68442515 16.31223538 -22.68442515 16.31223538 -25.9765625 18.02734375 C-34.52196637 22.23049007 -34.52196637 22.23049007 -39.9140625 22.15234375 C-42.04875 22.12140625 -42.04875 22.12140625 -44.2265625 22.08984375 C-44.2265625 16.47984375 -44.2265625 10.86984375 -44.2265625 5.08984375 C-41.7825 4.22359375 -41.7825 4.22359375 -39.2890625 3.33984375 C-35.69739627 2.0652347 -32.43351689 0.67274597 -29.1015625 -1.16015625 C-20.4859691 -5.07916263 -8.24661087 -4.43926754 0 0 Z " fill="#FFFFFF" transform="translate(60.2265625,152.91015625)"/>
<path d="M0 0 C5.35315942 3.19347177 9.2975409 7.30636386 11.85546875 13.03125 C13.53369604 20.50698973 12.26884955 26.4808563 8.54296875 33.09375 C4.5706759 37.67788891 0.02854205 40.64567929 -6.0703125 41.4296875 C-13.43280951 41.53623594 -18.69631258 40.55294111 -24.2109375 35.48046875 C-28.9734187 30.30485665 -30.96364128 25.32384368 -30.69140625 18.1640625 C-29.8219791 10.48412272 -26.42083565 6.60625675 -20.61328125 1.66015625 C-15.10915394 -2.33831305 -6.24013151 -2.30160653 0 0 Z " fill="#FFFFFF" transform="translate(146.45703125,25.90625)"/>
</svg>
