<?xml version="1.0" encoding="UTF-8"?>
<svg version="1.1" xmlns="http://www.w3.org/2000/svg" width="200" height="200">
<path d="M0 0 C1.31206924 -0.01142029 2.62413849 -0.02284058 3.97596741 -0.03460693 C5.42846642 -0.03709754 6.88096586 -0.03934776 8.33346558 -0.04138184 C9.86461362 -0.05064167 11.39575705 -0.06069146 12.92689514 -0.07147217 C17.08628624 -0.09769672 21.2456128 -0.11060618 25.40507364 -0.11949348 C28.00627284 -0.1253606 30.60745451 -0.13357142 33.20864487 -0.14250183 C41.35437821 -0.16984965 49.50007137 -0.18918223 57.64584744 -0.19690561 C67.03510521 -0.20585775 76.42377931 -0.24091105 85.81285965 -0.2989068 C93.07844127 -0.34222039 100.34385919 -0.3623185 107.60956848 -0.36498785 C111.94498959 -0.36707888 116.27986198 -0.37878303 120.61514664 -0.41462708 C124.69805983 -0.44772716 128.78001609 -0.4518347 132.86301613 -0.43434906 C134.35529848 -0.43281541 135.84763371 -0.44140028 137.33978462 -0.46126556 C147.52827651 -0.58886806 154.92334618 0.83074784 162.49905586 8.07106781 C164.09617821 9.75637413 165.36687973 11.32314484 166.62594604 13.28088379 C167.64371124 14.86044861 167.64371124 14.86044861 168.68203735 16.47192383 C171.76234767 22.74074031 171.15132587 29.50093552 171.08004761 36.32580566 C171.07891792 37.84420746 171.07955535 39.36261143 171.08181763 40.88101196 C171.08296099 44.98390683 171.05951335 49.08632989 171.0315218 53.18911552 C171.00644485 57.48388118 171.0041612 61.77865875 170.99942017 66.07348633 C170.98700882 74.19774663 170.95421228 82.32179055 170.91402221 90.44595575 C170.86924703 99.6986553 170.84730303 108.9513654 170.82724047 118.20414639 C170.78547791 137.22984801 170.71516184 156.25534847 170.62594604 175.28088379 C169.96594604 175.28088379 169.30594604 175.28088379 168.62594604 175.28088379 C168.48157104 176.04400879 168.33719604 176.80713379 168.18844604 177.59338379 C167.62594604 180.28088379 167.62594604 180.28088379 166.62594604 183.28088379 C165.96594604 183.28088379 165.30594604 183.28088379 164.62594604 183.28088379 C164.62594604 184.27088379 164.62594604 185.26088379 164.62594604 186.28088379 C163.96594604 186.28088379 163.30594604 186.28088379 162.62594604 186.28088379 C162.62594604 186.94088379 162.62594604 187.60088379 162.62594604 188.28088379 C157.96320999 193.2103895 152.96157124 194.69951241 146.31758118 195.00241089 C143.39339004 195.04143449 140.47349469 195.00510019 137.54953003 194.96203613 C135.93246016 194.96034139 134.31538568 194.96129817 132.69831848 194.96469116 C128.33081235 194.96640545 123.96430453 194.93124857 119.59702945 194.88924742 C115.0246943 194.851618 110.45233366 194.84820546 105.87986755 194.84109497 C97.23136848 194.82248187 88.58332707 194.77329302 79.93502909 194.71299803 C70.08501214 194.64582251 60.23497279 194.61291618 50.38478363 194.58282542 C30.1315828 194.52019062 9.87879331 194.4147247 -10.37405396 194.28088379 C-10.37405396 193.62088379 -10.37405396 192.96088379 -10.37405396 192.28088379 C-11.05467896 192.11588379 -11.73530396 191.95088379 -12.43655396 191.78088379 C-18.20776172 188.83388408 -22.45684285 182.98579445 -25.37405396 177.28088379 C-25.74878407 174.19365597 -25.74878407 174.19365597 -25.74827576 170.67027283 C-25.75225016 170.01953814 -25.75622457 169.36880345 -25.76031941 168.69834954 C-25.76991635 166.52568509 -25.75814082 164.35367607 -25.74636841 162.18103027 C-25.74879722 160.62029783 -25.75251741 159.05956693 -25.75743103 157.49884033 C-25.76683068 153.26544855 -25.75742284 149.03228835 -25.7440989 144.79891467 C-25.73277793 140.36851135 -25.73689236 135.93811932 -25.73884583 131.50770569 C-25.7397285 124.06886005 -25.72865312 116.6301056 -25.7102356 109.19128418 C-25.6890606 100.58943407 -25.68555991 91.98771745 -25.69179755 83.38584656 C-25.69749065 75.11142618 -25.69184669 66.83705283 -25.68062401 58.56263924 C-25.6759781 55.04079379 -25.67510413 51.51897712 -25.67720985 47.99712944 C-25.67909246 43.85125632 -25.670991 39.70551923 -25.65514946 35.55967712 C-25.65090451 34.03749212 -25.65005748 32.51529332 -25.65283966 30.99310493 C-25.65605917 28.91675737 -25.64698591 26.84081682 -25.63475037 24.76451111 C-25.6326975 23.6021717 -25.63064463 22.43983229 -25.62852955 21.24227047 C-25.38180469 18.3710807 -24.87145831 16.708458 -23.37405396 14.28088379 C-22.71405396 14.28088379 -22.05405396 14.28088379 -21.37405396 14.28088379 C-21.01440552 13.15746582 -21.01440552 13.15746582 -20.64749146 12.01135254 C-19.18517828 8.8759019 -17.76073833 7.63482822 -14.99905396 5.59338379 C-14.22819458 5.0120166 -13.45733521 4.43064941 -12.66311646 3.83166504 C-8.25098488 0.84255884 -5.40267605 0.02816789 0 0 Z " fill="#0F5999" transform="translate(27.374053955078125,2.7191162109375)"/>
<path d="M0 0 C6.93 0 13.86 0 21 0 C21.37577663 17.3413957 20.81657544 34.45389466 19.5625 51.75 C19.49501556 52.69889099 19.42753113 53.64778198 19.35800171 54.62542725 C19.16337006 57.32896643 18.96072647 60.03174336 18.75390625 62.734375 C18.66319351 63.96678421 18.66319351 63.96678421 18.57064819 65.22409058 C18.11703315 70.88296685 18.11703315 70.88296685 17 72 C15.00200428 72.09873816 13.00042842 72.12971799 11 72.125 C9.906875 72.12757812 8.81375 72.13015625 7.6875 72.1328125 C5 72 5 72 4 71 C3.71251386 69.33961702 3.48420722 67.66891421 3.28125 65.99609375 C3.15403564 64.95428955 3.02682129 63.91248535 2.89575195 62.83911133 C0.44579001 41.78092522 -0.12406286 21.17339496 0 0 Z " fill="#C12E39" transform="translate(89,26)"/>
<path d="M0 0 C1.22976562 -0.01740234 1.22976562 -0.01740234 2.484375 -0.03515625 C7.53790186 -0.01078233 10.95428687 0.67106867 15.375 3.375 C15.375 4.035 15.375 4.695 15.375 5.375 C18.04715562 5.78610086 20.68595924 6.11153255 23.375 6.375 C24.23480469 6.46652344 25.09460938 6.55804688 25.98046875 6.65234375 C33.48309855 7.0766304 39.00381361 5.2233777 45.84716797 2.52270508 C53.12971271 -0.20353465 59.66352875 -0.23114185 67.375 0.375 C67.375 1.035 67.375 1.695 67.375 2.375 C68.138125 2.49875 68.90125 2.6225 69.6875 2.75 C72.375 3.375 72.375 3.375 75.375 5.375 C77.28348362 5.81055111 77.28348362 5.81055111 79.3515625 5.97265625 C80.104375 6.05193359 80.8571875 6.13121094 81.6328125 6.21289062 C82.80457031 6.32407227 82.80457031 6.32407227 84 6.4375 C92.25339982 7.25339982 92.25339982 7.25339982 93.375 8.375 C93.41563832 10.04117115 93.417721 11.70888095 93.375 13.375 C90.61047967 14.75726016 88.3288637 14.47025387 85.25 14.4375 C84.15429688 14.42847656 83.05859375 14.41945312 81.9296875 14.41015625 C81.08664063 14.39855469 80.24359375 14.38695312 79.375 14.375 C79.375 13.715 79.375 13.055 79.375 12.375 C77.79201974 11.8946682 76.20860022 11.41578388 74.625 10.9375 C73.74328125 10.67066406 72.8615625 10.40382812 71.953125 10.12890625 C70.67695313 9.75572266 70.67695313 9.75572266 69.375 9.375 C68.73046875 9.18164062 68.0859375 8.98828125 67.421875 8.7890625 C64.71760826 8.24201618 62.13262215 8.20473514 59.375 8.1875 C58.34375 8.17332031 57.3125 8.15914062 56.25 8.14453125 C53.35507467 8.37659728 51.85477096 8.95270066 49.375 10.375 C47.05184969 11.0763284 44.71710921 11.73985174 42.375 12.375 C41.323125 12.74625 40.27125 13.1175 39.1875 13.5 C32.61477243 15.00849485 25.40198322 15.78817576 19.375 12.375 C17.05293475 11.67008733 14.71906932 11.00287571 12.375 10.375 C11.48167969 10.10429687 11.48167969 10.10429687 10.5703125 9.828125 C2.27649165 8.11623315 -7.55397758 8.80622666 -15.625 11.375 C-16.615 12.035 -17.605 12.695 -18.625 13.375 C-23.33093518 14.75909858 -30.1295651 15.62271745 -34.625 13.375 C-33.75 8.5 -33.75 8.5 -32.625 7.375 C-29.30097303 6.8368242 -25.96775174 6.40879523 -22.62890625 5.97265625 C-19.52361013 5.64396505 -19.52361013 5.64396505 -17.625 3.375 C-11.57927734 0.62694424 -6.59731772 -0.0942474 0 0 Z " fill="#47B9DB" transform="translate(70.625,146.625)"/>
<path d="M0 0 C2.40234375 0.94921875 2.40234375 0.94921875 4.6875 2.53125 C8.35998312 4.44939586 11.73555368 4.38781335 15.77734375 4.32421875 C16.87175781 4.34162109 16.87175781 4.34162109 17.98828125 4.359375 C23.20208163 4.33144393 26.70010864 3.15448534 31.40234375 0.94921875 C32.39234375 0.94921875 33.38234375 0.94921875 34.40234375 0.94921875 C34.40234375 0.28921875 34.40234375 -0.37078125 34.40234375 -1.05078125 C45.20485045 -3.51701391 54.2013396 -2.73888053 64.16821289 1.7355957 C69.06032593 3.92312593 73.10388142 4.59000097 78.40234375 4.94921875 C79.39234375 5.93921875 79.39234375 5.93921875 80.40234375 6.94921875 C79.84678819 11.50477431 79.84678819 11.50477431 78.40234375 12.94921875 C76.21184354 12.85903879 74.02387775 12.70255667 71.83984375 12.51171875 C70.64230469 12.40988281 69.44476563 12.30804688 68.2109375 12.203125 C67.28410156 12.11933594 66.35726562 12.03554687 65.40234375 11.94921875 C64.90734375 10.46421875 64.90734375 10.46421875 64.40234375 8.94921875 C62.54490168 8.33854731 62.54490168 8.33854731 60.40234375 7.94921875 C59.78359375 7.61921875 59.16484375 7.28921875 58.52734375 6.94921875 C51.22962967 3.51500036 41.10642889 4.28347061 33.40234375 5.94921875 C33.40234375 6.60921875 33.40234375 7.26921875 33.40234375 7.94921875 C30.03136992 9.44742934 28.19792256 9.94921875 24.40234375 9.94921875 C24.40234375 10.60921875 24.40234375 11.26921875 24.40234375 11.94921875 C21.71421885 12.03086034 19.02862075 12.09001543 16.33984375 12.13671875 C15.2115918 12.17442383 15.2115918 12.17442383 14.06054688 12.21289062 C7.36072291 12.29990133 3.16780778 10.44256933 -2.72265625 7.26171875 C-10.45023585 3.97966809 -19.76306968 5.48461092 -27.46875 8.08203125 C-29.79502122 8.97780169 -29.79502122 8.97780169 -32.59765625 10.63671875 C-36.91251416 12.52446909 -40.95595102 12.19689867 -45.59765625 11.94921875 C-45.97984392 10.29307218 -46.31160727 8.62464851 -46.59765625 6.94921875 C-44.28010804 4.63167054 -39.03622519 5.03546602 -35.89453125 4.64453125 C-32.52574865 3.9340534 -30.47740376 2.76643873 -27.59765625 0.94921875 C-26.60765625 0.94921875 -25.61765625 0.94921875 -24.59765625 0.94921875 C-24.59765625 0.28921875 -24.59765625 -0.37078125 -24.59765625 -1.05078125 C-17.65096732 -4.52412572 -7.13123059 -2.07673741 0 0 Z " fill="#48BCDC" transform="translate(83.59765625,134.05078125)"/>
<path d="M0 0 C1.2384668 -0.04350586 1.2384668 -0.04350586 2.50195312 -0.08789062 C8.67125925 -0.15109077 12.48756953 1.19861332 17.8125 4.3125 C17.8125 4.9725 17.8125 5.6325 17.8125 6.3125 C28.00965382 9.24658671 36.56397268 6.90890665 45.8125 2.3125 C46.43769531 1.93609375 47.06289062 1.5596875 47.70703125 1.171875 C53.38997917 -1.14769558 61.82804534 -0.55659943 67.65625 1.140625 C70.42593204 2.37774964 72.99391293 3.82528844 75.59765625 5.375 C78.69682653 6.68681811 81.73204398 7.00577422 85.0625 7.4375 C86.32578125 7.60507813 87.5890625 7.77265625 88.890625 7.9453125 C89.85484375 8.06648437 90.8190625 8.18765625 91.8125 8.3125 C91.8125 9.9625 91.8125 11.6125 91.8125 13.3125 C83.18853795 13.79911855 76.57449333 13.23730024 68.8125 9.3125 C68.8125 8.6525 68.8125 7.9925 68.8125 7.3125 C60.52783132 7.44515117 53.35168287 8.23819975 45.5 10.875 C39.3655162 12.87454455 33.71019684 13.82606419 27.25 13.875 C26.16174927 13.89639038 26.16174927 13.89639038 25.05151367 13.91821289 C21.12089606 13.84526425 18.39330497 13.2646778 14.94140625 11.35546875 C10.21783635 8.75567447 5.62251644 8.43296626 0.3125 8.0625 C-1.06421875 7.94648438 -1.06421875 7.94648438 -2.46875 7.828125 C-4.70758322 7.64155557 -6.94646751 7.47001257 -9.1875 7.3125 C-9.1875 7.9725 -9.1875 8.6325 -9.1875 9.3125 C-9.95835938 9.51746094 -10.72921875 9.72242188 -11.5234375 9.93359375 C-12.52632812 10.20300781 -13.52921875 10.47242188 -14.5625 10.75 C-15.56023438 11.01683594 -16.55796875 11.28367188 -17.5859375 11.55859375 C-20.14167701 12.21434356 -20.14167701 12.21434356 -22.1875 13.3125 C-24.3947923 13.38342842 -26.60417452 13.39665025 -28.8125 13.375 C-30.00101563 13.36597656 -31.18953125 13.35695312 -32.4140625 13.34765625 C-33.32929687 13.33605469 -34.24453125 13.32445312 -35.1875 13.3125 C-34.3125 8.4375 -34.3125 8.4375 -33.1875 7.3125 C-31.35868904 7.01264625 -29.52404532 6.74811913 -27.6875 6.5 C-22.69249197 5.71413461 -18.55025828 4.44682205 -14.02734375 2.21484375 C-9.36452652 -0.07201565 -5.07790479 0.0580996 0 0 Z " fill="#49BCDD" transform="translate(71.1875,161.6875)"/>
<path d="M0 0 C0 1.32 0 2.64 0 4 C-1.485 4.309375 -1.485 4.309375 -3 4.625 C-7.71763923 5.98252476 -11.53454588 8.54299821 -15 12 C-16.11635105 14.70218446 -16.11635105 14.70218446 -16 17 C-16.66 17 -17.32 17 -18 17 C-18.79247104 23.91203413 -19.19400963 30.75662066 -19.31640625 37.7109375 C-19.3373233 38.7567952 -19.35824036 39.80265289 -19.37979126 40.88020325 C-19.4466822 44.37838986 -19.50557272 47.8766376 -19.5625 51.375 C-19.59327133 53.19785019 -19.59327133 53.19785019 -19.62466431 55.05752563 C-20.01890112 79.15014139 -20.13911317 103.24413523 -20.18122482 127.33966827 C-20.18749507 130.18526265 -20.19740325 133.03082361 -20.20828247 135.87640381 C-20.22493113 140.39614401 -20.23109315 144.91578321 -20.22925949 149.4355526 C-20.23005682 151.11354763 -20.23418422 152.79154486 -20.24187088 154.46952248 C-20.25169487 156.78472433 -20.24887389 159.09958716 -20.24291992 161.41479492 C-20.24434494 162.71656174 -20.24576996 164.01832855 -20.24723816 165.35954285 C-19.86719884 170.95543013 -18.14217294 175.85878495 -16 181 C-15.67 181.99 -15.34 182.98 -15 184 C-14.34 184 -13.68 184 -13 184 C-13.495 185.98 -13.495 185.98 -14 188 C-22.37535821 178.2664756 -22.37535821 178.2664756 -22.3742218 170.38938904 C-22.37819621 169.73865435 -22.38217061 169.08791967 -22.38626546 168.41746575 C-22.3958624 166.2448013 -22.38408686 164.07279228 -22.37231445 161.90014648 C-22.37474326 160.33941404 -22.37846345 158.77868314 -22.38337708 157.21795654 C-22.39277672 152.98456477 -22.38336888 148.75140456 -22.37004495 144.51803088 C-22.35872397 140.08762756 -22.36283841 135.65723553 -22.36479187 131.2268219 C-22.36567455 123.78797626 -22.35459916 116.34922181 -22.33618164 108.91040039 C-22.31500664 100.30855028 -22.31150595 91.70683366 -22.3177436 83.10496277 C-22.3234367 74.83054239 -22.31779273 66.55616904 -22.30657005 58.28175545 C-22.30192415 54.75991001 -22.30105017 51.23809333 -22.3031559 47.71624565 C-22.30503851 43.57037253 -22.29693704 39.42463544 -22.2810955 35.27879333 C-22.27685055 33.75660833 -22.27600352 32.23440953 -22.27878571 30.71222115 C-22.28200522 28.63587358 -22.27293195 26.55993303 -22.26069641 24.48362732 C-22.25864354 23.32128791 -22.25659067 22.1589485 -22.25447559 20.96138668 C-22.00775073 18.09019691 -21.49740435 16.42757421 -20 14 C-19.34 14 -18.68 14 -18 14 C-17.64035156 12.87658203 -17.64035156 12.87658203 -17.2734375 11.73046875 C-15.81112432 8.59501811 -14.38668438 7.35394443 -11.625 5.3125 C-10.85414062 4.73113281 -10.08328125 4.14976562 -9.2890625 3.55078125 C-6.02217546 1.33754891 -3.99559576 0 0 0 Z " fill="#2869A2" transform="translate(24,3)"/>
<path d="M0 0 C2.35556439 1.62042122 2.91075862 2.51841816 3.43359375 5.33984375 C3.44419989 12.39292682 3.44419989 12.39292682 1.125 15.5625 C-2.82580869 18.23510588 -6.29636733 18.63210874 -11 18 C-13.5 16.5625 -13.5 16.5625 -15 14 C-15.9229146 9.28874071 -15.64646816 6.055898 -13.125 1.9375 C-8.86673319 -0.70262542 -4.90558148 -0.99774539 0 0 Z " fill="#B3303E" transform="translate(105,107)"/>
<path d="M0 0 C6.93 0 13.86 0 21 0 C21 9.57 21 19.14 21 29 C20.67 29 20.34 29 20 29 C20 19.76 20 10.52 20 1 C14.06 1 8.12 1 2 1 C2.11974049 6.23291407 2.24231983 11.46559616 2.37231445 16.69824219 C2.4156833 18.47912603 2.45735694 20.26005198 2.49731445 22.04101562 C2.5549699 24.59778548 2.6186777 27.15434298 2.68359375 29.7109375 C2.70866249 30.90944839 2.70866249 30.90944839 2.73423767 32.13217163 C2.75392991 36.19806368 2.75392991 36.19806368 4 40 C4.08471364 41.81341842 4.10721083 43.62994161 4.09765625 45.4453125 C4.09443359 46.52167969 4.09121094 47.59804687 4.08789062 48.70703125 C4.07951172 49.83496094 4.07113281 50.96289062 4.0625 52.125 C4.05798828 53.26066406 4.05347656 54.39632812 4.04882812 55.56640625 C4.03701615 58.37765638 4.02054507 61.1888023 4 64 C3.67 64 3.34 64 3 64 C0.44736685 42.58762096 -0.12617919 21.53458255 0 0 Z " fill="#8A364E" transform="translate(89,26)"/>
<path d="M0 0 C8.05544549 1.71314904 14.41340942 6.23861267 19 13 C21.59965277 17.25176855 23.64090201 20.87278394 23 26 C22.34 26 21.68 26 21 26 C21 44.81 21 63.62 21 83 C20.67 83 20.34 83 20 83 C19.99191315 82.31032639 19.98382629 81.62065277 19.97549438 80.91007996 C19.89708696 74.36467494 19.80966331 67.81945697 19.71247292 61.27430248 C19.66283187 57.91052951 19.61650338 54.54678315 19.578125 51.18286133 C19.53212965 47.30272246 19.47419289 43.42291128 19.4140625 39.54296875 C19.40251129 38.35293747 19.39096008 37.16290619 19.37905884 35.93681335 C19.77216434 23.88748652 19.77216434 23.88748652 15.42739868 13.32243347 C14.95635712 12.88603043 14.48531555 12.44962738 14 12 C14 11.34 14 10.68 14 10 C13.38125 9.690625 12.7625 9.38125 12.125 9.0625 C10.75 8.375 9.375 7.6875 8 7 C8 6.34 8 5.68 8 5 C5.69 4.67 3.38 4.34 1 4 C0.67 2.68 0.34 1.36 0 0 Z " fill="#155A96" transform="translate(175,3)"/>
<path d="M0 0 C-3.69942881 1.16422003 -6.01128332 0.51565639 -9.73046875 -0.51074219 C-13.79407969 -1.38676158 -17.86253603 -1.20762217 -22 -1.125 C-22.87011719 -1.11597656 -23.74023438 -1.10695312 -24.63671875 -1.09765625 C-26.7579342 -1.07434619 -28.87900562 -1.03848579 -31 -1 C-31 -1.66 -31 -2.32 -31 -3 C-20.78033272 -7.41931558 -9.45167791 -5.19842285 0 0 Z " fill="#2482B5" transform="translate(148,143)"/>
<path d="M0 0 C7.12632996 1.51555434 13.20250296 5.32568619 17.71484375 11.01953125 C19.95348879 14.4693581 21.52438019 18.1720686 23 22 C22.01 22 21.02 22 20 22 C20 20.68 20 19.36 20 18 C19.34 18 18.68 18 18 18 C16.21694476 15.36107824 15.00940379 13.02821137 14 10 C12.08333333 8.83333333 12.08333333 8.83333333 10 8 C9.34 7.67 8.68 7.34 8 7 C8 6.34 8 5.68 8 5 C5.69 4.67 3.38 4.34 1 4 C0.67 2.68 0.34 1.36 0 0 Z " fill="#4A7DAB" transform="translate(175,3)"/>
<path d="M0 0 C0.99 0.33 1.98 0.66 3 1 C2.01 3.64 1.02 6.28 0 9 C-0.66 9 -1.32 9 -2 9 C-2 9.99 -2 10.98 -2 12 C-2.66 12 -3.32 12 -4 12 C-4 12.66 -4 13.32 -4 14 C-5.79296875 15.5078125 -5.79296875 15.5078125 -8.1875 17.125 C-8.96480469 17.66382813 -9.74210938 18.20265625 -10.54296875 18.7578125 C-13.27108181 20.13704931 -14.98614999 20.24624707 -18 20 C-18 19.34 -18 18.68 -18 18 C-17.33613281 17.70867187 -16.67226562 17.41734375 -15.98828125 17.1171875 C-10.20690287 14.43327754 -6.78997483 12.09277867 -3 7 C-2.34 7 -1.68 7 -1 7 C-0.67 4.69 -0.34 2.38 0 0 Z " fill="#4E82AE" transform="translate(194,177)"/>
<path d="M0 0 C0 1.32 0 2.64 0 4 C-0.969375 4.185625 -1.93875 4.37125 -2.9375 4.5625 C-8.07298122 6.01177691 -12.19878201 9.33745305 -16 13 C-16.33 13.99 -16.66 14.98 -17 16 C-17.66 16 -18.32 16 -19 16 C-19 16.99 -19 17.98 -19 19 C-19.66 19 -20.32 19 -21 19 C-20.67 17.35 -20.34 15.7 -20 14 C-19.34 14 -18.68 14 -18 14 C-17.76023437 13.25105469 -17.52046875 12.50210937 -17.2734375 11.73046875 C-15.81112432 8.59501811 -14.38668438 7.35394443 -11.625 5.3125 C-10.85414062 4.73113281 -10.08328125 4.14976562 -9.2890625 3.55078125 C-6.02217546 1.33754891 -3.99559576 0 0 0 Z " fill="#4A7FAD" transform="translate(24,3)"/>
<path d="M0 0 C0.33 0 0.66 0 1 0 C1 5.28 1 10.56 1 16 C-1.86633795 17.43316898 -4.37235501 17.13200361 -7.5625 17.125 C-9.32787109 17.12886719 -9.32787109 17.12886719 -11.12890625 17.1328125 C-14 17 -14 17 -15 16 C-15.07179964 14.48071962 -15.08392007 12.95832518 -15.0625 11.4375 C-15.05347656 10.61121094 -15.04445313 9.78492187 -15.03515625 8.93359375 C-15.02355469 8.29550781 -15.01195313 7.65742187 -15 7 C-14.67 7 -14.34 7 -14 7 C-13.67 9.31 -13.34 11.62 -13 14 C-9.04 14 -5.08 14 -1 14 C-0.67 9.38 -0.34 4.76 0 0 Z " fill="#394878" transform="translate(107,83)"/>
<path d="M0 0 C2.31 0.33 4.62 0.66 7 1 C7 1.66 7 2.32 7 3 C8.15628906 2.98259766 8.15628906 2.98259766 9.3359375 2.96484375 C10.33882812 2.95582031 11.34171875 2.94679687 12.375 2.9375 C13.37273437 2.92589844 14.37046875 2.91429687 15.3984375 2.90234375 C18 3 18 3 20 4 C20 6.31 20 8.62 20 11 C15.38 11 10.76 11 6 11 C6 10.67 6 10.34 6 10 C10.29 10 14.58 10 19 10 C19 8.35 19 6.7 19 5 C17.57107422 4.94392578 17.57107422 4.94392578 16.11328125 4.88671875 C14.85902344 4.82097656 13.60476562 4.75523437 12.3125 4.6875 C11.07113281 4.62949219 9.82976562 4.57148438 8.55078125 4.51171875 C4.92997897 3.98990896 2.91212645 3.16599845 0 1 C0 0.67 0 0.34 0 0 Z " fill="#2686B7" transform="translate(144,165)"/>
<path d="M0 0 C0.66 0 1.32 0 2 0 C2.19335938 0.67546875 2.38671875 1.3509375 2.5859375 2.046875 C2.84632812 2.93890625 3.10671875 3.8309375 3.375 4.75 C3.63023438 5.63171875 3.88546875 6.5134375 4.1484375 7.421875 C4.9209934 9.76080572 5.83625676 11.83442562 7 14 C7.66 14 8.32 14 9 14 C8.67 15.32 8.34 16.64 8 18 C-0.47916667 8.14583333 -0.47916667 8.14583333 0 0 Z " fill="#608EB6" transform="translate(2,173)"/>
<path d="M0 0 C0 0.33 0 0.66 0 1 C-1.258125 0.87625 -2.51625 0.7525 -3.8125 0.625 C-4.87404297 0.52058594 -4.87404297 0.52058594 -5.95703125 0.4140625 C-8 0 -8 0 -11 -2 C-13.02921669 -2.27401018 -13.02921669 -2.27401018 -15.23046875 -2.1953125 C-16.03291016 -2.18886719 -16.83535156 -2.18242187 -17.66210938 -2.17578125 C-18.49548828 -2.15902344 -19.32886719 -2.14226562 -20.1875 -2.125 C-21.4549707 -2.11146484 -21.4549707 -2.11146484 -22.74804688 -2.09765625 C-24.83215243 -2.07410703 -26.91611217 -2.03823647 -29 -2 C-29 -2.33 -29 -2.66 -29 -3 C-19.12757105 -5.31738313 -8.81149334 -5.34898241 0 0 Z " fill="#298BBB" transform="translate(147,136)"/>
<path d="M0 0 C0.33 0.66 0.66 1.32 1 2 C2.64363134 2.72159424 4.31050386 3.39351421 6 4 C6 4.66 6 5.32 6 6 C8.97 6.33 11.94 6.66 15 7 C15 7.66 15 8.32 15 9 C12.03 9 9.06 9 6 9 C6 8.34 6 7.68 6 7 C5.195625 6.773125 4.39125 6.54625 3.5625 6.3125 C2.716875 5.879375 1.87125 5.44625 1 5 C0.1875 2.375 0.1875 2.375 0 0 Z " fill="#3670A4" transform="translate(11,188)"/>
<path d="M0 0 C0 0.66 0 1.32 0 2 C-1.01320312 2.12117187 -2.02640625 2.24234375 -3.0703125 2.3671875 C-4.4219151 2.53613783 -5.77347542 2.70542669 -7.125 2.875 C-7.79015625 2.95363281 -8.4553125 3.03226563 -9.140625 3.11328125 C-13.30378644 3.64388026 -17.06671292 4.54186554 -21 6 C-16.08100534 -1.37849199 -7.99196643 -0.35432363 0 0 Z " fill="#37A1CA" transform="translate(135,167)"/>
<path d="M0 0 C1.21429688 -0.01417969 2.42859375 -0.02835938 3.6796875 -0.04296875 C6.96844421 0.17702745 9.17865948 0.77034382 12.125 2.1875 C9.72440183 3.38779908 8.23139351 3.30209743 5.5546875 3.28515625 C4.65878906 3.28193359 3.76289062 3.27871094 2.83984375 3.27539062 C1.90269531 3.26701172 0.96554688 3.25863281 0 3.25 C-0.94488281 3.24548828 -1.88976562 3.24097656 -2.86328125 3.23632812 C-5.20058387 3.22452357 -7.53776061 3.20805759 -9.875 3.1875 C-9.875 2.5275 -9.875 1.8675 -9.875 1.1875 C-6.41768736 0.03506245 -3.64240787 0.01925163 0 0 Z " fill="#2A8BBB" transform="translate(68.875,152.8125)"/>
<path d="M0 0 C1.25683594 -0.01740234 1.25683594 -0.01740234 2.5390625 -0.03515625 C7.66189541 -0.01099194 11.14895283 0.6193879 15.625 3.375 C13.8125 4 13.8125 4 11.625 4.375 C10.635 3.715 9.645 3.055 8.625 2.375 C5.97968267 2.20479965 3.45362999 2.14200456 0.8125 2.1875 C0.11318359 2.18814453 -0.58613281 2.18878906 -1.30664062 2.18945312 C-5.4263405 2.22413722 -9.3337914 2.58198418 -13.375 3.375 C-9.53393877 -0.63583189 -5.17788678 -0.07103808 0 0 Z " fill="#2C92BF" transform="translate(70.375,146.625)"/>
<path d="M0 0 C0.99 0.33 1.98 0.66 3 1 C2.01 3.64 1.02 6.28 0 9 C-0.66 9 -1.32 9 -2 9 C-2 9.99 -2 10.98 -2 12 C-2.66 12 -3.32 12 -4 12 C-3.67 10.35 -3.34 8.7 -3 7 C-2.34 7 -1.68 7 -1 7 C-0.67 4.69 -0.34 2.38 0 0 Z " fill="#6894B9" transform="translate(194,177)"/>
<path d="M0 0 C-3.20406462 2.13604308 -3.99600747 2.24208908 -7.66796875 2.1953125 C-8.56064453 2.18886719 -9.45332031 2.18242187 -10.37304688 2.17578125 C-11.76620117 2.15064453 -11.76620117 2.15064453 -13.1875 2.125 C-14.12787109 2.11597656 -15.06824219 2.10695312 -16.03710938 2.09765625 C-18.35832968 2.07409056 -20.67903644 2.04119116 -23 2 C-23 1.67 -23 1.34 -23 1 C-21.19402344 0.90912109 -21.19402344 0.90912109 -19.3515625 0.81640625 C-17.77602923 0.73200268 -16.20050904 0.64735459 -14.625 0.5625 C-13.8309375 0.52318359 -13.036875 0.48386719 -12.21875 0.44335938 C-0.64690856 -0.19407257 -0.64690856 -0.19407257 0 0 Z " fill="#359FC8" transform="translate(114,138)"/>
<path d="M0 0 C3.48539917 0.64544429 6.02819057 2.10134397 9 4 C8.67 4.99 8.34 5.98 8 7 C8 6.34 8 5.68 8 5 C5.69 4.67 3.38 4.34 1 4 C0.67 2.68 0.34 1.36 0 0 Z " fill="#3D77A8" transform="translate(175,3)"/>
<path d="M0 0 C0.33 0.99 0.66 1.98 1 3 C0.360625 3.598125 -0.27875 4.19625 -0.9375 4.8125 C-3.20310389 6.90810337 -3.20310389 6.90810337 -4 10 C-4.66 10 -5.32 10 -6 10 C-6 10.99 -6 11.98 -6 13 C-6.66 13 -7.32 13 -8 13 C-7.67 11.35 -7.34 9.7 -7 8 C-6.34 8 -5.68 8 -5 8 C-4.731875 7.236875 -4.46375 6.47375 -4.1875 5.6875 C-3.05575888 3.12619116 -2.08776599 1.80307062 0 0 Z " fill="#6A95B8" transform="translate(11,9)"/>
<path d="M0 0 C3.3502463 3.81234923 5.16974789 7.33285711 7 12 C6.01 12 5.02 12 4 12 C4 10.68 4 9.36 4 8 C3.34 8 2.68 8 2 8 C0.23537317 4.91190305 0 3.76687864 0 0 Z " fill="#618FB6" transform="translate(191,13)"/>
<path d="M0 0 C4.62 0 9.24 0 14 0 C14.33 0.99 14.66 1.98 15 3 C13.68 3 12.36 3 11 3 C11 2.34 11 1.68 11 1 C7.37 1 3.74 1 0 1 C0 0.67 0 0.34 0 0 Z " fill="#44B4D7" transform="translate(125,152)"/>
<path d="M0 0 C0.33 1.32 0.66 2.64 1 4 C1.99 4 2.98 4 4 4 C4 5.32 4 6.64 4 8 C3.01 8.33 2.02 8.66 1 9 C0 8 0 8 -0.09765625 6.15234375 C-0.06510417 4.1015625 -0.03255208 2.05078125 0 0 Z " fill="#22649D" transform="translate(194,21)"/>
<path d="M0 0 C0.66 0 1.32 0 2 0 C2.66 2.97 3.32 5.94 4 9 C3.67 8.34 3.34 7.68 3 7 C2.01 7 1.02 7 0 7 C0 4.69 0 2.38 0 0 Z " fill="#5284AF" transform="translate(2,173)"/>
<path d="M0 0 C0.33 1.32 0.66 2.64 1 4 C-0.98 4.99 -2.96 5.98 -5 7 C-5 6.01 -5 5.02 -5 4 C-2.5 1.8125 -2.5 1.8125 0 0 Z " fill="#5D8AB1" transform="translate(189,187)"/>
<path d="M0 0 C1.43861294 0.08746284 2.87597508 0.19565348 4.3125 0.3125 C5.11300781 0.37050781 5.91351563 0.42851562 6.73828125 0.48828125 C9.36272334 1.08206694 10.30820672 1.95780294 12 4 C7.91621717 3.25749403 3.98060777 2.17076699 0 1 C0 0.67 0 0.34 0 0 Z " fill="#2787B7" transform="translate(74,147)"/>
<path d="M0 0 C5.53846154 -0.36923077 5.53846154 -0.36923077 7.875 1.5 C8.24625 1.995 8.6175 2.49 9 3 C2.84765625 2.4140625 2.84765625 2.4140625 1 2 C0.67 1.34 0.34 0.68 0 0 Z " fill="#359EC7" transform="translate(138,134)"/>
</svg>
