<?xml version="1.0" encoding="UTF-8"?>
<!DOCTYPE svg PUBLIC "-//W3C//DTD SVG 1.1//EN" "http://www.w3.org/Graphics/SVG/1.1/DTD/svg11.dtd">
<svg xmlns="http://www.w3.org/2000/svg" version="1.1" width="100px" height="100px" style="shape-rendering:geometricPrecision; text-rendering:geometricPrecision; image-rendering:optimizeQuality; fill-rule:evenodd; clip-rule:evenodd" xmlns:xlink="http://www.w3.org/1999/xlink">
<g><path style="opacity:0.004" fill="#e6a3a6" d="M 59.5,-0.5 C 63.1667,-0.5 66.8333,-0.5 70.5,-0.5C 72.8333,1.16667 74.8333,3.16667 76.5,5.5C 76.1034,6.52502 75.4368,6.69169 74.5,6C 72.9095,3.86735 70.9095,2.20069 68.5,1C 64.9304,0.738154 61.5971,0.571488 58.5,0.5C 59.1667,0.5 59.5,0.166667 59.5,-0.5 Z"/></g>
<g><path style="opacity:0.216" fill="#e29094" d="M 80.5,-0.5 C 84.1667,-0.5 87.8333,-0.5 91.5,-0.5C 91.5,-0.166667 91.5,0.166667 91.5,0.5C 85.4679,-0.625233 80.4679,1.04143 76.5,5.5C 77.4151,3.24595 78.7484,1.24595 80.5,-0.5 Z"/></g>
<g><path style="opacity:1" fill="#c4323b" d="M 58.5,0.5 C 61.5971,0.571488 64.9304,0.738154 68.5,1C 70.9095,2.20069 72.9095,3.86735 74.5,6C 75.4368,6.69169 76.1034,6.52502 76.5,5.5C 80.4679,1.04143 85.4679,-0.625233 91.5,0.5C 91.9528,1.45837 92.6195,2.2917 93.5,3C 91.5,3.33333 89.5,3.66667 87.5,4C 86.0577,4.37675 85.0577,5.21009 84.5,6.5C 83.7109,6.78281 83.0442,7.28281 82.5,8C 84.0657,8.76498 85.3991,8.59832 86.5,7.5C 86.8333,7.5 87.1667,7.5 87.5,7.5C 89.5351,9.7087 91.8684,11.7087 94.5,13.5C 95.3235,15.4546 95.4901,17.4546 95,19.5C 94.3292,18.7476 93.4959,18.4142 92.5,18.5C 92.0269,17.0937 91.0269,16.427 89.5,16.5C 88.391,16.4431 87.391,16.1098 86.5,15.5C 80.7302,12.9278 80.2302,13.9278 85,18.5C 85.6667,20.5 86.3333,22.5 87,24.5C 88.8142,36.2488 89.9809,47.9154 90.5,59.5C 90.5,59.8333 90.5,60.1667 90.5,60.5C 87.8333,60.5 85.1667,60.5 82.5,60.5C 82.5,60.1667 82.5,59.8333 82.5,59.5C 83.6149,49.8804 83.7816,40.2138 83,30.5C 82.6779,27.3337 81.5113,24.667 79.5,22.5C 78.8902,21.609 78.5569,20.609 78.5,19.5C 78.573,17.9731 77.9063,16.9731 76.5,16.5C 75.2073,15.3552 74.0407,15.6885 73,17.5C 70.8421,22.1587 69.0088,26.8254 67.5,31.5C 65.197,27.001 64.8636,22.3344 66.5,17.5C 70.8117,15.1471 70.4784,14.1471 65.5,14.5C 63.1432,14.3367 60.8098,14.5034 58.5,15C 59.6843,16.1455 59.6843,17.3121 58.5,18.5C 58.5,19.1667 58.1667,19.5 57.5,19.5C 56.6236,19.6309 55.9569,19.2975 55.5,18.5C 56.3721,16.5504 57.0388,14.5504 57.5,12.5C 60.155,11.503 62.155,9.83628 63.5,7.5C 64.1667,7.5 64.8333,7.5 65.5,7.5C 66.6009,8.59832 67.9343,8.76498 69.5,8C 68.7562,6.96141 67.7562,6.46141 66.5,6.5C 65.5084,6.67158 64.8417,6.33825 64.5,5.5C 61.9396,4.41211 59.6063,3.07878 57.5,1.5C 57.5,0.833333 57.8333,0.5 58.5,0.5 Z"/></g>
<g><path style="opacity:0.396" fill="#e2989c" d="M 91.5,0.5 C 93.5441,1.03118 95.2107,2.19784 96.5,4C 92.6674,5.31771 88.6674,6.15104 84.5,6.5C 85.0577,5.21009 86.0577,4.37675 87.5,4C 89.5,3.66667 91.5,3.33333 93.5,3C 92.6195,2.2917 91.9528,1.45837 91.5,0.5 Z"/></g>
<g><path style="opacity:0.059" fill="#e39da1" d="M 57.5,1.5 C 59.6063,3.07878 61.9396,4.41211 64.5,5.5C 61.5,5.5 58.5,5.5 55.5,5.5C 55.2291,3.6203 55.8958,2.28696 57.5,1.5 Z"/></g>
<g><path style="opacity:0.141" fill="#eec2c3" d="M 66.5,6.5 C 67.7562,6.46141 68.7562,6.96141 69.5,8C 67.9343,8.76498 66.6009,8.59832 65.5,7.5C 66.1667,7.5 66.5,7.16667 66.5,6.5 Z"/></g>
<g><path style="opacity:0.361" fill="#eec7c8" d="M 84.5,6.5 C 84.8417,7.33825 85.5084,7.67158 86.5,7.5C 85.3991,8.59832 84.0657,8.76498 82.5,8C 83.0442,7.28281 83.7109,6.78281 84.5,6.5 Z"/></g>
<g><path style="opacity:0.392" fill="#e49ea1" d="M 63.5,7.5 C 62.155,9.83628 60.155,11.503 57.5,12.5C 58.845,10.1637 60.845,8.49705 63.5,7.5 Z"/></g>
<g><path style="opacity:1" fill="#0d3775" d="M 61.5,28.5 C 62.2066,30.1344 63.3732,31.4677 65,32.5C 65.49,33.7932 65.6567,35.1266 65.5,36.5C 63.8333,36.5 62.1667,36.5 60.5,36.5C 60.5,44.5 60.5,52.5 60.5,60.5C 67.8333,60.5 75.1667,60.5 82.5,60.5C 85.1667,60.5 87.8333,60.5 90.5,60.5C 93.505,60.253 96.005,61.253 98,63.5C 98.6667,74.1667 98.6667,84.8333 98,95.5C 97.1667,96.3333 96.3333,97.1667 95.5,98C 64.8333,98.6667 34.1667,98.6667 3.5,98C 1.5743,97.5776 0.574295,96.4109 0.5,94.5C 0.333507,84.1613 0.500173,73.828 1,63.5C 2.04499,62.6266 2.87833,61.6266 3.5,60.5C 4.16667,60.5 4.83333,60.5 5.5,60.5C 6.82092,52.3242 6.82092,43.9909 5.5,35.5C 4.89333,35.6236 4.55999,35.9569 4.5,36.5C 0.0669439,35.8685 -0.599723,33.8685 2.5,30.5C 2.83333,29.5 3.5,28.8333 4.5,28.5C 4.43456,28.9382 4.60123,29.2716 5,29.5C 13.8065,21.4381 23.1398,14.1048 33,7.5C 42.6307,14.391 52.1307,21.391 61.5,28.5 Z"/></g>
<g><path style="opacity:0.106" fill="#e6a7aa" d="M 87.5,7.5 C 90.8875,8.34814 93.2209,10.3481 94.5,13.5C 91.8684,11.7087 89.5351,9.7087 87.5,7.5 Z"/></g>
<g><path style="opacity:0.986" fill="#d86c6c" d="M 65.5,14.5 C 65.5,14.8333 65.5,15.1667 65.5,15.5C 63.0202,16.242 60.6869,17.242 58.5,18.5C 59.6843,17.3121 59.6843,16.1455 58.5,15C 60.8098,14.5034 63.1432,14.3367 65.5,14.5 Z"/></g>
<g><path style="opacity:0.071" fill="#eecacb" d="M 65.5,15.5 C 65.5,15.1667 65.5,14.8333 65.5,14.5C 70.4784,14.1471 70.8117,15.1471 66.5,17.5C 66.6716,16.5084 66.3382,15.8417 65.5,15.5 Z"/></g>
<g><path style="opacity:0.2" fill="#e7abae" d="M 86.5,15.5 C 85.7611,15.369 85.0944,15.5357 84.5,16C 87.5815,21.3728 89.4149,27.2061 90,33.5C 90.9251,42.2404 91.0918,50.9071 90.5,59.5C 89.9809,47.9154 88.8142,36.2488 87,24.5C 86.3333,22.5 85.6667,20.5 85,18.5C 80.2302,13.9278 80.7302,12.9278 86.5,15.5 Z"/></g>
<g><path style="opacity:1" fill="#f3f4f5" d="M 55.5,32.5 C 55.5,41.5 55.5,50.5 55.5,59.5C 50.8333,59.5 46.1667,59.5 41.5,59.5C 41.8182,54.9677 41.4849,50.6344 40.5,46.5C 37.4006,42.7597 33.4006,41.593 28.5,43C 27.1175,44.2708 26.1175,45.7708 25.5,47.5C 24.5166,51.2984 24.1832,55.2984 24.5,59.5C 20.1667,59.5 15.8333,59.5 11.5,59.5C 11.5,50.1667 11.5,40.8333 11.5,31.5C 18.2275,25.2719 25.3942,19.6052 33,14.5C 40.9652,19.9702 48.4652,25.9702 55.5,32.5 Z"/></g>
<g><path style="opacity:0.173" fill="#e6a5a8" d="M 89.5,16.5 C 91.0269,16.427 92.0269,17.0937 92.5,18.5C 90.9731,18.573 89.9731,17.9063 89.5,16.5 Z"/></g>
<g><path style="opacity:0.267" fill="#e7a9ab" d="M 76.5,16.5 C 77.9063,16.9731 78.573,17.9731 78.5,19.5C 77.0937,19.0269 76.427,18.0269 76.5,16.5 Z"/></g>
<g><path style="opacity:0.037" fill="#e6adaf" d="M 94.5,13.5 C 97.1988,15.9882 97.8655,18.9882 96.5,22.5C 94.812,21.4787 93.4787,20.1454 92.5,18.5C 93.4959,18.4142 94.3292,18.7476 95,19.5C 95.4901,17.4546 95.3235,15.4546 94.5,13.5 Z"/></g>
<g><path style="opacity:0.294" fill="#e8989a" d="M 57.5,12.5 C 57.0388,14.5504 56.3721,16.5504 55.5,18.5C 55.9569,19.2975 56.6236,19.6309 57.5,19.5C 57.1788,21.0481 56.1788,21.7148 54.5,21.5C 53.925,17.8453 54.925,14.8453 57.5,12.5 Z"/></g>
<g><path style="opacity:0.31" fill="#e5a1a3" d="M 76.5,16.5 C 74.2918,17.8936 72.7918,19.8936 72,22.5C 71.1026,25.4899 70.2692,28.4899 69.5,31.5C 69.0431,32.2975 68.3764,32.6309 67.5,32.5C 67.5,32.1667 67.5,31.8333 67.5,31.5C 69.0088,26.8254 70.8421,22.1587 73,17.5C 74.0407,15.6885 75.2073,15.3552 76.5,16.5 Z"/></g>
<g><path style="opacity:0.055" fill="#92a9c5" d="M 54.5,21.5 C 57.027,23.6054 59.3603,25.9387 61.5,28.5C 52.1307,21.391 42.6307,14.391 33,7.5C 23.1398,14.1048 13.8065,21.4381 5,29.5C 4.60123,29.2716 4.43456,28.9382 4.5,28.5C 13.4905,20.2479 22.9905,12.5812 33,5.5C 40.3154,10.6508 47.482,15.9842 54.5,21.5 Z"/></g>
<g><path style="opacity:1" fill="#063373" d="M 38.5,29.5 C 38.5,31.8333 38.5,34.1667 38.5,36.5C 35.1667,36.5 31.8333,36.5 28.5,36.5C 28.5,33.8333 28.5,31.1667 28.5,28.5C 29.4919,26.9735 30.9919,26.3068 33,26.5C 35.6546,26.124 37.488,27.124 38.5,29.5 Z"/></g>
<g><path style="opacity:0.243" fill="#e89a9b" d="M 66.5,17.5 C 64.8636,22.3344 65.197,27.001 67.5,31.5C 67.1667,31.5 66.8333,31.5 66.5,31.5C 66.5,30.8333 66.1667,30.5 65.5,30.5C 63.869,25.8796 64.2024,21.5463 66.5,17.5 Z"/></g>
<g><path style="opacity:1" fill="#496697" d="M 28.5,28.5 C 28.5,31.1667 28.5,33.8333 28.5,36.5C 31.8333,36.5 35.1667,36.5 38.5,36.5C 38.5,34.1667 38.5,31.8333 38.5,29.5C 39.4731,31.9479 39.8064,34.6146 39.5,37.5C 35.5,37.5 31.5,37.5 27.5,37.5C 27.19,34.2869 27.5233,31.2869 28.5,28.5 Z"/></g>
<g><path style="opacity:0.89" fill="#496a99" d="M 4.5,36.5 C 4.55999,35.9569 4.89333,35.6236 5.5,35.5C 6.82092,43.9909 6.82092,52.3242 5.5,60.5C 5.82572,52.3159 5.49239,44.3159 4.5,36.5 Z"/></g>
<g><path style="opacity:0.513" fill="#95aac5" d="M 61.5,28.5 C 62.8333,29.1667 64.1667,29.8333 65.5,30.5C 66.1667,30.5 66.5,30.8333 66.5,31.5C 66.5,32.1667 66.8333,32.5 67.5,32.5C 67.563,37.1114 65.563,39.1114 61.5,38.5C 62.8333,45.1667 62.8333,51.8333 61.5,58.5C 68.1335,59.4967 74.8002,59.83 81.5,59.5C 81.8333,59.5 82.1667,59.5 82.5,59.5C 82.5,59.8333 82.5,60.1667 82.5,60.5C 75.1667,60.5 67.8333,60.5 60.5,60.5C 60.5,52.5 60.5,44.5 60.5,36.5C 62.1667,36.5 63.8333,36.5 65.5,36.5C 65.6567,35.1266 65.49,33.7932 65,32.5C 63.3732,31.4677 62.2066,30.1344 61.5,28.5 Z"/></g>
<g><path style="opacity:0.227" fill="#9bafc8" d="M 2.5,30.5 C -0.599723,33.8685 0.0669439,35.8685 4.5,36.5C 5.49239,44.3159 5.82572,52.3159 5.5,60.5C 4.83333,60.5 4.16667,60.5 3.5,60.5C 3.16667,60.5 2.83333,60.5 2.5,60.5C 4.57767,53.102 5.07767,45.4353 4,37.5C 2.28938,38.5814 0.789384,38.248 -0.5,36.5C -0.5,34.8333 -0.5,33.1667 -0.5,31.5C 0.391047,30.8902 1.39105,30.5569 2.5,30.5 Z"/></g>
<g><path style="opacity:0.39" fill="#df8c90" d="M 79.5,22.5 C 81.5113,24.667 82.6779,27.3337 83,30.5C 83.7816,40.2138 83.6149,49.8804 82.5,59.5C 82.1667,59.5 81.8333,59.5 81.5,59.5C 82.7698,47.0689 82.1032,34.7356 79.5,22.5 Z"/></g>
<g><path style="opacity:1" fill="#97abc4" d="M 11.5,31.5 C 11.5,40.8333 11.5,50.1667 11.5,59.5C 15.8333,59.5 20.1667,59.5 24.5,59.5C 24.1832,55.2984 24.5166,51.2984 25.5,47.5C 25.5,51.8333 25.5,56.1667 25.5,60.5C 20.5,60.5 15.5,60.5 10.5,60.5C 10.1729,50.6522 10.5062,40.9856 11.5,31.5 Z"/></g>
<g><path style="opacity:1" fill="#7891b4" d="M 55.5,32.5 C 56.4936,41.6517 56.8269,50.985 56.5,60.5C 51.1667,60.5 45.8333,60.5 40.5,60.5C 40.5,55.8333 40.5,51.1667 40.5,46.5C 41.4849,50.6344 41.8182,54.9677 41.5,59.5C 46.1667,59.5 50.8333,59.5 55.5,59.5C 55.5,50.5 55.5,41.5 55.5,32.5 Z"/></g>
<g><path style="opacity:0.6" fill="#6182aa" d="M 2.5,60.5 C 2.83333,60.5 3.16667,60.5 3.5,60.5C 2.87833,61.6266 2.04499,62.6266 1,63.5C 0.500173,73.828 0.333507,84.1613 0.5,94.5C 0.166667,94.5 -0.166667,94.5 -0.5,94.5C -0.5,83.8333 -0.5,73.1667 -0.5,62.5C 0.5,61.8333 1.5,61.1667 2.5,60.5 Z"/></g>
<g><path style="opacity:1" fill="#c3cfdc" d="M 6.5,67.5 C 34.9951,66.502 63.6618,66.1687 92.5,66.5C 92.5,68.1667 92.5,69.8333 92.5,71.5C 92.1667,71.5 91.8333,71.5 91.5,71.5C 91.5,70.1667 91.5,68.8333 91.5,67.5C 63.1667,67.5 34.8333,67.5 6.5,67.5 Z"/></g>
<g><path style="opacity:1" fill="#f2f4f5" d="M 6.5,67.5 C 34.8333,67.5 63.1667,67.5 91.5,67.5C 91.5,68.8333 91.5,70.1667 91.5,71.5C 88.6781,71.6781 86.0115,72.3448 83.5,73.5C 80.5713,72.5371 77.5713,71.8704 74.5,71.5C 71.6722,71.6903 69.0055,72.357 66.5,73.5C 63.5713,72.5371 60.5713,71.8704 57.5,71.5C 54.31,72.6554 50.9766,73.3221 47.5,73.5C 47.5,74.8333 47.5,76.1667 47.5,77.5C 51.1642,77.6395 54.6642,76.9729 58,75.5C 63.6667,78.1667 69.3333,78.1667 75,75.5C 80.1292,78.1218 85.2959,78.1218 90.5,75.5C 91.4656,77.396 91.7989,79.396 91.5,81.5C 80.341,81.5436 69.1743,81.5436 58,81.5C 54.5678,82.4164 51.0678,83.083 47.5,83.5C 47.5,84.8333 47.5,86.1667 47.5,87.5C 51.066,87.6854 54.3993,87.0188 57.5,85.5C 60.4287,86.4629 63.4287,87.1296 66.5,87.5C 69.3278,87.3097 71.9945,86.643 74.5,85.5C 77.2966,86.3144 80.1299,86.9811 83,87.5C 85.8813,86.9722 88.7146,86.3055 91.5,85.5C 91.5,87.5 91.5,89.5 91.5,91.5C 63.6716,92.498 35.6716,92.8313 7.5,92.5C 6.50728,84.3501 6.17395,76.0168 6.5,67.5 Z"/></g>
<g><path style="opacity:1" fill="#90d3f7" d="M 91.5,71.5 C 91.8333,71.5 92.1667,71.5 92.5,71.5C 92.5,78.1667 92.5,84.8333 92.5,91.5C 92.1667,91.5 91.8333,91.5 91.5,91.5C 91.5,89.5 91.5,87.5 91.5,85.5C 88.7146,86.3055 85.8813,86.9722 83,87.5C 80.1299,86.9811 77.2966,86.3144 74.5,85.5C 71.9945,86.643 69.3278,87.3097 66.5,87.5C 63.4287,87.1296 60.4287,86.4629 57.5,85.5C 54.3993,87.0188 51.066,87.6854 47.5,87.5C 47.5,86.1667 47.5,84.8333 47.5,83.5C 51.0678,83.083 54.5678,82.4164 58,81.5C 69.1743,81.5436 80.341,81.5436 91.5,81.5C 91.7989,79.396 91.4656,77.396 90.5,75.5C 85.2959,78.1218 80.1292,78.1218 75,75.5C 69.3333,78.1667 63.6667,78.1667 58,75.5C 54.6642,76.9729 51.1642,77.6395 47.5,77.5C 47.5,76.1667 47.5,74.8333 47.5,73.5C 50.9766,73.3221 54.31,72.6554 57.5,71.5C 60.5713,71.8704 63.5713,72.5371 66.5,73.5C 69.0055,72.357 71.6722,71.6903 74.5,71.5C 77.5713,71.8704 80.5713,72.5371 83.5,73.5C 86.0115,72.3448 88.6781,71.6781 91.5,71.5 Z"/></g>
<g><path style="opacity:1" fill="#345a8d" d="M 91.5,91.5 C 91.8333,91.5 92.1667,91.5 92.5,91.5C 78.6828,92.8327 64.5161,93.4993 50,93.5C 35.6627,93.4999 21.496,93.1666 7.5,92.5C 35.6716,92.8313 63.6716,92.498 91.5,91.5 Z"/></g>
<g><path style="opacity:0.384" fill="#97acc7" d="M 90.5,60.5 C 90.5,60.1667 90.5,59.8333 90.5,59.5C 94.1125,58.9238 97.1125,59.9238 99.5,62.5C 99.5,73.8333 99.5,85.1667 99.5,96.5C 98.1667,97.1667 97.1667,98.1667 96.5,99.5C 64.8333,99.5 33.1667,99.5 1.5,99.5C 1.16667,98.5 0.5,97.8333 -0.5,97.5C -0.5,96.5 -0.5,95.5 -0.5,94.5C -0.166667,94.5 0.166667,94.5 0.5,94.5C 0.574295,96.4109 1.5743,97.5776 3.5,98C 34.1667,98.6667 64.8333,98.6667 95.5,98C 96.3333,97.1667 97.1667,96.3333 98,95.5C 98.6667,84.8333 98.6667,74.1667 98,63.5C 96.005,61.253 93.505,60.253 90.5,60.5 Z"/></g>
</svg>
