<?xml version="1.0" encoding="UTF-8"?>
<svg version="1.1" xmlns="http://www.w3.org/2000/svg" width="200" height="200">
<path d="M0 0 C0.67070489 -0.00367669 1.34140978 -0.00735338 2.03243905 -0.01114148 C4.28468003 -0.02217324 6.53687485 -0.0260213 8.78913879 -0.02983093 C10.40219774 -0.03609603 12.01525524 -0.04274287 13.62831116 -0.04974365 C18.93036393 -0.07078296 24.23241698 -0.08114667 29.53450012 -0.09111023 C31.36039559 -0.09515799 33.1862909 -0.09927492 35.01218605 -0.10346031 C43.59147272 -0.12251257 52.17075078 -0.1367429 60.75005454 -0.14507228 C70.64914413 -0.1548419 80.54800995 -0.18115405 90.44702071 -0.22157317 C98.100648 -0.25175008 105.7542112 -0.2665427 113.40789682 -0.26985329 C117.97788534 -0.27220221 122.5476348 -0.28114181 127.11755943 -0.30631447 C131.4194266 -0.32962746 135.72089788 -0.33381554 140.02281189 -0.32355309 C141.59816112 -0.32305838 143.17353005 -0.32935964 144.74881935 -0.34310913 C154.08474366 -0.42000861 161.24435787 -0.30338942 168.63606262 6.04170227 C169.16586731 6.67463196 169.695672 7.30756165 170.24153137 7.95967102 C171.05557434 8.89746399 171.05557434 8.89746399 171.88606262 9.85420227 C175.44690965 15.14589139 176.80304148 19.64725936 176.82344055 25.99588013 C176.82953166 26.64817382 176.83562276 27.30046751 176.84189844 27.97252768 C176.85842842 30.13875248 176.8537673 32.30438299 176.84895325 34.47065735 C176.85629951 36.03180547 176.86488736 37.59294817 176.87461853 39.15408325 C176.8967867 43.38152642 176.89976751 47.6087744 176.89787102 51.83626771 C176.89775108 55.37231594 176.90632491 58.90832317 176.91464853 62.44435996 C176.93386638 70.79136988 176.93677262 79.13827981 176.93000793 87.48530579 C176.9233709 96.07926039 176.94622152 104.67278539 176.98332167 113.26665288 C177.01407277 120.65969551 177.02537277 128.05260033 177.02148485 135.44570559 C177.01942263 139.85476199 177.02481451 144.26348413 177.04937744 148.67247963 C177.0717313 152.82185591 177.06969577 156.97053672 177.04944992 161.11991692 C177.04605486 162.63636954 177.05106375 164.15286978 177.0654335 165.66925812 C177.15027888 175.29229288 176.53293599 183.70921074 169.64432526 191.04868793 C164.27382854 196.03962612 158.93691355 198.51845137 151.54199219 198.5415802 C150.87351314 198.5476713 150.2050341 198.55376241 149.51629812 198.56003809 C147.28936107 198.57660953 145.0629995 198.5719009 142.83601379 198.5670929 C141.23398243 198.57443675 139.63195636 198.5830239 138.02993774 198.59275818 C133.68680508 198.61495197 129.34386227 198.61790586 125.00068069 198.61601067 C121.37014631 198.61589084 117.73965198 198.62445998 114.10912877 198.63278818 C105.54019861 198.65201534 96.97136586 198.6549089 88.40242004 198.64814758 C79.57500767 198.64151017 70.74801351 198.66436056 61.92068595 198.70146132 C54.33150302 198.73219589 46.74245435 198.74351419 39.15321046 198.7396245 C34.62512603 198.73756053 30.09736693 198.7429813 25.56934166 198.76751709 C21.30836205 198.7898434 17.04806016 198.78785798 12.78707695 198.76758957 C11.2282788 198.76418965 9.66943452 198.76922462 8.1106987 198.78357315 C-1.53901517 198.8662318 -9.15567735 198.32472861 -16.40697956 191.39176178 C-21.68523204 185.83707064 -23.94272799 179.90354944 -23.95864868 172.29173279 C-23.96403422 171.63873353 -23.96941976 170.98573427 -23.97496849 170.31294715 C-23.98917382 168.1443732 -23.98216324 165.97641611 -23.97502136 163.80781555 C-23.9807289 162.24504611 -23.98769464 160.68228084 -23.99581909 159.11952209 C-24.01372466 154.88800192 -24.01258688 150.65668941 -24.00687671 146.42514277 C-24.00378066 142.88651733 -24.00988203 139.34793154 -24.01591545 135.80931175 C-24.02995093 127.45754232 -24.02840793 119.10587521 -24.01701355 110.75410461 C-24.00553692 102.15223214 -24.01960251 93.55067162 -24.04641002 84.94884026 C-24.06859874 77.55072056 -24.07519716 70.15269855 -24.06933361 62.75454795 C-24.06596997 58.34166675 -24.0683394 53.92898542 -24.08558464 49.51613235 C-24.10110208 45.36436798 -24.09704545 41.21306395 -24.0782795 37.06131744 C-24.07460664 35.54283865 -24.07766389 34.02432538 -24.08816528 32.50587845 C-24.15005143 22.81291807 -23.72599701 14.87326966 -17.09831238 7.33467102 C-15.81633972 6.25185852 -15.81633972 6.25185852 -14.50846863 5.14717102 C-13.65124207 4.40467102 -12.7940155 3.66217102 -11.91081238 2.89717102 C-7.97308723 -0.04790555 -4.78465772 0.01698817 0 0 Z " fill="#0E528F" transform="translate(23.570968627929688,0.8528289794921875)"/>
<path d="M0 0 C12.01873777 -0.68634924 21.89991557 0.05949426 31.875 7.6875 C37.90702357 13.37948302 41.76204825 20.5567086 42.203125 28.79296875 C42.34123445 36.78968773 42.25438662 43.54203065 39 51 C39.680625 51.66 40.36125 52.32 41.0625 53 C43.38692707 55.33110646 45.61548095 57.73594826 47.8125 60.1875 C48.41707031 60.86167969 49.02164063 61.53585938 49.64453125 62.23046875 C51 64 51 64 51 66 C49.36567245 67.47769218 47.66523632 68.88269319 45.9375 70.25 C41.55105276 73.75802434 37.24411313 77.32176862 33 81 C28.91667098 79.44533803 26.91791007 76.74912156 24.25 73.375 C23.45078125 72.37210937 22.6515625 71.36921875 21.828125 70.3359375 C21.22484375 69.56507812 20.6215625 68.79421875 20 68 C19.33097656 68.15597656 18.66195312 68.31195313 17.97265625 68.47265625 C7.86714866 70.26535471 -1.38678065 70.10916394 -10.375 64.89453125 C-19.0658851 58.62209185 -23.85971335 50.44139844 -26 40 C-26.5387666 33.23433477 -26.20998417 28.01872032 -23 22 C-18.92718727 23.57749789 -16.45499314 26.50065413 -13.625 29.6875 C-12.88286255 30.49018311 -12.88286255 30.49018311 -12.12573242 31.30908203 C-9.47838218 34.19860788 -7.36337795 37.02812751 -5.3125 40.375 C-4.08716435 42.13367596 -4.08716435 42.13367596 -2 43 C3.48935536 42.96168944 8.636461 42.11474979 14 41 C14.50744423 39.10614563 15.00564574 37.20981334 15.5 35.3125 C15.7784375 34.25675781 16.056875 33.20101562 16.34375 32.11328125 C17.23650564 28.06680501 17.23650564 28.06680501 17 24 C15.38027027 21.71246126 13.80810069 19.74564631 11.9375 17.6875 C11.43959961 17.11789551 10.94169922 16.54829102 10.42871094 15.96142578 C8.21297454 13.43416859 5.95472083 10.95091586 3.67578125 8.48046875 C3.04027344 7.78566406 2.40476562 7.09085938 1.75 6.375 C0.90695313 5.48941406 0.90695313 5.48941406 0.046875 4.5859375 C-0.29859375 4.06257813 -0.6440625 3.53921875 -1 3 C-0.67 2.01 -0.34 1.02 0 0 Z " fill="#F7F7F8" transform="translate(57,25)"/>
<path d="M0 0 C3.20213664 0.22833572 4.7004296 0.72988643 7.10546875 2.8984375 C7.79253906 3.71570313 8.47960937 4.53296875 9.1875 5.375 C10.35345703 6.73431641 10.35345703 6.73431641 11.54296875 8.12109375 C12.35378906 9.07113281 13.16460937 10.02117187 14 11 C15.66112067 12.81758415 17.327818 14.6300871 19 16.4375 C22.22682054 19.9765935 25.31621202 23.57672596 28.3125 27.3125 C31.86786573 31.72367058 35.61949569 35.87808182 39.5 40 C44.20248335 44.99570979 48.66730777 50.09525651 52.921875 55.484375 C54.96494039 58.03851619 54.96494039 58.03851619 57.328125 60.328125 C61.26831457 64.26831457 63.49677347 66.70286057 63.5625 72.4375 C63.37267422 75.01832281 63.15732859 76.68534283 62 79 C61.34 79 60.68 79 60 79 C59.773125 79.61875 59.54625 80.2375 59.3125 80.875 C57.62070165 83.61410209 56.00755839 84.05024472 53 85 C53 85.66 53 86.32 53 87 C51.46089264 87.13687714 49.91812705 87.23284005 48.375 87.3125 C47.51648438 87.37050781 46.65796875 87.42851562 45.7734375 87.48828125 C39.4064682 86.36733595 35.5432551 80.46271426 31.875 75.5625 C28.05529979 70.57684158 24.12427414 65.73676362 20 61 C15.97912458 56.37469621 12.12115894 51.6628529 8.375 46.8125 C4.20788354 41.41742528 -0.20452302 36.39756291 -4.84765625 31.40234375 C-6.66530247 29.37357347 -8.26796737 27.36240708 -9.8125 25.125 C-12.00473477 21.99323605 -14.23291932 19.60896179 -17 17 C-15.67050044 13.98047929 -14.30473431 12.12872821 -11.77734375 10.01953125 C-11.15666016 9.49552734 -10.53597656 8.97152344 -9.89648438 8.43164062 C-9.25001953 7.89732422 -8.60355469 7.36300781 -7.9375 6.8125 C-6.65485386 5.73578912 -5.37229708 4.65897177 -4.08984375 3.58203125 C-3.52128662 3.10999268 -2.95272949 2.6379541 -2.36694336 2.15161133 C-1.03038653 1.05878235 -1.03038653 1.05878235 0 0 Z " fill="#C82731" transform="translate(106,91)"/>
<path d="M0 0 C0 0.66 0 1.32 0 2 C6.99496107 4.83579503 14.01835496 6.83407832 21.4296875 4.10546875 C23.31705823 3.12721616 25.16254376 2.06906545 27 1 C27.66 1 28.32 1 29 1 C29.11601004 4.60389664 29.18718408 8.20731467 29.25 11.8125 C29.28351563 12.83666016 29.31703125 13.86082031 29.3515625 14.91601562 C29.36445313 15.89892578 29.37734375 16.88183594 29.390625 17.89453125 C29.41157227 18.80050049 29.43251953 19.70646973 29.45410156 20.63989258 C29 23 29 23 27.12475586 24.74633789 C20.89918364 28.41959003 15.11622378 28.80299801 8 28 C5.70423144 27.11358855 3.77678297 26.11777312 1.71875 24.77734375 C-0.5835007 23.73609855 -1.66245983 24.14661232 -4 25 C-4.99 25.515625 -5.98 26.03125 -7 26.5625 C-13.15042074 29.25912076 -20.39170807 29.00670917 -26.5625 26.625 C-28.375 25.41666667 -30.1875 24.20833333 -32 23 C-32.34057617 20.75341797 -32.34057617 20.75341797 -32.29296875 17.9921875 C-32.28330078 17.00605469 -32.27363281 16.01992187 -32.26367188 15.00390625 C-32.23853516 13.97136719 -32.21339844 12.93882813 -32.1875 11.875 C-32.17396484 10.83472656 -32.16042969 9.79445313 -32.14648438 8.72265625 C-32.11105228 6.14792373 -32.06165221 3.5742167 -32 1 C-27.24462891 2.86279297 -27.24462891 2.86279297 -25.04296875 4.09765625 C-20.64456435 6.04035494 -15.67887698 5.60315936 -11 5 C-8.36187145 3.91058576 -6.12118203 2.66231782 -3.7421875 1.09375 C-2 0 -2 0 0 0 Z " fill="#53C6EB" transform="translate(139,59)"/>
<path d="M0 0 C0.66 0 1.32 0 2 0 C2.22042969 0.93972656 2.22042969 0.93972656 2.4453125 1.8984375 C3.13383034 4.40717493 3.83713809 6.6700166 5 9 C8.02884844 10.68036511 8.02884844 10.68036511 11 11 C11 11.66 11 12.32 11 13 C8.36 13.66 5.72 14.32 3 15 C2.67 17.64 2.34 20.28 2 23 C1.34 23 0.68 23 0 23 C-0.20496094 22.43410156 -0.40992187 21.86820313 -0.62109375 21.28515625 C-0.89050781 20.55167969 -1.15992187 19.81820312 -1.4375 19.0625 C-1.70433594 18.33160156 -1.97117187 17.60070312 -2.24609375 16.84765625 C-2.85386948 15.01694322 -2.85386948 15.01694322 -4 14 C-6.32817964 13.63239269 -8.6618385 13.29758419 -11 13 C-11 12.34 -11 11.68 -11 11 C-10.37351562 10.87625 -9.74703125 10.7525 -9.1015625 10.625 C-6.50380674 9.96941495 -4.34097603 9.31385675 -2 8 C-0.54595504 5.23894834 -0.36296076 3.16294373 0 0 Z " fill="#DDE6ED" transform="translate(120,25)"/>
<path d="M0 0 C2.01822917 0.06510417 4.03645833 0.13020833 6.0546875 0.1953125 C7.56130847 3.20855445 7.23239123 5.87817627 7.0546875 9.1953125 C5.0546875 11.1953125 5.0546875 11.1953125 1.5546875 11.4453125 C-1.9453125 11.1953125 -1.9453125 11.1953125 -3.9453125 9.1953125 C-4.1953125 5.6953125 -4.1953125 5.6953125 -3.9453125 2.1953125 C-1.9453125 0.1953125 -1.9453125 0.1953125 0 0 Z " fill="#194C85" transform="translate(151.9453125,156.8046875)"/>
<path d="M0 0 C1.08828929 3.26486787 0.89901381 4.36990083 0.125 7.625 C-0.05804688 8.42164063 -0.24109375 9.21828125 -0.4296875 10.0390625 C-1 12 -1 12 -2 13 C-3.68608966 13.07205511 -5.37500659 13.08386068 -7.0625 13.0625 C-7.98160156 13.05347656 -8.90070313 13.04445313 -9.84765625 13.03515625 C-10.55792969 13.02355469 -11.26820312 13.01195313 -12 13 C-12 12.67 -12 12.34 -12 12 C-7.545 11.505 -7.545 11.505 -3 11 C-2.690625 9.55625 -2.38125 8.1125 -2.0625 6.625 C-1.54516353 4.21076314 -1.10514766 2.21029533 0 0 Z " fill="#2B5F91" transform="translate(73,54)"/>
<path d="M0 0 C0 0.66 0 1.32 0 2 C1.32 2.33 2.64 2.66 4 3 C3.01 3.66 2.02 4.32 1 5 C0.67 5.99 0.34 6.98 0 8 C-0.66 8 -1.32 8 -2 8 C-2.33 7.01 -2.66 6.02 -3 5 C-3.66 4.34 -4.32 3.68 -5 3 C-2.25 0 -2.25 0 0 0 Z " fill="#CFDCE6" transform="translate(134,48)"/>
<path d="M0 0 C0.66 0.33 1.32 0.66 2 1 C1.67 1.763125 1.34 2.52625 1 3.3125 C-0.17436686 5.99069135 -0.17436686 5.99069135 0 9 C-0.99 7.68 -1.98 6.36 -3 5 C-1.125 1.125 -1.125 1.125 0 0 Z " fill="#9E445A" transform="translate(92,103)"/>
</svg>
