<?xml version="1.0" standalone="no"?>
<!DOCTYPE svg PUBLIC "-//W3C//DTD SVG 20010904//EN"
 "http://www.w3.org/TR/2001/REC-SVG-20010904/DTD/svg10.dtd">
<svg version="1.0" xmlns="http://www.w3.org/2000/svg"
 width="200.000000pt" height="200.000000pt" viewBox="0 0 200.000000 200.000000"
 preserveAspectRatio="xMidYMid meet">
<metadata>
Created by potrace 1.16, written by Peter Selinger 2001-2019
</metadata>
<g transform="translate(0.000000,200.000000) scale(0.100000,-0.100000)"
fill="#000000" stroke="none">
<path d="M855 1684 c-80 -13 -199 -51 -280 -90 -280 -135 -437 -370 -422 -634
8 -153 61 -271 176 -392 223 -237 599 -332 939 -237 469 131 707 560 516 929
-96 185 -286 330 -519 396 -73 21 -117 26 -235 29 -80 2 -158 1 -175 -1z
m-254 -561 c48 -28 49 -63 3 -63 -14 0 -35 7 -48 15 -21 14 -24 14 -36 0 -10
-13 -7 -19 20 -43 71 -60 110 -100 110 -115 0 -9 -11 -29 -24 -44 -22 -25 -31
-28 -85 -28 -52 0 -64 4 -87 27 -17 16 -24 32 -21 42 9 23 59 20 80 -5 21 -24
41 -21 45 8 2 15 -11 30 -47 56 -28 20 -58 48 -67 63 -16 24 -16 29 -3 53 28
50 105 67 160 34z m269 2 c16 -19 -1 -42 -33 -47 -19 -3 -22 -9 -23 -53 -1
-168 -2 -174 -29 -181 -46 -12 -55 8 -55 122 0 101 -1 105 -24 114 -32 12 -41
28 -26 45 18 21 173 21 190 0z m142 3 c15 -12 68 -211 68 -256 0 -47 -62 -40
-79 9 -13 38 -52 38 -61 -1 -7 -29 -53 -51 -72 -32 -13 13 34 231 58 270 16
25 60 30 86 10z m292 -17 c36 -34 42 -74 18 -115 -20 -33 -20 -34 -1 -76 25
-56 24 -68 -6 -76 -31 -8 -60 15 -70 54 -16 65 -45 63 -45 -3 0 -40 -3 -45
-26 -51 -14 -4 -30 -2 -35 3 -5 5 -12 63 -15 129 -9 161 -5 167 86 162 55 -3
74 -8 94 -27z m256 14 c16 -19 -1 -42 -33 -47 -21 -3 -22 -9 -25 -115 -3 -111
-3 -113 -27 -119 -47 -12 -55 8 -55 127 0 100 -2 109 -19 109 -28 0 -47 26
-31 45 9 11 34 15 95 15 61 0 86 -4 95 -15z"/>
</g>
</svg>
