<?xml version="1.0" encoding="UTF-8"?>
<svg version="1.1" xmlns="http://www.w3.org/2000/svg" width="400" height="400">
<path d="M0 0 C9.13843897 -0.42059761 15.75351144 1.21705101 24.078125 4.7578125 C42.04788695 12.16841946 61.90170361 10.35384505 79.734375 3.640625 C95.90213891 -2.34278032 113.15408173 -0.32755658 128.828125 6.734375 C134.05156841 9.48651185 139.12621301 12.5643885 143.734375 16.265625 C143.734375 16.925625 143.734375 17.585625 143.734375 18.265625 C144.33765625 18.53761719 144.9409375 18.80960938 145.5625 19.08984375 C157.25875113 25.42180704 163.96225607 43.63949171 167.80053711 55.58325195 C170.79160131 66.30842493 171.51085949 76.61066647 171.53051758 87.72216797 C171.54698346 90.65997557 171.63304449 93.59090142 171.72070312 96.52734375 C171.94476915 112.19338996 171.94476915 112.19338996 166.30859375 118.4296875 C164.80549643 119.73370606 163.28404675 121.01731276 161.734375 122.265625 C161.074375 123.255625 160.414375 124.245625 159.734375 125.265625 C159.074375 125.265625 158.414375 125.265625 157.734375 125.265625 C157.486875 125.8225 157.239375 126.379375 156.984375 126.953125 C155.50512682 129.68973413 153.79970061 131.94213369 151.734375 134.265625 C151.074375 134.265625 150.414375 134.265625 149.734375 134.265625 C149.734375 134.925625 149.734375 135.585625 149.734375 136.265625 C149.074375 136.265625 148.414375 136.265625 147.734375 136.265625 C147.425 137.049375 147.115625 137.833125 146.796875 138.640625 C145.734375 141.265625 145.734375 141.265625 144.734375 143.265625 C149.02177937 141.90383164 151.08736362 140.09467175 153.921875 136.640625 C155.15279951 135.14845265 156.41545892 133.68062106 157.734375 132.265625 C158.394375 132.265625 159.054375 132.265625 159.734375 132.265625 C159.94964844 131.72164062 160.16492188 131.17765625 160.38671875 130.6171875 C162.19817141 127.45633387 164.68933523 125.13798704 167.296875 122.640625 C170.96151516 119.30159598 170.96151516 119.30159598 173.734375 115.265625 C174.394375 115.265625 175.054375 115.265625 175.734375 115.265625 C176.0746875 114.4303125 176.0746875 114.4303125 176.421875 113.578125 C178.09334266 110.63315816 180.28713852 108.58405956 182.734375 106.265625 C182.41210938 105.26015625 182.08984375 104.2546875 181.7578125 103.21875 C177.9998677 89.929593 181.61055379 74.92208097 183.76171875 61.6484375 C184.56778746 56.63680939 185.11329674 51.6579729 185.46606445 46.5949707 C186.02009697 41.7851215 187.70998001 38.43636213 190.921875 34.765625 C194.94516571 32.61986996 197.32035058 33.36785732 201.734375 34.265625 C201.734375 34.925625 201.734375 35.585625 201.734375 36.265625 C202.394375 36.265625 203.054375 36.265625 203.734375 36.265625 C205.55235154 41.89524142 206.31387605 47.3233617 206.859375 53.203125 C206.98892578 54.51506836 206.98892578 54.51506836 207.12109375 55.85351562 C207.33127197 57.99032754 207.53363018 60.12790622 207.734375 62.265625 C208.47939774 61.51727135 208.47939774 61.51727135 209.23947144 60.75379944 C213.91608544 56.05716505 218.59508987 51.36292705 223.27680779 46.67138004 C225.68375362 44.25921115 228.08975855 41.84611899 230.49365234 39.4309082 C233.25602911 36.65560806 236.02242889 33.88433813 238.7890625 31.11328125 C240.0860054 29.80859642 240.0860054 29.80859642 241.40914917 28.47755432 C242.61016769 27.2764225 242.61016769 27.2764225 243.83544922 26.05102539 C244.5416037 25.3426503 245.24775818 24.63427521 245.97531128 23.9044342 C248.26230413 21.77378659 249.42130584 21.30736755 252.546875 20.890625 C256.7582015 21.38607518 258.03982519 23.10915237 260.734375 26.265625 C261.064375 26.595625 261.394375 26.925625 261.734375 27.265625 C262.27460803 30.57455232 262.51447956 33.11053947 260.57177734 35.98706055 C254.3992942 42.78123931 247.83502921 49.18355741 241.25195312 55.57666016 C239.70029002 57.0860656 238.15817879 58.60471156 236.6171875 60.125 C235.70340332 61.01670898 234.78961914 61.90841797 233.84814453 62.82714844 C231.85559845 65.1257798 231.0788336 66.2975832 230.734375 69.265625 C236.21192744 65.97812993 240.34523071 61.83491268 244.765625 57.25390625 C246.3133739 55.67601217 247.86156429 54.09855105 249.41015625 52.52148438 C251.83135233 50.04439939 254.24842064 47.56361664 256.65771484 45.07495117 C258.99506731 42.66510608 261.34778559 40.27115596 263.703125 37.87890625 C264.41891724 37.13103348 265.13470947 36.38316071 265.87219238 35.61262512 C270.90994755 30.52431507 270.90994755 30.52431507 275.06835938 29.21948242 C278.53224254 29.27943425 280.05191994 30.09066144 282.734375 32.265625 C285.09660314 35.17903971 285.76334152 36.55594523 285.609375 40.328125 C284.72746706 43.28881595 283.86713104 45.04755872 281.734375 47.265625 C281.074375 47.265625 280.414375 47.265625 279.734375 47.265625 C279.074375 48.585625 278.414375 49.905625 277.734375 51.265625 C277.074375 51.265625 276.414375 51.265625 275.734375 51.265625 C275.5075 51.8225 275.280625 52.379375 275.046875 52.953125 C273.35887464 55.92722088 271.26760983 57.98571365 268.734375 60.265625 C268.074375 60.265625 267.414375 60.265625 266.734375 60.265625 C266.734375 60.925625 266.734375 61.585625 266.734375 62.265625 C266.074375 62.265625 265.414375 62.265625 264.734375 62.265625 C264.404375 63.255625 264.074375 64.245625 263.734375 65.265625 C263.074375 65.265625 262.414375 65.265625 261.734375 65.265625 C261.404375 66.255625 261.074375 67.245625 260.734375 68.265625 C258.796875 70.453125 258.796875 70.453125 256.734375 72.265625 C256.074375 72.265625 255.414375 72.265625 254.734375 72.265625 C254.47914063 72.83796875 254.22390625 73.4103125 253.9609375 74 C252.60350341 76.50736233 251.01463396 78.3986706 249.109375 80.515625 C248.47773438 81.22203125 247.84609375 81.9284375 247.1953125 82.65625 C246.71320313 83.18734375 246.23109375 83.7184375 245.734375 84.265625 C251.0119284 82.78753663 253.9382806 79.38146963 257.609375 75.54296875 C258.93740263 74.18675361 260.26553068 72.83063679 261.59375 71.47460938 C263.67047741 69.33562936 265.74375902 67.19340505 267.81445312 65.04858398 C269.8209517 62.97575684 271.83948911 60.91523984 273.859375 58.85546875 C274.47409668 58.21069077 275.08881836 57.56591278 275.72216797 56.90159607 C278.24917258 54.33139275 280.04329346 52.51619149 283.46484375 51.27563477 C286.82906055 51.26079689 288.91462031 52.51111097 291.734375 54.265625 C293.83431651 57.41553726 294.26489487 59.36755176 294.1953125 63.125 C293.35987941 67.0048079 290.73737862 69.77608832 287.734375 72.265625 C287.074375 72.265625 286.414375 72.265625 285.734375 72.265625 C285.734375 72.925625 285.734375 73.585625 285.734375 74.265625 C283.359375 76.890625 283.359375 76.890625 280.734375 79.265625 C280.074375 79.265625 279.414375 79.265625 278.734375 79.265625 C278.734375 79.925625 278.734375 80.585625 278.734375 81.265625 C276.859375 83.390625 276.859375 83.390625 274.734375 85.265625 C274.074375 85.265625 273.414375 85.265625 272.734375 85.265625 C272.734375 85.925625 272.734375 86.585625 272.734375 87.265625 C272.074375 87.265625 271.414375 87.265625 270.734375 87.265625 C270.734375 87.925625 270.734375 88.585625 270.734375 89.265625 C270.074375 89.265625 269.414375 89.265625 268.734375 89.265625 C268.734375 89.925625 268.734375 90.585625 268.734375 91.265625 C268.074375 91.265625 267.414375 91.265625 266.734375 91.265625 C266.734375 91.925625 266.734375 92.585625 266.734375 93.265625 C266.074375 93.265625 265.414375 93.265625 264.734375 93.265625 C264.734375 93.925625 264.734375 94.585625 264.734375 95.265625 C264.074375 95.595625 263.414375 95.925625 262.734375 96.265625 C262.08224208 98.29025755 262.08224208 98.29025755 261.734375 100.265625 C266.86758777 97.14003379 270.81966246 93.38842601 274.984375 89.078125 C276.21651179 87.81162076 277.45078578 86.54719112 278.6875 85.28515625 C279.22536133 84.72932861 279.76322266 84.17350098 280.31738281 83.60083008 C282.4006284 81.63782696 283.67967534 81.27291829 286.546875 80.890625 C290.7582015 81.38607518 292.03982519 83.10915237 294.734375 86.265625 C295.064375 86.595625 295.394375 86.925625 295.734375 87.265625 C296.35155299 90.16636154 296.50888485 91.46312227 295.734375 94.265625 C293.11004574 97.96691957 289.94596568 101.07289829 286.734375 104.265625 C285.82558594 105.21050781 284.91679687 106.15539062 283.98046875 107.12890625 C279.0119377 112.24208158 279.0119377 112.24208158 276.734375 114.265625 C276.074375 114.265625 275.414375 114.265625 274.734375 114.265625 C274.734375 114.925625 274.734375 115.585625 274.734375 116.265625 C274.074375 116.265625 273.414375 116.265625 272.734375 116.265625 C272.734375 116.925625 272.734375 117.585625 272.734375 118.265625 C272.074375 118.265625 271.414375 118.265625 270.734375 118.265625 C270.734375 118.925625 270.734375 119.585625 270.734375 120.265625 C269.09086043 121.62739422 267.41914844 122.95524566 265.734375 124.265625 C263.35201606 126.5818073 261.03427517 128.94366458 258.76953125 131.375 C252.11460413 138.34571453 244.73488895 144.95810888 234.7109375 145.3984375 C233.60492188 145.39585937 232.49890625 145.39328125 231.359375 145.390625 C230.25851562 145.39320313 229.15765625 145.39578125 228.0234375 145.3984375 C224.734375 145.265625 224.734375 145.265625 221.64453125 144.46484375 C218.57752037 143.94121455 218.57752037 143.94121455 216.06640625 146.21484375 C215.23496094 147.11847656 214.40351563 148.02210938 213.546875 148.953125 C212.28810547 150.28923828 212.28810547 150.28923828 211.00390625 151.65234375 C208.75717841 154.15852681 208.75717841 154.15852681 207.05859375 156.59765625 C206.62160156 157.14808594 206.18460937 157.69851563 205.734375 158.265625 C205.074375 158.265625 204.414375 158.265625 203.734375 158.265625 C203.734375 158.925625 203.734375 159.585625 203.734375 160.265625 C201.859375 162.390625 201.859375 162.390625 199.734375 164.265625 C199.074375 164.265625 198.414375 164.265625 197.734375 164.265625 C197.074375 165.585625 196.414375 166.905625 195.734375 168.265625 C195.074375 168.265625 194.414375 168.265625 193.734375 168.265625 C193.074375 169.585625 192.414375 170.905625 191.734375 172.265625 C191.074375 172.265625 190.414375 172.265625 189.734375 172.265625 C189.46955322 172.85279297 189.20473145 173.43996094 188.93188477 174.04492188 C186.86636463 177.87529317 183.71559406 180.6950759 180.671875 183.765625 C180.04087891 184.42949219 179.40988281 185.09335937 178.75976562 185.77734375 C174.18451264 190.40338158 169.79885301 192.98467122 163.734375 195.265625 C163.074375 195.595625 162.414375 195.925625 161.734375 196.265625 C153.52293527 196.98592673 147.34972158 194.57617366 140.921875 189.453125 C134.86385938 183.83083673 133.22092767 178.45619036 132.734375 170.265625 C132.63376733 165.68753242 132.63315612 161.11244622 132.65921021 156.53373146 C132.67211798 154.24201659 132.67852524 151.95036043 132.68334961 149.65861511 C132.69470192 144.79842513 132.7139577 139.93828425 132.734375 135.078125 C132.75804155 129.43114752 132.77839711 123.78419777 132.79031372 118.13718224 C132.79676186 115.88713694 132.80926456 113.63717831 132.82202148 111.38716125 C132.8256556 110.00135369 132.82900713 108.61554535 132.83203125 107.22973633 C132.83726807 106.02666336 132.84250488 104.82359039 132.84790039 103.58406067 C132.73858561 100.3887044 132.33828662 97.40166299 131.734375 94.265625 C128.15109747 93.26345436 128.15109747 93.26345436 124.734375 94.265625 C124.404375 127.925625 124.074375 161.585625 123.734375 196.265625 C75.554375 196.265625 27.374375 196.265625 -22.265625 196.265625 C-22.595625 162.605625 -22.925625 128.945625 -23.265625 94.265625 C-27.24734238 93.5447205 -27.24734238 93.5447205 -31.265625 93.265625 C-31.595625 127.255625 -31.925625 161.245625 -32.265625 196.265625 C-44.805625 196.265625 -57.345625 196.265625 -70.265625 196.265625 C-70.31090228 180.58331768 -70.34768974 164.9010628 -70.36924934 149.21870899 C-70.37952923 141.93590251 -70.39352609 134.65313974 -70.41650391 127.37036133 C-70.4365391 121.01717255 -70.44936528 114.66401546 -70.45380199 108.31079596 C-70.45639237 104.95181083 -70.46348665 101.5929876 -70.47708511 98.23401833 C-70.4917121 94.46951667 -70.49359826 90.70519957 -70.49267578 86.94067383 C-70.49986633 85.84662231 -70.50705688 84.7525708 -70.51446533 83.62536621 C-70.48629593 72.92455377 -69.12682341 62.47043443 -65.640625 52.328125 C-65.38047607 51.56870605 -65.12032715 50.80928711 -64.85229492 50.02685547 C-57.79196509 30.29270577 -44.33013844 14.6203547 -25.3203125 5.55078125 C-17.08649569 2.08668185 -8.83733641 0.71882641 0 0 Z " fill="#FFFFFF" transform="translate(84.265625,190.734375)"/>
<path d="M0 0 C12.87632395 10.71373642 20.26499632 25.58261074 22.53515625 42.109375 C24.07221155 59.37168841 17.42158087 76.02208475 6.53515625 89.109375 C-3.43537202 100.51969075 -17.49307256 109.0006542 -32.88134766 110.31591797 C-35.49617847 110.41306183 -38.0982748 110.43850473 -40.71484375 110.421875 C-41.64216309 110.41623535 -42.56948242 110.4105957 -43.52490234 110.40478516 C-61.03652715 110.09541414 -74.47874566 102.81447555 -87.02734375 90.921875 C-99.58374377 77.9116292 -104.27543233 63.0230172 -104.05444336 45.26464844 C-103.4976607 31.43527351 -98.97731085 19.08350478 -90.46484375 8.109375 C-89.80484375 8.109375 -89.14484375 8.109375 -88.46484375 8.109375 C-88.06845703 7.21025391 -88.06845703 7.21025391 -87.6640625 6.29296875 C-84.5581457 0.63756976 -77.76283078 -3.42655656 -72.46484375 -6.890625 C-71.47484375 -6.890625 -70.48484375 -6.890625 -69.46484375 -6.890625 C-69.46484375 -7.550625 -69.46484375 -8.210625 -69.46484375 -8.890625 C-44.32568066 -18.73600066 -21.61793732 -16.5817459 0 0 Z " fill="#FFFFFF" transform="translate(175.46484375,64.890625)"/>
<path d="M0 0 C20.596256 14.84484866 33.07795142 35.18483182 37.22265625 60.140625 C39.97041091 82.72524008 34.49889352 105.52420209 20.66796875 123.80078125 C20.00796875 123.80078125 19.34796875 123.80078125 18.66796875 123.80078125 C18.48234375 124.48140625 18.29671875 125.16203125 18.10546875 125.86328125 C11.23382411 139.90533769 -8.83057733 149.08769968 -22.64453125 154.61328125 C-31.5940853 157.49534103 -39.80039023 158.13832556 -49.20703125 158.11328125 C-51.01107422 158.13745117 -51.01107422 158.13745117 -52.8515625 158.16210938 C-60.50004232 158.16626164 -67.0892425 157.24833917 -74.33203125 154.80078125 C-76.06259766 154.23617187 -76.06259766 154.23617187 -77.828125 153.66015625 C-91.02369321 148.68334168 -102.23361574 141.62230472 -112.33203125 131.80078125 C-112.33203125 131.14078125 -112.33203125 130.48078125 -112.33203125 129.80078125 C-112.99203125 129.80078125 -113.65203125 129.80078125 -114.33203125 129.80078125 C-124.60814461 117.78641986 -131.99993656 104.33346881 -135.33203125 88.80078125 C-135.50186523 88.0322583 -135.67169922 87.26373535 -135.84667969 86.47192383 C-139.81492775 64.6325868 -134.25953298 42.29570614 -122.12255859 23.97509766 C-106.94555272 2.32336129 -86.74656994 -9.94220523 -60.89208984 -14.78320312 C-39.60044403 -18.24314633 -17.74010842 -11.70888751 0 0 Z M-100.33203125 25.80078125 C-100.863125 26.32671875 -101.39421875 26.85265625 -101.94140625 27.39453125 C-113.01537568 38.95849933 -118.25011206 55.34196939 -118.89453125 71.11328125 C-118.34838629 87.81474633 -112.49491194 104.22223378 -101.33203125 116.80078125 C-100.67203125 116.80078125 -100.01203125 116.80078125 -99.33203125 116.80078125 C-99.08453125 117.41953125 -98.83703125 118.03828125 -98.58203125 118.67578125 C-97.12574486 121.15146812 -95.95390619 121.75203127 -93.33203125 122.80078125 C-93.33203125 123.46078125 -93.33203125 124.12078125 -93.33203125 124.80078125 C-78.02180696 136.32159787 -58.95270603 141.9276237 -39.91796875 139.3359375 C-20.68263096 135.66689451 -3.47499825 126.81073334 7.85546875 110.36328125 C18.85204321 93.00794489 21.7608205 74.12698227 17.953125 54.02734375 C14.4719953 41.68651485 7.6578418 31.7906543 -1.33203125 22.80078125 C-2.41484375 21.71796875 -2.41484375 21.71796875 -3.51953125 20.61328125 C-17.41965444 7.50745081 -35.07383483 3.19934204 -53.77734375 3.5234375 C-71.7731571 4.29337332 -88.17061156 12.67924948 -100.33203125 25.80078125 Z " fill="#E5212A" transform="translate(348.33203125,29.19921875)"/>
<path d="M0 0 C0.89323975 0.00016113 1.78647949 0.00032227 2.70678711 0.00048828 C10.76832661 0.1402285 16.61009997 1.90673331 23.3125 6.375 C23.3125 7.035 23.3125 7.695 23.3125 8.375 C24.3025 8.375 25.2925 8.375 26.3125 8.375 C31.58923022 15.48711464 35.01438453 24.53125492 34.3125 33.375 C31.54579518 44.39181858 25.59217783 51.61915942 17.1015625 58.84765625 C10.9058464 64.13701213 10.02391827 69.58804687 8.3125 77.375 C1.3825 77.375 -5.5475 77.375 -12.6875 77.375 C-12.18403816 62.77460657 -6.75670062 55.44420062 3.3125 45.375 C8.28482822 39.93497754 11.81131279 35.91562249 11.640625 28.27734375 C11.13469989 25.34418269 9.64826832 24.09247671 7.3125 22.375 C3.38459847 20.41104924 -1.39620623 21.03605437 -5.6875 21.375 C-9.05892204 22.5579551 -10.91114061 23.30288465 -13 26.1875 C-13.83547621 28.8458334 -14.22939707 31.62638241 -14.6875 34.375 C-21.6175 34.375 -28.5475 34.375 -35.6875 34.375 C-35.6875 24.69831689 -32.82446041 17.80395208 -26.6875 10.375 C-26.0275 10.375 -25.3675 10.375 -24.6875 10.375 C-24.6875 9.715 -24.6875 9.055 -24.6875 8.375 C-22.67578125 6.9375 -22.67578125 6.9375 -20 5.375 C-19.12988281 4.859375 -18.25976562 4.34375 -17.36328125 3.8125 C-11.36860732 0.59200364 -6.74097652 -0.01121109 0 0 Z " fill="#E5212A" transform="translate(300.6875,45.625)"/>
<path d="M0 0 C3.92274177 3.05102138 6.22430244 6.36345638 8 11 C7.72542032 15.5305647 4.44640498 19.33039253 2 23 C-2.30978088 24.76701016 -6.04676196 25.23412864 -10.5625 24.125 C-11.366875 23.75375 -12.17125 23.3825 -13 23 C-13 22.34 -13 21.68 -13 21 C-13.66 21 -14.32 21 -15 21 C-17.81702982 17.53288638 -18.54138436 14.45635699 -18.34765625 9.9921875 C-17.53464835 5.33337819 -14.99482897 2.70090223 -11.25 0.0625 C-7.15014773 -1.27783632 -4.09835386 -1.38023074 0 0 Z " fill="#E5212A" transform="translate(305,132)"/>
</svg>
